<svg width="25" height="28" viewBox="0 0 25 28" fill="none" xmlns="http://www.w3.org/2000/svg">
<g id="material-symbols:star">
<path id="Vector" fill-rule="evenodd" clip-rule="evenodd" d="M15.8 4.47067C16.64 3.28767 17.204 1.63917 17.05 0C15.842 0.0571667 14.38 0.939167 13.515 2.12217C12.738 3.16983 12.058 4.84633 12.242 6.45283C13.588 6.57533 14.964 5.65483 15.802 4.47067M18.822 14.875C18.856 19.1123 22.008 20.5228 22.042 20.5415C22.017 20.6407 21.54 22.5505 20.382 24.5233C19.382 26.229 18.344 27.9288 16.708 27.9638C15.101 27.9977 14.585 26.852 12.747 26.852C10.911 26.852 10.337 27.9288 8.815 27.9977C7.237 28.0677 6.03501 26.1532 5.02501 24.4545C2.96501 20.9778 1.39001 14.6312 3.50501 10.3472C4.55401 8.21917 6.432 6.87167 8.47001 6.83783C10.02 6.80283 11.483 8.05467 12.43 8.05467C13.378 8.05467 15.156 6.54967 17.025 6.77017C17.808 6.80867 20.004 7.13883 21.415 9.548C21.301 9.62967 18.794 11.333 18.821 14.875" fill="white"/>
</g>
</svg>
