<svg width="224" height="215" viewBox="0 0 224 215" fill="none" xmlns="http://www.w3.org/2000/svg">
<g opacity="0.5" filter="url(#filter0_f_397_28390)">
<circle cx="112" cy="103" r="64" fill="url(#paint0_radial_397_28390)"/>
</g>
<g clip-path="url(#clip0_397_28390)">
<path d="M84.0985 144.189C83.9459 144.317 83.7508 144.419 83.5131 144.495C83.2729 144.57 82.9977 144.607 82.6825 144.607C82.2622 144.607 81.917 144.555 81.6418 144.449C81.3666 144.344 81.189 144.164 81.109 143.905C80.7837 142.877 80.5135 142.045 80.3059 141.408C80.0958 140.771 79.9331 140.214 79.8156 139.735H79.728C79.693 140.425 79.668 141.052 79.6505 141.619C79.6329 142.185 79.6204 142.737 79.6154 143.273C79.6104 143.81 79.5979 144.354 79.5804 144.903C79.5629 145.452 79.5379 146.059 79.5029 146.726C79.3503 146.784 79.1526 146.834 78.9074 146.874C78.6623 146.914 78.4171 146.934 78.1744 146.934C77.6616 146.934 77.2613 146.852 76.9761 146.689C76.6909 146.526 76.5483 146.227 76.5483 145.796L77.0562 136.859C77.1487 136.706 77.3539 136.543 77.6691 136.368C77.9843 136.192 78.4271 136.105 78.9975 136.105C79.6154 136.105 80.0983 136.2 80.4485 136.393C80.7987 136.586 81.0539 136.897 81.2165 137.331C81.3216 137.612 81.4342 137.933 81.5568 138.294C81.6793 138.655 81.8019 139.028 81.9245 139.414C82.0471 139.801 82.1672 140.182 82.2822 140.563C82.3998 140.941 82.5024 141.285 82.5975 141.588H82.685C82.9652 140.608 83.2454 139.658 83.5231 138.742C83.8033 137.825 84.0585 137.057 84.2911 136.438C84.4662 136.345 84.6914 136.265 84.9641 136.202C85.2368 136.14 85.5445 136.107 85.8822 136.107C86.4526 136.107 86.9204 136.192 87.2807 136.36C87.6409 136.531 87.851 136.772 87.9111 137.088C87.9586 137.321 88.0062 137.682 88.0587 138.166C88.1112 138.65 88.1663 139.196 88.2238 139.803C88.2813 140.41 88.3414 141.054 88.3989 141.731C88.4565 142.408 88.5115 143.06 88.564 143.685C88.6166 144.309 88.6591 144.883 88.6941 145.402C88.7291 145.921 88.7517 146.322 88.7642 146.603C88.5665 146.721 88.3589 146.804 88.1437 146.857C87.9286 146.909 87.6509 146.934 87.3132 146.934C86.8704 146.934 86.4976 146.859 86.1949 146.706C85.8922 146.556 85.7296 146.257 85.7046 145.813C85.6345 144.54 85.592 143.396 85.5745 142.378C85.557 141.36 85.532 140.51 85.4969 139.821H85.4094C85.2918 140.277 85.1242 140.849 84.9015 141.538C84.6814 142.233 84.4137 143.115 84.0985 144.189Z" fill="#EFECF7"/>
<path d="M93.9752 138.023C94.6057 138.023 95.1785 138.088 95.6964 138.216C96.2143 138.344 96.6571 138.539 97.0248 138.803C97.3926 139.066 97.6753 139.399 97.8729 139.801C98.0705 140.204 98.1706 140.681 98.1706 141.23V145.154C98.1706 145.457 98.0855 145.706 97.9179 145.899C97.7478 146.092 97.5477 146.257 97.315 146.398C96.557 146.854 95.4913 147.082 94.1153 147.082C93.4974 147.082 92.942 147.025 92.4467 146.907C91.9513 146.791 91.5261 146.616 91.1708 146.38C90.8156 146.147 90.5404 145.849 90.3503 145.488C90.1576 145.126 90.0626 144.705 90.0626 144.226C90.0626 143.421 90.3002 142.802 90.778 142.368C91.2559 141.937 91.9964 141.669 92.9971 141.563L95.2861 141.318V141.195C95.2861 140.856 95.1385 140.613 94.8408 140.468C94.5431 140.322 94.1153 140.249 93.5549 140.249C93.1121 140.249 92.6818 140.297 92.2616 140.39C91.8413 140.483 91.4635 140.6 91.1258 140.741C90.9732 140.636 90.8456 140.475 90.7405 140.259C90.6355 140.044 90.5829 139.818 90.5829 139.585C90.5829 139.282 90.6555 139.038 90.8006 138.858C90.9457 138.677 91.1708 138.522 91.4735 138.394C91.8113 138.266 92.2115 138.173 92.6718 138.113C93.1347 138.05 93.5675 138.023 93.9752 138.023ZM94.1153 144.908C94.313 144.908 94.5331 144.888 94.7708 144.848C95.0084 144.808 95.1886 144.753 95.3036 144.683V143.281L94.0453 143.386C93.7201 143.409 93.4499 143.479 93.2422 143.597C93.0321 143.715 92.927 143.89 92.927 144.123C92.927 144.357 93.0171 144.547 93.1972 144.693C93.3773 144.836 93.685 144.908 94.1153 144.908Z" fill="#EFECF7"/>
<path d="M102.961 143.875C102.961 144.179 103.056 144.394 103.249 144.525C103.442 144.653 103.712 144.718 104.062 144.718C104.237 144.718 104.417 144.703 104.605 144.675C104.79 144.645 104.955 144.607 105.095 144.562C105.2 144.69 105.29 144.833 105.365 144.991C105.441 145.149 105.478 145.34 105.478 145.56C105.478 146.004 105.313 146.365 104.98 146.646C104.648 146.927 104.062 147.067 103.224 147.067C102.198 147.067 101.408 146.834 100.855 146.368C100.302 145.901 100.024 145.141 100.024 144.091V136.591C100.152 136.556 100.337 136.518 100.575 136.478C100.812 136.438 101.068 136.416 101.335 136.416C101.848 136.416 102.246 136.506 102.534 136.686C102.819 136.867 102.961 137.251 102.961 137.835V138.956H105.25C105.32 139.083 105.388 139.244 105.451 139.437C105.516 139.63 105.546 139.843 105.546 140.076C105.546 140.485 105.456 140.781 105.275 140.962C105.095 141.142 104.853 141.232 104.55 141.232H102.959V143.875H102.961Z" fill="#EFECF7"/>
<path d="M115.372 146.784C115.255 146.819 115.072 146.854 114.822 146.889C114.572 146.924 114.312 146.942 114.044 146.942C113.789 146.942 113.556 146.924 113.353 146.889C113.148 146.854 112.978 146.784 112.838 146.679C112.698 146.573 112.59 146.43 112.515 146.25C112.44 146.069 112.403 145.831 112.403 145.54V141.649C112.403 141.17 112.283 140.834 112.045 140.641C111.805 140.448 111.512 140.352 111.162 140.352C110.929 140.352 110.707 140.382 110.496 140.44C110.286 140.498 110.119 140.568 109.989 140.651V146.784C109.871 146.819 109.688 146.854 109.438 146.889C109.188 146.924 108.928 146.942 108.66 146.942C108.403 146.942 108.172 146.924 107.97 146.889C107.765 146.854 107.594 146.784 107.454 146.679C107.314 146.573 107.207 146.43 107.132 146.25C107.057 146.069 107.019 145.831 107.019 145.54V135.377C107.147 135.355 107.337 135.322 107.587 135.282C107.837 135.242 108.09 135.222 108.348 135.222C108.603 135.222 108.833 135.24 109.038 135.275C109.241 135.31 109.413 135.38 109.553 135.485C109.693 135.591 109.801 135.734 109.876 135.914C109.951 136.095 109.989 136.333 109.989 136.624V138.341C110.139 138.284 110.371 138.216 110.679 138.141C110.987 138.065 111.33 138.028 111.702 138.028C112.856 138.028 113.756 138.316 114.404 138.895C115.052 139.475 115.375 140.335 115.375 141.481V146.784H115.372Z" fill="#EFECF7"/>
<path d="M120.233 146.784C120.106 146.806 119.915 146.839 119.665 146.879C119.415 146.919 119.16 146.939 118.905 146.939C118.647 146.939 118.417 146.922 118.214 146.887C118.009 146.852 117.839 146.781 117.699 146.676C117.559 146.571 117.451 146.428 117.376 146.247C117.301 146.067 117.264 145.829 117.264 145.538V135.375C117.391 135.352 117.581 135.32 117.831 135.28C118.082 135.24 118.334 135.219 118.592 135.219C118.847 135.219 119.077 135.237 119.282 135.272C119.485 135.307 119.658 135.377 119.798 135.483C119.938 135.588 120.045 135.731 120.121 135.912C120.196 136.092 120.233 136.33 120.233 136.621V146.784Z" fill="#53B9D0"/>
<path d="M126.595 147.08C125.907 147.08 125.269 146.984 124.681 146.791C124.093 146.598 123.58 146.31 123.143 145.924C122.705 145.538 122.362 145.054 122.112 144.469C121.862 143.885 121.737 143.203 121.737 142.418C121.737 141.649 121.862 140.984 122.112 140.43C122.362 139.876 122.692 139.419 123.1 139.063C123.508 138.707 123.973 138.444 124.499 138.276C125.024 138.108 125.559 138.023 126.107 138.023C126.725 138.023 127.288 138.116 127.793 138.304C128.301 138.492 128.736 138.747 129.104 139.076C129.472 139.402 129.757 139.793 129.96 140.249C130.162 140.706 130.265 141.202 130.265 141.739C130.265 142.135 130.155 142.438 129.932 142.649C129.71 142.86 129.402 142.993 129.007 143.053L124.689 143.702C124.816 144.088 125.079 144.377 125.474 144.57C125.869 144.763 126.325 144.858 126.838 144.858C127.315 144.858 127.766 144.798 128.194 144.675C128.619 144.552 128.967 144.409 129.234 144.246C129.419 144.364 129.577 144.527 129.707 144.738C129.835 144.948 129.9 145.169 129.9 145.405C129.9 145.931 129.655 146.322 129.164 146.578C128.791 146.776 128.371 146.912 127.906 146.982C127.441 147.045 127.003 147.08 126.595 147.08ZM126.107 140.194C125.827 140.194 125.587 140.242 125.382 140.335C125.176 140.427 125.011 140.548 124.884 140.693C124.756 140.839 124.659 141.004 124.596 141.185C124.531 141.365 124.494 141.551 124.484 141.736L127.473 141.245C127.438 141.012 127.31 140.779 127.088 140.545C126.863 140.312 126.537 140.194 126.107 140.194Z" fill="#53B9D0"/>
<path d="M134.673 143.875C134.673 144.179 134.768 144.394 134.961 144.525C135.153 144.653 135.423 144.718 135.774 144.718C135.949 144.718 136.129 144.703 136.317 144.675C136.502 144.645 136.667 144.607 136.807 144.562C136.912 144.69 137.002 144.833 137.077 144.991C137.152 145.149 137.19 145.34 137.19 145.56C137.19 146.004 137.025 146.365 136.692 146.646C136.359 146.927 135.774 147.067 134.936 147.067C133.91 147.067 133.119 146.834 132.567 146.368C132.014 145.901 131.736 145.141 131.736 144.091V136.591C131.864 136.556 132.049 136.518 132.286 136.478C132.524 136.438 132.779 136.416 133.047 136.416C133.56 136.416 133.957 136.506 134.245 136.686C134.53 136.867 134.673 137.251 134.673 137.835V138.956H136.962C137.032 139.083 137.1 139.244 137.162 139.437C137.227 139.63 137.257 139.843 137.257 140.076C137.257 140.485 137.167 140.781 136.987 140.962C136.807 141.142 136.564 141.232 136.262 141.232H134.67V143.875H134.673Z" fill="#53B9D0"/>
<path d="M143.081 147.08C142.393 147.08 141.755 146.984 141.167 146.791C140.579 146.598 140.067 146.31 139.629 145.924C139.191 145.538 138.848 145.054 138.598 144.469C138.348 143.885 138.223 143.203 138.223 142.418C138.223 141.649 138.348 140.984 138.598 140.43C138.848 139.876 139.179 139.419 139.586 139.063C139.994 138.707 140.459 138.444 140.985 138.276C141.51 138.108 142.045 138.023 142.593 138.023C143.211 138.023 143.774 138.116 144.279 138.304C144.787 138.492 145.223 138.747 145.59 139.076C145.958 139.402 146.243 139.793 146.446 140.249C146.649 140.706 146.751 141.202 146.751 141.739C146.751 142.135 146.641 142.438 146.418 142.649C146.196 142.86 145.888 142.993 145.493 143.053L141.175 143.702C141.302 144.088 141.565 144.377 141.96 144.57C142.356 144.763 142.811 144.858 143.324 144.858C143.802 144.858 144.252 144.798 144.68 144.675C145.105 144.552 145.453 144.409 145.72 144.246C145.906 144.364 146.063 144.527 146.193 144.738C146.321 144.948 146.386 145.169 146.386 145.405C146.386 145.931 146.141 146.322 145.65 146.578C145.278 146.776 144.857 146.912 144.392 146.982C143.924 147.045 143.489 147.08 143.081 147.08ZM142.591 140.194C142.311 140.194 142.07 140.242 141.865 140.335C141.66 140.427 141.495 140.548 141.368 140.693C141.24 140.839 141.142 141.004 141.08 141.185C141.015 141.365 140.977 141.551 140.967 141.736L143.957 141.245C143.922 141.012 143.794 140.779 143.572 140.545C143.349 140.312 143.021 140.194 142.591 140.194Z" fill="#53B9D0"/>
<path d="M147.644 139.67C147.737 139.226 147.922 138.865 148.195 138.584C148.467 138.304 148.81 138.163 149.218 138.163C149.603 138.163 149.901 138.256 150.108 138.444C150.316 138.632 150.551 138.893 150.806 139.231L151.925 140.703L153.796 138.163C154.436 138.163 154.944 138.276 155.317 138.504C155.69 138.732 155.877 139.038 155.877 139.424C155.877 139.577 155.857 139.713 155.817 139.836C155.777 139.959 155.715 140.084 155.635 140.212C155.552 140.34 155.447 140.485 155.32 140.651C155.192 140.814 155.039 141.007 154.864 141.23L153.711 142.526L156 145.558C155.942 146.001 155.767 146.353 155.475 146.608C155.182 146.864 154.834 146.994 154.426 146.994C153.984 146.982 153.631 146.854 153.368 146.608C153.106 146.363 152.853 146.064 152.608 145.716L151.665 144.367L149.881 146.942C149.823 146.942 149.758 146.944 149.688 146.952C149.618 146.957 149.561 146.962 149.513 146.962C148.918 146.962 148.467 146.839 148.157 146.593C147.849 146.348 147.694 146.044 147.694 145.683C147.694 145.402 147.762 145.154 147.894 144.938C148.027 144.723 148.26 144.427 148.585 144.053L149.983 142.423L147.644 139.67Z" fill="#53B9D0"/>
<path d="M112.756 129.57C112.756 129.588 112.753 129.605 112.753 129.623C112.705 130.039 79.8781 130.325 79.4978 130.322C79.2627 130.322 79.0225 130.342 78.7874 130.348C78.312 130.358 77.8367 130.363 77.3614 130.36C77.1637 130.358 74.8972 130.242 74.8171 130.215C74.8146 130.215 74.8146 130.215 74.8146 130.212C74.7421 130.661 72.4055 142.639 72.3029 143.085C71.9827 144.502 71.5299 145.939 71.007 147.584L71.0045 147.591C70.9295 147.887 70.6468 148.063 70.3741 147.98C70.1865 147.922 70.0514 147.757 70.0114 147.564L69.9939 147.483L69.4285 144.723C69.0682 144.785 67.9975 144.635 67.9975 144.271C67.9975 143.617 70.0164 143.745 70.1565 144.141L70.164 144.171L70.5267 145.5C70.5642 145.304 70.6018 145.109 70.6443 144.916C70.902 143.697 73.5138 130.979 73.9215 129.811C74.0016 129.583 74.1117 129.355 74.2918 129.209C74.597 128.958 75.0023 128.988 75.36 128.948C75.7853 128.903 76.2081 128.871 76.6359 128.856C77.2538 128.833 77.8717 128.838 78.4897 128.861C78.7623 128.871 79.0325 128.891 79.3052 128.903C79.4403 128.908 112.1 128.901 112.235 128.921C112.325 128.933 112.413 128.961 112.493 129.014C112.673 129.129 112.766 129.347 112.756 129.57Z" fill="#EE728E"/>
<path d="M112.756 129.57C112.756 129.588 112.753 129.605 112.753 129.623C112.705 130.039 79.8781 130.325 79.4978 130.322C79.2627 130.322 79.0225 130.342 78.7873 130.348C78.312 130.358 77.8367 130.363 77.3614 130.36C77.1637 130.358 74.8972 130.242 74.8171 130.215C74.7946 130.047 74.7246 129.884 74.622 129.753C76.2206 129.936 77.8217 130.054 79.4253 129.961C79.6229 129.949 112.353 129.934 112.525 129.828C112.625 129.771 112.708 129.676 112.756 129.57Z" fill="#C54969"/>
<path d="M72.3054 143.083C71.9852 144.5 71.5324 145.936 71.0096 147.581L71.0071 147.589C70.932 147.885 70.6493 148.06 70.3766 147.977C70.189 147.92 70.0539 147.754 70.0139 147.561L69.9964 147.481C70.0639 147.601 70.169 147.689 70.2941 147.689C70.4066 147.687 70.5092 147.614 70.5793 147.521C70.6493 147.426 70.6943 147.313 70.7369 147.2C71.2572 145.829 71.7826 144.457 72.3054 143.083Z" fill="#C54969"/>
<mask id="mask0_397_28390" style="mask-type:luminance" maskUnits="userSpaceOnUse" x="68" y="143" width="2" height="2">
<path d="M69.2959 143.923H68.2552V144.138H69.2959V143.923Z" fill="white"/>
</mask>
<g mask="url(#mask0_397_28390)">
<path d="M68.3677 144.033C68.5779 143.978 68.798 143.94 69.0157 143.925C69.0832 143.92 69.1558 143.92 69.2133 143.943C69.2734 143.965 69.3109 144.023 69.2809 144.071C69.2634 144.098 69.2258 144.118 69.1858 144.126C69.1458 144.133 69.1058 144.133 69.0657 144.133C68.8781 144.133 68.693 144.131 68.5053 144.131C68.4503 144.131 68.3202 144.149 68.2752 144.126C68.2051 144.093 68.3277 144.043 68.3677 144.033Z" fill="white"/>
</g>
<mask id="mask1_397_28390" style="mask-type:luminance" maskUnits="userSpaceOnUse" x="75" y="128" width="3" height="2">
<path d="M77.8217 128.996H75.8679V129.342H77.8217V128.996Z" fill="white"/>
</mask>
<g mask="url(#mask1_397_28390)">
<path d="M76.018 129.096C76.4257 129.014 77.5965 128.948 77.7341 129.041C77.8117 129.089 77.8542 129.214 77.7942 129.287C77.7516 129.339 77.6766 129.342 77.6115 129.342C77.2663 129.334 76.9211 129.322 76.5783 129.307C76.4032 129.299 76.2281 129.289 76.053 129.279C76.0055 129.277 75.8904 129.287 75.8729 129.217C75.8554 129.149 75.9279 129.114 76.018 129.096Z" fill="white"/>
</g>
<mask id="mask2_397_28390" style="mask-type:luminance" maskUnits="userSpaceOnUse" x="75" y="129" width="1" height="1">
<path d="M75.6777 129.151H75.3075V129.282H75.6777V129.151Z" fill="white"/>
</mask>
<g mask="url(#mask2_397_28390)">
<path d="M75.3675 129.277C75.3525 129.274 75.34 129.274 75.3275 129.267C75.315 129.259 75.3075 129.244 75.31 129.229C75.3125 129.212 75.33 129.202 75.345 129.197C75.4126 129.169 75.4851 129.154 75.5577 129.154C75.5902 129.154 75.6227 129.156 75.6502 129.176C75.6702 129.192 75.6852 129.224 75.6777 129.249C75.6677 129.282 75.6302 129.277 75.6027 129.279C75.5226 129.284 75.4451 129.284 75.3675 129.277Z" fill="white"/>
</g>
<path d="M100.782 73.6189C100.119 72.4179 99.4765 71.2945 98.8736 70.1511C97.2374 67.0619 95.9541 63.875 96.2092 60.2743C96.2343 59.9307 96.2618 59.5797 96.3443 59.2462C96.5645 58.3686 97.3875 58.1429 98.038 58.7773C98.2656 59.0005 98.4533 59.2613 98.6659 59.4995C98.8535 59.7126 99.0512 59.9182 99.3139 60.2066C99.4189 59.7627 99.4965 59.4142 99.5865 59.0707C99.8542 58.0426 100.265 57.8119 101.273 58.1354C105.338 59.4393 109.403 60.7432 113.469 62.0546C117.179 63.2506 120.886 64.4567 124.596 65.6553C129.007 67.077 131.206 70.3091 131.961 74.7097C132.179 75.9759 132.194 77.2547 132.014 78.531C131.979 78.7768 131.986 78.9924 132.134 79.2131C134.088 82.1192 132.667 85.6923 129.044 86.8207C128.434 87.0112 128.149 87.3096 127.971 87.9064C127.451 89.6616 126.893 91.4093 126.295 93.1419C126.077 93.7688 126.102 94.0597 126.798 94.3656C130.025 95.7898 132.354 98.1368 133.662 101.444C134.34 103.157 134.49 104.914 133.822 106.665C133.672 107.056 133.84 107.261 134.01 107.525C136.317 111.13 138.623 114.739 140.927 118.344C141.095 118.608 141.245 118.886 141.43 119.137C141.703 119.508 141.823 119.886 141.59 120.318C141.358 120.749 140.967 120.857 140.517 120.852C138.603 120.832 136.689 120.809 134.773 120.794C131.608 120.769 128.444 120.759 125.279 120.714C124.744 120.706 124.539 120.804 124.584 121.403C124.674 122.625 124.679 123.853 124.704 125.079C124.724 126.027 124.421 126.343 123.498 126.351C122.647 126.358 121.797 126.341 120.946 126.353C120.491 126.361 120.088 126.273 119.873 125.829C119.663 125.398 119.74 124.957 120.073 124.651C121.091 123.72 121.049 122.562 120.904 121.346C120.849 120.872 120.713 120.691 120.188 120.691C116.783 120.694 113.381 120.659 109.976 120.624C108.85 120.611 108.67 120.436 108.49 119.305C108.212 117.547 108.212 117.547 106.439 117.522C106.279 117.519 106.116 117.539 105.961 117.514C105.443 117.429 105.29 117.625 105.293 118.156C105.305 120.207 105.27 122.261 105.25 124.312C105.235 125.839 105.065 126.007 103.552 126.01C102.514 126.01 101.478 126.005 100.44 126.015C99.9793 126.02 99.6066 125.894 99.3864 125.453C99.1763 125.034 99.2713 124.636 99.5715 124.35C100.775 123.194 100.902 121.76 100.86 120.192C100.797 117.875 100.872 115.556 100.925 113.237C100.935 112.758 100.8 112.479 100.4 112.196C98.1105 110.574 96.1642 108.63 95.081 105.978C94.0578 103.473 94.1603 101.055 95.7639 98.7787C96.5019 97.7306 97.2825 96.7226 98.2031 95.8325C98.4408 95.6018 98.5658 95.4363 98.3832 95.0953C97.9529 94.2904 98.1255 93.503 98.5158 92.7282C99.6666 90.4464 100.315 88.0242 100.59 85.4842C100.657 84.8523 100.457 84.7646 99.9318 84.7721C99.0812 84.7846 98.2306 84.747 97.38 84.7269C96.3769 84.7019 96.0141 84.3583 96.0541 83.3754C96.1667 80.6072 96.2893 77.839 96.4344 75.0707C96.4994 73.8421 96.8547 73.5763 98.1005 73.6114C98.9561 73.639 99.8067 73.6189 100.782 73.6189ZM100.957 102.51C100.957 101.582 100.945 100.812 100.962 100.042C100.975 99.5134 101.288 99.1949 101.796 99.1348C102.261 99.0796 102.609 99.3003 102.806 99.7466C102.919 100.002 102.896 100.268 102.899 100.531C102.944 103.886 102.994 107.241 103.026 110.599C103.031 111.038 103.094 111.256 103.629 111.263C109.076 111.339 114.524 111.436 119.97 111.554C120.576 111.567 120.721 111.401 120.701 110.797C120.578 107.151 120.503 103.503 120.413 99.8544C120.393 99.1072 120.486 99.0345 121.149 99.4056C122.352 100.08 123.543 100.775 124.726 101.484C125.071 101.692 125.359 101.768 125.749 101.569C126.522 101.176 127.328 100.845 128.156 100.471C128.083 100.358 128.038 100.263 127.971 100.19C126.382 98.5054 124.423 97.4322 122.257 96.6875C122.012 96.6022 121.794 96.6474 121.559 96.7101C119.81 97.1664 118.024 97.4322 116.235 97.6704C116.035 97.698 115.83 97.6579 115.67 97.876C114.754 99.1172 113.421 99.6388 111.977 99.8519C110.114 100.128 108.265 100.042 106.874 98.5505C106.419 98.0641 105.976 97.8936 105.38 97.8484C103.737 97.7231 102.113 97.4698 100.57 96.8555C100.285 96.7401 100.102 96.7427 99.8642 96.9558C98.7935 97.9287 97.9204 99.062 97.1324 100.268C96.9472 100.551 97.0223 100.672 97.3 100.8C98.4783 101.344 99.6466 101.898 100.957 102.51ZM102.306 87.9415C101.836 89.8547 101.248 91.7027 100.335 93.4228C99.9518 94.1424 100.179 94.491 100.792 94.8144C101.846 95.3661 102.986 95.6068 104.145 95.7522C109.356 96.4067 114.534 96.1133 119.688 95.1454C120.153 95.0576 120.446 94.8746 120.673 94.4634C122.119 91.8556 123.005 89.105 122.807 86.086C122.785 85.7349 122.967 85.5995 123.225 85.3538C122.972 85.3388 122.82 85.3237 122.665 85.3187C119.688 85.2385 116.713 85.1632 113.739 85.083C112.663 85.0529 112.315 84.6743 112.368 83.6061C112.42 82.5429 112.455 81.4773 112.533 80.4141C112.565 79.9653 112.435 79.8224 111.977 79.7948C109.753 79.6544 109.773 79.6418 109.653 81.876C109.586 83.1247 109.996 84.5489 108.44 85.3463C109.108 85.4441 109.683 85.4992 110.261 85.5043C110.742 85.5068 111.164 85.6196 111.137 86.1712C111.109 86.7304 110.642 86.7856 110.186 86.7655C109.231 86.7204 108.275 86.6828 107.319 86.6301C106.882 86.605 106.356 86.7028 106.164 86.1512C105.981 85.6271 106.471 85.424 106.749 85.1256C106.774 85.098 106.751 85.0303 106.751 84.8699C105.513 84.8699 104.275 84.8699 103.034 84.8699C102.824 84.8699 102.581 84.8348 102.591 85.1632C102.606 85.6547 102.363 86.1311 102.496 86.6527C102.821 86.4822 103.116 86.427 103.444 86.5398C105.668 87.2996 107.967 87.3924 110.289 87.3121C112.55 87.2344 114.787 86.9385 117.028 86.6652C118.162 86.5273 118.552 86.9536 118.357 88.0794C118.164 89.1927 117.631 90.133 116.838 90.9153C114.764 92.9614 112.213 93.9042 109.353 93.9519C106.063 94.007 103.554 92.1941 102.631 89.2303C102.499 88.8116 102.413 88.3728 102.306 87.9415ZM102.839 82.5981C102.839 82.6583 102.839 82.721 102.839 82.7812C104.165 82.7812 105.491 82.7586 106.816 82.7937C107.282 82.8062 107.487 82.7109 107.502 82.2044C107.557 80.3163 107.637 78.4307 107.732 76.5451C107.755 76.1239 107.63 75.9935 107.212 75.986C104.505 75.9408 101.801 75.8781 99.0937 75.8029C98.7184 75.7929 98.5909 75.8932 98.5733 76.2793C98.4958 78.1925 98.4032 80.1032 98.2882 82.0139C98.2606 82.4702 98.4032 82.6157 98.856 82.6056C100.184 82.5806 101.513 82.5981 102.839 82.5981ZM119.215 82.9592C119.215 83.0169 119.215 83.072 119.215 83.1297C120.541 83.1297 121.869 83.1021 123.195 83.1422C123.703 83.1573 123.811 82.9868 123.826 82.5129C123.883 80.6523 123.973 78.7918 124.081 76.9338C124.106 76.5175 123.996 76.3872 123.568 76.3796C120.861 76.337 118.154 76.2718 115.447 76.1991C115.062 76.1891 114.889 76.2643 114.874 76.7081C114.809 78.5962 114.719 80.4818 114.604 82.3674C114.577 82.8263 114.702 82.9742 115.155 82.9667C116.508 82.9466 117.861 82.9592 119.215 82.9592ZM132.792 118.783C131.766 116.333 130.755 113.944 129.767 111.544C129.605 111.153 129.429 111.266 129.164 111.404C127.768 112.123 126.295 112.65 124.771 113.024C124.408 113.111 124.296 113.247 124.311 113.608C124.378 115.177 124.428 116.747 124.469 118.317C124.476 118.638 124.549 118.793 124.914 118.793C127.511 118.776 130.107 118.783 132.792 118.783ZM102.261 123.991C103.099 124.242 103.339 123.986 103.332 123.224C103.309 121.042 103.372 118.858 103.379 116.674C103.384 115.401 103.769 115.035 105.05 115.065C110.096 115.185 115.14 115.293 120.186 115.401C120.363 115.403 120.666 115.418 120.703 115.335C120.914 114.862 120.801 114.345 120.763 113.854C120.731 113.412 120.311 113.578 120.055 113.575C114.559 113.51 109.06 113.465 103.564 113.39C102.999 113.382 102.861 113.555 102.859 114.099C102.851 116.84 102.791 119.583 102.774 122.324C102.769 122.92 102.759 123.492 102.261 123.991ZM116.481 88.3953C112.383 88.8793 108.305 89.4058 104.132 88.4831C104.695 90.3963 105.776 91.6726 107.587 92.0612C110.814 92.7558 113.619 91.8481 115.925 89.471C116.193 89.1927 116.463 88.8868 116.481 88.3953ZM114.284 73.4133C114.284 73.3456 114.284 73.2779 114.284 73.2102C110.644 73.2102 107.007 73.2077 103.367 73.2177C103.154 73.2177 102.759 73.0171 102.779 73.486C102.796 73.8672 103.141 73.7067 103.344 73.7142C105.15 73.7719 106.954 73.8045 108.76 73.8571C109.606 73.8822 109.969 74.2583 109.971 75.0883C109.974 75.5146 109.911 75.9433 109.941 76.3646C109.991 77.0667 109.498 78.002 110.009 78.4006C110.474 78.7642 111.39 78.526 112.1 78.5987C112.535 78.6414 112.643 78.4784 112.653 78.0697C112.675 77.0842 112.746 76.1013 112.793 75.1184C112.828 74.3712 113.238 73.985 113.961 73.9975C117.706 74.0602 121.451 74.1455 125.197 74.2182C125.434 74.2232 125.814 74.5492 125.839 73.9925C125.862 73.476 125.429 73.6741 125.199 73.6666C121.562 73.5688 117.924 73.4936 114.284 73.4133ZM124.321 111.033C125.354 110.897 126.27 110.551 127.095 109.932C129.537 108.096 130.508 105.642 129.735 103.152C129.392 102.048 129.392 102.048 128.321 102.547C128.033 102.68 127.751 102.838 127.451 102.931C127.025 103.061 126.945 103.307 127.045 103.711C127.25 104.548 127.223 105.393 127.088 106.241C126.778 108.184 125.837 109.759 124.321 111.033ZM100.787 110.1C100.955 109.027 100.925 108.147 100.497 107.299C100.064 106.439 99.8417 105.509 99.7717 104.546C99.7567 104.33 99.7667 104.122 99.524 104.009C98.5033 103.535 97.4851 103.054 96.3518 102.52C96.4769 105.932 98.4358 108.051 100.787 110.1ZM115.49 118.673C115.49 118.703 115.49 118.733 115.49 118.766C117.058 118.766 118.625 118.761 120.193 118.771C120.498 118.773 120.711 118.756 120.671 118.352C120.638 118.038 120.636 117.825 120.198 117.82C117.011 117.775 113.824 117.7 110.637 117.625C110.349 117.617 110.204 117.627 110.236 117.996C110.279 118.47 110.401 118.703 110.949 118.688C112.46 118.645 113.976 118.673 115.49 118.673ZM124.238 103.543V108.262C124.964 107.111 125.242 106.068 125.257 104.932C125.264 104.18 125.036 103.658 124.238 103.543ZM108.888 98.0064C110.254 98.6609 111.597 98.5631 113.088 98.0064H108.888Z" fill="#34225F"/>
<path d="M100.957 102.51C99.6491 101.898 98.4783 101.344 97.3025 100.805C97.0223 100.677 96.9497 100.556 97.1349 100.273C97.9204 99.0645 98.7935 97.9337 99.8667 96.9608C100.102 96.7477 100.285 96.7451 100.57 96.858C102.113 97.4723 103.734 97.7256 105.38 97.8509C105.976 97.8961 106.419 98.0691 106.874 98.5555C108.267 100.047 110.116 100.133 111.977 99.8569C113.421 99.6438 114.754 99.1222 115.67 97.881C115.83 97.6629 116.035 97.703 116.235 97.6754C118.024 97.4372 119.808 97.1689 121.559 96.7125C121.792 96.6524 122.009 96.6072 122.257 96.6925C124.421 97.4347 126.382 98.5104 127.971 100.195C128.038 100.268 128.083 100.363 128.156 100.476C127.328 100.85 126.525 101.181 125.749 101.574C125.359 101.773 125.071 101.697 124.726 101.489C123.545 100.78 122.352 100.085 121.149 99.4106C120.488 99.0395 120.396 99.1122 120.413 99.8594C120.503 103.508 120.581 107.156 120.701 110.802C120.721 111.406 120.576 111.572 119.97 111.559C114.524 111.441 109.078 111.344 103.629 111.268C103.094 111.261 103.031 111.043 103.026 110.604C102.994 107.249 102.944 103.891 102.899 100.536C102.896 100.273 102.919 100.007 102.806 99.7516C102.609 99.3053 102.263 99.0846 101.796 99.1398C101.288 99.1999 100.975 99.5184 100.962 100.047C100.942 100.812 100.957 101.582 100.957 102.51Z" fill="#0096C3"/>
<path d="M102.306 87.9415C102.413 88.3728 102.499 88.8116 102.631 89.2353C103.554 92.1991 106.061 94.0095 109.353 93.9569C112.213 93.9092 114.764 92.9664 116.838 90.9203C117.631 90.138 118.162 89.1977 118.357 88.0844C118.552 86.9586 118.162 86.5323 117.028 86.6702C114.787 86.9435 112.55 87.2369 110.289 87.3146C107.967 87.3949 105.668 87.3021 103.444 86.5423C103.116 86.4295 102.821 86.4847 102.496 86.6552C102.363 86.1336 102.606 85.6547 102.591 85.1657C102.581 84.8373 102.824 84.8724 103.034 84.8699C104.275 84.8674 105.513 84.8699 106.751 84.8699C106.751 85.0303 106.774 85.1005 106.749 85.1256C106.471 85.424 105.981 85.6271 106.164 86.1512C106.356 86.7003 106.879 86.605 107.319 86.6301C108.275 86.6827 109.231 86.7229 110.186 86.7655C110.642 86.7856 111.109 86.7304 111.137 86.1712C111.164 85.6196 110.742 85.5093 110.261 85.5068C109.683 85.5017 109.108 85.4491 108.44 85.3488C109.994 84.5514 109.586 83.1272 109.653 81.8785C109.771 79.6443 109.753 79.6569 111.977 79.7973C112.435 79.8249 112.568 79.9678 112.533 80.4166C112.453 81.4773 112.42 82.5429 112.368 83.6086C112.315 84.6768 112.663 85.0554 113.739 85.0855C116.713 85.1657 119.69 85.2435 122.665 85.3212C122.817 85.3262 122.972 85.3388 123.225 85.3563C122.967 85.602 122.785 85.7374 122.807 86.0885C123.005 89.1075 122.119 91.8581 120.673 94.4659C120.446 94.8771 120.151 95.0601 119.688 95.1479C114.534 96.1158 109.358 96.4092 104.147 95.7547C102.989 95.6093 101.846 95.3686 100.795 94.8169C100.182 94.496 99.9543 94.1474 100.337 93.4253C101.245 91.7027 101.836 89.8572 102.306 87.9415Z" fill="#F4D8C9"/>
<path d="M102.839 82.5956C101.513 82.5956 100.184 82.5806 98.8586 82.6056C98.4032 82.6132 98.2631 82.4702 98.2907 82.0139C98.4057 80.1032 98.4983 78.19 98.5759 76.2793C98.5909 75.8932 98.7185 75.7929 99.0937 75.8029C101.798 75.8781 104.505 75.9408 107.212 75.986C107.63 75.9935 107.752 76.1239 107.732 76.5451C107.635 78.4307 107.557 80.3163 107.502 82.2044C107.487 82.7109 107.282 82.8062 106.819 82.7937C105.493 82.7586 104.167 82.7812 102.841 82.7812C102.839 82.7185 102.839 82.6583 102.839 82.5956Z" fill="#70C3EE"/>
<path d="M119.215 82.9592C117.862 82.9592 116.508 82.9466 115.155 82.9667C114.702 82.9742 114.574 82.8263 114.602 82.3674C114.719 80.4818 114.809 78.5962 114.874 76.7081C114.889 76.2643 115.06 76.189 115.447 76.1991C118.154 76.2718 120.861 76.337 123.568 76.3796C123.996 76.3871 124.103 76.5175 124.081 76.9338C123.976 78.7918 123.883 80.6523 123.826 82.5128C123.811 82.9868 123.705 83.1573 123.195 83.1422C121.869 83.1021 120.541 83.1297 119.215 83.1297C119.215 83.072 119.215 83.0143 119.215 82.9592Z" fill="#70C3EE"/>
<path d="M132.792 118.783C130.107 118.783 127.511 118.778 124.914 118.791C124.549 118.793 124.476 118.638 124.469 118.314C124.428 116.745 124.378 115.175 124.311 113.605C124.296 113.244 124.408 113.109 124.771 113.021C126.295 112.65 127.766 112.123 129.164 111.401C129.429 111.263 129.607 111.15 129.767 111.544C130.758 113.941 131.766 116.333 132.792 118.783Z" fill="#53B9D0"/>
<path d="M102.261 123.991C102.761 123.495 102.769 122.92 102.774 122.326C102.791 119.586 102.851 116.842 102.859 114.102C102.861 113.555 102.999 113.385 103.564 113.392C109.061 113.467 114.559 113.512 120.056 113.578C120.311 113.58 120.731 113.415 120.763 113.856C120.799 114.347 120.914 114.864 120.703 115.338C120.666 115.421 120.366 115.406 120.186 115.403C115.14 115.295 110.096 115.187 105.05 115.067C103.769 115.037 103.384 115.401 103.379 116.677C103.369 118.861 103.309 121.042 103.332 123.226C103.339 123.984 103.096 124.242 102.261 123.991Z" fill="#EE728E"/>
<path d="M116.481 88.3953C116.463 88.8868 116.193 89.1927 115.923 89.471C113.616 91.8506 110.814 92.7558 107.584 92.0612C105.773 91.6726 104.695 90.3963 104.13 88.4831C108.307 89.4058 112.383 88.8793 116.481 88.3953Z" fill="#F8F6F6"/>
<path d="M114.284 73.4133C117.922 73.4936 121.562 73.5688 125.199 73.6641C125.427 73.6691 125.859 73.4735 125.839 73.9901C125.817 74.5467 125.434 74.2207 125.196 74.2157C121.451 74.143 117.706 74.0603 113.961 73.9951C113.241 73.9825 112.828 74.3687 112.793 75.1159C112.746 76.0988 112.675 77.0843 112.653 78.0672C112.643 78.4759 112.535 78.6389 112.1 78.5962C111.387 78.526 110.471 78.7617 110.009 78.3982C109.501 77.9995 109.991 77.0667 109.941 76.3621C109.911 75.9383 109.971 75.5121 109.971 75.0858C109.969 74.2558 109.603 73.8797 108.76 73.8572C106.954 73.8045 105.15 73.7694 103.344 73.7142C103.141 73.7067 102.796 73.8672 102.779 73.4861C102.759 73.0172 103.156 73.2178 103.367 73.2178C107.007 73.2052 110.644 73.2102 114.284 73.2102C114.284 73.2754 114.284 73.3431 114.284 73.4133Z" fill="#F4D8C9"/>
<path d="M124.321 111.033C125.837 109.759 126.778 108.184 127.088 106.238C127.223 105.391 127.253 104.543 127.048 103.708C126.948 103.305 127.028 103.056 127.453 102.929C127.753 102.836 128.036 102.68 128.324 102.545C129.397 102.046 129.394 102.046 129.737 103.149C130.508 105.639 129.539 108.096 127.098 109.929C126.272 110.551 125.354 110.9 124.321 111.033Z" fill="#F8F6F6"/>
<path d="M100.787 110.1C98.4358 108.051 96.4769 105.932 96.3493 102.522C97.4851 103.056 98.5008 103.538 99.5215 104.012C99.7642 104.125 99.7542 104.333 99.7692 104.548C99.8392 105.511 100.062 106.441 100.495 107.302C100.925 108.147 100.957 109.027 100.787 110.1Z" fill="#F8F6F6"/>
<path d="M124.238 103.543C125.039 103.658 125.264 104.18 125.257 104.932C125.242 106.068 124.966 107.111 124.238 108.262V103.543Z" fill="#53B9D0"/>
<path d="M108.888 98.0064H113.088C111.597 98.5631 110.254 98.6634 108.888 98.0064Z" fill="#F8F6F6"/>
<path d="M120.673 110.1H103.009V114.593H120.673V110.1Z" fill="#EE728E"/>
<path d="M121.474 109.423H103.014V111.035H121.474V109.423Z" fill="#34225F"/>
<path d="M100.047 77.4227C101.085 78.4583 102.123 79.4939 103.159 80.5294C103.387 80.7576 103.742 80.4016 103.512 80.1734C102.473 79.1378 101.435 78.1022 100.4 77.0692C100.172 76.841 99.8167 77.1945 100.047 77.4227Z" fill="#ACDCF2"/>
<path d="M101.831 78.4132C102.571 79.0802 103.309 79.7472 104.05 80.4141C104.287 80.6298 104.642 80.2762 104.402 80.0606C103.662 79.3936 102.924 78.7266 102.183 78.0596C101.946 77.844 101.59 78.1975 101.831 78.4132Z" fill="#ACDCF2"/>
<path d="M116.12 77.9894C117.681 79.5014 119.24 81.0134 120.801 82.5254C121.034 82.7486 121.386 82.395 121.154 82.1719C119.593 80.6599 118.034 79.1479 116.473 77.6384C116.243 77.4102 115.89 77.7638 116.12 77.9894Z" fill="#ACDCF2"/>
<path d="M118.244 79.1955C119.17 80.0104 120.096 80.8229 121.021 81.6378C121.261 81.8509 121.617 81.4974 121.374 81.2817C120.448 80.4668 119.523 79.6544 118.597 78.8395C118.357 78.6288 118.002 78.9824 118.244 79.1955Z" fill="#ACDCF2"/>
<path d="M115.763 101.665C115.41 101.211 114.887 100.938 114.149 100.938C112.933 100.938 111.465 102.585 110.742 103.503C110.019 102.585 108.55 100.938 107.334 100.938C105.653 100.938 105.095 102.352 105.095 104.1C105.095 105.845 105.651 107.261 107.334 107.261C108.548 107.261 110.019 105.614 110.742 104.696C110.839 104.819 110.949 104.955 111.072 105.097C111.512 105.617 112.095 106.236 112.71 106.677C113.191 107.023 113.689 107.261 114.151 107.261C115.833 107.261 116.391 105.845 116.391 104.1C116.388 103.122 116.213 102.247 115.763 101.665ZM107.842 106.058C107.339 106.058 106.997 105.865 106.771 105.551C106.771 105.551 106.771 105.551 106.771 105.549C106.516 105.19 106.416 104.674 106.416 104.1C106.416 103.019 106.771 102.144 107.842 102.144C108.36 102.144 108.948 102.6 109.421 103.071C109.926 103.578 110.296 104.102 110.296 104.102C110.296 104.102 108.913 106.058 107.842 106.058ZM113.646 106.058C112.946 106.058 112.113 105.223 111.62 104.644C111.357 104.335 111.192 104.1 111.192 104.1C111.192 104.1 112.575 102.144 113.646 102.144C114.717 102.144 115.072 103.019 115.072 104.1C115.072 105.18 114.717 106.058 113.646 106.058Z" fill="#2A4E9D"/>
<path d="M111.62 104.644C111.475 104.651 111.33 104.714 111.227 104.817C111.152 104.894 111.097 104.992 111.072 105.1C110.949 104.957 110.839 104.819 110.742 104.699L111.189 104.102C111.189 104.102 111.357 104.335 111.62 104.644Z" fill="#243A71"/>
<path d="M116.388 104.1C116.388 105.845 115.83 107.261 114.149 107.261C113.689 107.261 113.188 107.023 112.708 106.677C112.998 106.813 113.311 106.9 113.631 106.918C114.069 106.943 114.519 106.833 114.874 106.577C115.217 106.331 115.46 105.965 115.615 105.571C115.77 105.18 115.848 104.762 115.908 104.343C115.988 103.796 116.045 103.239 115.998 102.688C115.968 102.337 115.893 101.986 115.758 101.662C116.213 102.247 116.388 103.122 116.388 104.1Z" fill="#243A71"/>
<path d="M109.421 103.071C108.948 102.6 108.36 102.144 107.842 102.144C106.771 102.144 106.416 103.019 106.416 104.099C106.416 104.674 106.516 105.19 106.771 105.549C106.179 104.887 105.916 103.929 106.111 103.059C106.209 102.628 106.426 102.199 106.809 101.973C107.059 101.825 107.359 101.778 107.647 101.81C107.935 101.845 108.21 101.958 108.455 102.111C108.845 102.352 109.163 102.69 109.421 103.071Z" fill="#243A71"/>
<mask id="mask3_397_28390" style="mask-type:luminance" maskUnits="userSpaceOnUse" x="105" y="101" width="2" height="2">
<path d="M106.939 101.173H105.473V102.823H106.939V101.173Z" fill="white"/>
</mask>
<g mask="url(#mask3_397_28390)">
<path d="M105.758 101.953C105.741 101.986 105.723 102.018 105.723 102.056C105.723 102.091 105.743 102.131 105.778 102.141C105.826 102.154 105.868 102.114 105.903 102.076C106.033 101.933 106.201 101.825 106.384 101.765C106.484 101.73 106.589 101.712 106.686 101.67C106.784 101.63 106.877 101.562 106.919 101.464C106.954 101.381 106.954 101.256 106.867 101.206C106.709 101.113 106.511 101.251 106.379 101.331C106.126 101.487 105.901 101.695 105.758 101.953Z" fill="white"/>
</g>
<mask id="mask4_397_28390" style="mask-type:luminance" maskUnits="userSpaceOnUse" x="105" y="101" width="2" height="2">
<path d="M106.939 101.173H105.473V102.823H106.939V101.173Z" fill="white"/>
</mask>
<g mask="url(#mask4_397_28390)">
<path d="M105.478 102.69C105.473 102.715 105.471 102.743 105.476 102.768C105.481 102.793 105.501 102.818 105.526 102.823C105.548 102.828 105.571 102.816 105.588 102.801C105.603 102.783 105.613 102.763 105.623 102.743C105.656 102.668 105.691 102.593 105.713 102.515C105.726 102.472 105.733 102.427 105.718 102.384C105.706 102.349 105.666 102.317 105.628 102.319C105.586 102.322 105.568 102.362 105.553 102.397C105.508 102.487 105.493 102.59 105.478 102.69Z" fill="white"/>
</g>
<mask id="mask5_397_28390" style="mask-type:luminance" maskUnits="userSpaceOnUse" x="114" y="101" width="2" height="1">
<path d="M115.21 101.146H114.016V101.813H115.21V101.146Z" fill="white"/>
</mask>
<g mask="url(#mask5_397_28390)">
<path d="M114.071 101.178C114.099 101.163 114.134 101.156 114.166 101.153C114.372 101.131 114.604 101.171 114.797 101.244C114.972 101.309 115.132 101.437 115.192 101.615C115.21 101.665 115.217 101.722 115.187 101.765C115.152 101.815 115.08 101.825 115.022 101.805C114.942 101.778 114.882 101.71 114.814 101.66C114.659 101.544 114.482 101.462 114.292 101.417C114.227 101.401 114.159 101.391 114.096 101.364C114.021 101.329 113.971 101.246 114.061 101.186C114.066 101.181 114.069 101.178 114.071 101.178Z" fill="white"/>
</g>
<mask id="mask6_397_28390" style="mask-type:luminance" maskUnits="userSpaceOnUse" x="113" y="101" width="1" height="1">
<path d="M113.884 101.191H113.456V101.417H113.884V101.191Z" fill="white"/>
</mask>
<g mask="url(#mask6_397_28390)">
<path d="M113.491 101.279C113.554 101.216 113.689 101.183 113.774 101.196C113.831 101.203 113.916 101.264 113.871 101.329C113.849 101.364 113.801 101.366 113.761 101.371C113.716 101.376 113.669 101.381 113.624 101.394C113.591 101.402 113.554 101.419 113.519 101.419C113.473 101.422 113.451 101.386 113.456 101.346C113.461 101.319 113.473 101.296 113.491 101.279Z" fill="white"/>
</g>
</g>
<defs>
<filter id="filter0_f_397_28390" x="0" y="-9" width="224" height="224" filterUnits="userSpaceOnUse" color-interpolation-filters="sRGB">
<feFlood flood-opacity="0" result="BackgroundImageFix"/>
<feBlend mode="normal" in="SourceGraphic" in2="BackgroundImageFix" result="shape"/>
<feGaussianBlur stdDeviation="24" result="effect1_foregroundBlur_397_28390"/>
</filter>
<radialGradient id="paint0_radial_397_28390" cx="0" cy="0" r="1" gradientUnits="userSpaceOnUse" gradientTransform="translate(111.072 102.072) rotate(130.917) scale(38.2809)">
<stop stop-color="#8052E9"/>
<stop offset="1" stop-color="#462D80"/>
</radialGradient>
<clipPath id="clip0_397_28390">
<rect width="88" height="90" fill="white" transform="translate(68 58)"/>
</clipPath>
</defs>
</svg>
