<svg width="88" height="90" viewBox="0 0 88 90" fill="none" xmlns="http://www.w3.org/2000/svg">
<g id="Group">
<g id="Group_2">
<g id="Group_3">
<path id="Vector" d="M16.0985 86.1886C15.9459 86.3165 15.7508 86.4193 15.5131 86.4946C15.2729 86.5698 14.9977 86.6074 14.6825 86.6074C14.2622 86.6074 13.917 86.5547 13.6418 86.4494C13.3666 86.3441 13.189 86.1636 13.109 85.9053C12.7837 84.8772 12.5135 84.0448 12.3059 83.4079C12.0958 82.771 11.9331 82.2143 11.8156 81.7354H11.728C11.693 82.425 11.668 83.0518 11.6505 83.6185C11.6329 84.1852 11.6204 84.7368 11.6154 85.2734C11.6104 85.81 11.5979 86.3541 11.5804 86.9033C11.5629 87.4524 11.5379 88.0592 11.5029 88.7262C11.3503 88.7839 11.1526 88.834 10.9074 88.8741C10.6623 88.9142 10.4171 88.9343 10.1744 88.9343C9.6616 88.9343 9.26133 88.8516 8.97613 88.6886C8.69094 88.5256 8.54834 88.2272 8.54834 87.7959L9.05619 78.8594C9.14875 78.7064 9.35389 78.5434 9.6691 78.3679C9.98432 78.1924 10.4271 78.1046 10.9975 78.1046C11.6154 78.1046 12.0983 78.1999 12.4485 78.393C12.7987 78.5861 13.0539 78.897 13.2165 79.3308C13.3216 79.6116 13.4342 79.9325 13.5568 80.2936C13.6793 80.6547 13.8019 81.0283 13.9245 81.4145C14.0471 81.8006 14.1672 82.1817 14.2822 82.5629C14.3998 82.9415 14.5024 83.285 14.5975 83.5884H14.685C14.9652 82.608 15.2454 81.6577 15.5231 80.7425C15.8033 79.8247 16.0585 79.0575 16.2911 78.4381C16.4662 78.3453 16.6914 78.2651 16.9641 78.2024C17.2368 78.1397 17.5445 78.1071 17.8822 78.1071C18.4526 78.1071 18.9204 78.1924 19.2807 78.3604C19.6409 78.5309 19.851 78.7716 19.9111 79.0875C19.9586 79.3207 20.0062 79.6818 20.0587 80.1657C20.1112 80.6497 20.1663 81.1963 20.2238 81.8031C20.2813 82.4099 20.3414 83.0543 20.3989 83.7313C20.4565 84.4084 20.5115 85.0603 20.564 85.6846C20.6166 86.309 20.6591 86.8832 20.6941 87.4023C20.7291 87.9213 20.7517 88.3225 20.7642 88.6033C20.5665 88.7212 20.3589 88.8039 20.1437 88.8566C19.9286 88.9092 19.6509 88.9343 19.3132 88.9343C18.8704 88.9343 18.4976 88.8591 18.1949 88.7061C17.8922 88.5557 17.7296 88.2573 17.7046 87.8135C17.6345 86.5397 17.592 85.3963 17.5745 84.3783C17.557 83.3602 17.532 82.5102 17.4969 81.8207H17.4094C17.2918 82.277 17.1242 82.8487 16.9015 83.5383C16.6814 84.2328 16.4137 85.1155 16.0985 86.1886Z" fill="#EFECF7"/>
<path id="Vector_2" d="M25.9752 80.0228C26.6057 80.0228 27.1785 80.088 27.6964 80.2159C28.2143 80.3438 28.6571 80.5394 29.0248 80.8026C29.3926 81.0659 29.6753 81.3994 29.8729 81.8006C30.0705 82.2043 30.1706 82.6807 30.1706 83.2299V87.154C30.1706 87.4574 30.0855 87.7057 29.9179 87.8987C29.7478 88.0918 29.5477 88.2573 29.315 88.3977C28.557 88.8541 27.4913 89.0823 26.1153 89.0823C25.4974 89.0823 24.942 89.0246 24.4467 88.9067C23.9513 88.7914 23.5261 88.6159 23.1708 88.3802C22.8156 88.147 22.5404 87.8486 22.3503 87.4875C22.1576 87.1264 22.0626 86.7052 22.0626 86.2263C22.0626 85.4214 22.3002 84.802 22.778 84.3682C23.2559 83.937 23.9964 83.6687 24.9971 83.5634L27.2861 83.3176V83.1948C27.2861 82.8562 27.1385 82.613 26.8408 82.4676C26.5431 82.3222 26.1153 82.2494 25.5549 82.2494C25.1121 82.2494 24.6818 82.2971 24.2616 82.3899C23.8413 82.4826 23.4635 82.6005 23.1258 82.7409C22.9732 82.6356 22.8456 82.4751 22.7405 82.2595C22.6355 82.0438 22.5829 81.8182 22.5829 81.585C22.5829 81.2816 22.6555 81.0383 22.8006 80.8578C22.9457 80.6773 23.1708 80.5218 23.4735 80.3939C23.8113 80.266 24.2115 80.1733 24.6718 80.1131C25.1347 80.0504 25.5675 80.0228 25.9752 80.0228ZM26.1153 86.9083C26.313 86.9083 26.5331 86.8882 26.7708 86.8481C27.0084 86.808 27.1886 86.7528 27.3036 86.6826V85.281L26.0453 85.3863C25.7201 85.4088 25.4499 85.479 25.2422 85.5969C25.0321 85.7147 24.927 85.8903 24.927 86.1235C24.927 86.3567 25.0171 86.5472 25.1972 86.6926C25.3773 86.8356 25.685 86.9083 26.1153 86.9083Z" fill="#EFECF7"/>
<path id="Vector_3" d="M34.9614 85.8752C34.9614 86.1786 35.0564 86.3942 35.249 86.5246C35.4417 86.6525 35.7119 86.7177 36.0621 86.7177C36.2372 86.7177 36.4173 86.7027 36.605 86.6751C36.7901 86.645 36.9552 86.6074 37.0953 86.5622C37.2004 86.6901 37.2904 86.833 37.3655 86.991C37.4405 87.149 37.4781 87.3396 37.4781 87.5602C37.4781 88.004 37.313 88.3651 36.9802 88.6459C36.6475 88.9268 36.0621 89.0672 35.224 89.0672C34.1983 89.0672 33.4078 88.834 32.8549 88.3676C32.302 87.9012 32.0244 87.1415 32.0244 86.0908V78.591C32.1519 78.5559 32.3371 78.5183 32.5747 78.4782C32.8124 78.4381 33.0676 78.4155 33.3352 78.4155C33.8481 78.4155 34.2459 78.5058 34.5336 78.6863C34.8188 78.8669 34.9614 79.2505 34.9614 79.8347V80.9556H37.2504C37.3205 81.0835 37.388 81.2439 37.4506 81.437C37.5156 81.6301 37.5456 81.8432 37.5456 82.0764C37.5456 82.4851 37.4556 82.781 37.2754 82.9615C37.0953 83.1421 36.8526 83.2323 36.5499 83.2323H34.9589V85.8752H34.9614Z" fill="#EFECF7"/>
<path id="Vector_4" d="M47.3723 88.7838C47.2547 88.819 47.0721 88.8541 46.8219 88.8892C46.5718 88.9243 46.3116 88.9418 46.0439 88.9418C45.7887 88.9418 45.5561 88.9243 45.3534 88.8892C45.1483 88.8541 44.9782 88.7839 44.8381 88.6785C44.698 88.5732 44.5904 88.4303 44.5154 88.2498C44.4403 88.0692 44.4028 87.831 44.4028 87.5402V83.6486C44.4028 83.1697 44.2827 82.8337 44.045 82.6406C43.8049 82.4475 43.5122 82.3522 43.1619 82.3522C42.9293 82.3522 42.7066 82.3823 42.4965 82.44C42.2863 82.4977 42.1187 82.5679 41.9886 82.6506V88.7838C41.871 88.819 41.6884 88.8541 41.4383 88.8892C41.1881 88.9243 40.9279 88.9418 40.6602 88.9418C40.4025 88.9418 40.1724 88.9243 39.9698 88.8892C39.7646 88.8541 39.5945 88.7839 39.4544 88.6785C39.3143 88.5732 39.2067 88.4303 39.1317 88.2498C39.0566 88.0692 39.0191 87.831 39.0191 87.5402V77.3774C39.1467 77.3549 39.3368 77.3223 39.587 77.2822C39.8372 77.242 40.0898 77.222 40.3475 77.222C40.6027 77.222 40.8328 77.2395 41.038 77.2746C41.2406 77.3097 41.4132 77.38 41.5533 77.4853C41.6934 77.5906 41.801 77.7335 41.8761 77.914C41.9511 78.0946 41.9886 78.3328 41.9886 78.6237V80.3413C42.1387 80.2836 42.3714 80.2159 42.6791 80.1407C42.9868 80.0654 43.3295 80.0278 43.7023 80.0278C44.8556 80.0278 45.7562 80.3162 46.4041 80.8954C47.0521 81.4746 47.3748 82.3347 47.3748 83.4806V88.7838H47.3723Z" fill="#EFECF7"/>
</g>
<g id="Group_4">
<path id="Vector_5" d="M52.2331 88.7839C52.1055 88.8064 51.9154 88.839 51.6652 88.8791C51.415 88.9193 51.1599 88.9393 50.9047 88.9393C50.647 88.9393 50.4169 88.9218 50.2142 88.8867C50.0091 88.8516 49.839 88.7813 49.6989 88.676C49.5588 88.5707 49.4512 88.4278 49.3762 88.2473C49.3011 88.0667 49.2636 87.8285 49.2636 87.5377V77.3749C49.3912 77.3524 49.5813 77.3198 49.8315 77.2797C50.0816 77.2395 50.3343 77.2195 50.592 77.2195C50.8472 77.2195 51.0773 77.237 51.2825 77.2721C51.4851 77.3072 51.6577 77.3775 51.7978 77.4828C51.9379 77.5881 52.0455 77.731 52.1205 77.9115C52.1956 78.0921 52.2331 78.3303 52.2331 78.6211V88.7839Z" fill="#53B9D0"/>
<path id="Vector_6" d="M58.5949 89.0798C57.907 89.0798 57.269 88.9845 56.6811 88.7914C56.0932 88.5983 55.5804 88.31 55.1426 87.9238C54.7048 87.5377 54.3621 87.0537 54.1119 86.4695C53.8617 85.8853 53.7366 85.2032 53.7366 84.4184C53.7366 83.6486 53.8617 82.9841 54.1119 82.43C54.3621 81.8758 54.6923 81.4195 55.1001 81.0634C55.5078 80.7074 55.9732 80.4441 56.4985 80.2761C57.0239 80.1081 57.5592 80.0228 58.1071 80.0228C58.725 80.0228 59.2879 80.1156 59.7933 80.3037C60.3011 80.4917 60.7364 80.7475 61.1042 81.076C61.4719 81.4019 61.7571 81.7931 61.9597 82.2494C62.1624 82.7058 62.2649 83.2023 62.2649 83.7389C62.2649 84.135 62.1549 84.4384 61.9322 84.6491C61.7096 84.8597 61.4019 84.9926 61.0066 85.0528L56.6886 85.7022C56.8162 86.0884 57.0789 86.3767 57.4742 86.5698C57.8695 86.7629 58.3248 86.8581 58.8376 86.8581C59.3154 86.8581 59.7657 86.798 60.1935 86.6751C60.6188 86.5522 60.9666 86.4093 61.2342 86.2463C61.4194 86.3642 61.577 86.5272 61.7071 86.7378C61.8347 86.9484 61.8997 87.1691 61.8997 87.4048C61.8997 87.9313 61.6545 88.3225 61.1642 88.5783C60.7914 88.7763 60.3712 88.9117 59.9058 88.982C59.4405 89.0446 59.0027 89.0798 58.5949 89.0798ZM58.1071 82.1943C57.8269 82.1943 57.5868 82.2419 57.3816 82.3347C57.1765 82.4275 57.0114 82.5478 56.8838 82.6933C56.7562 82.8387 56.6586 83.0042 56.5961 83.1847C56.531 83.3653 56.4935 83.5508 56.4835 83.7364L59.473 83.2449C59.438 83.0117 59.3104 82.7785 59.0878 82.5453C58.8626 82.3121 58.5374 82.1943 58.1071 82.1943Z" fill="#53B9D0"/>
<path id="Vector_7" d="M66.673 85.8752C66.673 86.1786 66.768 86.3942 66.9607 86.5246C67.1533 86.6525 67.4235 86.7177 67.7737 86.7177C67.9488 86.7177 68.129 86.7027 68.3166 86.6751C68.5017 86.645 68.6668 86.6074 68.8069 86.5622C68.912 86.6901 69.0021 86.833 69.0771 86.991C69.1522 87.149 69.1897 87.3396 69.1897 87.5602C69.1897 88.004 69.0246 88.3651 68.6918 88.6459C68.3591 88.9268 67.7737 89.0672 66.9356 89.0672C65.9099 89.0672 65.1194 88.834 64.5665 88.3676C64.0136 87.9012 63.736 87.1415 63.736 86.0908V78.591C63.8635 78.5559 64.0487 78.5183 64.2863 78.4782C64.524 78.4381 64.7792 78.4155 65.0469 78.4155C65.5597 78.4155 65.9575 78.5058 66.2452 78.6863C66.5304 78.8669 66.673 79.2505 66.673 79.8347V80.9556H68.962C69.0321 81.0835 69.0996 81.2439 69.1622 81.437C69.2272 81.6301 69.2572 81.8432 69.2572 82.0764C69.2572 82.4851 69.1672 82.781 68.987 82.9615C68.8069 83.1421 68.5642 83.2323 68.2615 83.2323H66.6705V85.8752H66.673Z" fill="#53B9D0"/>
<path id="Vector_8" d="M75.0812 89.0798C74.3932 89.0798 73.7553 88.9845 73.1674 88.7914C72.5795 88.5983 72.0666 88.31 71.6288 87.9238C71.191 87.5377 70.8483 87.0537 70.5981 86.4695C70.348 85.8853 70.2229 85.2032 70.2229 84.4184C70.2229 83.6486 70.348 82.9841 70.5981 82.43C70.8483 81.8758 71.1785 81.4195 71.5863 81.0634C71.9941 80.7074 72.4594 80.4441 72.9847 80.2761C73.5101 80.1081 74.0455 80.0228 74.5933 80.0228C75.2113 80.0228 75.7742 80.1156 76.2795 80.3037C76.7873 80.4917 77.2226 80.7475 77.5904 81.076C77.9581 81.4019 78.2433 81.7931 78.446 82.2494C78.6486 82.7058 78.7512 83.2023 78.7512 83.7389C78.7512 84.135 78.6411 84.4384 78.4185 84.6491C78.1958 84.8597 77.8881 84.9926 77.4928 85.0528L73.1749 85.7022C73.3025 86.0884 73.5651 86.3767 73.9604 86.5698C74.3557 86.7629 74.811 86.8581 75.3238 86.8581C75.8017 86.8581 76.252 86.798 76.6798 86.6751C77.1051 86.5522 77.4528 86.4093 77.7205 86.2463C77.9056 86.3642 78.0632 86.5272 78.1933 86.7378C78.3209 86.9484 78.3859 87.1691 78.3859 87.4048C78.3859 87.9313 78.1408 88.3225 77.6504 88.5783C77.2777 88.7763 76.8574 88.9117 76.3921 88.982C75.9242 89.0446 75.489 89.0798 75.0812 89.0798ZM74.5908 82.1943C74.3107 82.1943 74.0705 82.2419 73.8654 82.3347C73.6602 82.4275 73.4951 82.5478 73.3675 82.6933C73.2399 82.8387 73.1424 83.0042 73.0798 83.1847C73.0148 83.3653 72.9772 83.5508 72.9672 83.7364L75.9568 83.2449C75.9218 83.0117 75.7942 82.7785 75.5715 82.5453C75.3489 82.3121 75.0211 82.1943 74.5908 82.1943Z" fill="#53B9D0"/>
<path id="Vector_9" d="M79.6443 81.6702C79.7369 81.2264 79.922 80.8653 80.1947 80.5845C80.4674 80.3036 80.8101 80.1632 81.2179 80.1632C81.6031 80.1632 81.9008 80.256 82.1085 80.444C82.3161 80.6321 82.5513 80.8929 82.8064 81.2314L83.9247 82.7033L85.796 80.1632C86.4364 80.1632 86.9443 80.276 87.317 80.5042C87.6898 80.7324 87.8774 81.0383 87.8774 81.4245C87.8774 81.5774 87.8574 81.7128 87.8174 81.8357C87.7773 81.9585 87.7148 82.0839 87.6347 82.2118C87.5522 82.3397 87.4471 82.4851 87.3195 82.6506C87.1919 82.8136 87.0393 83.0067 86.8642 83.2298L85.7109 84.5262L88 87.5577C87.9425 88.0015 87.7673 88.3525 87.4746 88.6083C87.1819 88.8641 86.8342 88.9945 86.4264 88.9945C85.9836 88.9819 85.6309 88.854 85.3682 88.6083C85.1055 88.3626 84.8528 88.0642 84.6077 87.7157L83.6645 86.3666L81.8808 88.9418C81.8233 88.9418 81.7582 88.9443 81.6882 88.9518C81.6181 88.9568 81.5606 88.9619 81.5131 88.9619C80.9177 88.9619 80.4674 88.839 80.1571 88.5933C79.8494 88.3475 79.6943 88.0441 79.6943 87.6831C79.6943 87.4022 79.7619 87.154 79.8945 86.9383C80.027 86.7227 80.2597 86.4268 80.5849 86.0532L81.9834 84.4234L79.6443 81.6702Z" fill="#53B9D0"/>
</g>
<path id="Vector_10" d="M44.7555 71.5702C44.7555 71.5877 44.753 71.6053 44.753 71.6229C44.7055 72.0391 11.8781 72.3249 11.4978 72.3224C11.2627 72.3224 11.0225 72.3425 10.7874 72.3475C10.312 72.3575 9.83671 72.3625 9.36138 72.36C9.16375 72.3575 6.8972 72.2422 6.81715 72.2146C6.81465 72.2146 6.81465 72.2146 6.81465 72.2121C6.7421 72.6609 4.4055 84.639 4.30293 85.0854C3.98271 86.5021 3.52991 87.9388 3.00705 89.5837L3.00455 89.5913C2.9295 89.8871 2.6468 90.0627 2.37412 89.9799C2.18649 89.9222 2.0514 89.7568 2.01137 89.5637L1.99386 89.4834L1.42847 86.7227C1.06823 86.7854 -0.00250244 86.635 -0.00250244 86.2714C-0.00250244 85.6169 2.01637 85.7448 2.15647 86.141L2.16397 86.1711L2.52672 87.5C2.56425 87.3045 2.60177 87.1089 2.6443 86.9158C2.90198 85.6972 5.51376 72.9794 5.92154 71.8109C6.00159 71.5827 6.11167 71.3545 6.29179 71.2091C6.597 70.9584 7.00227 70.9885 7.36002 70.9483C7.78531 70.9032 8.20809 70.8706 8.63589 70.8556C9.25381 70.833 9.87173 70.838 10.4897 70.8606C10.7623 70.8706 11.0325 70.8907 11.3052 70.9032C11.4403 70.9082 44.1001 70.9007 44.2352 70.9208C44.3252 70.9333 44.4128 70.9609 44.4928 71.0135C44.673 71.1289 44.7655 71.347 44.7555 71.5702Z" fill="#EE728E"/>
<path id="Vector_11" d="M44.7555 71.5702C44.7555 71.5877 44.753 71.6053 44.753 71.6229C44.7055 72.0391 11.8781 72.3249 11.4978 72.3224C11.2627 72.3224 11.0225 72.3425 10.7873 72.3475C10.312 72.3575 9.8367 72.3625 9.36138 72.36C9.16374 72.3575 6.8972 72.2422 6.81714 72.2146C6.79463 72.0466 6.72458 71.8836 6.62201 71.7532C8.2206 71.9363 9.82169 72.0541 11.4253 71.9614C11.6229 71.9488 44.3527 71.9338 44.5254 71.8285C44.6254 71.7708 44.708 71.6755 44.7555 71.5702Z" fill="#C54969"/>
<path id="Vector_12" d="M4.30544 85.0829C3.98522 86.4996 3.53242 87.9364 3.00956 89.5813L3.00706 89.5888C2.93201 89.8847 2.64931 90.0602 2.37663 89.9774C2.189 89.9198 2.05391 89.7543 2.01388 89.5612L1.99637 89.481C2.06391 89.6013 2.16899 89.6891 2.29407 89.6891C2.40665 89.6866 2.50922 89.6139 2.57927 89.5211C2.64931 89.4258 2.69434 89.313 2.73687 89.2001C3.25723 87.8285 3.78259 86.457 4.30544 85.0829Z" fill="#C54969"/>
<g id="Group_5">
<g id="Group_6">
<g id="Clip path group">
<mask id="mask0_491_12829" style="mask-type:luminance" maskUnits="userSpaceOnUse" x="0" y="85" width="2" height="2">
<g id="SVGID_2_">
<path id="Vector_13" d="M1.29588 85.9229H0.255173V86.1385H1.29588V85.9229Z" fill="white"/>
</g>
</mask>
<g mask="url(#mask0_491_12829)">
<path id="Vector_14" d="M0.367748 86.0332C0.577891 85.978 0.798042 85.9404 1.01569 85.9254C1.08324 85.9204 1.15579 85.9204 1.21332 85.9429C1.27337 85.9655 1.31089 86.0232 1.28087 86.0708C1.26336 86.0984 1.22583 86.1184 1.18581 86.126C1.14578 86.1335 1.10575 86.1335 1.06572 86.1335C0.878096 86.1335 0.69297 86.131 0.505342 86.131C0.450305 86.131 0.320216 86.1485 0.275185 86.126C0.205137 86.0934 0.327721 86.0432 0.367748 86.0332Z" fill="white"/>
</g>
</g>
</g>
</g>
<g id="Group_7">
<g id="Group_8">
<g id="Clip path group_2">
<mask id="mask1_491_12829" style="mask-type:luminance" maskUnits="userSpaceOnUse" x="7" y="70" width="3" height="2">
<g id="SVGID_4_">
<path id="Vector_15" d="M9.82169 70.996H7.86786V71.342H9.82169V70.996Z" fill="white"/>
</g>
</mask>
<g mask="url(#mask1_491_12829)">
<path id="Vector_16" d="M8.01796 71.0963C8.42574 71.0135 9.59654 70.9483 9.73413 71.0411C9.81169 71.0888 9.85422 71.2141 9.79417 71.2868C9.75165 71.3395 9.67659 71.342 9.61155 71.342C9.26631 71.3345 8.92108 71.3219 8.57835 71.3069C8.40323 71.2994 8.22811 71.2893 8.05299 71.2793C8.00545 71.2768 7.89038 71.2868 7.87286 71.2166C7.85535 71.1489 7.9279 71.1138 8.01796 71.0963Z" fill="white"/>
</g>
</g>
</g>
</g>
<g id="Group_9">
<g id="Group_10">
<g id="Clip path group_3">
<mask id="mask2_491_12829" style="mask-type:luminance" maskUnits="userSpaceOnUse" x="7" y="71" width="1" height="1">
<g id="SVGID_6_">
<path id="Vector_17" d="M7.67775 71.1514H7.3075V71.2818H7.67775V71.1514Z" fill="white"/>
</g>
</mask>
<g mask="url(#mask2_491_12829)">
<path id="Vector_18" d="M7.36753 71.2768C7.35252 71.2743 7.34001 71.2743 7.3275 71.2668C7.31499 71.2592 7.30749 71.2442 7.30999 71.2292C7.31249 71.2116 7.33 71.2016 7.34501 71.1966C7.41256 71.169 7.48511 71.1539 7.55766 71.1539C7.59018 71.1539 7.6227 71.1564 7.65022 71.1765C7.67023 71.1915 7.68524 71.2241 7.67774 71.2492C7.66773 71.2818 7.63021 71.2768 7.60269 71.2793C7.52263 71.2843 7.44508 71.2843 7.36753 71.2768Z" fill="white"/>
</g>
</g>
</g>
</g>
</g>
<g id="Group_11">
<path id="Vector_19" d="M32.7824 15.6189C32.1194 14.4179 31.4765 13.2945 30.8736 12.1511C29.2374 9.06193 27.9541 5.87496 28.2092 2.27426C28.2343 1.93074 28.2618 1.5797 28.3443 1.24621C28.5645 0.368597 29.3875 0.142926 30.038 0.777312C30.2656 1.00048 30.4533 1.26125 30.6659 1.49946C30.8535 1.71259 31.0512 1.9182 31.3139 2.20656C31.4189 1.76274 31.4965 1.4142 31.5865 1.07068C31.8542 0.0426282 32.2645 -0.188057 33.2727 0.135404C37.338 1.43928 41.4032 2.74315 45.4685 4.05455C49.1785 5.25061 52.8861 6.45669 56.5961 7.65525C61.0066 9.07698 63.2056 12.3091 63.9611 16.7097C64.1788 17.9759 64.1938 19.2547 64.0136 20.531C63.9786 20.7768 63.9861 20.9924 64.1337 21.2131C66.0876 24.1192 64.6666 27.6923 61.0441 28.8207C60.4337 29.0112 60.1485 29.3096 59.9709 29.9064C59.4505 31.6616 58.8927 33.4093 58.2948 35.1419C58.0771 35.7688 58.1021 36.0597 58.7976 36.3656C62.0248 37.7898 64.3539 40.1368 65.6623 43.4441C66.3402 45.1567 66.4903 46.9144 65.8224 48.6646C65.6723 49.0558 65.8399 49.2614 66.01 49.5247C68.3166 53.1304 70.6232 56.7386 72.9272 60.3444C73.0948 60.6076 73.2449 60.886 73.4301 61.1367C73.7028 61.5078 73.8228 61.8864 73.5902 62.3177C73.3575 62.749 72.9673 62.8568 72.5169 62.8518C70.6031 62.8318 68.6893 62.8092 66.773 62.7941C63.6084 62.7691 60.4437 62.759 57.2791 62.7139C56.7437 62.7064 56.5385 62.8042 56.5836 63.4035C56.6736 64.6246 56.6786 65.8532 56.7037 67.0794C56.7237 68.0272 56.421 68.3431 55.4978 68.3507C54.6473 68.3582 53.7967 68.3406 52.9461 68.3532C52.4908 68.3607 52.088 68.2729 51.8729 67.8291C51.6627 67.3978 51.7403 66.9565 52.073 66.6506C53.0912 65.7203 53.0487 64.5619 52.9036 63.3458C52.8485 62.8719 52.7134 62.6913 52.1881 62.6913C48.7833 62.6938 45.3809 62.6587 41.9761 62.6236C40.8504 62.6111 40.6702 62.4356 40.4901 61.3047C40.2124 59.547 40.2124 59.547 38.4387 59.5219C38.2786 59.5194 38.116 59.5395 37.9609 59.5144C37.443 59.4291 37.2904 59.6247 37.2929 60.1563C37.3054 62.2074 37.2704 64.261 37.2504 66.3121C37.2354 67.8391 37.0653 68.0071 35.5517 68.0096C34.5135 68.0096 33.4778 68.0046 32.4396 68.0147C31.9793 68.0197 31.6066 67.8943 31.3864 67.453C31.1763 67.0342 31.2713 66.6356 31.5715 66.3497C32.7748 65.1938 32.9024 63.7595 32.8599 62.1923C32.7974 59.8755 32.8724 57.5561 32.925 55.2367C32.935 54.7578 32.7999 54.4794 32.3996 54.1961C30.1105 52.5738 28.1642 50.6305 27.081 47.9776C26.0578 45.4727 26.1603 43.0555 27.7639 40.7787C28.5019 39.7306 29.2825 38.7226 30.2031 37.8325C30.4408 37.6018 30.5658 37.4363 30.3832 37.0953C29.9529 36.2904 30.1255 35.503 30.5158 34.7282C31.6666 32.4464 32.3145 30.0242 32.5897 27.4842C32.6573 26.8523 32.4571 26.7646 31.9318 26.7721C31.0812 26.7846 30.2306 26.747 29.38 26.7269C28.3769 26.7019 28.0141 26.3583 28.0541 25.3754C28.1667 22.6072 28.2893 19.839 28.4344 17.0707C28.4994 15.8421 28.8547 15.5763 30.1005 15.6114C30.9561 15.639 31.8067 15.6189 32.7824 15.6189ZM32.9575 44.5098C32.9575 43.582 32.945 42.8122 32.9625 42.0425C32.975 41.5134 33.2877 41.1949 33.7955 41.1348C34.2609 41.0796 34.6086 41.3003 34.8062 41.7466C34.9188 42.0023 34.8963 42.2681 34.8988 42.5314C34.9438 45.8864 34.9939 49.2414 35.0264 52.5988C35.0314 53.0376 35.0939 53.2558 35.6293 53.2633C41.0755 53.3385 46.5242 53.4363 51.9704 53.5542C52.5759 53.5667 52.721 53.4012 52.7009 52.7969C52.5784 49.1511 52.5033 45.5027 52.4132 41.8544C52.3932 41.1072 52.4858 41.0345 53.1487 41.4056C54.3521 42.0801 55.5429 42.7746 56.7262 43.4842C57.0714 43.6924 57.3591 43.7676 57.7494 43.5695C58.5224 43.1758 59.328 42.8448 60.156 42.4712C60.0835 42.3584 60.0384 42.2631 59.9709 42.1904C58.3823 40.5054 56.4235 39.4322 54.257 38.6875C54.0118 38.6022 53.7942 38.6474 53.559 38.7101C51.8103 39.1664 50.0241 39.4322 48.2354 39.6704C48.0353 39.698 47.8301 39.6579 47.67 39.876C46.7544 41.1172 45.421 41.6388 43.9775 41.8519C42.1137 42.1277 40.265 42.0425 38.874 40.5505C38.4187 40.0641 37.9759 39.8936 37.3805 39.8484C35.7369 39.7231 34.1133 39.4698 32.5697 38.8555C32.2845 38.7401 32.1019 38.7427 31.8642 38.9558C30.7935 39.9287 29.9204 41.062 29.1324 42.2681C28.9472 42.5515 29.0223 42.6718 29.3 42.7997C30.4783 43.3438 31.6466 43.898 32.9575 44.5098ZM34.3059 29.9415C33.8356 31.8547 33.2477 33.7027 32.3345 35.4228C31.9518 36.1424 32.1794 36.491 32.7924 36.8144C33.8456 37.3661 34.9864 37.6068 36.1446 37.7522C41.3557 38.4067 46.5342 38.1133 51.6877 37.1454C52.1531 37.0576 52.4458 36.8746 52.6734 36.4634C54.1194 33.8556 55.005 31.105 54.8074 28.086C54.7849 27.7349 54.9675 27.5995 55.2252 27.3538C54.9725 27.3388 54.8199 27.3237 54.6648 27.3187C51.6877 27.2385 48.7132 27.1632 45.7387 27.083C44.663 27.0529 44.3152 26.6743 44.3678 25.6061C44.4203 24.5429 44.4553 23.4773 44.5329 22.4141C44.5654 21.9653 44.4353 21.8224 43.9775 21.7948C41.7535 21.6544 41.7735 21.6418 41.6534 23.876C41.5859 25.1247 41.9961 26.5489 40.4401 27.3463C41.108 27.4441 41.6834 27.4992 42.2613 27.5043C42.7416 27.5068 43.1644 27.6196 43.1369 28.1712C43.1094 28.7304 42.6416 28.7856 42.1863 28.7655C41.2306 28.7204 40.275 28.6828 39.3193 28.6301C38.8815 28.605 38.3562 28.7028 38.1635 28.1512C37.9809 27.6271 38.4712 27.424 38.7489 27.1256C38.7739 27.098 38.7514 27.0303 38.7514 26.8699C37.5131 26.8699 36.2747 26.8699 35.0339 26.8699C34.8237 26.8699 34.5811 26.8348 34.5911 27.1632C34.6061 27.6547 34.3634 28.1311 34.496 28.6527C34.8212 28.4822 35.1164 28.427 35.4442 28.5398C37.6682 29.2996 39.9673 29.3924 42.2888 29.3121C44.5504 29.2344 46.7869 28.9385 49.0284 28.6652C50.1617 28.5273 50.552 28.9536 50.3568 30.0794C50.1642 31.1927 49.6313 32.133 48.8383 32.9153C46.7644 34.9614 44.2126 35.9042 41.3532 35.9519C38.0635 36.007 35.5542 34.1941 34.6311 31.2303C34.4985 30.8116 34.4135 30.3728 34.3059 29.9415ZM34.8388 24.5981C34.8388 24.6583 34.8388 24.721 34.8388 24.7812C36.1647 24.7812 37.4906 24.7586 38.8165 24.7937C39.2818 24.8062 39.4869 24.7109 39.5019 24.2044C39.557 22.3163 39.637 20.4307 39.7321 18.5451C39.7546 18.1239 39.6295 17.9935 39.2117 17.986C36.5049 17.9408 33.8005 17.8781 31.0937 17.8029C30.7184 17.7929 30.5909 17.8932 30.5733 18.2793C30.4958 20.1925 30.4032 22.1032 30.2882 24.0139C30.2606 24.4702 30.4032 24.6157 30.856 24.6056C32.1844 24.5806 33.5129 24.5981 34.8388 24.5981ZM51.2149 24.9592C51.2149 25.0169 51.2149 25.072 51.2149 25.1297C52.5408 25.1297 53.8692 25.1021 55.1951 25.1422C55.703 25.1573 55.8106 24.9868 55.8256 24.5129C55.8831 22.6523 55.9732 20.7918 56.0807 18.9338C56.1058 18.5175 55.9957 18.3872 55.5679 18.3796C52.861 18.337 50.1542 18.2718 47.4474 18.1991C47.0621 18.1891 46.8895 18.2643 46.8745 18.7081C46.8094 20.5962 46.7194 22.4818 46.6043 24.3674C46.5768 24.8263 46.7018 24.9742 47.1547 24.9667C48.5081 24.9466 49.8615 24.9592 51.2149 24.9592ZM64.7917 60.7832C63.766 58.3334 62.7553 55.9438 61.7671 53.5441C61.6045 53.153 61.4294 53.2658 61.1642 53.4037C59.7683 54.1234 58.2947 54.6499 56.7712 55.0235C56.4085 55.1113 56.2959 55.2467 56.3109 55.6078C56.3784 57.1774 56.4285 58.7471 56.4685 60.3168C56.476 60.6377 56.5486 60.7932 56.9138 60.7932C59.5106 60.7756 62.1073 60.7832 64.7917 60.7832ZM34.2609 65.9911C35.0989 66.2419 35.3391 65.9861 35.3316 65.2239C35.3091 63.0424 35.3716 60.8584 35.3791 58.6744C35.3841 57.4006 35.7694 57.0345 37.0503 57.0646C42.0962 57.185 47.1396 57.2928 52.1856 57.4006C52.3632 57.4031 52.6659 57.4182 52.7034 57.3354C52.9136 56.8615 52.801 56.345 52.7635 55.8535C52.731 55.4122 52.3107 55.5777 52.0555 55.5752C46.5592 55.51 41.0605 55.4649 35.5643 55.3896C34.9989 55.3821 34.8613 55.5551 34.8588 56.0992C34.8513 58.8399 34.7912 61.583 34.7737 64.3237C34.7687 64.9205 34.7587 65.4922 34.2609 65.9911ZM48.4806 30.3953C44.3828 30.8793 40.305 31.4058 36.1321 30.4831C36.695 32.3963 37.7758 33.6726 39.587 34.0612C42.8142 34.7558 45.6186 33.8481 47.9252 31.471C48.1929 31.1927 48.463 30.8868 48.4806 30.3953ZM46.2841 15.4133C46.2841 15.3456 46.2841 15.2779 46.2841 15.2102C42.6441 15.2102 39.0066 15.2077 35.3666 15.2177C35.154 15.2177 34.7587 15.0171 34.7787 15.486C34.7962 15.8672 35.1415 15.7067 35.3441 15.7142C37.1503 15.7719 38.9541 15.8045 40.7603 15.8571C41.6059 15.8822 41.9686 16.2583 41.9711 17.0883C41.9736 17.5146 41.9111 17.9433 41.9411 18.3646C41.9911 19.0667 41.4983 20.002 42.0086 20.4006C42.474 20.7642 43.3896 20.526 44.1001 20.5987C44.5354 20.6414 44.6429 20.4784 44.653 20.0697C44.6755 19.0842 44.7455 18.1013 44.793 17.1184C44.8281 16.3712 45.2383 15.985 45.9613 15.9975C49.7064 16.0602 53.4514 16.1455 57.1965 16.2182C57.4342 16.2232 57.8144 16.5492 57.8394 15.9925C57.862 15.476 57.4292 15.6741 57.199 15.6666C53.5615 15.5688 49.924 15.4936 46.2841 15.4133ZM56.3209 53.0326C57.3541 52.8972 58.2697 52.5512 59.0953 51.9319C61.537 50.0964 62.5076 47.6416 61.7346 45.1517C61.3919 44.0484 61.3919 44.0484 60.3211 44.5474C60.0334 44.6803 59.7507 44.8383 59.4505 44.931C59.0252 45.0614 58.9452 45.3072 59.0453 45.7109C59.2504 46.5484 59.2229 47.3934 59.0878 48.2409C58.7776 50.1842 57.8369 51.7588 56.3209 53.0326ZM32.7874 52.0999C32.955 51.0267 32.925 50.1465 32.4972 49.299C32.0644 48.439 31.8417 47.5087 31.7717 46.5458C31.7567 46.3302 31.7667 46.1221 31.524 46.0093C30.5033 45.5353 29.4851 45.0539 28.3518 44.5198C28.4769 47.9325 30.4358 50.0513 32.7874 52.0999ZM47.4899 60.6728C47.4899 60.7029 47.4899 60.733 47.4899 60.7656C49.0585 60.7656 50.6245 60.7606 52.1931 60.7706C52.4983 60.7731 52.7109 60.7556 52.6709 60.3519C52.6384 60.0384 52.6359 59.8253 52.1981 59.8203C49.0109 59.7752 45.8237 59.6999 42.6366 59.6247C42.3489 59.6172 42.2038 59.6272 42.2363 59.9958C42.2788 60.4697 42.4014 60.7029 42.9493 60.6879C44.4603 60.6453 45.9764 60.6728 47.4899 60.6728ZM56.2383 45.5429V50.2619C56.9638 49.111 57.2415 48.0679 57.2565 46.932C57.264 46.1798 57.0364 45.6582 56.2383 45.5429ZM40.8879 40.0064C42.2538 40.6609 43.5972 40.5631 45.0882 40.0064H40.8879Z" fill="#34225F"/>
<path id="Vector_20" d="M32.9575 44.5098C31.6491 43.898 30.4783 43.3438 29.3025 42.8047C29.0223 42.6768 28.9497 42.5565 29.1349 42.2731C29.9204 41.0645 30.7935 39.9337 31.8667 38.9608C32.1019 38.7477 32.2845 38.7451 32.5697 38.858C34.1133 39.4723 35.7344 39.7256 37.3805 39.8509C37.9759 39.8961 38.4187 40.0691 38.874 40.5555C40.2674 42.0475 42.1162 42.1327 43.9775 41.8569C45.421 41.6438 46.7544 41.1222 47.67 39.881C47.8301 39.6629 48.0352 39.703 48.2354 39.6754C50.0241 39.4372 51.8078 39.1689 53.559 38.7125C53.7917 38.6524 54.0093 38.6072 54.257 38.6925C56.421 39.4347 58.3823 40.5104 59.9709 42.1954C60.0384 42.2681 60.0835 42.3634 60.156 42.4762C59.3279 42.8498 58.5249 43.1808 57.7494 43.5745C57.3591 43.7726 57.0714 43.6974 56.7262 43.4892C55.5454 42.7796 54.3521 42.0851 53.1487 41.4106C52.4883 41.0395 52.3957 41.1122 52.4132 41.8594C52.5033 45.5077 52.5808 49.1561 52.7009 52.8019C52.7209 53.4062 52.5758 53.5717 51.9704 53.5592C46.5242 53.4413 41.078 53.3435 35.6293 53.2683C35.0939 53.2608 35.0314 53.0426 35.0264 52.6038C34.9939 49.2489 34.9438 45.8914 34.8988 42.5364C34.8963 42.2731 34.9188 42.0073 34.8062 41.7516C34.6086 41.3053 34.2634 41.0846 33.7955 41.1398C33.2877 41.1999 32.975 41.5184 32.9625 42.0475C32.9425 42.8122 32.9575 43.582 32.9575 44.5098Z" fill="#0096C3"/>
<path id="Vector_21" d="M34.3059 29.9415C34.4135 30.3728 34.4985 30.8116 34.6311 31.2353C35.5542 34.1991 38.0609 36.0095 41.3532 35.9569C44.2126 35.9092 46.7644 34.9664 48.8383 32.9203C49.6313 32.138 50.1617 31.1977 50.3568 30.0844C50.552 28.9586 50.1617 28.5323 49.0284 28.6702C46.7869 28.9435 44.5504 29.2369 42.2888 29.3146C39.9672 29.3949 37.6682 29.3021 35.4442 28.5423C35.1164 28.4295 34.8212 28.4847 34.496 28.6552C34.3634 28.1336 34.6061 27.6547 34.5911 27.1657C34.5811 26.8373 34.8237 26.8724 35.0339 26.8699C36.2747 26.8674 37.5131 26.8699 38.7514 26.8699C38.7514 27.0303 38.7739 27.1005 38.7489 27.1256C38.4712 27.424 37.9809 27.6271 38.1635 28.1512C38.3561 28.7003 38.879 28.605 39.3193 28.6301C40.275 28.6827 41.2306 28.7229 42.1863 28.7655C42.6416 28.7856 43.1094 28.7304 43.1369 28.1712C43.1644 27.6196 42.7416 27.5093 42.2613 27.5068C41.6834 27.5017 41.108 27.4491 40.4401 27.3488C41.9936 26.5514 41.5858 25.1272 41.6534 23.8785C41.771 21.6443 41.7535 21.6569 43.9775 21.7973C44.4353 21.8249 44.5679 21.9678 44.5329 22.4166C44.4528 23.4773 44.4203 24.5429 44.3677 25.6086C44.3152 26.6768 44.6629 27.0554 45.7387 27.0855C48.7132 27.1657 51.6902 27.2435 54.6648 27.3212C54.8174 27.3262 54.9725 27.3388 55.2251 27.3563C54.9675 27.602 54.7848 27.7374 54.8074 28.0885C55.005 31.1075 54.1194 33.8581 52.6734 36.4659C52.4458 36.8771 52.1506 37.0601 51.6877 37.1479C46.5342 38.1158 41.3582 38.4092 36.1471 37.7547C34.9889 37.6093 33.8456 37.3686 32.7949 36.8169C32.1819 36.496 31.9543 36.1474 32.337 35.4253C33.2452 33.7027 33.8356 31.8572 34.3059 29.9415Z" fill="#F4D8C9"/>
<path id="Vector_22" d="M34.8388 24.5956C33.5129 24.5956 32.1845 24.5806 30.8586 24.6056C30.4032 24.6132 30.2631 24.4702 30.2907 24.0139C30.4057 22.1032 30.4983 20.19 30.5759 18.2793C30.5909 17.8932 30.7185 17.7929 31.0937 17.8029C33.7981 17.8781 36.5049 17.9408 39.2117 17.986C39.6295 17.9935 39.7521 18.1239 39.7321 18.5451C39.6345 20.4307 39.557 22.3163 39.5019 24.2044C39.4869 24.7109 39.2818 24.8062 38.819 24.7937C37.4931 24.7586 36.1672 24.7812 34.8413 24.7812C34.8388 24.7185 34.8388 24.6583 34.8388 24.5956Z" fill="#70C3EE"/>
<path id="Vector_23" d="M51.2149 24.9592C49.8615 24.9592 48.5081 24.9466 47.1547 24.9667C46.7019 24.9742 46.5743 24.8263 46.6018 24.3674C46.7194 22.4818 46.8094 20.5962 46.8745 18.7081C46.8895 18.2643 47.0596 18.189 47.4474 18.1991C50.1542 18.2718 52.8611 18.337 55.5679 18.3796C55.9957 18.3871 56.1033 18.5175 56.0807 18.9338C55.9757 20.7918 55.8831 22.6523 55.8256 24.5128C55.8106 24.9868 55.7055 25.1573 55.1951 25.1422C53.8692 25.1021 52.5408 25.1297 51.2149 25.1297C51.2149 25.072 51.2149 25.0143 51.2149 24.9592Z" fill="#70C3EE"/>
<path id="Vector_24" d="M64.7917 60.7832C62.1074 60.7832 59.5106 60.7782 56.9138 60.7907C56.5486 60.7932 56.476 60.6377 56.4685 60.3143C56.4285 58.7446 56.3784 57.175 56.3109 55.6053C56.2959 55.2442 56.4085 55.1088 56.7712 55.021C58.2948 54.6499 59.7658 54.1234 61.1642 53.4012C61.4294 53.2633 61.607 53.1505 61.7671 53.5442C62.7578 55.9413 63.766 58.3334 64.7917 60.7832Z" fill="#53B9D0"/>
<path id="Vector_25" d="M34.2609 65.9911C34.7612 65.4947 34.7687 64.9205 34.7737 64.3262C34.7912 61.5856 34.8513 58.8424 34.8588 56.1018C34.8613 55.5551 34.9989 55.3846 35.5643 55.3921C41.0605 55.4674 46.5593 55.5125 52.0555 55.5777C52.3107 55.5802 52.731 55.4147 52.7635 55.856C52.7985 56.3475 52.9136 56.864 52.7034 57.3379C52.6659 57.4207 52.3657 57.4056 52.1856 57.4031C47.1397 57.2953 42.0962 57.1875 37.0503 57.0671C35.7694 57.037 35.3841 57.4006 35.3791 58.6769C35.3691 60.8609 35.3091 63.0424 35.3316 65.2264C35.3391 65.9836 35.0964 66.2419 34.2609 65.9911Z" fill="#EE728E"/>
<path id="Vector_26" d="M48.4806 30.3953C48.463 30.8868 48.1929 31.1927 47.9227 31.471C45.6161 33.8506 42.8142 34.7558 39.5845 34.0612C37.7733 33.6726 36.695 32.3963 36.1296 30.4831C40.3075 31.4058 44.3828 30.8793 48.4806 30.3953Z" fill="#F8F6F6"/>
<path id="Vector_27" d="M46.2841 15.4133C49.9215 15.4936 53.5615 15.5688 57.199 15.6641C57.4267 15.6691 57.8594 15.4735 57.8394 15.9901C57.8169 16.5467 57.4342 16.2207 57.1965 16.2157C53.4514 16.143 49.7064 16.0603 45.9613 15.9951C45.2408 15.9825 44.8281 16.3687 44.793 17.1159C44.7455 18.0988 44.6755 19.0843 44.6529 20.0672C44.6429 20.4759 44.5354 20.6389 44.1001 20.5962C43.3871 20.526 42.4715 20.7617 42.0086 20.3982C41.5008 19.9995 41.9911 19.0667 41.9411 18.3621C41.9111 17.9383 41.9711 17.5121 41.9711 17.0858C41.9686 16.2558 41.6034 15.8797 40.7603 15.8572C38.9541 15.8045 37.1503 15.7694 35.3441 15.7142C35.1415 15.7067 34.7962 15.8672 34.7787 15.4861C34.7587 15.0172 35.1565 15.2178 35.3666 15.2178C39.0066 15.2052 42.6441 15.2102 46.2841 15.2102C46.2841 15.2754 46.2841 15.3431 46.2841 15.4133Z" fill="#F4D8C9"/>
<path id="Vector_28" d="M56.3209 53.0326C57.8369 51.7588 58.7776 50.1842 59.0878 48.2384C59.2229 47.3909 59.2529 46.5433 59.0477 45.7084C58.9477 45.3047 59.0277 45.0564 59.453 44.9285C59.7532 44.8358 60.0359 44.6803 60.3236 44.5449C61.3969 44.0459 61.3943 44.0459 61.7371 45.1492C62.5076 47.6391 61.5394 50.0964 59.0978 51.9294C58.2722 52.5512 57.3541 52.8997 56.3209 53.0326Z" fill="#F8F6F6"/>
<path id="Vector_29" d="M32.7874 52.0999C30.4358 50.0513 28.4769 47.9325 28.3493 44.5223C29.4851 45.0564 30.5008 45.5379 31.5215 46.0118C31.7642 46.1246 31.7542 46.3327 31.7692 46.5484C31.8392 47.5112 32.0619 48.4415 32.4947 49.3015C32.925 50.1466 32.9575 51.0267 32.7874 52.0999Z" fill="#F8F6F6"/>
<path id="Vector_30" d="M56.2383 45.5428C57.0389 45.6582 57.264 46.1797 57.2565 46.932C57.2415 48.0679 56.9663 49.111 56.2383 50.2619V45.5428Z" fill="#53B9D0"/>
<path id="Vector_31" d="M40.8879 40.0064H45.0882C43.5972 40.5631 42.2538 40.6634 40.8879 40.0064Z" fill="#F8F6F6"/>
<path id="Vector_32" d="M52.6734 52.0999H35.0089V56.5932H52.6734V52.0999Z" fill="#EE728E"/>
<path id="Vector_33" d="M53.474 51.4229H35.0139V53.0351H53.474V51.4229Z" fill="#34225F"/>
<path id="Vector_34" d="M32.0468 19.4227C33.0851 20.4583 34.1233 21.4939 35.159 22.5294C35.3866 22.7576 35.7419 22.4016 35.5117 22.1734C34.4735 21.1378 33.4353 20.1022 32.3996 19.0692C32.1719 18.841 31.8167 19.1945 32.0468 19.4227Z" fill="#ACDCF2"/>
<path id="Vector_35" d="M33.8306 20.4132C34.5711 21.0802 35.3091 21.7472 36.0496 22.4141C36.2872 22.6298 36.6425 22.2762 36.4023 22.0606C35.6618 21.3936 34.9238 20.7266 34.1833 20.0596C33.9456 19.844 33.5904 20.1975 33.8306 20.4132Z" fill="#ACDCF2"/>
<path id="Vector_36" d="M48.1203 19.9894C49.6814 21.5014 51.2399 23.0134 52.801 24.5254C53.0336 24.7486 53.3864 24.395 53.1537 24.1719C51.5927 22.6599 50.0341 21.1479 48.473 19.6384C48.2429 19.4102 47.8901 19.7638 48.1203 19.9894Z" fill="#ACDCF2"/>
<path id="Vector_37" d="M50.2443 21.1955C51.1699 22.0104 52.0955 22.8229 53.0212 23.6378C53.2613 23.8509 53.6166 23.4974 53.3739 23.2817C52.4483 22.4668 51.5226 21.6544 50.597 20.8395C50.3568 20.6288 50.0016 20.9824 50.2443 21.1955Z" fill="#ACDCF2"/>
<path id="Vector_38" d="M47.7626 43.6648C47.4098 43.2109 46.887 42.9376 46.149 42.9376C44.9332 42.9376 43.4647 44.585 42.7417 45.5027C42.0187 44.585 40.5502 42.9376 39.3343 42.9376C37.6532 42.9376 37.0953 44.3518 37.0953 46.0995C37.0953 47.8447 37.6507 49.2614 39.3343 49.2614C40.5477 49.2614 42.0187 47.614 42.7417 46.6963C42.8392 46.8192 42.9493 46.9546 43.0719 47.0975C43.5122 47.6165 44.0951 48.2359 44.7105 48.6772C45.1908 49.0232 45.6887 49.2614 46.1515 49.2614C47.8326 49.2614 48.3905 47.8447 48.3905 46.0995C48.388 45.1216 48.2129 44.2465 47.7626 43.6648ZM39.8422 48.0578C39.3393 48.0578 38.9966 47.8648 38.7714 47.5513C38.7714 47.5513 38.7714 47.5513 38.7714 47.5488C38.5163 47.1903 38.4162 46.6737 38.4162 46.0995C38.4162 45.0188 38.7714 44.1437 39.8422 44.1437C40.36 44.1437 40.9479 44.6001 41.4208 45.0715C41.9261 45.578 42.2964 46.102 42.2964 46.102C42.2964 46.102 40.9129 48.0578 39.8422 48.0578ZM45.6461 48.0578C44.9457 48.0578 44.1126 47.2229 43.6198 46.6436C43.3571 46.3352 43.192 46.0995 43.192 46.0995C43.192 46.0995 44.5754 44.1437 45.6461 44.1437C46.7169 44.1437 47.0721 45.0188 47.0721 46.0995C47.0721 47.1802 46.7169 48.0578 45.6461 48.0578Z" fill="#2A4E9D"/>
<path id="Vector_39" d="M43.6197 46.6437C43.4746 46.6512 43.3295 46.7139 43.227 46.8167C43.1519 46.8944 43.0969 46.9922 43.0719 47.1C42.9493 46.9571 42.8392 46.8192 42.7416 46.6988L43.1894 46.1021C43.1894 46.1021 43.3571 46.3352 43.6197 46.6437Z" fill="#243A71"/>
<path id="Vector_40" d="M48.388 46.0995C48.388 47.8447 47.8301 49.2614 46.149 49.2614C45.6886 49.2614 45.1883 49.0232 44.708 48.6772C44.9982 48.8126 45.3109 48.9004 45.6311 48.9179C46.0689 48.943 46.5192 48.8327 46.8744 48.5769C47.2172 48.3312 47.4599 47.9651 47.615 47.5714C47.7701 47.1802 47.8476 46.7615 47.9077 46.3428C47.9877 45.7961 48.0452 45.2395 47.9977 44.6878C47.9677 44.3368 47.8926 43.9858 47.7576 43.6623C48.2129 44.2465 48.388 45.1216 48.388 46.0995Z" fill="#243A71"/>
<path id="Vector_41" d="M41.4207 45.0714C40.9479 44.6 40.36 44.1437 39.8422 44.1437C38.7714 44.1437 38.4162 45.0188 38.4162 46.0995C38.4162 46.6737 38.5163 47.1902 38.7714 47.5488C38.1785 46.8868 37.9158 45.929 38.111 45.0589C38.2085 44.6276 38.4262 44.1988 38.809 43.9732C39.0591 43.8252 39.3593 43.7776 39.647 43.8102C39.9347 43.8453 40.2099 43.9581 40.4551 44.1111C40.8453 44.3518 41.1631 44.6903 41.4207 45.0714Z" fill="#243A71"/>
<g id="Group_12">
<g id="Group_13">
<g id="Clip path group_4">
<mask id="mask3_491_12829" style="mask-type:luminance" maskUnits="userSpaceOnUse" x="37" y="43" width="2" height="2">
<g id="SVGID_8_">
<path id="Vector_42" d="M38.9391 43.1733H37.4731V44.8232H38.9391V43.1733Z" fill="white"/>
</g>
</mask>
<g mask="url(#mask3_491_12829)">
<path id="Vector_43" d="M37.7583 43.9531C37.7407 43.9857 37.7232 44.0183 37.7232 44.0559C37.7232 44.091 37.7433 44.1312 37.7783 44.1412C37.8258 44.1537 37.8683 44.1136 37.9034 44.076C38.0334 43.9331 38.2011 43.8253 38.3837 43.7651C38.4838 43.73 38.5888 43.7124 38.6864 43.6698C38.784 43.6297 38.8765 43.562 38.9191 43.4642C38.9541 43.3814 38.9541 43.2561 38.8665 43.2059C38.7089 43.1131 38.5113 43.2511 38.3787 43.3313C38.126 43.4868 37.9009 43.6949 37.7583 43.9531Z" fill="white"/>
</g>
</g>
<g id="Clip path group_5">
<mask id="mask4_491_12829" style="mask-type:luminance" maskUnits="userSpaceOnUse" x="37" y="43" width="2" height="2">
<g id="SVGID_8__2">
<path id="Vector_44" d="M38.9391 43.1733H37.4731V44.8232H38.9391V43.1733Z" fill="white"/>
</g>
</mask>
<g mask="url(#mask4_491_12829)">
<path id="Vector_45" d="M37.4781 44.6903C37.4731 44.7154 37.4706 44.743 37.4756 44.7681C37.4806 44.7931 37.5006 44.8182 37.5256 44.8232C37.5481 44.8282 37.5706 44.8157 37.5881 44.8007C37.6032 44.7831 37.6132 44.763 37.6232 44.743C37.6557 44.6678 37.6907 44.5925 37.7132 44.5148C37.7257 44.4722 37.7332 44.427 37.7182 44.3844C37.7057 44.3493 37.6657 44.3167 37.6282 44.3192C37.5856 44.3217 37.5681 44.3619 37.5531 44.397C37.5081 44.4872 37.4931 44.59 37.4781 44.6903Z" fill="white"/>
</g>
</g>
</g>
</g>
<g id="Group_14">
<g id="Group_15">
<g id="Clip path group_6">
<mask id="mask5_491_12829" style="mask-type:luminance" maskUnits="userSpaceOnUse" x="46" y="43" width="2" height="1">
<g id="SVGID_10_">
<path id="Vector_46" d="M47.2097 43.1458H46.0164V43.8127H47.2097V43.1458Z" fill="white"/>
</g>
</mask>
<g mask="url(#mask5_491_12829)">
<path id="Vector_47" d="M46.0714 43.1783C46.0989 43.1633 46.134 43.1558 46.1665 43.1533C46.3716 43.1307 46.6043 43.1708 46.7969 43.2435C46.972 43.3087 47.1321 43.4366 47.1922 43.6146C47.2097 43.6648 47.2172 43.7224 47.1872 43.7651C47.1522 43.8152 47.0796 43.8253 47.0221 43.8052C46.942 43.7776 46.882 43.7099 46.8144 43.6598C46.6593 43.5444 46.4817 43.4617 46.2916 43.4165C46.2265 43.4015 46.159 43.3915 46.0964 43.3639C46.0214 43.3288 45.9714 43.246 46.0614 43.1858C46.0664 43.1808 46.0689 43.1783 46.0714 43.1783Z" fill="white"/>
</g>
</g>
</g>
</g>
<g id="Group_16">
<g id="Group_17">
<g id="Clip path group_7">
<mask id="mask6_491_12829" style="mask-type:luminance" maskUnits="userSpaceOnUse" x="45" y="43" width="1" height="1">
<g id="SVGID_12_">
<path id="Vector_48" d="M45.8838 43.1909H45.456V43.4165H45.8838V43.1909Z" fill="white"/>
</g>
</mask>
<g mask="url(#mask6_491_12829)">
<path id="Vector_49" d="M45.491 43.2786C45.5535 43.216 45.6886 43.1834 45.7737 43.1959C45.8312 43.2034 45.9163 43.2636 45.8713 43.3288C45.8487 43.3639 45.8012 43.3664 45.7612 43.3714C45.7162 43.3764 45.6686 43.3814 45.6236 43.394C45.5911 43.4015 45.5535 43.4191 45.5185 43.4191C45.4735 43.4216 45.451 43.3865 45.456 43.3463C45.461 43.3188 45.4735 43.2962 45.491 43.2786Z" fill="white"/>
</g>
</g>
</g>
</g>
</g>
</g>
</svg>
