<svg width="25" height="24" viewBox="0 0 25 24" fill="none" xmlns="http://www.w3.org/2000/svg">
<g id="Component 2">
<path id="Vector" d="M20.75 3.75H4.25C3.85218 3.75 3.47064 3.90804 3.18934 4.18934C2.90804 4.47064 2.75 4.85218 2.75 5.25V18.75C2.75 19.1478 2.90804 19.5294 3.18934 19.8107C3.47064 20.092 3.85218 20.25 4.25 20.25H20.75C21.1478 20.25 21.5294 20.092 21.8107 19.8107C22.092 19.5294 22.25 19.1478 22.25 18.75V5.25C22.25 4.85218 22.092 4.47064 21.8107 4.18934C21.5294 3.90804 21.1478 3.75 20.75 3.75ZM15.125 8.25C15.3475 8.25 15.565 8.31598 15.75 8.4396C15.935 8.56321 16.0792 8.73891 16.1644 8.94448C16.2495 9.15005 16.2718 9.37625 16.2284 9.59448C16.185 9.81271 16.0778 10.0132 15.9205 10.1705C15.7632 10.3278 15.5627 10.435 15.3445 10.4784C15.1262 10.5218 14.9 10.4995 14.6945 10.4144C14.4889 10.3292 14.3132 10.185 14.1896 10C14.066 9.81501 14 9.5975 14 9.375C14 9.07663 14.1185 8.79048 14.3295 8.5795C14.5405 8.36853 14.8266 8.25 15.125 8.25ZM4.25 18.75V16.125L9.125 11.25L16.625 18.75H4.25ZM20.75 18.75H18.7466L15.3716 15.375L17.2466 13.5L20.75 17.0044V18.75Z" fill="#B5A6D9"/>
</g>
</svg>
