<svg width="52" height="51" viewBox="0 0 52 51" fill="none" xmlns="http://www.w3.org/2000/svg">
<g id="Group 4">
<g id="Mask group">
<mask id="mask0_101_3929" style="mask-type:alpha" maskUnits="userSpaceOnUse" x="0" y="0" width="52" height="51">
<circle id="Ellipse 3" cx="26" cy="25.5" r="25.5" fill="#D9D9D9"/>
</mask>
<g mask="url(#mask0_101_3929)">
<g id="Group 3">
<g id="Group 2">
<path id="Vector" d="M39.9915 21.2185L39.2845 41.9247L43.3709 43.6464L42.1977 19.4236L39.9915 21.2185Z" fill="#C37D40"/>
<path id="Vector_2" d="M12.7885 40.5443C12.7885 40.5443 24.9471 32.1673 39.2845 41.9247L40.6253 24.3785H11.2526L12.7885 40.5443Z" fill="#914921"/>
<path id="Vector_3" d="M40.8813 22.8366C40.8813 30.0799 34.2413 35.9398 26.0502 35.9398C17.8591 35.9398 11.2191 30.0677 11.2191 22.8366C11.2191 15.6054 17.8591 9.71806 26.0502 9.71806C34.2413 9.71806 40.8813 15.5902 40.8813 22.8366Z" fill="#F7BD94"/>
<path id="Vector_4" d="M9.33889 25.4633C9.41507 26.6517 10.2531 27.5659 11.1947 27.505C12.1363 27.444 12.8554 26.4384 12.7823 25.2531C12.7092 24.0677 11.8681 23.1504 10.9296 23.2083C9.99101 23.2662 9.26576 24.2779 9.33889 25.4633Z" fill="#F7BD94"/>
<path id="Vector_5" d="M10.1861 23.8757C10.3157 23.8073 10.4601 23.7717 10.6066 23.7721C11.2344 23.7721 11.6884 24.8325 11.0546 24.991C10.9902 25.0661 10.9548 25.1618 10.9548 25.2607C10.9548 25.3596 10.9902 25.4552 11.0546 25.5304C11.2557 25.7924 11.53 26.1703 11.4446 26.5268C11.4071 26.6241 11.3434 26.7092 11.2606 26.7726C11.1778 26.8361 11.0791 26.8754 10.9754 26.8864C10.8138 26.9199 10.7895 26.7828 10.9175 26.7249C11.0153 26.6783 11.1009 26.6094 11.1673 26.5238L11.1887 26.4902L11.2039 26.4628C11.2189 26.4121 11.2189 26.3581 11.2039 26.3074C11.1337 26.3647 11.0445 26.3933 10.9541 26.3877C10.8638 26.382 10.7788 26.3425 10.7163 26.2769C10.6066 26.1185 10.7163 25.8777 10.6767 25.701C10.6509 25.5754 10.6067 25.4542 10.5457 25.3414C10.2836 24.8082 10.8078 24.7472 10.8078 24.7472C10.8713 24.7505 10.9344 24.7587 10.9967 24.7716C11.2679 24.6345 10.9967 24.1956 10.8382 24.1195C10.7501 24.0721 10.6492 24.054 10.55 24.0676C10.4509 24.0813 10.3587 24.1262 10.2867 24.1956C10.1512 24.3626 10.0789 24.5719 10.0825 24.7868C10.0854 25.0357 10.1318 25.2822 10.2196 25.5151L10.3872 25.9295C10.4451 26.0789 10.2836 26.1337 10.2257 25.9844C10.0403 25.6036 9.91 25.1983 9.83872 24.7807C9.80843 24.6125 9.8248 24.4392 9.88604 24.2797C9.94728 24.1201 10.0511 23.9804 10.1861 23.8757Z" fill="#EAA588"/>
<path id="Vector_6" d="M42.731 25.4633C42.6579 26.6517 41.8168 27.5659 40.8782 27.505C39.9397 27.444 39.2144 26.4384 39.2876 25.2531C39.3607 24.0677 40.2017 23.1504 41.1434 23.2083C42.085 23.2662 42.8041 24.2779 42.731 25.4633Z" fill="#F7BD94"/>
<path id="Vector_7" d="M41.8838 23.8757C41.7543 23.8073 41.6099 23.7717 41.4633 23.7721C40.8356 23.7721 40.3815 24.8325 41.0154 24.991C41.0823 25.0639 41.121 25.1584 41.1243 25.2573C41.1277 25.3562 41.0955 25.4531 41.0337 25.5304C40.8295 25.7924 40.5583 26.1703 40.6406 26.5268C40.6781 26.6241 40.7418 26.7092 40.8246 26.7726C40.9074 26.8361 41.0061 26.8754 41.1098 26.8864C41.2713 26.9199 41.2957 26.7828 41.1677 26.7249C41.0699 26.6783 40.9843 26.6094 40.9179 26.5238L40.8996 26.4902C40.8924 26.4818 40.8863 26.4726 40.8813 26.4628C40.8648 26.4123 40.8648 26.3579 40.8813 26.3074C40.951 26.3645 41.0397 26.393 41.1295 26.3874C41.2194 26.3817 41.3038 26.3423 41.3658 26.2769C41.4755 26.1185 41.3658 25.8777 41.4054 25.701C41.4326 25.5758 41.4767 25.4548 41.5365 25.3414C41.7985 24.8082 41.2744 24.7472 41.2744 24.7472C41.2109 24.7505 41.1477 24.7587 41.0855 24.7716C40.8173 24.6345 41.0855 24.1956 41.247 24.1195C41.3347 24.0723 41.4351 24.0543 41.5337 24.068C41.6323 24.0817 41.7239 24.1264 41.7955 24.1956C41.9309 24.3626 42.0032 24.5719 41.9996 24.7868C41.9968 25.0357 41.9504 25.2822 41.8625 25.5151C41.8138 25.6462 41.7467 25.7985 41.6949 25.9295C41.6431 26.0606 41.7985 26.1337 41.8564 25.9844C42.0432 25.6041 42.1735 25.1986 42.2434 24.7807C42.2749 24.6113 42.2578 24.4365 42.1942 24.2763C42.1306 24.1162 42.023 23.9773 41.8838 23.8757Z" fill="#EAA588"/>
<path id="Vector_8" d="M27.1015 27.5385C27.0352 27.5385 26.9717 27.5122 26.9248 27.4653C26.8779 27.4185 26.8516 27.3549 26.8516 27.2886C26.8516 27.072 26.7656 26.8643 26.6124 26.7112C26.4593 26.558 26.2515 26.472 26.0349 26.472C25.8184 26.472 25.6106 26.558 25.4575 26.7112C25.3043 26.8643 25.2183 27.072 25.2183 27.2886C25.2221 27.3236 25.2186 27.3589 25.2079 27.3924C25.1972 27.4258 25.1795 27.4567 25.1561 27.4829C25.1327 27.509 25.104 27.53 25.0719 27.5443C25.0398 27.5587 25.0051 27.5661 24.9699 27.5661C24.9348 27.5661 24.9 27.5587 24.868 27.5443C24.8359 27.53 24.8072 27.509 24.7837 27.4829C24.7603 27.4567 24.7427 27.4258 24.7319 27.3924C24.7212 27.3589 24.7177 27.3236 24.7216 27.2886C24.7216 26.9403 24.8599 26.6062 25.1062 26.3599C25.3526 26.1136 25.6866 25.9753 26.0349 25.9753C26.3833 25.9753 26.7173 26.1136 26.9636 26.3599C27.2099 26.6062 27.3483 26.9403 27.3483 27.2886C27.3483 27.3544 27.3224 27.4175 27.2762 27.4643C27.23 27.511 27.1672 27.5377 27.1015 27.5385Z" fill="#EBA486"/>
<path id="Vector_9" opacity="0.3" d="M15.8419 27.9407C15.8419 28.6782 16.7926 29.2754 17.975 29.2754C19.1573 29.2754 20.1081 28.666 20.1081 27.9407C20.1081 27.2155 19.1573 26.606 17.975 26.606C16.7926 26.606 15.8419 27.2033 15.8419 27.9407Z" fill="#ED6F81"/>
<path id="Vector_10" opacity="0.3" d="M31.9741 27.9407C31.9741 28.6782 32.9249 29.2754 34.1072 29.2754C35.2896 29.2754 36.2403 28.666 36.2403 27.9407C36.2403 27.2155 35.2865 26.606 34.1072 26.606C32.9279 26.606 31.9741 27.2033 31.9741 27.9407Z" fill="#ED6F81"/>
<path id="Vector_11" d="M26.035 31.5853C25.1691 31.4865 24.3523 31.1322 23.6886 30.5675C23.6553 30.5388 23.6327 30.4997 23.6244 30.4566C23.6161 30.4135 23.6226 30.3688 23.6429 30.3298C23.6502 30.3117 23.6616 30.2954 23.6761 30.2824C23.6907 30.2693 23.7081 30.2598 23.7269 30.2545C23.7457 30.2492 23.7655 30.2483 23.7848 30.2518C23.804 30.2554 23.8222 30.2633 23.8379 30.2749C25.2591 30.78 26.8109 30.78 28.232 30.2749C28.2482 30.2649 28.2663 30.2583 28.2852 30.2556C28.3041 30.2529 28.3233 30.2542 28.3417 30.2593C28.36 30.2645 28.3771 30.2734 28.3918 30.2856C28.4065 30.2977 28.4185 30.3128 28.4271 30.3298C28.4473 30.3688 28.4538 30.4135 28.4456 30.4566C28.4373 30.4997 28.4146 30.5388 28.3814 30.5675C27.6013 31.1495 26.7297 31.5853 26.035 31.5853Z" fill="#F19381"/>
<path id="Vector_12" d="M25.9496 32.7128C25.633 32.7219 25.319 32.6529 25.0355 32.5117C24.9789 32.4769 24.9383 32.4214 24.9223 32.3569C24.9064 32.2925 24.9163 32.2244 24.9501 32.1673C24.9668 32.1391 24.9888 32.1145 25.0151 32.0949C25.0413 32.0753 25.0712 32.0611 25.1029 32.0532C25.1347 32.0452 25.1677 32.0437 25.2001 32.0486C25.2324 32.0536 25.2635 32.0649 25.2914 32.082C25.3189 32.082 25.8521 32.3867 26.8334 32.0607C26.8944 32.043 26.9599 32.0492 27.0165 32.078C27.0731 32.1069 27.1166 32.1563 27.1381 32.2161C27.1556 32.2775 27.149 32.3433 27.1195 32.4C27.09 32.4566 27.04 32.4999 26.9796 32.5208C26.6489 32.64 26.3011 32.7049 25.9496 32.7128Z" fill="#F4AA8A"/>
<path id="Vector_13" d="M20.1325 18.7258C19.3623 18.6491 18.5877 18.8188 17.9201 19.2103C17.3655 19.5394 17.8988 20.3866 18.4534 20.0544C18.9782 19.7627 19.5828 19.6473 20.1782 19.7253C20.3102 19.719 20.4344 19.6606 20.5235 19.5629C20.6126 19.4653 20.6593 19.3363 20.6535 19.2042C20.6449 19.0727 20.586 18.9496 20.4889 18.8605C20.3919 18.7714 20.2642 18.7232 20.1325 18.7258Z" fill="#86432D"/>
<path id="Vector_14" d="M34.1255 19.1981C33.4563 18.8077 32.6811 18.6382 31.9101 18.7136C31.7783 18.7117 31.6506 18.7601 31.5533 18.849C31.4559 18.9379 31.396 19.0606 31.386 19.192C31.3831 19.2577 31.3932 19.3232 31.4157 19.385C31.4382 19.4467 31.4727 19.5034 31.5171 19.5518C31.5616 19.6002 31.6151 19.6393 31.6747 19.667C31.7343 19.6947 31.7987 19.7104 31.8644 19.7131C32.4607 19.6353 33.0663 19.7506 33.5922 20.0422C34.1438 20.3744 34.677 19.5272 34.1255 19.1981Z" fill="#86432D"/>
<path id="Vector_15" d="M11.8377 26.8864C11.8377 27.0117 11.8005 27.1343 11.7309 27.2385C11.6612 27.3428 11.5623 27.424 11.4464 27.472C11.3306 27.5199 11.2032 27.5325 11.0802 27.508C10.9573 27.4836 10.8443 27.4232 10.7557 27.3346C10.667 27.2459 10.6067 27.133 10.5822 27.01C10.5578 26.8871 10.5703 26.7597 10.6183 26.6438C10.6663 26.528 10.7475 26.429 10.8517 26.3594C10.956 26.2897 11.0785 26.2526 11.2039 26.2526C11.3717 26.2534 11.5325 26.3204 11.6512 26.4391C11.7699 26.5578 11.8369 26.7185 11.8377 26.8864Z" fill="white"/>
<path id="Vector_16" d="M11.3563 27.2246C11.2229 27.2246 11.095 27.1717 11.0007 27.0774C10.9064 26.9831 10.8535 26.8552 10.8535 26.7218C10.8541 26.6164 10.8885 26.514 10.9516 26.4296C11.0146 26.3452 11.103 26.2831 11.2039 26.2525C11.0777 26.2519 10.9541 26.2889 10.8489 26.3586C10.7437 26.4284 10.6616 26.5278 10.613 26.6443C10.5645 26.7608 10.5516 26.8891 10.5761 27.0129C10.6005 27.1368 10.6613 27.2505 10.7505 27.3398C10.8398 27.429 10.9535 27.4897 11.0774 27.5142C11.2012 27.5387 11.3295 27.5258 11.446 27.4772C11.5625 27.4287 11.6619 27.3466 11.7317 27.2414C11.8014 27.1362 11.8383 27.0126 11.8377 26.8864C11.8377 26.8711 11.8377 26.8559 11.8377 26.8407C11.8124 26.9495 11.751 27.0466 11.6637 27.1163C11.5763 27.1859 11.468 27.2241 11.3563 27.2246Z" fill="#EDEDED"/>
<path id="Vector_17" d="M41.2592 26.8864C41.2592 27.0117 41.222 27.1343 41.1523 27.2385C41.0827 27.3428 40.9837 27.424 40.8679 27.472C40.7521 27.5199 40.6246 27.5325 40.5017 27.508C40.3787 27.4836 40.2658 27.4232 40.1771 27.3346C40.0885 27.2459 40.0281 27.133 40.0037 27.01C39.9792 26.8871 39.9918 26.7597 40.0397 26.6438C40.0877 26.528 40.1689 26.429 40.2732 26.3594C40.3774 26.2897 40.5 26.2526 40.6253 26.2526C40.7932 26.2534 40.9539 26.3204 41.0726 26.4391C41.1913 26.5578 41.2584 26.7185 41.2592 26.8864Z" fill="white"/>
<path id="Vector_18" d="M40.7777 27.2246C40.7117 27.2246 40.6463 27.2116 40.5853 27.1864C40.5243 27.1611 40.4689 27.1241 40.4222 27.0774C40.3755 27.0307 40.3384 26.9752 40.3132 26.9142C40.2879 26.8532 40.2749 26.7879 40.2749 26.7218C40.2756 26.6164 40.3099 26.514 40.373 26.4296C40.4361 26.3452 40.5245 26.2831 40.6253 26.2525C40.4991 26.2519 40.3756 26.2889 40.2704 26.3586C40.1652 26.4284 40.0831 26.5278 40.0345 26.6443C39.9859 26.7608 39.973 26.8891 39.9975 27.0129C40.022 27.1368 40.0827 27.2505 40.1719 27.3398C40.2612 27.429 40.375 27.4897 40.4988 27.5142C40.6226 27.5387 40.7509 27.5258 40.8674 27.4772C40.9839 27.4287 41.0834 27.3466 41.1531 27.2414C41.2228 27.1362 41.2598 27.0126 41.2592 26.8864C41.2592 26.8711 41.2592 26.8559 41.2592 26.8407C41.2338 26.9495 41.1725 27.0466 41.0851 27.1163C40.9977 27.1859 40.8894 27.2241 40.7777 27.2246Z" fill="#EDEDED"/>
<path id="Vector_19" d="M22.1374 23.8483C22.1374 24.3684 21.9832 24.8768 21.6942 25.3093C21.4053 25.7418 20.9946 26.0788 20.514 26.2779C20.0335 26.4769 19.5047 26.529 18.9946 26.4275C18.4845 26.3261 18.0159 26.0756 17.6481 25.7078C17.2803 25.34 17.0299 24.8714 16.9284 24.3613C16.8269 23.8512 16.879 23.3224 17.078 22.8419C17.2771 22.3614 17.6141 21.9506 18.0466 21.6617C18.4791 21.3727 18.9875 21.2185 19.5077 21.2185C20.2051 21.2185 20.874 21.4955 21.3672 21.9887C21.8604 22.4819 22.1374 23.1508 22.1374 23.8483Z" fill="white"/>
<path id="Vector_20" d="M21.6469 23.8483C21.6326 24.1806 21.5209 24.5014 21.3257 24.7708C21.1306 25.0402 20.8606 25.2463 20.5493 25.3636C20.238 25.4808 19.8991 25.504 19.5747 25.4302C19.2504 25.3564 18.9548 25.189 18.7248 24.9486C18.4949 24.7083 18.3406 24.4057 18.2811 24.0784C18.2217 23.7511 18.2597 23.4136 18.3905 23.1077C18.5213 22.8019 18.7391 22.5412 19.0168 22.3581C19.2946 22.175 19.62 22.0775 19.9526 22.0778C20.4114 22.0898 20.8469 22.2826 21.1643 22.6142C21.4816 22.9458 21.6551 23.3893 21.6469 23.8483Z" fill="#965D39"/>
<path id="Vector_21" d="M19.5077 26.4781H19.4163C19.328 26.4843 19.2394 26.4843 19.1511 26.4781C19.0127 26.4682 18.8751 26.4478 18.7398 26.4171C18.563 26.3762 18.3913 26.3159 18.2278 26.2373C18.0337 26.1425 17.8517 26.0248 17.6854 25.8869C17.4953 25.7343 17.3299 25.5534 17.1948 25.3506C17.0458 25.1343 16.9298 24.897 16.8505 24.6466C16.772 24.3835 16.731 24.1106 16.7286 23.8361C16.7337 23.5677 16.7747 23.3013 16.8505 23.0438C16.9291 22.7931 17.0452 22.5558 17.1948 22.3399C17.3299 22.137 17.4953 21.9561 17.6854 21.8035C17.8526 21.6711 18.0346 21.5586 18.2278 21.4683C18.3914 21.3906 18.5631 21.3313 18.7398 21.2916C18.8749 21.2594 19.0125 21.239 19.1511 21.2307C19.2393 21.223 19.3281 21.223 19.4163 21.2307C19.3301 21.2409 19.2446 21.2561 19.1603 21.2764C19.0284 21.3005 18.8989 21.3362 18.7733 21.383C18.6139 21.4464 18.4592 21.5207 18.3101 21.6055C18.138 21.7084 17.9784 21.8312 17.8347 21.9711C17.6749 22.1261 17.5347 22.3001 17.4172 22.4892C17.296 22.6907 17.2008 22.9067 17.1338 23.1322C17.0673 23.3672 17.0325 23.6101 17.0302 23.8544C17.0346 24.0945 17.0694 24.333 17.1338 24.5644C17.1995 24.7903 17.2948 25.0065 17.4172 25.2073C17.5347 25.3964 17.6749 25.5704 17.8347 25.7254C17.9784 25.8653 18.138 25.9881 18.3101 26.0911C18.4588 26.1764 18.6137 26.2508 18.7733 26.3135C18.898 26.3599 19.0265 26.3956 19.1572 26.4202C19.2427 26.4399 19.3292 26.4552 19.4163 26.4659L19.5077 26.4781Z" fill="#EBA486"/>
<path id="Vector_22" d="M29.9324 23.8483C29.9324 24.3684 30.0866 24.8768 30.3756 25.3093C30.6646 25.7418 31.0753 26.0788 31.5558 26.2779C32.0364 26.4769 32.5651 26.529 33.0752 26.4275C33.5854 26.3261 34.054 26.0756 34.4217 25.7078C34.7895 25.34 35.04 24.8714 35.1415 24.3613C35.2429 23.8512 35.1909 23.3224 34.9918 22.8419C34.7928 22.3614 34.4557 21.9506 34.0232 21.6617C33.5908 21.3727 33.0823 21.2185 32.5622 21.2185C31.8647 21.2185 31.1958 21.4955 30.7027 21.9887C30.2095 22.4819 29.9324 23.1508 29.9324 23.8483Z" fill="white"/>
<path id="Vector_23" d="M30.4231 23.8483C30.4397 24.1799 30.5534 24.4995 30.7499 24.7672C30.9464 25.0349 31.2171 25.2391 31.5285 25.3545C31.8399 25.4699 32.1783 25.4914 32.5019 25.4164C32.8254 25.3413 33.1198 25.173 33.3485 24.9323C33.5773 24.6915 33.7305 24.389 33.789 24.0621C33.8475 23.7352 33.8089 23.3983 33.6778 23.0931C33.5467 22.788 33.3291 22.528 33.0517 22.3453C32.7743 22.1627 32.4494 22.0654 32.1173 22.0656C31.6564 22.0776 31.219 22.2721 30.9013 22.6063C30.5836 22.9406 30.4116 23.3873 30.4231 23.8483Z" fill="#965D39"/>
<path id="Vector_24" d="M32.5623 26.4781H32.6537C32.7408 26.4676 32.8273 26.4524 32.9127 26.4324C33.0435 26.4078 33.1719 26.3721 33.2966 26.3257C33.4565 26.2635 33.6114 26.1891 33.7598 26.1033C34.1251 25.8859 34.4316 25.5825 34.6527 25.2195C34.7762 25.0188 34.8725 24.8026 34.9391 24.5766C35.0026 24.3451 35.0364 24.1065 35.0397 23.8666C35.0385 23.6224 35.0046 23.3795 34.9391 23.1444C34.8712 22.9188 34.7749 22.7028 34.6527 22.5014C34.5352 22.3123 34.395 22.1383 34.2352 21.9833C34.0915 21.8434 33.932 21.7207 33.7598 21.6177C33.6111 21.5323 33.4563 21.458 33.2966 21.3952C33.1719 21.3488 33.0435 21.3131 32.9127 21.2886C32.8273 21.2685 32.7408 21.2533 32.6537 21.2429C32.7419 21.2352 32.8306 21.2352 32.9188 21.2429C33.0574 21.2512 33.1951 21.2716 33.3302 21.3038C33.5066 21.3445 33.6782 21.4037 33.8421 21.4805C34.0362 21.5765 34.2183 21.6952 34.3845 21.834C34.5748 21.9873 34.7412 22.1681 34.8782 22.3703C35.0256 22.5871 35.1406 22.8243 35.2195 23.0743C35.3861 23.5956 35.3861 24.1558 35.2195 24.6771C35.1399 24.9269 35.025 25.1639 34.8782 25.381C34.7412 25.5833 34.5748 25.7641 34.3845 25.9174C34.2183 26.0553 34.0362 26.1729 33.8421 26.2678C33.6786 26.3464 33.5069 26.4067 33.3302 26.4476C33.1948 26.4783 33.0573 26.4987 32.9188 26.5085C32.8305 26.5148 32.7419 26.5148 32.6537 26.5085L32.5623 26.4781Z" fill="#EBA486"/>
<path id="Vector_25" d="M40.8599 23.1169C41.2839 23.0894 41.7021 23.227 42.027 23.5009C42.0545 23.1105 42.1033 22.7219 42.1732 22.3368C42.2377 21.3375 42.2459 20.3354 42.1976 19.3353C42.0849 16.614 41.7588 13.774 40.2687 11.4276C38.8227 9.12855 36.8101 7.23976 34.424 5.9425C32.2842 4.82356 29.9322 4.16934 27.522 4.02271C25.6926 3.94632 23.8602 4.06276 22.0552 4.3701C22.0552 4.3701 7.63547 6.46662 10.1312 23.4247C10.1312 23.4247 10.25 23.1474 11.2099 23.12C11.1886 23.12 11.7036 21.4257 11.7219 21.3251C11.9467 20.1567 12.4345 19.0549 13.1483 18.103C13.8621 17.151 14.7832 16.3741 15.8418 15.8309C15.8418 15.8309 20.3182 14.7247 21.6651 13.0152C21.6651 13.0152 23.6215 17.9762 28.4483 20.1184C28.4483 20.1184 24.7215 17.1717 23.8774 13.7435C23.8744 13.7435 25.7728 19.4297 40.8599 23.1169Z" fill="#C37D40"/>
<path id="Vector_26" d="M28.2504 35.8393H23.7953V37.8322H28.2504V35.8393Z" fill="#F9BD94"/>
<path id="Vector_27" d="M28.2473 36.4304V35.8393H23.7953V37.0582C25.3076 37.187 26.8296 36.9724 28.2473 36.4304Z" fill="#EAA588"/>
<path id="Vector_28" d="M17.3898 56.6887C17.3898 56.6887 15.79 49.9024 20.2877 42.8419C20.2877 42.8419 19.8093 41.6809 18.8068 41.9704C18.8068 41.9704 12.7122 48.8999 15.7412 57.0666C15.7412 57.0666 16.7468 58.4165 17.3898 56.6887Z" fill="#F7BD94"/>
<path id="Vector_29" d="M34.4821 56.6887C34.4821 56.6887 36.0819 49.9024 31.5811 42.8419C31.5811 42.8419 32.0625 41.6778 33.0651 41.9704C33.0651 41.9704 39.1444 48.8999 36.1306 57.0666C36.1337 57.0666 35.1281 58.4165 34.4821 56.6887Z" fill="#F7BD94"/>
<path id="Vector_30" d="M33.1199 39.4472C32.6963 38.1004 31.645 37.8809 31.645 37.8809L27.711 37.1039H24.359L20.4249 37.8809C20.4249 37.8809 19.3736 38.1064 18.9409 39.4472C18.6819 47.0441 18.4594 51.2767 18.0267 57.3835C18.0267 57.3835 21.3056 58.7182 26.038 58.6024C30.7704 58.7273 34.0493 57.3835 34.0493 57.3835C33.8725 54.1991 33.4977 47.23 33.1199 39.4472Z" fill="#F9BD94"/>
<path id="Vector_31" d="M28.5276 37.2745L31.6328 37.884C31.6328 37.884 32.6841 38.1034 33.1046 39.4503C33.4093 45.4748 33.5526 49.1193 34.034 57.3865C34.034 57.3865 30.7521 58.7212 26.0227 58.6054C21.2903 58.7304 18.0084 57.3865 18.0084 57.3865C18.3802 50.908 18.6179 47.2726 18.9226 39.4503C19.3431 38.1034 20.3975 37.884 20.3975 37.884L23.3808 37.3142C23.3808 37.3142 23.4234 39.2218 25.8978 39.173C25.8978 39.1578 28.2473 39.4472 28.5276 37.2745Z" fill="#9F83BB"/>
<path id="Vector_32" d="M20.3549 37.9053C20.3549 37.9053 17.5697 38.012 16.4453 41.562L15.6255 43.6951C15.6255 43.6951 16.8445 45.9684 19.5565 45.8953C19.5504 45.877 21.2356 40.7819 20.3549 37.9053Z" fill="#9C599F"/>
<path id="Vector_33" d="M31.5719 37.9053C31.5719 37.9053 34.3571 38.012 35.4815 41.562L36.2982 43.6951C36.2982 43.6951 35.0793 45.9684 32.3703 45.8953C32.3703 45.877 30.6912 40.7819 31.5719 37.9053Z" fill="#9C599F"/>
<path id="Vector_34" d="M8.54362 43.6433L12.7885 40.5443V18.4211L10.2836 15.5475C8.91039 24.8468 8.32831 34.2457 8.54362 43.6433Z" fill="#C37D40"/>
<path id="Vector_35" opacity="0.1" d="M12.1638 21.9772C12.1638 21.9772 11.8591 25.698 11.5544 28.7848C11.5233 27.8404 11.3644 26.9045 11.082 26.0027C10.6157 27.0913 10.2267 28.2114 9.91797 29.3547C9.91797 29.3547 9.52487 24.799 10.4086 21.5384C10.4086 21.5384 10.2227 23.9184 11.018 25.2713C11.2026 24.1143 11.5906 22.9991 12.1638 21.9772Z" fill="white"/>
<path id="Vector_36" opacity="0.1" d="M11.8102 31.4908C11.8102 31.4908 11.5055 35.2115 11.2008 38.2984C11.1647 37.3543 11.0007 36.4194 10.7132 35.5193C10.2477 36.603 9.85872 37.718 9.54917 38.8561C9.54917 38.8561 9.16217 34.3156 10.0489 31.0551C10.0489 31.0551 9.86609 33.4319 10.6584 34.788C10.8435 33.6292 11.2335 32.5127 11.8102 31.4908Z" fill="white"/>
<path id="Vector_37" d="M29.4783 44.2345H22.5671V51.5083H29.4783V44.2345Z" fill="#9C599F"/>
<path id="Vector_38" opacity="0.1" d="M34.5886 8.7338C32.2269 8.01724 29.7323 7.85149 27.2965 8.24929C33.4337 10.5104 34.1925 12.2473 34.1925 12.2473C31.069 10.361 27.1655 10.0837 27.1655 10.0837C28.0797 12.2168 32.0411 13.2712 32.0411 13.2712C26.556 13.1706 25.3371 10.6018 25.3371 10.6018C24.2279 9.99232 24.042 12.0309 24.042 12.0309C24.0292 11.5002 23.857 10.9856 23.5477 10.5541C23.2385 10.1226 22.8066 9.79413 22.3081 9.61142L22.3813 5.54636C22.3813 5.54636 30.9532 3.7637 34.5886 8.7338Z" fill="white"/>
<path id="Vector_39" opacity="0.1" d="M15.8418 12.4393C16.9876 10.9156 19.1938 9.62664 19.1938 9.62664C16.4238 10.4555 13.4802 13.0152 13.4802 13.0152C14.7296 10.3732 17.6214 8.42601 17.6214 8.42601C16.1819 8.79424 14.859 9.52071 13.7758 10.5378C17.8713 5.66214 22.2076 5.49149 22.2076 5.49149L21.5158 12.0218C21.5158 12.0218 20.7174 10.1934 15.8418 12.4393Z" fill="white"/>
<path id="Vector_40" opacity="0.1" d="M33.0559 15.4256C33.0559 15.4256 39.6136 17.6501 40.6253 20.478C40.2506 19.2632 39.6465 18.1316 38.8457 17.1443C38.8457 17.1443 40.9178 17.5069 41.4328 19.2256C41.4328 19.2256 41.701 15.1087 34.5643 13.1066C34.5643 13.1066 37.2459 14.6821 38.0991 16.5409C38.0991 16.5409 35.5577 14.743 33.0559 15.4256Z" fill="white"/>
<path id="Vector_41" opacity="0.1" d="M17.9109 13.8502C17.9109 13.8502 11.8468 17.2022 11.3501 20.158C11.506 18.8959 11.9022 17.6753 12.5172 16.5622C12.5172 16.5622 10.5395 17.2844 10.3354 19.0701C10.3354 19.0701 9.345 15.063 16.0185 11.8329C16.0185 11.8329 13.6569 13.8563 13.1419 15.837C13.151 15.8248 15.3298 13.6064 17.9109 13.8502Z" fill="white"/>
</g>
<g id="Union" filter="url(#filter0_i_101_3929)">
<path fill-rule="evenodd" clip-rule="evenodd" d="M42.1976 19.3353C42.2052 19.4916 42.2113 19.648 42.2161 19.8044L42.4231 24.0784C42.6445 24.4643 42.7628 24.9473 42.731 25.4633C42.7121 25.7708 42.6417 26.0599 42.5316 26.3185L43.3709 43.6464L39.2845 41.9247C37.4724 40.6915 35.6951 39.7479 33.9727 39.0405C34.5503 39.5822 35.1077 40.3818 35.4815 41.562L36.2982 43.6951C36.2982 43.6951 35.9059 44.4268 35.0717 45.0466C36.4549 47.721 37.8014 51.8815 36.3308 56.4849C36.4007 56.5548 36.4383 56.6034 36.4383 56.6034C36.9838 57.1458 36.8314 58.2946 36.8314 58.2946C36.728 59.0799 36.434 59.8279 35.9751 60.4734C35.7222 60.7233 35.5333 60.5557 35.5424 60.5587C35.2956 60.4247 35.5698 59.9493 35.5698 59.9493L36.1122 58.4957C36.1122 58.4957 35.9385 58.837 35.6064 59.7512C35.6064 59.7512 35.256 60.769 34.7379 60.641C34.7379 60.641 34.3143 60.4582 34.6892 60.0072C34.6892 60.0072 35.2559 58.901 35.2986 58.3982C35.153 58.9175 34.9377 59.4147 34.6587 59.8762C34.5713 60.0075 34.4922 60.1097 34.4212 60.1887L35.0914 65.6355L35.0673 65.6412C35.0952 65.7251 35.1098 65.8136 35.1098 65.9037C35.1098 66.0682 35.061 66.229 34.9696 66.3658C34.8782 66.5026 34.7483 66.6093 34.5962 66.6722C34.4442 66.7352 34.277 66.7517 34.1156 66.7196C33.9542 66.6875 33.806 66.6082 33.6896 66.4919C33.6796 66.4818 33.6698 66.4716 33.6603 66.461C33.6367 66.5393 33.6016 66.6141 33.5557 66.6828C33.4642 66.8196 33.3343 66.9262 33.1823 66.9892C33.0303 67.0521 32.863 67.0686 32.7017 67.0365C32.5403 67.0044 32.392 66.9252 32.2757 66.8088C32.2485 66.7817 32.2234 66.7528 32.2004 66.7224C32.1829 66.8451 32.138 66.9628 32.0686 67.0667L32.0572 67.0834L32.0468 67.0978L31.5362 75.9392C31.8926 76.2216 31.974 76.5386 31.974 76.5386L33.1015 78.9765C33.1015 78.9765 33.1305 79.0684 33.1461 79.2141L33.1534 79.1959C33.1985 79.5837 33.1566 80.3845 32.1589 80.8171C31.6746 81.0312 30.9631 81.159 29.9232 81.1096C29.9232 81.1096 27.8633 81.1217 27.9364 78.8302L28.1345 76.5386C28.1491 76.3698 28.2173 76.2286 28.3204 76.1105L27.8295 67.5759C27.8128 67.5616 27.7966 67.5466 27.781 67.531C27.7224 67.4724 27.6732 67.4057 27.6347 67.3333C27.6119 67.3969 27.5813 67.4579 27.5433 67.5147C27.4519 67.6515 27.322 67.7581 27.17 67.8211C27.018 67.884 26.8507 67.9005 26.6893 67.8684C26.528 67.8363 26.3797 67.7571 26.2634 67.6407C26.1621 67.5395 26.0889 67.414 26.0505 67.2768C25.9219 67.5699 25.629 67.7746 25.2884 67.7746C24.9063 67.7746 24.5844 67.5171 24.4868 67.1662C24.4633 67.2506 24.4264 67.3313 24.3772 67.4049C24.3484 67.4481 24.3157 67.4882 24.2798 67.5249L23.7878 76.0799C23.9 76.2016 23.9748 76.3487 23.9902 76.5264L24.1883 78.818C24.2512 80.7768 22.7387 81.0523 22.312 81.091C22.2422 81.0974 22.2015 81.0974 22.2015 81.0974L22.2014 81.0974C19.6165 81.2293 19.0586 80.2603 18.9792 79.5874C18.935 79.2367 19.0202 78.9643 19.0202 78.9643L20.1476 76.5264C20.1476 76.5264 20.227 76.2211 20.5676 75.9428L20.0617 67.1462C19.9747 67.0448 19.9133 66.9238 19.8829 66.7933L19.8794 66.7986C19.788 66.9354 19.6581 67.042 19.5061 67.105C19.3541 67.1679 19.1868 67.1844 19.0254 67.1523C18.8641 67.1202 18.7158 67.041 18.5995 66.9246C18.4832 66.8083 18.4039 66.6601 18.3718 66.4987C18.3659 66.4687 18.3616 66.4386 18.359 66.4083C18.2701 66.5248 18.1519 66.6159 18.016 66.6722C17.864 66.7352 17.6967 66.7517 17.5353 66.7196C17.374 66.6875 17.2257 66.6082 17.1094 66.4919C16.993 66.3756 16.9138 66.2273 16.8817 66.066C16.8496 65.9046 16.8661 65.7373 16.929 65.5853C16.9455 65.5455 16.965 65.5073 16.9872 65.4708L17.5861 60.3211C17.4845 60.2365 17.3607 60.098 17.2131 59.8762C16.9341 59.4147 16.7188 58.9175 16.5732 58.3982C16.6128 58.901 17.1827 60.0072 17.1827 60.0072C17.5575 60.4582 17.1369 60.641 17.1369 60.641C16.6159 60.769 16.2685 59.7512 16.2685 59.7512C15.9333 58.8553 15.7626 58.4957 15.7626 58.4957L16.305 59.9493C16.305 59.9493 16.5763 60.4247 16.3325 60.5587C16.3416 60.5557 16.1527 60.7233 15.8937 60.4734C15.4348 59.8279 15.1408 59.0799 15.0374 58.2946C15.0374 58.2946 14.885 57.1458 15.4335 56.6034C15.4335 56.6034 15.4708 56.5551 15.5402 56.4857C14.0557 51.8643 15.42 47.6891 16.8116 45.0158C16.005 44.4028 15.6255 43.6951 15.6255 43.6951L16.4453 41.562C17.4872 38.2726 19.9549 37.9395 20.3116 37.9084C20.366 37.8905 20.3975 37.884 20.3975 37.884L20.7634 37.8141L23.7495 37.2243C17.1591 37.533 12.7884 40.5443 12.7884 40.5443L8.54362 43.6433C8.3514 35.2535 8.79471 26.8627 9.86911 18.5426C10.5151 6.04794 22.0552 4.3701 22.0552 4.3701C23.8602 4.06276 25.6926 3.94632 27.522 4.02271C29.9322 4.16934 32.2842 4.82356 34.424 5.9425C36.8101 7.23976 38.8227 9.12855 40.2687 11.4276C41.7588 13.774 42.0849 16.614 42.1976 19.3353ZM17.718 59.1869L17.8216 58.2957L17.819 58.2931C17.7562 58.2303 17.6936 58.1677 17.6306 58.1057C17.2893 57.8832 17.2893 58.1849 17.2893 58.1849C17.4165 58.5256 17.5596 58.8599 17.718 59.1869ZM34.1729 58.1711L34.2677 58.942C34.3812 58.6934 34.4862 58.4409 34.5825 58.1849C34.5825 58.1849 34.5795 57.8832 34.2412 58.1026L34.1729 58.1711ZM24.4597 66.636C24.4703 66.6629 24.4795 66.6903 24.4872 66.718C24.4948 66.6909 24.5037 66.6643 24.514 66.6383L24.4597 66.636ZM26.0757 66.6734C26.0808 66.6882 26.0855 66.7033 26.0897 66.7185C26.0931 66.7107 26.0967 66.703 26.1003 66.6953C26.1038 66.688 26.1074 66.6807 26.1111 66.6734L26.0757 66.6734ZM27.5789 66.6486L27.5861 66.6619L27.5912 66.6482L27.5789 66.6486ZM18.1674 54.6381C18.3436 51.6059 18.4912 49.0651 18.6393 46.0028C16.7004 50.6812 17.0774 54.7688 17.2949 56.1716C17.3173 56.1838 17.3398 56.1967 17.3624 56.2103C17.6128 56.4251 17.8065 56.6982 17.9262 57.0056L17.9567 57.0635C17.9772 57.1017 17.9985 57.1394 18.0205 57.1767C18.0718 56.2843 18.1205 55.4454 18.1672 54.6411L18.1674 54.6381ZM34.0192 56.8397C34.1376 56.5992 34.3042 56.3849 34.5094 56.2103C34.532 56.1967 34.5545 56.1838 34.5769 56.1716C34.7846 54.8318 35.1375 51.0429 33.4783 46.6293C33.7 50.9625 33.8961 54.6062 34.0192 56.8397Z" fill="url(#paint0_radial_101_3929)" fill-opacity="0.5"/>
<path fill-rule="evenodd" clip-rule="evenodd" d="M42.1976 19.3353C42.2052 19.4916 42.2113 19.648 42.2161 19.8044L42.4231 24.0784C42.6445 24.4643 42.7628 24.9473 42.731 25.4633C42.7121 25.7708 42.6417 26.0599 42.5316 26.3185L43.3709 43.6464L39.2845 41.9247C37.4724 40.6915 35.6951 39.7479 33.9727 39.0405C34.5503 39.5822 35.1077 40.3818 35.4815 41.562L36.2982 43.6951C36.2982 43.6951 35.9059 44.4268 35.0717 45.0466C36.4549 47.721 37.8014 51.8815 36.3308 56.4849C36.4007 56.5548 36.4383 56.6034 36.4383 56.6034C36.9838 57.1458 36.8314 58.2946 36.8314 58.2946C36.728 59.0799 36.434 59.8279 35.9751 60.4734C35.7222 60.7233 35.5333 60.5557 35.5424 60.5587C35.2956 60.4247 35.5698 59.9493 35.5698 59.9493L36.1122 58.4957C36.1122 58.4957 35.9385 58.837 35.6064 59.7512C35.6064 59.7512 35.256 60.769 34.7379 60.641C34.7379 60.641 34.3143 60.4582 34.6892 60.0072C34.6892 60.0072 35.2559 58.901 35.2986 58.3982C35.153 58.9175 34.9377 59.4147 34.6587 59.8762C34.5713 60.0075 34.4922 60.1097 34.4212 60.1887L35.0914 65.6355L35.0673 65.6412C35.0952 65.7251 35.1098 65.8136 35.1098 65.9037C35.1098 66.0682 35.061 66.229 34.9696 66.3658C34.8782 66.5026 34.7483 66.6093 34.5962 66.6722C34.4442 66.7352 34.277 66.7517 34.1156 66.7196C33.9542 66.6875 33.806 66.6082 33.6896 66.4919C33.6796 66.4818 33.6698 66.4716 33.6603 66.461C33.6367 66.5393 33.6016 66.6141 33.5557 66.6828C33.4642 66.8196 33.3343 66.9262 33.1823 66.9892C33.0303 67.0521 32.863 67.0686 32.7017 67.0365C32.5403 67.0044 32.392 66.9252 32.2757 66.8088C32.2485 66.7817 32.2234 66.7528 32.2004 66.7224C32.1829 66.8451 32.138 66.9628 32.0686 67.0667L32.0572 67.0834L32.0468 67.0978L31.5362 75.9392C31.8926 76.2216 31.974 76.5386 31.974 76.5386L33.1015 78.9765C33.1015 78.9765 33.1305 79.0684 33.1461 79.2141L33.1534 79.1959C33.1985 79.5837 33.1566 80.3845 32.1589 80.8171C31.6746 81.0312 30.9631 81.159 29.9232 81.1096C29.9232 81.1096 27.8633 81.1217 27.9364 78.8302L28.1345 76.5386C28.1491 76.3698 28.2173 76.2286 28.3204 76.1105L27.8295 67.5759C27.8128 67.5616 27.7966 67.5466 27.781 67.531C27.7224 67.4724 27.6732 67.4057 27.6347 67.3333C27.6119 67.3969 27.5813 67.4579 27.5433 67.5147C27.4519 67.6515 27.322 67.7581 27.17 67.8211C27.018 67.884 26.8507 67.9005 26.6893 67.8684C26.528 67.8363 26.3797 67.7571 26.2634 67.6407C26.1621 67.5395 26.0889 67.414 26.0505 67.2768C25.9219 67.5699 25.629 67.7746 25.2884 67.7746C24.9063 67.7746 24.5844 67.5171 24.4868 67.1662C24.4633 67.2506 24.4264 67.3313 24.3772 67.4049C24.3484 67.4481 24.3157 67.4882 24.2798 67.5249L23.7878 76.0799C23.9 76.2016 23.9748 76.3487 23.9902 76.5264L24.1883 78.818C24.2512 80.7768 22.7387 81.0523 22.312 81.091C22.2422 81.0974 22.2015 81.0974 22.2015 81.0974L22.2014 81.0974C19.6165 81.2293 19.0586 80.2603 18.9792 79.5874C18.935 79.2367 19.0202 78.9643 19.0202 78.9643L20.1476 76.5264C20.1476 76.5264 20.227 76.2211 20.5676 75.9428L20.0617 67.1462C19.9747 67.0448 19.9133 66.9238 19.8829 66.7933L19.8794 66.7986C19.788 66.9354 19.6581 67.042 19.5061 67.105C19.3541 67.1679 19.1868 67.1844 19.0254 67.1523C18.8641 67.1202 18.7158 67.041 18.5995 66.9246C18.4832 66.8083 18.4039 66.6601 18.3718 66.4987C18.3659 66.4687 18.3616 66.4386 18.359 66.4083C18.2701 66.5248 18.1519 66.6159 18.016 66.6722C17.864 66.7352 17.6967 66.7517 17.5353 66.7196C17.374 66.6875 17.2257 66.6082 17.1094 66.4919C16.993 66.3756 16.9138 66.2273 16.8817 66.066C16.8496 65.9046 16.8661 65.7373 16.929 65.5853C16.9455 65.5455 16.965 65.5073 16.9872 65.4708L17.5861 60.3211C17.4845 60.2365 17.3607 60.098 17.2131 59.8762C16.9341 59.4147 16.7188 58.9175 16.5732 58.3982C16.6128 58.901 17.1827 60.0072 17.1827 60.0072C17.5575 60.4582 17.1369 60.641 17.1369 60.641C16.6159 60.769 16.2685 59.7512 16.2685 59.7512C15.9333 58.8553 15.7626 58.4957 15.7626 58.4957L16.305 59.9493C16.305 59.9493 16.5763 60.4247 16.3325 60.5587C16.3416 60.5557 16.1527 60.7233 15.8937 60.4734C15.4348 59.8279 15.1408 59.0799 15.0374 58.2946C15.0374 58.2946 14.885 57.1458 15.4335 56.6034C15.4335 56.6034 15.4708 56.5551 15.5402 56.4857C14.0557 51.8643 15.42 47.6891 16.8116 45.0158C16.005 44.4028 15.6255 43.6951 15.6255 43.6951L16.4453 41.562C17.4872 38.2726 19.9549 37.9395 20.3116 37.9084C20.366 37.8905 20.3975 37.884 20.3975 37.884L20.7634 37.8141L23.7495 37.2243C17.1591 37.533 12.7884 40.5443 12.7884 40.5443L8.54362 43.6433C8.3514 35.2535 8.79471 26.8627 9.86911 18.5426C10.5151 6.04794 22.0552 4.3701 22.0552 4.3701C23.8602 4.06276 25.6926 3.94632 27.522 4.02271C29.9322 4.16934 32.2842 4.82356 34.424 5.9425C36.8101 7.23976 38.8227 9.12855 40.2687 11.4276C41.7588 13.774 42.0849 16.614 42.1976 19.3353ZM17.718 59.1869L17.8216 58.2957L17.819 58.2931C17.7562 58.2303 17.6936 58.1677 17.6306 58.1057C17.2893 57.8832 17.2893 58.1849 17.2893 58.1849C17.4165 58.5256 17.5596 58.8599 17.718 59.1869ZM34.1729 58.1711L34.2677 58.942C34.3812 58.6934 34.4862 58.4409 34.5825 58.1849C34.5825 58.1849 34.5795 57.8832 34.2412 58.1026L34.1729 58.1711ZM24.4597 66.636C24.4703 66.6629 24.4795 66.6903 24.4872 66.718C24.4948 66.6909 24.5037 66.6643 24.514 66.6383L24.4597 66.636ZM26.0757 66.6734C26.0808 66.6882 26.0855 66.7033 26.0897 66.7185C26.0931 66.7107 26.0967 66.703 26.1003 66.6953C26.1038 66.688 26.1074 66.6807 26.1111 66.6734L26.0757 66.6734ZM27.5789 66.6486L27.5861 66.6619L27.5912 66.6482L27.5789 66.6486ZM18.1674 54.6381C18.3436 51.6059 18.4912 49.0651 18.6393 46.0028C16.7004 50.6812 17.0774 54.7688 17.2949 56.1716C17.3173 56.1838 17.3398 56.1967 17.3624 56.2103C17.6128 56.4251 17.8065 56.6982 17.9262 57.0056L17.9567 57.0635C17.9772 57.1017 17.9985 57.1394 18.0205 57.1767C18.0718 56.2843 18.1205 55.4454 18.1672 54.6411L18.1674 54.6381ZM34.0192 56.8397C34.1376 56.5992 34.3042 56.3849 34.5094 56.2103C34.532 56.1967 34.5545 56.1838 34.5769 56.1716C34.7846 54.8318 35.1375 51.0429 33.4783 46.6293C33.7 50.9625 33.8961 54.6062 34.0192 56.8397Z" fill="url(#paint1_linear_101_3929)" fill-opacity="0.16"/>
</g>
</g>
</g>
</g>
<circle id="Ellipse 5" cx="26" cy="25.5" r="25" stroke="#947EC8" stroke-dasharray="2 2"/>
</g>
<defs>
<filter id="filter0_i_101_3929" x="8.5" y="4" width="34.8709" height="77.1202" filterUnits="userSpaceOnUse" color-interpolation-filters="sRGB">
<feFlood flood-opacity="0" result="BackgroundImageFix"/>
<feBlend mode="normal" in="SourceGraphic" in2="BackgroundImageFix" result="shape"/>
<feColorMatrix in="SourceAlpha" type="matrix" values="0 0 0 0 0 0 0 0 0 0 0 0 0 0 0 0 0 0 127 0" result="hardAlpha"/>
<feOffset/>
<feGaussianBlur stdDeviation="5"/>
<feComposite in2="hardAlpha" operator="arithmetic" k2="-1" k3="1"/>
<feColorMatrix type="matrix" values="0 0 0 0 0.486275 0 0 0 0 0.176471 0 0 0 0 0.141176 0 0 0 0.2 0"/>
<feBlend mode="normal" in2="shape" result="effect1_innerShadow_101_3929"/>
</filter>
<radialGradient id="paint0_radial_101_3929" cx="0" cy="0" r="1" gradientUnits="userSpaceOnUse" gradientTransform="translate(40 31.5) rotate(129.218) scale(56.1471 25.3876)">
<stop stop-color="#FEFEFE"/>
<stop offset="1" stop-color="#FEFEFE" stop-opacity="0"/>
</radialGradient>
<linearGradient id="paint1_linear_101_3929" x1="37.5" y1="7.5" x2="4.5" y2="75" gradientUnits="userSpaceOnUse">
<stop stop-color="#FEFEFE"/>
<stop offset="1" stop-color="#FEFEFE" stop-opacity="0"/>
</linearGradient>
</defs>
</svg>
