<svg width="310" height="181" viewBox="0 0 310 181" fill="none" xmlns="http://www.w3.org/2000/svg">
<path d="M57.7175 73.4957C57.7175 73.4957 71.7891 69.8649 73.7644 70.7128C75.7396 71.5662 78.8794 84.7086 77.9271 85.0348C76.9749 85.3554 72.4367 80.8333 72.4367 80.8333C72.4367 80.8333 71.3212 83.0726 69.5581 82.328C67.8006 81.5834 65.8906 78.4744 65.8906 78.4744C65.8906 78.4744 65.3954 79.9963 63.5834 79.3549C61.7714 78.7135 59.3826 75.2295 59.3826 75.2295L57.7175 73.4957Z" fill="white"/>
<path d="M22.4732 54.6571C22.4732 54.6571 15.0946 42.1505 13.0976 41.3569C11.0952 40.5688 -0.435299 47.6401 0.0109013 48.5424C0.457101 49.4446 6.86714 49.4501 6.86714 49.4501C6.86714 49.4501 6.07269 51.8199 7.8466 52.5373C9.62052 53.2548 13.1684 52.4014 13.1684 52.4014C13.1684 52.4014 12.4392 53.8309 14.175 54.6516C15.9108 55.4778 20.0681 54.7005 20.0681 54.7005L22.4732 54.6571Z" fill="#E0EDF3"/>
<path d="M65.4227 63.1633L53.5222 86.9752C53.1685 87.6818 52.3088 87.9698 51.6014 87.6166L13.9247 68.8323C13.2173 68.479 12.9289 67.6202 13.2826 66.9136L25.1831 43.1017C25.2647 42.9441 25.3736 42.8027 25.4987 42.6886C25.9177 42.2973 26.5543 42.1886 27.1039 42.4603L64.7806 61.2446C65.3302 61.5164 65.624 62.0925 65.5642 62.6632C65.5533 62.8372 65.5043 63.0056 65.4227 63.1633Z" fill="#FFB600"/>
<path d="M65.4227 63.1633L53.5222 86.9752C53.1685 87.6818 52.3088 87.9698 51.6014 87.6166L13.9247 68.8323C13.2173 68.479 12.9289 67.6202 13.2826 66.9136L25.1831 43.1017C25.2647 42.9441 25.3736 42.8027 25.4987 42.6886C25.9177 42.2973 26.5543 42.1886 27.1039 42.4603L64.7806 61.2446C65.3302 61.5164 65.624 62.0925 65.5642 62.6632C65.5533 62.8372 65.5043 63.0056 65.4227 63.1633Z" fill="url(#paint0_linear_486_34409)"/>
<path d="M15.2469 67.2778L37.5188 65.2124C38.6452 65.1091 39.7335 65.6472 40.3321 66.6038L52.3523 85.7794L41.3061 65.5004C40.7075 64.3264 39.4125 63.6796 38.112 63.9079L15.2469 67.2778Z" fill="#DA9135"/>
<path d="M65.4935 62.8046L38.2317 67.2832L25.428 42.8299C25.8905 42.3571 26.5544 42.1886 27.1039 42.4603L64.7806 61.2446C65.3302 61.5164 65.5914 62.1523 65.4935 62.8046Z" fill="#FFB600"/>
<path d="M65.4935 62.8046L38.2317 67.2832L25.428 42.8299C25.8905 42.3571 26.5544 42.1886 27.1039 42.4603L64.7806 61.2446C65.3302 61.5164 65.5914 62.1523 65.4935 62.8046Z" fill="url(#paint1_linear_486_34409)"/>
<path d="M26.2224 44.3464L37.3611 65.5168C37.9107 66.5658 38.9935 67.1147 40.1634 66.9299L63.627 63.2068L39.7553 68.5877C38.395 68.9355 37.0999 68.2887 36.5612 66.9952L26.2224 44.3464Z" fill="#DA9135"/>
<path d="M287.304 29.557C287.304 29.557 295.167 17.3494 297.196 16.632C299.226 15.9145 310.468 23.4369 309.984 24.3229C309.505 25.2088 303.1 24.9588 303.1 24.9588C303.1 24.9588 303.802 27.3612 302.001 28.008C300.205 28.6548 296.685 27.6656 296.685 27.6656C296.685 27.6656 297.36 29.1222 295.591 29.8777C293.823 30.6332 289.703 29.6984 289.703 29.6984L287.304 29.557Z" fill="#E0EDF3"/>
<path d="M248.615 39.6286C248.615 39.6286 234.696 35.4489 232.693 36.2207C230.691 36.9925 227.029 50.0046 227.97 50.3687C228.911 50.7274 233.618 46.3847 233.618 46.3847C233.618 46.3847 234.647 48.662 236.437 47.9881C238.227 47.3141 240.257 44.2812 240.257 44.2812C240.257 44.2812 240.692 45.8248 242.526 45.2541C244.36 44.6834 246.885 41.2973 246.885 41.2973L248.615 39.6286Z" fill="white"/>
<path d="M285.938 16.7461L293.387 42.2973C293.61 43.0583 293.175 43.8518 292.413 44.0747L251.983 55.8311C251.221 56.054 250.427 55.6137 250.209 54.8582L242.76 29.307C242.711 29.1331 242.695 28.9592 242.711 28.7907C242.754 28.22 243.146 27.7036 243.734 27.5351L284.164 15.7786C284.752 15.6101 285.361 15.833 285.704 16.2895C285.807 16.4146 285.889 16.5722 285.938 16.7461Z" fill="#FFB600"/>
<path d="M285.938 16.7461L293.387 42.2973C293.61 43.0583 293.175 43.8518 292.413 44.0747L251.983 55.8311C251.221 56.054 250.427 55.6137 250.209 54.8582L242.76 29.307C242.711 29.1331 242.695 28.9592 242.711 28.7907C242.754 28.22 243.146 27.7036 243.734 27.5351L284.164 15.7786C284.752 15.6101 285.361 15.833 285.704 16.2895C285.807 16.4146 285.889 16.5722 285.938 16.7461Z" fill="url(#paint2_linear_486_34409)"/>
<path d="M251.891 53.7929L266.838 37.1719C267.595 36.3294 268.759 35.987 269.847 36.2859L291.706 42.2158L269.809 34.8184C268.574 34.3618 267.181 34.764 266.381 35.813L251.891 53.7929Z" fill="#DA9135"/>
<path d="M285.747 16.4308L268.775 38.2045L242.754 28.9374C242.771 28.2797 243.146 27.7036 243.734 27.5297L284.164 15.7732C284.746 15.5992 285.372 15.8873 285.747 16.4308Z" fill="url(#paint3_linear_486_34409)"/>
<path d="M244.365 29.5081L266.936 37.5034C268.052 37.9056 269.222 37.5686 269.956 36.6392L284.654 17.9962L270.784 38.1339C270.022 39.3134 268.629 39.7156 267.355 39.1286L244.365 29.5081Z" fill="#DA9135"/>
<path d="M98.5286 170.282C98.5286 170.282 108.775 167.113 110.26 167.673C111.746 168.233 114.521 177.815 113.83 178.087C113.139 178.358 109.635 175.179 109.635 175.179C109.635 175.179 108.889 176.869 107.567 176.38C106.245 175.891 104.726 173.668 104.726 173.668C104.726 173.668 104.416 174.809 103.056 174.396C101.701 173.983 99.8127 171.499 99.8127 171.499L98.5286 170.282Z" fill="white"/>
<path d="M71.8817 157.623C71.8817 157.623 66.0049 148.66 64.5031 148.144C63.0012 147.627 54.752 153.248 55.1111 153.9C55.4702 154.552 60.1989 154.329 60.1989 154.329C60.1989 154.329 59.6983 156.106 61.026 156.574C62.3591 157.041 64.9438 156.291 64.9438 156.291C64.9438 156.291 64.4541 157.367 65.7655 157.916C67.0769 158.465 70.1078 157.748 70.1078 157.748L71.8817 157.623Z" fill="white"/>
<path d="M103.845 162.395L95.9058 180.364C95.6718 180.897 95.046 181.141 94.5128 180.902L66.0811 168.368C65.5479 168.135 65.3084 167.51 65.5424 166.977L73.4815 149.008C73.5359 148.888 73.6121 148.78 73.6992 148.693C73.9984 148.388 74.461 148.285 74.8745 148.47L103.306 161.004C103.72 161.183 103.954 161.602 103.932 162.026C103.926 162.151 103.899 162.276 103.845 162.395Z" fill="#FFB600"/>
<path d="M103.845 162.395L95.9058 180.364C95.6718 180.897 95.046 181.141 94.5128 180.902L66.0811 168.368C65.5479 168.135 65.3084 167.51 65.5424 166.977L73.4815 149.008C73.5359 148.888 73.6121 148.78 73.6992 148.693C73.9984 148.388 74.461 148.285 74.8745 148.47L103.306 161.004C103.72 161.183 103.954 161.602 103.932 162.026C103.926 162.151 103.899 162.276 103.845 162.395Z" fill="url(#paint4_linear_486_34409)"/>
<path d="M66.9952 167.178L83.3414 164.879C84.1685 164.765 84.9901 165.124 85.4636 165.808L94.997 179.527L86.1437 164.961C85.6649 164.113 84.6854 163.683 83.7332 163.895L66.9952 167.178Z" fill="#DA9135"/>
<path d="M103.888 162.129L83.9454 166.379L73.6501 148.801C73.9766 148.437 74.4609 148.291 74.8745 148.47L103.306 161.004C103.72 161.183 103.937 161.645 103.888 162.129Z" fill="#FFDF4F"/>
<path d="M103.888 162.129L83.9454 166.379L73.6501 148.801C73.9766 148.437 74.4609 148.291 74.8745 148.47L103.306 161.004C103.72 161.183 103.937 161.645 103.888 162.129Z" fill="url(#paint5_linear_486_34409)"/>
<path d="M74.2869 149.889L83.2381 165.107C83.6788 165.863 84.495 166.227 85.3548 166.053L102.523 162.488L85.1154 167.287C84.125 167.591 83.1456 167.162 82.7048 166.222L74.2869 149.889Z" fill="#DA9135"/>
<path d="M87.4878 48.1674L150.56 1.42405C153.139 -0.489169 156.665 -0.472863 159.233 1.45666L221.353 48.1674H87.4878Z" fill="#FFB600"/>
<path d="M219.051 138.04H89.7949C87.368 138.04 85.3982 136.072 85.3982 133.648V51.9504C85.3982 49.5262 87.368 47.5587 89.7949 47.5587H219.057C221.484 47.5587 223.453 49.5262 223.453 51.9504V133.648C223.448 136.072 221.484 138.04 219.051 138.04Z" fill="#FFD100"/>
<path d="M219.051 138.04H89.7949C87.368 138.04 85.3982 136.072 85.3982 133.648V51.9504C85.3982 49.5262 87.368 47.5587 89.7949 47.5587H219.057C221.484 47.5587 223.453 49.5262 223.453 51.9504V133.648C223.448 136.072 221.484 138.04 219.051 138.04Z" fill="url(#paint6_linear_486_34409)"/>
<path d="M217.217 53.5428L202.711 64.7612L202.52 64.908L190.75 74.0066L182.251 80.5779L164.55 94.2639L161.143 96.9L159.25 95.7477C156.289 93.9378 152.562 93.9541 149.613 95.7803L147.73 96.9489L144.748 94.6552L126.438 80.5779L117.889 74.0066L106.059 64.908L103.894 63.2448L91.2749 53.5428H217.217Z" fill="white"/>
<path d="M218.583 131.952L161.143 96.9L159.25 95.7478C156.289 93.9378 152.562 93.9541 149.613 95.7804L147.73 96.949L91.2749 131.952L144.748 94.6553L149.45 91.3778C152.698 88.9591 157.155 88.9591 160.409 91.3778L164.55 94.2639L218.583 131.952Z" fill="#DA9135"/>
<path d="M217.217 12.5826H91.2749V53.5483H217.217V12.5826Z" fill="white"/>
<path d="M202.711 27.0079H103.894V33.5791H202.711V27.0079Z" fill="#E0EDF3"/>
<path d="M202.711 42.6723H103.894V49.2435H202.711V42.6723Z" fill="#E0EDF3"/>
<path d="M202.711 58.3422V64.7613L202.52 64.908H106.06L103.894 63.2448V58.3422H202.711Z" fill="#E0EDF3"/>
<path d="M190.75 74.0067L182.251 80.5779H126.438L117.889 74.0067H190.75Z" fill="#E0EDF3"/>
<defs>
<linearGradient id="paint0_linear_486_34409" x1="39.3517" y1="42.3099" x2="39.3517" y2="87.7675" gradientUnits="userSpaceOnUse">
<stop stop-color="#FAE8B9"/>
<stop offset="1" stop-color="#FFB600"/>
</linearGradient>
<linearGradient id="paint1_linear_486_34409" x1="45.4708" y1="42.3302" x2="38.5" y2="68.9999" gradientUnits="userSpaceOnUse">
<stop stop-color="#FFF3D3"/>
<stop offset="1" stop-color="#FFB600"/>
</linearGradient>
<linearGradient id="paint2_linear_486_34409" x1="268.075" y1="15.7225" x2="268.075" y2="55.8891" gradientUnits="userSpaceOnUse">
<stop stop-color="#FFEBB8"/>
<stop offset="1" stop-color="#FFB600"/>
</linearGradient>
<linearGradient id="paint3_linear_486_34409" x1="260" y1="20.0001" x2="264.251" y2="38.2045" gradientUnits="userSpaceOnUse">
<stop stop-color="#F9F1DF"/>
<stop offset="1" stop-color="#FFB600"/>
</linearGradient>
<linearGradient id="paint4_linear_486_34409" x1="84.693" y1="148.378" x2="84.693" y2="180.994" gradientUnits="userSpaceOnUse">
<stop stop-color="#FCEFCD"/>
<stop offset="1" stop-color="#FFB600"/>
</linearGradient>
<linearGradient id="paint5_linear_486_34409" x1="92.5" y1="152" x2="84.5" y2="170.5" gradientUnits="userSpaceOnUse">
<stop stop-color="#FCEFCD"/>
<stop offset="1" stop-color="#FFB600"/>
</linearGradient>
<linearGradient id="paint6_linear_486_34409" x1="154.426" y1="47.5587" x2="154.426" y2="138.04" gradientUnits="userSpaceOnUse">
<stop stop-color="#FFE8AD"/>
<stop offset="1" stop-color="#FFB600"/>
</linearGradient>
</defs>
</svg>
