<svg width="29" height="28" viewBox="0 0 29 28" fill="none" xmlns="http://www.w3.org/2000/svg">
<g id="material-symbols:star">
<path id="Vector" d="M25.9398 11.7151H25V11.6667H14.5V16.3333H21.0934C20.1315 19.0499 17.5468 21 14.5 21C10.6343 21 7.50001 17.8658 7.50001 14C7.50001 10.1343 10.6343 7 14.5 7C16.2844 7 17.9078 7.67317 19.1439 8.77275L22.4438 5.47284C20.3602 3.53092 17.573 2.33334 14.5 2.33334C8.05709 2.33334 2.83334 7.55709 2.83334 14C2.83334 20.4429 8.05709 25.6667 14.5 25.6667C20.9429 25.6667 26.1667 20.4429 26.1667 14C26.1667 13.2178 26.0862 12.4542 25.9398 11.7151Z" fill="#FFC107"/>
<path id="Vector_2" d="M4.1785 8.56975L8.01158 11.3808C9.04875 8.813 11.5606 7 14.5 7C16.2844 7 17.9078 7.67317 19.1439 8.77275L22.4438 5.47284C20.3602 3.53092 17.573 2.33334 14.5 2.33334C10.0188 2.33334 6.13266 4.86325 4.1785 8.56975Z" fill="#FF3D00"/>
<path id="Vector_3" d="M14.5 25.6667C17.5135 25.6667 20.2517 24.5134 22.3219 22.638L18.7111 19.5825C17.5004 20.5032 16.021 21.0012 14.5 21C11.4655 21 8.88891 19.0651 7.91824 16.3648L4.11374 19.2961C6.04457 23.0743 9.96574 25.6667 14.5 25.6667Z" fill="#4CAF50"/>
<path id="Vector_4" d="M25.9397 11.7151H25V11.6667H14.5V16.3333H21.0934C20.6333 17.6262 19.8045 18.756 18.7093 19.5831L18.7111 19.5819L22.3219 22.6374C22.0664 22.8696 26.1667 19.8333 26.1667 14C26.1667 13.2177 26.0862 12.4542 25.9397 11.7151Z" fill="#1976D2"/>
</g>
</svg>
