<svg width="48" height="27" viewBox="0 0 48 27" fill="none" xmlns="http://www.w3.org/2000/svg">
<g id="Math Master">
<path id="Vector" d="M42.9231 26.5164V18.88H44.9764V20.2124H45.0559C45.1951 19.7384 45.4288 19.3805 45.7569 19.1385C46.0851 18.8933 46.4629 18.7706 46.8905 18.7706C46.9965 18.7706 47.1109 18.7773 47.2335 18.7905C47.3561 18.8038 47.4638 18.822 47.5567 18.8452V20.7245C47.4572 20.6946 47.3197 20.6681 47.144 20.6449C46.9683 20.6217 46.8076 20.6101 46.6618 20.6101C46.3502 20.6101 46.0718 20.6781 45.8265 20.814C45.5846 20.9465 45.3924 21.1321 45.2498 21.3708C45.1106 21.6094 45.041 21.8845 45.041 22.1961V26.5164H42.9231Z" fill="white"/>
<path id="Vector_2" d="M38.036 26.6655C37.2505 26.6655 36.5744 26.5064 36.0076 26.1882C35.4442 25.8668 35.01 25.4127 34.7051 24.826C34.4001 24.2361 34.2477 23.5384 34.2477 22.733C34.2477 21.9475 34.4001 21.2581 34.7051 20.6648C35.01 20.0715 35.4392 19.6092 35.9927 19.2777C36.5495 18.9463 37.2025 18.7806 37.9515 18.7806C38.4553 18.7806 38.9243 18.8618 39.3585 19.0242C39.796 19.1833 40.1771 19.4236 40.5019 19.7451C40.8301 20.0666 41.0853 20.4709 41.2676 20.9581C41.4499 21.442 41.541 22.0088 41.541 22.6584V23.2401H35.0929V21.9276H39.5474C39.5474 21.6227 39.4811 21.3525 39.3485 21.1172C39.216 20.8819 39.032 20.698 38.7967 20.5654C38.5647 20.4295 38.2946 20.3615 37.9863 20.3615C37.6648 20.3615 37.3798 20.4361 37.1312 20.5853C36.8859 20.7311 36.6937 20.9283 36.5545 21.1769C36.4153 21.4222 36.344 21.6956 36.3407 21.9972V23.2451C36.3407 23.6229 36.4103 23.9494 36.5495 24.2245C36.692 24.4996 36.8926 24.7117 37.1511 24.8608C37.4096 25.01 37.7162 25.0846 38.0708 25.0846C38.3062 25.0846 38.5216 25.0514 38.7171 24.9851C38.9127 24.9188 39.0801 24.8194 39.2193 24.6868C39.3585 24.5543 39.4645 24.3918 39.5375 24.1996L41.4963 24.3289C41.3968 24.7995 41.193 25.2105 40.8848 25.5618C40.5798 25.9098 40.1854 26.1816 39.7015 26.3772C39.2209 26.5694 38.6658 26.6655 38.036 26.6655Z" fill="white"/>
<path id="Vector_3" d="M33.2584 18.88V20.4709H28.6596V18.88H33.2584ZM29.7037 17.0504H31.8216V24.1697C31.8216 24.3653 31.8514 24.5177 31.9111 24.6271C31.9707 24.7332 32.0536 24.8078 32.1596 24.8508C32.269 24.8939 32.395 24.9155 32.5375 24.9155C32.6369 24.9155 32.7363 24.9072 32.8358 24.8906C32.9352 24.8707 33.0114 24.8558 33.0645 24.8459L33.3976 26.4219C33.2915 26.455 33.1424 26.4931 32.9501 26.5362C32.7579 26.5826 32.5242 26.6108 32.2491 26.6207C31.7387 26.6406 31.2913 26.5727 30.9068 26.4169C30.5256 26.2611 30.229 26.0192 30.0169 25.691C29.8048 25.3629 29.7004 24.9486 29.7037 24.4481V17.0504Z" fill="white"/>
<path id="Vector_4" d="M27.6889 21.0576L25.75 21.1769C25.7169 21.0112 25.6456 20.862 25.5362 20.7294C25.4268 20.5936 25.2827 20.4858 25.1037 20.4063C24.928 20.3234 24.7176 20.282 24.4723 20.282C24.1442 20.282 23.8674 20.3516 23.642 20.4908C23.4167 20.6267 23.304 20.809 23.304 21.0377C23.304 21.22 23.3769 21.3741 23.5227 21.5C23.6686 21.626 23.9188 21.7271 24.2734 21.8033L25.6555 22.0817C26.398 22.2342 26.9515 22.4794 27.3161 22.8175C27.6806 23.1556 27.8629 23.5997 27.8629 24.1499C27.8629 24.6504 27.7154 25.0895 27.4205 25.4674C27.1288 25.8452 26.7277 26.1402 26.2173 26.3523C25.7102 26.5611 25.1252 26.6655 24.4624 26.6655C23.4515 26.6655 22.6461 26.4551 22.0462 26.0341C21.4496 25.6099 21.0999 25.0332 20.9972 24.304L23.0803 24.1946C23.1432 24.5029 23.2957 24.7382 23.5376 24.9006C23.7796 25.0597 24.0895 25.1392 24.4673 25.1392C24.8385 25.1392 25.1368 25.068 25.3622 24.9255C25.5909 24.7796 25.7069 24.5924 25.7102 24.3637C25.7069 24.1714 25.6257 24.014 25.4666 23.8914C25.3075 23.7654 25.0623 23.6693 24.7308 23.603L23.4084 23.3395C22.6626 23.1904 22.1075 22.9319 21.7429 22.564C21.3816 22.1961 21.201 21.7271 21.201 21.157C21.201 20.6665 21.3336 20.2439 21.5987 19.8892C21.8672 19.5346 22.2434 19.2612 22.7273 19.0689C23.2145 18.8767 23.7846 18.7806 24.4375 18.7806C25.402 18.7806 26.161 18.9844 26.7145 19.3921C27.2713 19.7998 27.5961 20.3549 27.6889 21.0576Z" fill="white"/>
<path id="Vector_5" d="M15.3917 26.6606C14.9045 26.6606 14.4703 26.576 14.0891 26.407C13.708 26.2347 13.4064 25.9811 13.1843 25.6463C12.9655 25.3083 12.8562 24.8874 12.8562 24.3836C12.8562 23.9593 12.9341 23.603 13.0898 23.3147C13.2456 23.0263 13.4577 22.7943 13.7262 22.6186C13.9947 22.443 14.2996 22.3104 14.641 22.2209C14.9857 22.1314 15.3469 22.0685 15.7248 22.032C16.1689 21.9856 16.5269 21.9425 16.7986 21.9027C17.0704 21.8597 17.2676 21.7967 17.3903 21.7138C17.5129 21.631 17.5742 21.5083 17.5742 21.3459V21.3161C17.5742 21.0012 17.4748 20.7576 17.2759 20.5853C17.0804 20.4129 16.802 20.3267 16.4407 20.3267C16.0595 20.3267 15.7563 20.4113 15.5309 20.5803C15.3055 20.746 15.1564 20.9548 15.0834 21.2067L13.1246 21.0476C13.2241 20.5836 13.4196 20.1826 13.7113 19.8445C14.003 19.5031 14.3791 19.2413 14.8398 19.059C15.3039 18.8734 15.8408 18.7806 16.4506 18.7806C16.8749 18.7806 17.2809 18.8303 17.6687 18.9297C18.0598 19.0292 18.4061 19.1833 18.7077 19.3921C19.0127 19.6009 19.253 19.8694 19.4286 20.1975C19.6043 20.5223 19.6921 20.9117 19.6921 21.3658V26.5164H17.6836V25.4574H17.6239C17.5013 25.6961 17.3372 25.9065 17.1317 26.0888C16.9262 26.2678 16.6793 26.4087 16.391 26.5114C16.1026 26.6108 15.7695 26.6606 15.3917 26.6606ZM15.9982 25.1989C16.3098 25.1989 16.5849 25.1376 16.8235 25.015C17.0621 24.889 17.2494 24.72 17.3853 24.5079C17.5212 24.2957 17.5891 24.0554 17.5891 23.787V22.9766C17.5228 23.0197 17.4317 23.0595 17.3157 23.0959C17.203 23.1291 17.0754 23.1606 16.9329 23.1904C16.7904 23.2169 16.6478 23.2418 16.5053 23.265C16.3628 23.2848 16.2335 23.3031 16.1175 23.3196C15.869 23.3561 15.6519 23.4141 15.4663 23.4936C15.2807 23.5732 15.1365 23.6809 15.0337 23.8168C14.931 23.9494 14.8796 24.1151 14.8796 24.314C14.8796 24.6023 14.984 24.8227 15.1928 24.9752C15.4049 25.1243 15.6734 25.1989 15.9982 25.1989Z" fill="white"/>
<path id="Vector_6" d="M0.443359 16.3345H3.09819L5.90217 23.1754H6.02148L8.82546 16.3345H11.4803V26.5164H9.39222V19.8892H9.30771L6.67276 26.4666H5.25089L2.61594 19.8644H2.53143V26.5164H0.443359V16.3345Z" fill="white"/>
<path id="Vector_7" d="M26.9183 5.74362V10.5164H26.0334V0.334534H26.9183V4.07814H26.9979C27.1769 3.68373 27.4536 3.36886 27.8281 3.13354C28.206 2.89822 28.6832 2.78056 29.2599 2.78056C29.777 2.78056 30.2311 2.88662 30.6222 3.09874C31.0133 3.31086 31.3182 3.62407 31.5369 4.03837C31.7557 4.45267 31.8651 4.96308 31.8651 5.56962V10.5164H30.9751V5.62431C30.9751 4.99457 30.7995 4.49907 30.4482 4.1378C30.1001 3.77322 29.6295 3.59093 29.0362 3.59093C28.6286 3.59093 28.2656 3.6771 27.9474 3.84945C27.6293 4.0218 27.3774 4.27038 27.1918 4.59519C27.0095 4.91668 26.9183 5.2995 26.9183 5.74362Z" fill="white"/>
<path id="Vector_8" d="M23.8596 2.87996V3.65056H20.2154V2.87996H23.8596ZM21.3539 1.05042H22.2438V8.52272C22.2438 8.8409 22.2985 9.09113 22.4079 9.27343C22.5172 9.4524 22.6598 9.58001 22.8354 9.65624C23.0111 9.72916 23.1983 9.76561 23.3972 9.76561C23.5132 9.76561 23.6126 9.75899 23.6955 9.74573C23.7784 9.72916 23.8513 9.71258 23.9143 9.69601L24.1032 10.4964C24.017 10.5296 23.9109 10.5594 23.785 10.5859C23.659 10.6158 23.5033 10.6307 23.3177 10.6307C22.9929 10.6307 22.6796 10.5594 22.378 10.4169C22.0797 10.2744 21.8345 10.0623 21.6422 9.78053C21.45 9.49881 21.3539 9.14914 21.3539 8.73152V1.05042Z" fill="white"/>
<path id="Vector_9" d="M15.1916 10.6903C14.7309 10.6903 14.31 10.6009 13.9288 10.4219C13.5477 10.2396 13.2444 9.97775 13.019 9.63637C12.7936 9.29167 12.6809 8.87406 12.6809 8.38353C12.6809 8.00569 12.7522 7.68751 12.8947 7.42898C13.0372 7.17046 13.2394 6.95834 13.5013 6.79262C13.7631 6.6269 14.073 6.49598 14.4309 6.39986C14.7889 6.30375 15.1833 6.22917 15.6142 6.17614C16.0417 6.12311 16.403 6.07671 16.698 6.03694C16.9963 5.99716 17.2233 5.93419 17.3791 5.84802C17.5349 5.76184 17.6128 5.62264 17.6128 5.4304V5.25143C17.6128 4.73107 17.457 4.32174 17.1454 4.02344C16.8372 3.72183 16.3931 3.57103 15.813 3.57103C15.2629 3.57103 14.8138 3.692 14.4657 3.93395C14.121 4.1759 13.8791 4.46094 13.7399 4.78907L12.8997 4.4858C13.072 4.06819 13.3107 3.73509 13.6156 3.48651C13.9205 3.23462 14.2619 3.05398 14.6397 2.94461C15.0176 2.83192 15.4004 2.77557 15.7882 2.77557C16.0799 2.77557 16.3831 2.81369 16.698 2.88992C17.0162 2.96615 17.3111 3.09873 17.5829 3.28765C17.8547 3.47325 18.0751 3.73343 18.2441 4.06819C18.4132 4.39963 18.4977 4.82055 18.4977 5.33097V10.5163H17.6128V9.30824H17.5581C17.452 9.53362 17.2946 9.75237 17.0858 9.96449C16.877 10.1766 16.6151 10.3506 16.3003 10.4865C15.9854 10.6224 15.6158 10.6903 15.1916 10.6903ZM15.3109 9.87998C15.7816 9.87998 16.1892 9.77557 16.5339 9.56677C16.8786 9.35796 17.1438 9.08121 17.3294 8.73651C17.5183 8.3885 17.6128 8.00569 17.6128 7.58807V6.48438C17.5465 6.54735 17.4354 6.6037 17.2797 6.65341C17.1272 6.70313 16.9499 6.74787 16.7477 6.78765C16.5488 6.82411 16.35 6.85559 16.1511 6.88211C15.9522 6.90862 15.7733 6.93182 15.6142 6.95171C15.1833 7.00474 14.8154 7.0876 14.5105 7.20029C14.2056 7.31298 13.9719 7.46876 13.8095 7.66762C13.6471 7.86317 13.5659 8.11506 13.5659 8.4233C13.5659 8.88732 13.7316 9.24693 14.063 9.50214C14.3945 9.75403 14.8104 9.87998 15.3109 9.87998Z" fill="white"/>
<path id="Vector_10" d="M0.910706 0.334534H1.98457L5.67846 9.20385H5.76795L9.46184 0.334534H10.5357V10.5164H9.66071V2.29831H9.58116L6.14579 10.5164H5.30062L1.86525 2.29831H1.78571V10.5164H0.910706V0.334534Z" fill="white"/>
</g>
</svg>
