<svg width="51" height="51" viewBox="0 0 51 51" fill="none" xmlns="http://www.w3.org/2000/svg">
<g id="Group 5">
<g id="Mask group">
<mask id="mask0_101_4084" style="mask-type:alpha" maskUnits="userSpaceOnUse" x="0" y="0" width="51" height="51">
<circle id="Ellipse 4" cx="25.5" cy="25.5" r="25.5" fill="#D9D9D9"/>
</mask>
<g mask="url(#mask0_101_4084)">
<g id="Group 1">
<path id="Vector" d="M28.0536 39.9581H23.6015V42.0912H28.0536V39.9581Z" fill="#F7BD94"/>
<path id="Vector_2" d="M28.0536 40.5889V39.955H23.6015V41.2532C25.1174 41.3937 26.6448 41.1658 28.0536 40.5889Z" fill="#C77553"/>
<path id="Vector_3" d="M17.181 61.097C17.181 61.097 15.5842 54.3138 20.082 47.2532C20.082 47.2532 19.6005 46.0922 18.598 46.3817C18.598 46.3817 12.5186 53.3112 15.5354 61.4779C15.5324 61.4779 16.538 62.8279 17.181 61.097Z" fill="#F7BD94"/>
<path id="Vector_4" d="M34.2761 61.1C34.2761 61.1 35.8759 54.3138 31.3751 47.2532C31.3751 47.2532 31.8566 46.0892 32.8591 46.3817C32.8591 46.3817 38.9384 53.3082 35.9247 61.4779C35.9247 61.4779 34.9191 62.8278 34.2761 61.1Z" fill="#F7BD94"/>
<path id="Vector_5" d="M32.9018 43.8586C32.4783 42.5086 31.427 42.2923 31.427 42.2923L27.496 41.5152H24.144L20.21 42.2923C20.21 42.2923 19.1586 42.5086 18.7381 43.8586C18.4791 51.4554 18.2536 55.6881 17.8239 61.7948C17.8239 61.7948 21.1028 63.1295 25.8352 63.0137C30.5676 63.1387 33.8465 61.7948 33.8465 61.7948C33.6576 58.6104 33.2888 51.6413 32.9018 43.8586Z" fill="#F7BD94"/>
<path id="Vector_6" d="M28.3309 41.6828L31.436 42.2923C31.436 42.2923 32.4874 42.5086 32.9109 43.8586C33.2157 49.883 33.3558 53.5276 33.8251 61.7979C33.8251 61.7979 30.5462 63.1295 25.8138 63.0168C21.0814 63.1417 17.8026 61.7979 17.8026 61.7979C18.1713 55.3133 18.3968 51.6809 18.7167 43.8586C19.1373 42.5086 20.1886 42.2923 20.1886 42.2923L23.1597 41.7042C23.1597 41.7042 23.2023 43.6118 25.6737 43.563C25.7011 43.5691 28.0536 43.8586 28.3309 41.6828Z" fill="#85BD7C"/>
<g id="Vector_7" style="mix-blend-mode:multiply">
<path d="M33.7551 60.3626C31.5092 61.3895 29.6748 61.6821 27.4624 61.8222C24.5218 62.0081 19.8717 62.0599 19.5091 58.7232C19.245 55.7624 19.2358 52.7844 19.4816 49.8221H18.473C18.2658 54.0486 18.0769 57.2148 17.8148 61.8009C17.8148 61.8009 21.0937 63.1356 25.8261 63.0198C30.5585 63.1448 33.8373 61.8009 33.8373 61.8009C33.7947 61.0574 33.7947 61.0391 33.7551 60.3626Z" fill="#D0E5CC"/>
</g>
<path id="Vector_8" d="M20.146 42.3167C20.146 42.3167 17.3608 42.4233 16.2363 45.9734L15.4166 48.1065C15.4166 48.1065 16.6355 50.3797 19.3476 50.3066C19.3476 50.2883 21.0175 45.1933 20.146 42.3167Z" fill="white"/>
<path id="Vector_9" d="M20.146 42.3167C20.146 42.3167 17.3608 42.4233 16.2363 45.9734L15.4166 48.1065C15.4166 48.1065 16.6355 50.3797 19.3476 50.3066C19.3476 50.2883 21.0175 45.1933 20.146 42.3167Z" fill="#85BD7C"/>
<g id="Vector_10" style="mix-blend-mode:multiply">
<path d="M17.4703 48.4295C16.8853 47.4056 17.3241 45.8942 17.708 44.8916C18.1746 43.7798 19.0459 42.8867 20.1458 42.3928C20.1458 42.3746 20.1458 42.3532 20.1306 42.3319C20.1154 42.3106 17.3454 42.4386 16.221 45.9886L15.4012 48.1217C15.4012 48.1217 16.6202 50.395 19.3322 50.3218C19.3322 50.3218 19.4023 50.1024 19.5059 49.7459C19.0871 49.7017 18.6845 49.5596 18.3309 49.3308C17.9772 49.1021 17.6824 48.7933 17.4703 48.4295Z" fill="#D0E5CC"/>
</g>
<path id="Vector_11" d="M31.3781 42.3167C31.3781 42.3167 34.1634 42.4233 35.2878 45.9734L36.1075 48.1065C36.1075 48.1065 34.8734 50.3797 32.1765 50.3066C32.1613 50.2883 30.4823 45.1933 31.3781 42.3167Z" fill="#85BD7C"/>
<g id="Vector_12" style="mix-blend-mode:multiply">
<path d="M34.0384 48.4295C34.6235 47.4056 34.1847 45.8942 33.8008 44.8916C33.3342 43.7798 32.4629 42.8867 31.3629 42.3928C31.3629 42.3746 31.3629 42.3532 31.3782 42.3319C31.3934 42.3106 34.1634 42.4386 35.2878 45.9886L36.1075 48.1217C36.1075 48.1217 34.8734 50.395 32.1766 50.3218C32.1766 50.3218 32.1065 50.1024 32.0029 49.7459C32.4217 49.7017 32.8242 49.5596 33.1779 49.3308C33.5315 49.1021 33.8264 48.7933 34.0384 48.4295Z" fill="#D0E5CC"/>
</g>
<path id="Vector_13" d="M40.3829 27.1504C40.3829 34.3938 33.7459 40.2689 25.5518 40.2689C17.3577 40.2689 10.7207 34.3938 10.7207 27.1504C10.7207 19.907 17.3607 14.0471 25.5518 14.0471C33.7429 14.0471 40.3829 19.904 40.3829 27.1504Z" fill="#F7BD94"/>
<path id="Vector_14" d="M8.85883 29.7771C8.93197 30.9656 9.77301 31.8798 10.7116 31.8219C11.6501 31.764 12.3723 30.7523 12.2992 29.5669C12.2261 28.3815 11.385 27.4643 10.4465 27.5222C9.5079 27.5801 8.7857 28.5917 8.85883 29.7771Z" fill="#F7BD94"/>
<path id="Vector_15" d="M9.70596 28.1895C9.83459 28.1215 9.97791 28.0859 10.1234 28.0859C10.7542 28.0859 11.2083 29.1464 10.5744 29.3048C10.5069 29.3774 10.4678 29.472 10.4645 29.5711C10.4611 29.6702 10.4937 29.7672 10.5561 29.8442C10.7573 30.1062 11.0315 30.4841 10.9492 30.8406C10.9005 31.0509 10.675 31.1454 10.4769 31.2002C10.2788 31.2551 10.2941 31.0997 10.419 31.0387C10.516 30.9921 10.6014 30.9245 10.6689 30.8406L10.6902 30.8041V30.7797C10.7116 30.7308 10.7169 30.6764 10.7055 30.6243C10.6351 30.6803 10.5464 30.7079 10.4567 30.7017C10.367 30.6955 10.2829 30.6559 10.2209 30.5908C10.1082 30.4323 10.2209 30.1946 10.1783 30.0148C10.1526 29.8906 10.1095 29.7705 10.0503 29.6583C9.78823 29.122 10.3093 29.0488 10.3093 29.0488C10.3737 29.0537 10.4378 29.0619 10.5013 29.0732C10.7695 28.9361 10.5013 28.4973 10.3398 28.4211C10.2515 28.3742 10.1507 28.3563 10.0517 28.37C9.95267 28.3837 9.86048 28.4282 9.78823 28.4973C9.65173 28.6634 9.58026 28.8735 9.58712 29.0885C9.59404 29.3466 9.64665 29.6014 9.74252 29.8411L9.91013 30.2556C9.96802 30.4049 9.80956 30.4628 9.75167 30.3135C9.56414 29.9279 9.43279 29.5174 9.36162 29.0946C9.33133 28.9267 9.34739 28.7537 9.40806 28.5942C9.46873 28.4347 9.57172 28.2948 9.70596 28.1895Z" fill="#C77553"/>
<path id="Vector_16" d="M42.2478 29.7771C42.1747 30.9656 41.3337 31.8798 40.3951 31.8219C39.4565 31.764 38.7313 30.7523 38.8075 29.5669C38.8836 28.3815 39.7216 27.4643 40.6602 27.5222C41.5988 27.5801 42.321 28.5917 42.2478 29.7771Z" fill="#F7BD94"/>
<path id="Vector_17" d="M41.4005 28.1895C41.271 28.1211 41.1266 28.0855 40.98 28.0859C40.3523 28.0859 39.8982 29.1464 40.5321 29.3048C40.5996 29.3774 40.6387 29.472 40.642 29.5711C40.6454 29.6702 40.6128 29.7672 40.5504 29.8442C40.3492 30.1063 40.075 30.4841 40.1573 30.8406C40.206 31.0509 40.4315 31.1454 40.6296 31.2002C40.8276 31.2551 40.8124 31.0997 40.6844 31.0387C40.5883 30.9921 40.5039 30.9244 40.4376 30.8406L40.4163 30.8041C40.4101 30.7967 40.405 30.7885 40.401 30.7797C40.3781 30.7312 40.3727 30.6763 40.3858 30.6243C40.4561 30.6803 40.5449 30.7079 40.6346 30.7017C40.7243 30.6955 40.8084 30.6559 40.8703 30.5908C40.98 30.4323 40.8703 30.1946 40.913 30.0148C40.9386 29.8906 40.9817 29.7705 41.041 29.6583C41.303 29.122 40.7819 29.0488 40.7819 29.0488C40.7176 29.0537 40.6535 29.0619 40.59 29.0732C40.3218 28.9361 40.59 28.4973 40.7515 28.4211C40.8397 28.3742 40.9406 28.3563 41.0396 28.37C41.1386 28.3837 41.2308 28.4282 41.303 28.4973C41.4374 28.6646 41.5086 28.8739 41.5042 29.0885C41.5017 29.3374 41.4552 29.584 41.367 29.8168C41.3183 29.9478 41.2543 30.1032 41.2025 30.2312C41.1507 30.3592 41.303 30.4384 41.3609 30.2891C41.5485 29.9035 41.6798 29.493 41.751 29.0702C41.776 28.9055 41.7567 28.7371 41.6951 28.5824C41.6335 28.4276 41.5318 28.292 41.4005 28.1895Z" fill="#C77553"/>
<path id="Vector_18" d="M26.6183 31.8523C26.5525 31.8515 26.4898 31.8248 26.4436 31.7781C26.3974 31.7313 26.3715 31.6682 26.3715 31.6024C26.3587 31.3941 26.267 31.1984 26.115 31.0554C25.9629 30.9123 25.762 30.8327 25.5533 30.8327C25.3445 30.8327 25.1436 30.9123 24.9916 31.0554C24.8395 31.1984 24.7478 31.3941 24.7351 31.6024C24.7351 31.6682 24.7092 31.7313 24.663 31.7781C24.6168 31.8248 24.554 31.8515 24.4882 31.8523C24.422 31.8523 24.3584 31.826 24.3116 31.7791C24.2647 31.7323 24.2384 31.6687 24.2384 31.6024C24.2546 31.2647 24.4003 30.9461 24.6451 30.7128C24.8899 30.4795 25.2151 30.3493 25.5533 30.3493C25.8914 30.3493 26.2166 30.4795 26.4615 30.7128C26.7063 30.9461 26.8519 31.2647 26.8682 31.6024C26.8682 31.6687 26.8418 31.7323 26.795 31.7791C26.7481 31.826 26.6846 31.8523 26.6183 31.8523Z" fill="#C77553"/>
<path id="Vector_19" opacity="0.3" d="M15.3617 31.511C15.3617 32.2485 16.3124 32.8458 17.4948 32.8458C18.6771 32.8458 19.6278 32.2363 19.6278 31.511C19.6278 30.7858 18.674 30.1733 17.4948 30.1733C16.3155 30.1733 15.3617 30.7706 15.3617 31.511Z" fill="#F4A68E"/>
<path id="Vector_20" opacity="0.3" d="M31.491 31.511C31.491 32.2485 32.4417 32.8458 33.6241 32.8458C34.8064 32.8458 35.7571 32.2363 35.7571 31.511C35.7571 30.7858 34.8034 30.1733 33.6241 30.1733C32.4448 30.1733 31.491 30.7706 31.491 31.511Z" fill="#F4A68E"/>
<path id="Vector_21" d="M14.993 8.62604C9.81265 9.65297 8.85276 17.7404 8.85276 17.7404C8.481 21.7293 8.46271 23.2529 9.65115 27.8269C9.65115 27.8269 9.76999 27.5526 10.7299 27.5374C10.7055 27.5374 11.2205 25.8431 11.2388 25.7395C11.4631 24.5694 11.9509 23.4657 12.6653 22.5121C13.3797 21.5586 14.3018 20.7802 15.3617 20.2361C19.6127 17.2376 18.0372 15.842 18.0372 15.842C18.1134 16.2534 19.2409 17.0121 19.6157 17.1005C21.5111 17.5515 23.5376 17.1432 25.2227 17.2011C28.2182 17.3077 31.4666 17.5058 33.9684 19.3524C36.1319 20.9462 37.8567 23.0914 39.2615 25.3617C39.3956 25.5841 40.2762 27.5405 40.3768 27.5191C40.8015 27.4934 41.22 27.6307 41.5469 27.9031C41.5469 27.9031 43.9543 13.8338 36.5311 9.89065C36.5311 9.89065 23.6595 3.06781 14.993 8.62604Z" fill="#512D27"/>
<path id="Vector_22" d="M12.2504 23.1097C13.2103 21.4581 15.7335 19.968 15.7335 19.968C18.7808 17.8166 18.476 16.7592 18.2475 16.1802L18.3084 16.2442C17.1992 13.6906 16.1327 11.1187 14.7766 8.68089C8.62724 9.59507 7 18.1549 7 18.1549L7.08228 18.4596C7.60946 20.9705 9.84615 22.5277 12.2504 23.1097Z" fill="#663B2B"/>
<path id="Vector_23" d="M17.4796 24.158C17.9279 23.757 18.4928 23.5103 19.0916 23.4541C19.2179 23.4184 19.3252 23.3346 19.3902 23.2205C19.4552 23.1065 19.4727 22.9715 19.439 22.8446C19.4014 22.7194 19.3173 22.6134 19.2039 22.5482C19.0906 22.4831 18.9567 22.4637 18.8295 22.4942C18.0612 22.5899 17.3431 22.9271 16.7787 23.4571C16.3125 23.902 17.0195 24.6059 17.4857 24.161L17.4796 24.158Z" fill="#512D27"/>
<path id="Vector_24" d="M33.627 24.158C33.1788 23.757 32.6138 23.5103 32.015 23.4541C31.8882 23.4191 31.7804 23.3354 31.7153 23.2211C31.6502 23.1069 31.633 22.9715 31.6676 22.8446C31.7053 22.7194 31.7894 22.6134 31.9027 22.5482C32.016 22.4831 32.1499 22.4637 32.2771 22.4942C33.0457 22.5844 33.7659 22.9163 34.334 23.4419C34.8002 23.8868 34.0932 24.5907 33.627 24.1458V24.158Z" fill="#512D27"/>
<path id="Vector_25" opacity="0.1" d="M16.3216 12.6728C16.3216 12.6728 10.4861 16.3996 10.1783 19.3768C10.2539 18.1097 10.5704 16.8686 11.1108 15.7201C11.1108 15.7201 9.18494 16.5672 9.09657 18.359C9.09657 18.359 7.85328 14.425 14.3044 10.7774C14.3044 10.7774 12.0768 12.9471 11.6898 14.9583C11.6898 14.9613 13.7315 12.6088 16.3216 12.6728Z" fill="white"/>
<path id="Vector_26" d="M25.4909 37.5233C25.2103 37.5335 24.9328 37.4615 24.6925 37.3161C24.6463 37.2798 24.6158 37.2271 24.6074 37.1689C24.599 37.1107 24.6134 37.0515 24.6475 37.0036C24.6817 36.9557 24.7329 36.9228 24.7907 36.9118C24.8485 36.9008 24.9082 36.9124 24.9576 36.9443C24.982 36.9596 25.4086 37.2338 26.1948 36.9199C26.2504 36.9004 26.3113 36.9029 26.365 36.9272C26.4186 36.9514 26.4609 36.9954 26.4829 37.0501C26.5049 37.1047 26.505 37.1657 26.4831 37.2204C26.4612 37.275 26.4191 37.3191 26.3655 37.3435C26.0879 37.4582 25.7912 37.5192 25.4909 37.5233Z" fill="#C77553"/>
<path id="Vector_27" d="M25.5365 36.2739C25.1982 36.2739 24.7808 35.954 24.5248 35.7498C24.3907 35.6462 24.3206 35.6066 24.3968 35.4207C24.4486 35.3019 24.7838 35.311 24.9667 35.3262C25.2817 35.3552 25.5984 35.3613 25.9144 35.3445C26.0972 35.3445 26.731 35.2501 26.7402 35.4969C26.7493 35.7437 25.8016 36.2739 25.5365 36.2739Z" fill="#C77553"/>
<path id="Vector_28" d="M21.6574 27.5222C21.6574 28.0423 21.5031 28.5507 21.2142 28.9832C20.9252 29.4157 20.5145 29.7527 20.0339 29.9518C19.5534 30.1508 19.0246 30.2029 18.5145 30.1014C18.0044 30 17.5358 29.7495 17.168 29.3817C16.8002 29.0139 16.5498 28.5453 16.4483 28.0352C16.3468 27.5251 16.3989 26.9963 16.5979 26.5158C16.797 26.0353 17.1341 25.6245 17.5665 25.3356C17.999 25.0466 18.5074 24.8924 19.0276 24.8924C19.725 24.8924 20.3939 25.1694 20.8871 25.6626C21.3803 26.1558 21.6574 26.8247 21.6574 27.5222Z" fill="white"/>
<path id="Vector_29" d="M21.1637 27.5222C21.1459 27.8528 21.0315 28.1709 20.8348 28.4373C20.6381 28.7036 20.3677 28.9065 20.057 29.0208C19.7463 29.1351 19.4088 29.1559 19.0864 29.0806C18.764 29.0052 18.4707 28.8371 18.2428 28.5969C18.015 28.3567 17.8624 28.055 17.8041 27.7291C17.7458 27.4032 17.7843 27.0673 17.9148 26.763C18.0453 26.4587 18.2621 26.1993 18.5384 26.0169C18.8147 25.8344 19.1384 25.7369 19.4695 25.7365C19.698 25.7424 19.9231 25.7933 20.1319 25.8862C20.3408 25.9792 20.5293 26.1124 20.6866 26.2782C20.844 26.4441 20.9671 26.6393 21.049 26.8527C21.1308 27.0662 21.1698 27.2936 21.1637 27.5222Z" fill="#77422A"/>
<path id="Vector_30" d="M19.0276 30.1459H18.9331C18.8459 30.1518 18.7583 30.1518 18.6711 30.1459C18.5325 30.1389 18.3948 30.1195 18.2597 30.088C18.0827 30.048 17.9109 29.9877 17.7477 29.9082C17.5539 29.8129 17.3718 29.6953 17.2053 29.5577C17.0158 29.4037 16.8495 29.2231 16.7117 29.0214C16.5654 28.804 16.4505 28.567 16.3704 28.3175C16.2037 27.7952 16.2037 27.2339 16.3704 26.7116C16.4505 26.4621 16.5654 26.2251 16.7117 26.0077C16.8495 25.806 17.0158 25.6254 17.2053 25.4714C17.3718 25.3338 17.5539 25.2162 17.7477 25.1209C17.9109 25.0414 18.0827 24.9811 18.2597 24.9411C18.3941 24.9115 18.5306 24.8921 18.668 24.8832C18.7562 24.8754 18.8449 24.8754 18.9331 24.8832C18.8752 24.8832 18.7869 24.8832 18.6772 24.9259C18.5457 24.953 18.4163 24.9897 18.2901 25.0356C18.1308 25.0989 17.976 25.1733 17.827 25.258C17.6541 25.3599 17.4944 25.4827 17.3516 25.6237C17.0969 25.8666 16.8945 26.1589 16.7567 26.4827C16.6189 26.8065 16.5486 27.155 16.5502 27.5069C16.5502 27.9852 16.6843 28.4539 16.9372 28.8599C17.0544 29.0474 17.1935 29.2203 17.3516 29.3749C17.4952 29.5158 17.6548 29.6395 17.827 29.7436C17.976 29.8275 18.1308 29.9008 18.2901 29.963C18.4154 30.0117 18.545 30.0484 18.6772 30.0727C18.7616 30.092 18.847 30.1062 18.9331 30.1154L19.0276 30.1459Z" fill="#C77553"/>
<path id="Vector_31" d="M29.4492 27.5222C29.4492 28.0423 29.6035 28.5507 29.8924 28.9832C30.1814 29.4157 30.5921 29.7527 31.0726 29.9518C31.5532 30.1508 32.0819 30.2029 32.5921 30.1014C33.1022 30 33.5708 29.7495 33.9386 29.3817C34.3063 29.0139 34.5568 28.5453 34.6583 28.0352C34.7598 27.5251 34.7077 26.9963 34.5086 26.5158C34.3096 26.0353 33.9725 25.6245 33.54 25.3356C33.1076 25.0466 32.5991 24.8924 32.079 24.8924C31.3815 24.8924 30.7126 25.1694 30.2195 25.6626C29.7263 26.1558 29.4492 26.8247 29.4492 27.5222Z" fill="white"/>
<path id="Vector_32" d="M29.9428 27.5222C29.9607 27.8529 30.0751 28.1712 30.2719 28.4376C30.4688 28.704 30.7394 28.9068 31.0503 29.0211C31.3612 29.1353 31.6988 29.1559 32.0212 29.0803C32.3437 29.0047 32.637 28.8363 32.8648 28.5958C33.0925 28.3553 33.2448 28.0533 33.3028 27.7272C33.3607 27.4011 33.3218 27.0651 33.1909 26.7609C33.0599 26.4567 32.8427 26.1975 32.566 26.0154C32.2893 25.8333 31.9653 25.7363 31.6341 25.7365C31.1731 25.7492 30.736 25.9445 30.4189 26.2793C30.1018 26.6141 29.9305 27.0612 29.9428 27.5222Z" fill="#77422A"/>
<path id="Vector_33" d="M32.079 30.1459H32.1734C32.2595 30.1367 32.345 30.1225 32.4294 30.1032C32.5613 30.0775 32.6907 30.0408 32.8164 29.9935C32.9758 29.9313 33.1305 29.858 33.2796 29.7741C33.4518 29.67 33.6113 29.5463 33.755 29.4054C34.085 29.0866 34.3265 28.6876 34.4559 28.2474C34.5206 28.0162 34.5544 27.7775 34.5564 27.5374C34.5563 27.1857 34.4853 26.8377 34.3476 26.5141C34.2099 26.1905 34.0083 25.8981 33.755 25.6542C33.6122 25.5132 33.4525 25.3904 33.2796 25.2885C33.1305 25.2037 32.9758 25.1294 32.8164 25.0661C32.6902 25.0202 32.5609 24.9835 32.4294 24.9564C32.3197 24.9289 32.2313 24.9259 32.1734 24.9137C32.2616 24.9059 32.3504 24.9059 32.4386 24.9137C32.5759 24.9226 32.7125 24.942 32.8469 24.9716C33.0235 25.0129 33.1952 25.0732 33.3588 25.1514C33.5527 25.2466 33.7347 25.3643 33.9013 25.5018C34.0908 25.6558 34.2571 25.8365 34.3949 26.0381C34.5412 26.2556 34.656 26.4926 34.7362 26.7421C34.9028 27.2644 34.9028 27.8256 34.7362 28.348C34.656 28.5975 34.5412 28.8344 34.3949 29.0519C34.2571 29.2535 34.0908 29.4342 33.9013 29.5882C33.7347 29.7258 33.5527 29.8434 33.3588 29.9386C33.1957 30.0181 33.0239 30.0785 32.8469 30.1184C32.7118 30.15 32.5741 30.1694 32.4355 30.1763C32.3483 30.1823 32.2607 30.1823 32.1734 30.1763L32.079 30.1459Z" fill="#C77553"/>
<path id="Vector_34" d="M18.3633 17.582L15.9102 10.7805L19.0276 17.1767L18.3633 17.582Z" fill="#F7BD94"/>
<path id="Vector_35" d="M41.3123 12.0512C41.3123 12.0512 43.2016 15.8663 43.0188 23.7862C29.0013 24.5937 22.8153 17.2498 22.8153 17.2498L25.5884 21.2661C21.505 19.5871 18.2932 16.3905 18.2932 16.3905L14.9869 8.63213C14.9869 8.63213 16.8153 2.68385 27.7854 4.26843C27.7854 4.26234 36.8633 5.28927 41.3123 12.0512Z" fill="#663B2B"/>
<path id="Vector_36" opacity="0.1" d="M24.2719 8.49195C24.2719 8.49195 19.0428 7.95563 17.4521 9.58592C18.0951 8.86661 18.8698 8.27702 19.7345 7.84898C19.7345 7.84898 18.1865 7.44369 17.2967 8.45843C17.2967 8.45843 18.415 5.53305 23.9733 6.40457C23.9733 6.40457 21.6238 6.6453 20.4445 7.66005C20.4354 7.66919 22.7604 7.23038 24.2719 8.49195Z" fill="white"/>
<path id="Vector_37" opacity="0.1" d="M30.8967 10.5885C30.8967 10.5885 37.4056 12.9532 38.3564 15.8024C38.0072 14.58 37.4269 13.4359 36.6469 12.4321C36.6469 12.4321 38.7099 12.8374 39.1883 14.5652C39.1883 14.5652 39.5448 10.4513 32.4538 8.29693C32.4538 8.29693 35.0989 9.93027 35.9155 11.8104C35.9155 11.8135 33.4107 9.96074 30.8967 10.5885Z" fill="white"/>
<path id="Vector_38" opacity="0.1" d="M24.8235 12.7368C24.8235 12.7368 29.3365 17.9873 32.3381 17.8684C31.0713 17.975 29.7958 17.8374 28.5808 17.4631C28.5808 17.4631 29.69 19.2519 31.4788 19.0873C31.4788 19.0873 27.758 20.873 23.2511 15.0009C23.2511 15.0009 25.7133 16.8994 27.758 16.9969C27.7428 16.9969 25.1252 15.3087 24.8235 12.7368Z" fill="white"/>
<path id="Vector_39" opacity="0.1" d="M32.4904 18.0665C32.4904 18.0665 38.8044 20.9035 41.4708 19.5231C40.368 20.1539 39.1547 20.5676 37.8963 20.742C37.8963 20.742 39.6637 21.8878 41.2117 20.9797C41.2117 20.9797 38.6033 24.1763 32.012 20.7816C32.012 20.7816 35.0593 21.455 36.9425 20.6749C36.9425 20.6993 33.8556 20.2666 32.4904 18.0665Z" fill="white"/>
</g>
<g id="Union" filter="url(#filter0_i_101_4084)">
<path fill-rule="evenodd" clip-rule="evenodd" d="M43.0188 23.7862C43.2016 15.8663 41.3123 12.0512 41.3123 12.0512C36.8633 5.28927 27.7855 4.26234 27.7855 4.26843C17.0041 2.71113 15.0526 8.42959 14.9886 8.62691C14.8909 8.64636 14.7946 8.66833 14.6999 8.69272C8.61369 9.66634 7 18.1548 7 18.1548L7.08228 18.4596C7.31318 19.5594 7.87203 20.4762 8.62928 21.2082C8.61136 23.1396 8.87176 24.8274 9.65112 27.8269C9.65112 27.8269 9.70163 27.7103 10.0028 27.625C9.29155 27.9181 8.79778 28.787 8.85886 29.7771C8.932 30.9656 9.77304 31.8798 10.7116 31.8219C11.0208 31.8028 11.3066 31.6802 11.5481 31.4819C13.364 36.0757 17.9873 39.5045 23.6016 40.1565V41.2532V41.6224L23.1598 41.7096L23.1596 41.7042L20.1885 42.2923C20.1885 42.2923 20.1518 42.2998 20.0893 42.3209C20.0007 42.3294 19.8131 42.3537 19.5635 42.4217C18.6894 42.6523 17.0296 43.4355 16.221 45.9886L15.4012 48.1217C15.4012 48.1217 15.7835 48.8345 16.5961 49.449C15.2116 52.1231 13.8612 56.2878 15.3351 60.8963C15.2652 60.9662 15.2276 61.0147 15.2276 61.0147C14.6821 61.5571 14.8345 62.706 14.8345 62.706C14.9379 63.4907 15.2307 64.2385 15.6877 64.8848C15.9437 65.1346 16.1418 64.967 16.1266 64.9701C16.3734 64.836 16.0991 64.3606 16.0991 64.3606L15.5567 62.9071C15.5567 62.9071 15.7274 63.2484 16.0626 64.1626C16.0626 64.1626 16.41 65.1803 16.931 65.0524C16.931 65.0524 17.3516 64.8695 16.9767 64.4185C16.9767 64.4185 16.41 63.3124 16.3673 62.8096C16.5129 63.3288 16.7282 63.826 17.0072 64.2875C17.5222 65.0615 17.7477 64.8177 17.7477 64.8177C17.8297 64.7681 17.8901 64.6896 17.9172 64.5977C17.9442 64.5058 17.936 64.4071 17.894 64.321C17.5787 63.7688 17.3087 63.192 17.0864 62.5963C17.0864 62.5963 17.0864 62.2946 17.4247 62.514C17.4967 62.5849 17.5679 62.6562 17.6389 62.7273L17.6389 62.7274L17.639 62.7274L17.6391 62.7275L17.6391 62.7276C17.7572 62.8459 17.8747 62.9636 17.9945 63.0777C18.0307 63.1157 18.0742 63.146 18.1224 63.1666C18.1706 63.1873 18.2224 63.1979 18.2749 63.1979C18.3273 63.1979 18.3792 63.1873 18.4274 63.1666C18.4756 63.146 18.5191 63.1157 18.5552 63.0777C18.5552 63.0777 18.8752 62.7273 18.412 62.3281C18.263 62.1898 18.1274 62.0382 18.007 61.8752C18.1648 61.9323 18.4112 62.0169 18.7372 62.1147L19.4542 78.9967L19.4957 79.0119C19.5835 79.0736 19.8097 79.2188 20.1613 79.3519V80.6225C20.1543 80.628 20.1475 80.6337 20.1407 80.6394C20.0463 80.7201 19.9728 80.8225 19.9266 80.9378L18.8021 83.3756C18.8021 83.3756 18.5074 84.3101 19.2923 84.9451C19.7413 85.3137 20.5517 85.5822 21.9926 85.5087C21.9926 85.5087 23.9916 85.5087 23.9764 83.3207L23.9692 83.3465C23.9692 83.3082 23.9685 83.2691 23.9673 83.2294L23.7692 80.9378C23.7663 80.914 23.7639 80.8921 23.7617 80.8718C23.7498 80.7621 23.7431 80.6997 23.6916 80.6507L23.7414 79.2178C23.9199 79.1512 24.1005 79.0772 24.2811 78.9936L24.2819 78.9825L24.2841 78.9814L25.1458 66.6857H26.5025L27.4899 78.9936C27.6415 79.0758 27.7999 79.1444 27.9634 79.1988L28.0165 80.76C28.0103 80.7922 28.0066 80.8298 28.0021 80.875L28.0021 80.8751L27.9993 80.9029L27.9956 80.9378L27.7976 83.2294C27.7244 85.5209 29.7844 85.5087 29.7844 85.5087L30.0058 84.426C30.0271 84.429 30.0486 84.4313 30.07 84.433L29.8588 85.5122C30.4718 85.5386 30.968 85.5017 31.3692 85.4211C32.7843 85.138 33.0162 84.3144 33.0169 83.8065L33.0169 83.8035C33.018 83.552 32.9627 83.3756 32.9627 83.3756L31.8382 80.9378C31.792 80.8225 31.7185 80.7201 31.6241 80.6394C31.5991 80.6181 31.5729 80.5985 31.5456 80.5807V79.3126C31.8248 79.1859 31.997 79.0568 32.0604 79.005L32.0913 78.9936L32.8577 62.9904C32.8807 63.0325 32.9018 63.0564 32.9018 63.0564C32.9382 63.0945 32.9819 63.1248 33.0304 63.1455C33.0788 63.1662 33.131 63.1768 33.1836 63.1768C33.2363 63.1768 33.2885 63.1662 33.3369 63.1455C33.3853 63.1248 33.4291 63.0945 33.4655 63.0564C33.6184 62.9108 33.7693 62.7594 33.9198 62.6084L33.92 62.6083L33.9201 62.6081L33.9203 62.608L33.9204 62.6078L33.9206 62.6077L33.9207 62.6075L33.9209 62.6074L33.921 62.6072L33.9212 62.6071L33.9213 62.6069L33.9215 62.6068L33.9216 62.6066L33.9218 62.6065L33.9219 62.6063L34.0354 62.4926C34.3766 62.2732 34.3766 62.5749 34.3766 62.5749C34.1526 63.1704 33.8816 63.7472 33.5661 64.2997C33.5241 64.3858 33.5158 64.4845 33.5429 64.5764C33.5699 64.6683 33.6304 64.7468 33.7123 64.7964C33.7123 64.7964 33.9378 65.0402 34.4528 64.2662C34.7319 63.8047 34.9472 63.3075 35.0928 62.7882C35.0501 63.291 34.4833 64.3972 34.4833 64.3972C34.1115 64.8451 34.5321 65.031 34.5321 65.031C35.0531 65.159 35.4005 64.1412 35.4005 64.1412C35.7357 63.227 35.9064 62.8857 35.9064 62.8857L35.3396 64.3515C35.3396 64.3515 35.0653 64.8269 35.3122 64.9609C35.3159 64.9618 35.3225 64.9657 35.3316 64.9711C35.3889 65.0052 35.5485 65.1003 35.7693 64.8848C36.2268 64.2376 36.5196 63.4887 36.6225 62.7029C36.6225 62.7029 36.7779 61.5571 36.2294 61.0147C36.2294 61.0147 36.1926 60.9671 36.1241 60.8985C37.593 56.3018 36.2546 52.1481 34.8741 49.4732C35.7103 48.8534 36.1075 48.1217 36.1075 48.1217L36.104 48.1127L36.1075 48.1065L35.2878 45.9734C34.3517 43.0182 32.2649 42.4491 31.5918 42.3414C31.4955 42.3045 31.436 42.2923 31.436 42.2923L30.1722 42.0442L28.0536 41.6255V40.5889V40.0831C33.4185 39.2772 37.8004 35.9236 39.556 31.4803C39.7983 31.6795 40.0851 31.8027 40.3951 31.8219C41.3337 31.8798 42.1747 30.9656 42.2479 29.7771C42.2964 28.9908 41.9949 28.2809 41.5124 27.8751L41.5284 27.8879L41.5469 27.9031C41.5469 27.9031 41.8366 26.21 41.9051 23.834C42.2707 23.8237 42.6419 23.8079 43.0188 23.7862ZM40.3771 27.5191L40.3766 27.5342C40.4458 27.524 40.516 27.519 40.5868 27.5196C40.5173 27.5151 40.4473 27.5149 40.3771 27.5191ZM17.0865 60.5816C16.8699 59.1828 16.4944 55.1055 18.4248 50.4347C18.2683 53.655 18.1168 56.3005 17.9306 59.5551L17.9301 59.563C17.8931 60.2094 17.8547 60.8798 17.8147 61.5836C17.7937 61.5478 17.7734 61.5115 17.7538 61.4749L17.7203 61.417C17.6017 61.109 17.4079 60.8355 17.1565 60.6216C17.1331 60.6075 17.1097 60.5942 17.0865 60.5816ZM33.2644 51.0196C33.488 55.356 33.6843 59.0038 33.8141 61.2417C33.9331 61.0045 34.0994 60.7933 34.3035 60.6216C34.3165 60.6138 34.3295 60.6062 34.3424 60.5988L34.3592 60.5893L34.371 60.5828C34.579 59.2409 34.9327 55.4421 33.2644 51.0196ZM33.3822 61.9656C33.2488 62.0105 33.0873 62.0624 32.8995 62.1187L32.8806 62.5125C32.9183 62.453 32.9715 62.3911 33.045 62.3281C33.1666 62.2158 33.2793 62.0945 33.3822 61.9656ZM31.0135 79.4998L30.739 80.8417L30.7719 80.8463L31.0366 79.4937L31.0135 79.4998ZM30.4771 82.3531L30.1065 84.2465C30.0848 84.2486 30.0631 84.2505 30.0414 84.2522L30.4299 82.3527L30.4771 82.3531ZM30.534 82.0619L30.5198 82.1349L30.4746 82.1342L30.4914 82.0523L30.534 82.0619ZM30.6126 81.6606L30.6013 81.7182L30.558 81.7263L30.5722 81.6572L30.6126 81.6606ZM30.6492 81.4446L30.6173 81.4365L30.6163 81.4417L30.6492 81.4446Z" fill="url(#paint0_radial_101_4084)" fill-opacity="0.5"/>
<path fill-rule="evenodd" clip-rule="evenodd" d="M43.0188 23.7862C43.2016 15.8663 41.3123 12.0512 41.3123 12.0512C36.8633 5.28927 27.7855 4.26234 27.7855 4.26843C17.0041 2.71113 15.0526 8.42959 14.9886 8.62691C14.8909 8.64636 14.7946 8.66833 14.6999 8.69272C8.61369 9.66634 7 18.1548 7 18.1548L7.08228 18.4596C7.31318 19.5594 7.87203 20.4762 8.62928 21.2082C8.61136 23.1396 8.87176 24.8274 9.65112 27.8269C9.65112 27.8269 9.70163 27.7103 10.0028 27.625C9.29155 27.9181 8.79778 28.787 8.85886 29.7771C8.932 30.9656 9.77304 31.8798 10.7116 31.8219C11.0208 31.8028 11.3066 31.6802 11.5481 31.4819C13.364 36.0757 17.9873 39.5045 23.6016 40.1565V41.2532V41.6224L23.1598 41.7096L23.1596 41.7042L20.1885 42.2923C20.1885 42.2923 20.1518 42.2998 20.0893 42.3209C20.0007 42.3294 19.8131 42.3537 19.5635 42.4217C18.6894 42.6523 17.0296 43.4355 16.221 45.9886L15.4012 48.1217C15.4012 48.1217 15.7835 48.8345 16.5961 49.449C15.2116 52.1231 13.8612 56.2878 15.3351 60.8963C15.2652 60.9662 15.2276 61.0147 15.2276 61.0147C14.6821 61.5571 14.8345 62.706 14.8345 62.706C14.9379 63.4907 15.2307 64.2385 15.6877 64.8848C15.9437 65.1346 16.1418 64.967 16.1266 64.9701C16.3734 64.836 16.0991 64.3606 16.0991 64.3606L15.5567 62.9071C15.5567 62.9071 15.7274 63.2484 16.0626 64.1626C16.0626 64.1626 16.41 65.1803 16.931 65.0524C16.931 65.0524 17.3516 64.8695 16.9767 64.4185C16.9767 64.4185 16.41 63.3124 16.3673 62.8096C16.5129 63.3288 16.7282 63.826 17.0072 64.2875C17.5222 65.0615 17.7477 64.8177 17.7477 64.8177C17.8297 64.7681 17.8901 64.6896 17.9172 64.5977C17.9442 64.5058 17.936 64.4071 17.894 64.321C17.5787 63.7688 17.3087 63.192 17.0864 62.5963C17.0864 62.5963 17.0864 62.2946 17.4247 62.514C17.4967 62.5849 17.5679 62.6562 17.6389 62.7273L17.6389 62.7274L17.639 62.7274L17.6391 62.7275L17.6391 62.7276C17.7572 62.8459 17.8747 62.9636 17.9945 63.0777C18.0307 63.1157 18.0742 63.146 18.1224 63.1666C18.1706 63.1873 18.2224 63.1979 18.2749 63.1979C18.3273 63.1979 18.3792 63.1873 18.4274 63.1666C18.4756 63.146 18.5191 63.1157 18.5552 63.0777C18.5552 63.0777 18.8752 62.7273 18.412 62.3281C18.263 62.1898 18.1274 62.0382 18.007 61.8752C18.1648 61.9323 18.4112 62.0169 18.7372 62.1147L19.4542 78.9967L19.4957 79.0119C19.5835 79.0736 19.8097 79.2188 20.1613 79.3519V80.6225C20.1543 80.628 20.1475 80.6337 20.1407 80.6394C20.0463 80.7201 19.9728 80.8225 19.9266 80.9378L18.8021 83.3756C18.8021 83.3756 18.5074 84.3101 19.2923 84.9451C19.7413 85.3137 20.5517 85.5822 21.9926 85.5087C21.9926 85.5087 23.9916 85.5087 23.9764 83.3207L23.9692 83.3465C23.9692 83.3082 23.9685 83.2691 23.9673 83.2294L23.7692 80.9378C23.7663 80.914 23.7639 80.8921 23.7617 80.8718C23.7498 80.7621 23.7431 80.6997 23.6916 80.6507L23.7414 79.2178C23.9199 79.1512 24.1005 79.0772 24.2811 78.9936L24.2819 78.9825L24.2841 78.9814L25.1458 66.6857H26.5025L27.4899 78.9936C27.6415 79.0758 27.7999 79.1444 27.9634 79.1988L28.0165 80.76C28.0103 80.7922 28.0066 80.8298 28.0021 80.875L28.0021 80.8751L27.9993 80.9029L27.9956 80.9378L27.7976 83.2294C27.7244 85.5209 29.7844 85.5087 29.7844 85.5087L30.0058 84.426C30.0271 84.429 30.0486 84.4313 30.07 84.433L29.8588 85.5122C30.4718 85.5386 30.968 85.5017 31.3692 85.4211C32.7843 85.138 33.0162 84.3144 33.0169 83.8065L33.0169 83.8035C33.018 83.552 32.9627 83.3756 32.9627 83.3756L31.8382 80.9378C31.792 80.8225 31.7185 80.7201 31.6241 80.6394C31.5991 80.6181 31.5729 80.5985 31.5456 80.5807V79.3126C31.8248 79.1859 31.997 79.0568 32.0604 79.005L32.0913 78.9936L32.8577 62.9904C32.8807 63.0325 32.9018 63.0564 32.9018 63.0564C32.9382 63.0945 32.9819 63.1248 33.0304 63.1455C33.0788 63.1662 33.131 63.1768 33.1836 63.1768C33.2363 63.1768 33.2885 63.1662 33.3369 63.1455C33.3853 63.1248 33.4291 63.0945 33.4655 63.0564C33.6184 62.9108 33.7693 62.7594 33.9198 62.6084L33.92 62.6083L33.9201 62.6081L33.9203 62.608L33.9204 62.6078L33.9206 62.6077L33.9207 62.6075L33.9209 62.6074L33.921 62.6072L33.9212 62.6071L33.9213 62.6069L33.9215 62.6068L33.9216 62.6066L33.9218 62.6065L33.9219 62.6063L34.0354 62.4926C34.3766 62.2732 34.3766 62.5749 34.3766 62.5749C34.1526 63.1704 33.8816 63.7472 33.5661 64.2997C33.5241 64.3858 33.5158 64.4845 33.5429 64.5764C33.5699 64.6683 33.6304 64.7468 33.7123 64.7964C33.7123 64.7964 33.9378 65.0402 34.4528 64.2662C34.7319 63.8047 34.9472 63.3075 35.0928 62.7882C35.0501 63.291 34.4833 64.3972 34.4833 64.3972C34.1115 64.8451 34.5321 65.031 34.5321 65.031C35.0531 65.159 35.4005 64.1412 35.4005 64.1412C35.7357 63.227 35.9064 62.8857 35.9064 62.8857L35.3396 64.3515C35.3396 64.3515 35.0653 64.8269 35.3122 64.9609C35.3159 64.9618 35.3225 64.9657 35.3316 64.9711C35.3889 65.0052 35.5485 65.1003 35.7693 64.8848C36.2268 64.2376 36.5196 63.4887 36.6225 62.7029C36.6225 62.7029 36.7779 61.5571 36.2294 61.0147C36.2294 61.0147 36.1926 60.9671 36.1241 60.8985C37.593 56.3018 36.2546 52.1481 34.8741 49.4732C35.7103 48.8534 36.1075 48.1217 36.1075 48.1217L36.104 48.1127L36.1075 48.1065L35.2878 45.9734C34.3517 43.0182 32.2649 42.4491 31.5918 42.3414C31.4955 42.3045 31.436 42.2923 31.436 42.2923L30.1722 42.0442L28.0536 41.6255V40.5889V40.0831C33.4185 39.2772 37.8004 35.9236 39.556 31.4803C39.7983 31.6795 40.0851 31.8027 40.3951 31.8219C41.3337 31.8798 42.1747 30.9656 42.2479 29.7771C42.2964 28.9908 41.9949 28.2809 41.5124 27.8751L41.5284 27.8879L41.5469 27.9031C41.5469 27.9031 41.8366 26.21 41.9051 23.834C42.2707 23.8237 42.6419 23.8079 43.0188 23.7862ZM40.3771 27.5191L40.3766 27.5342C40.4458 27.524 40.516 27.519 40.5868 27.5196C40.5173 27.5151 40.4473 27.5149 40.3771 27.5191ZM17.0865 60.5816C16.8699 59.1828 16.4944 55.1055 18.4248 50.4347C18.2683 53.655 18.1168 56.3005 17.9306 59.5551L17.9301 59.563C17.8931 60.2094 17.8547 60.8798 17.8147 61.5836C17.7937 61.5478 17.7734 61.5115 17.7538 61.4749L17.7203 61.417C17.6017 61.109 17.4079 60.8355 17.1565 60.6216C17.1331 60.6075 17.1097 60.5942 17.0865 60.5816ZM33.2644 51.0196C33.488 55.356 33.6843 59.0038 33.8141 61.2417C33.9331 61.0045 34.0994 60.7933 34.3035 60.6216C34.3165 60.6138 34.3295 60.6062 34.3424 60.5988L34.3592 60.5893L34.371 60.5828C34.579 59.2409 34.9327 55.4421 33.2644 51.0196ZM33.3822 61.9656C33.2488 62.0105 33.0873 62.0624 32.8995 62.1187L32.8806 62.5125C32.9183 62.453 32.9715 62.3911 33.045 62.3281C33.1666 62.2158 33.2793 62.0945 33.3822 61.9656ZM31.0135 79.4998L30.739 80.8417L30.7719 80.8463L31.0366 79.4937L31.0135 79.4998ZM30.4771 82.3531L30.1065 84.2465C30.0848 84.2486 30.0631 84.2505 30.0414 84.2522L30.4299 82.3527L30.4771 82.3531ZM30.534 82.0619L30.5198 82.1349L30.4746 82.1342L30.4914 82.0523L30.534 82.0619ZM30.6126 81.6606L30.6013 81.7182L30.558 81.7263L30.5722 81.6572L30.6126 81.6606ZM30.6492 81.4446L30.6173 81.4365L30.6163 81.4417L30.6492 81.4446Z" fill="url(#paint1_linear_101_4084)" fill-opacity="0.2"/>
</g>
</g>
</g>
<circle id="Ellipse 6" cx="25.5" cy="25.5" r="25" stroke="#947EC8" stroke-dasharray="2 2"/>
</g>
<defs>
<filter id="filter0_i_101_4084" x="7" y="4" width="36.0312" height="81.5209" filterUnits="userSpaceOnUse" color-interpolation-filters="sRGB">
<feFlood flood-opacity="0" result="BackgroundImageFix"/>
<feBlend mode="normal" in="SourceGraphic" in2="BackgroundImageFix" result="shape"/>
<feColorMatrix in="SourceAlpha" type="matrix" values="0 0 0 0 0 0 0 0 0 0 0 0 0 0 0 0 0 0 127 0" result="hardAlpha"/>
<feOffset/>
<feGaussianBlur stdDeviation="5"/>
<feComposite in2="hardAlpha" operator="arithmetic" k2="-1" k3="1"/>
<feColorMatrix type="matrix" values="0 0 0 0 0.486275 0 0 0 0 0.176471 0 0 0 0 0.141176 0 0 0 0.2 0"/>
<feBlend mode="normal" in2="shape" result="effect1_innerShadow_101_4084"/>
</filter>
<radialGradient id="paint0_radial_101_4084" cx="0" cy="0" r="1" gradientUnits="userSpaceOnUse" gradientTransform="translate(35 45) rotate(115.378) scale(43.1654 19.0786)">
<stop stop-color="#FEFEFE"/>
<stop offset="1" stop-color="#F2EEFD" stop-opacity="0"/>
<stop offset="1" stop-color="#1B1B1B"/>
</radialGradient>
<linearGradient id="paint1_linear_101_4084" x1="32.5" y1="9" x2="16.5" y2="84" gradientUnits="userSpaceOnUse">
<stop stop-color="#FEFEFE"/>
<stop offset="1" stop-color="#F2EEFD" stop-opacity="0"/>
<stop offset="1" stop-color="#1B1B1B"/>
</linearGradient>
</defs>
</svg>
