<svg width="36" height="53" viewBox="0 0 36 53" fill="none" xmlns="http://www.w3.org/2000/svg">
<g id="Group">
<path id="Vector" d="M4.84618 11.9198C4.34159 11.0032 3.85223 10.146 3.39334 9.27341C2.14806 6.91596 1.17125 4.48388 1.36547 1.73607C1.38451 1.47392 1.40545 1.20603 1.46829 0.951531C1.63585 0.2818 2.2623 0.109584 2.75737 0.593703C2.93064 0.764006 3.07345 0.963012 3.2353 1.1448C3.37811 1.30744 3.52853 1.46435 3.72847 1.68441C3.80844 1.34571 3.86747 1.07974 3.93601 0.817585C4.13975 0.0330433 4.45203 -0.143 5.21938 0.103843C8.31356 1.09887 11.4077 2.0939 14.5019 3.09467C17.3257 4.00741 20.1476 4.92782 22.9714 5.84248C26.3283 6.92744 28.002 9.39396 28.5771 12.7522C28.7427 13.7185 28.7542 14.6944 28.6171 15.6684C28.5904 15.8559 28.5961 16.0205 28.7085 16.1889C30.1956 18.4066 29.114 21.1334 26.3569 21.9945C25.8923 22.1399 25.6752 22.3676 25.54 22.823C25.144 24.1625 24.7194 25.4962 24.2643 26.8184C24.0986 27.2968 24.1177 27.5188 24.647 27.7522C27.1033 28.8391 28.876 30.6301 29.8719 33.1541C30.3879 34.461 30.5021 35.8024 29.9937 37.138C29.8795 37.4365 30.0071 37.5934 30.1365 37.7943C31.8921 40.546 33.6477 43.2995 35.4014 46.0512C35.529 46.2521 35.6432 46.4645 35.7841 46.6558C35.9917 46.939 36.0831 47.228 35.906 47.5571C35.7289 47.8862 35.4319 47.9685 35.0891 47.9647C33.6325 47.9494 32.1758 47.9322 30.7173 47.9207C28.3086 47.9015 25.8999 47.8939 23.4912 47.8594C23.0837 47.8537 22.9276 47.9283 22.9619 48.3857C23.0304 49.3175 23.0342 50.2552 23.0533 51.1909C23.0685 51.9142 22.8381 52.1553 22.1355 52.161C21.4881 52.1668 20.8407 52.1534 20.1933 52.1629C19.8467 52.1687 19.5402 52.1017 19.3764 51.763C19.2165 51.4339 19.2755 51.0971 19.5288 50.8637C20.3037 50.1537 20.2714 49.2697 20.1609 48.3416C20.119 47.98 20.0162 47.8422 19.6163 47.8422C17.0249 47.8441 14.4353 47.8173 11.8438 47.7906C10.9869 47.781 10.8498 47.647 10.7127 46.784C10.5014 45.4427 10.5014 45.4427 9.15136 45.4235C9.0295 45.4216 8.90574 45.4369 8.78768 45.4178C8.39353 45.3527 8.27738 45.502 8.27928 45.9077C8.28881 47.4729 8.26215 49.0401 8.24691 50.6053C8.23549 51.7707 8.10601 51.8989 6.95402 51.9008C6.16382 51.9008 5.37552 51.897 4.58531 51.9046C4.23496 51.9084 3.95125 51.8128 3.78368 51.476C3.62374 51.1564 3.6961 50.8522 3.92459 50.634C4.84046 49.7519 4.93758 48.6574 4.90521 47.4614C4.8576 45.6933 4.91472 43.9233 4.95471 42.1533C4.96233 41.7879 4.8595 41.5755 4.55485 41.3592C2.81259 40.1212 1.33119 38.6382 0.506715 36.6137C-0.272065 34.7021 -0.193996 32.8575 1.02654 31.12C1.58825 30.3202 2.18233 29.5509 2.88304 28.8716C3.06393 28.6956 3.15914 28.5693 3.02014 28.3091C2.69263 27.6948 2.82401 27.094 3.12106 26.5027C3.99695 24.7614 4.49011 22.9129 4.69956 20.9746C4.75097 20.4923 4.59864 20.4254 4.19878 20.4311C3.55138 20.4407 2.90399 20.412 2.25659 20.3967C1.49304 20.3775 1.21695 20.1154 1.24741 19.3653C1.3331 17.2528 1.4264 15.1402 1.53684 13.0277C1.58635 12.0901 1.85673 11.8873 2.80497 11.9141C3.45618 11.9351 4.10357 11.9198 4.84618 11.9198ZM4.97947 33.9673C4.97947 33.2593 4.96994 32.6719 4.98327 32.0844C4.99279 31.6807 5.23081 31.4377 5.61734 31.3917C5.9715 31.3496 6.23618 31.518 6.3866 31.8586C6.47229 32.0538 6.45515 32.2566 6.45705 32.4576C6.49133 35.0178 6.52941 37.5781 6.55416 40.1403C6.55797 40.4752 6.60557 40.6417 7.01305 40.6474C11.1583 40.7048 15.3054 40.7794 19.4507 40.8694C19.9115 40.8789 20.0219 40.7526 20.0067 40.2915C19.9134 37.5092 19.8563 34.7251 19.7877 31.9409C19.7725 31.3707 19.8429 31.3152 20.3475 31.5984C21.2634 32.1131 22.1698 32.6432 23.0704 33.1847C23.3332 33.3435 23.5521 33.4009 23.8492 33.2498C24.4375 32.9493 25.0507 32.6967 25.6809 32.4116C25.6257 32.3255 25.5914 32.2528 25.54 32.1973C24.3309 30.9114 22.84 30.0925 21.191 29.5241C21.0044 29.4591 20.8388 29.4935 20.6598 29.5414C19.3288 29.8896 17.9693 30.0925 16.6079 30.2742C16.4555 30.2953 16.2994 30.2647 16.1775 30.4311C15.4806 31.3783 14.4657 31.7763 13.3671 31.939C11.9485 32.1495 10.5414 32.0844 9.48268 30.9459C9.13613 30.5747 8.7991 30.4445 8.34593 30.4101C7.09493 30.3144 5.85916 30.1212 4.68433 29.6523C4.46726 29.5643 4.32826 29.5662 4.14737 29.7289C3.33241 30.4713 2.66788 31.3362 2.06808 32.2566C1.92718 32.4729 1.9843 32.5647 2.19566 32.6623C3.09249 33.0775 3.98171 33.5004 4.97947 33.9673ZM6.00578 22.8498C5.64781 24.3098 5.20034 25.7201 4.50534 27.0327C4.21401 27.5819 4.38729 27.8479 4.85379 28.0947C5.65542 28.5157 6.52369 28.6994 7.4053 28.8104C11.3716 29.3098 15.3131 29.0859 19.2355 28.3473C19.5897 28.2804 19.8125 28.1407 19.9857 27.8269C21.0863 25.8368 21.7604 23.7377 21.6099 21.4338C21.5928 21.1659 21.7318 21.0626 21.9279 20.875C21.7356 20.8636 21.6195 20.8521 21.5014 20.8483C19.2355 20.787 16.9715 20.7296 14.7076 20.6684C13.8888 20.6454 13.6241 20.3565 13.6641 19.5413C13.7041 18.73 13.7307 17.9168 13.7898 17.1054C13.8145 16.7629 13.7155 16.6538 13.3671 16.6328C11.6743 16.5256 11.6895 16.5161 11.5981 18.221C11.5467 19.1739 11.859 20.2608 10.6747 20.8693C11.183 20.9439 11.621 20.986 12.0608 20.9899C12.4264 20.9918 12.7482 21.0779 12.7273 21.4989C12.7063 21.9256 12.3503 21.9677 12.0037 21.9524C11.2764 21.9179 10.549 21.8892 9.82161 21.849C9.48839 21.8299 9.08853 21.9045 8.94191 21.4835C8.80291 21.0836 9.17612 20.9286 9.38747 20.7009C9.40652 20.6799 9.38938 20.6282 9.38938 20.5057C8.44684 20.5057 7.50431 20.5057 6.55987 20.5057C6.39993 20.5057 6.21523 20.479 6.22285 20.7296C6.23427 21.1047 6.04957 21.4682 6.15049 21.8663C6.39802 21.7361 6.62271 21.694 6.87215 21.7801C8.5649 22.3599 10.3148 22.4307 12.0818 22.3695C13.8031 22.3102 15.5054 22.0844 17.2115 21.8758C18.074 21.7706 18.3711 22.0959 18.2225 22.955C18.0759 23.8046 17.6703 24.5222 17.0667 25.1192C15.4882 26.6807 13.546 27.4001 11.3697 27.4365C8.86575 27.4786 6.95593 26.0951 6.25331 23.8333C6.15239 23.5138 6.08766 23.1789 6.00578 22.8498ZM6.41135 18.7721C6.41135 18.818 6.41135 18.8659 6.41135 18.9118C7.42053 18.9118 8.42971 18.8946 9.43889 18.9214C9.79305 18.9309 9.94919 18.8582 9.96061 18.4717C10.0025 17.0308 10.0634 15.5918 10.1358 14.1529C10.1529 13.8314 10.0577 13.7319 9.73974 13.7262C7.67949 13.6917 5.62115 13.6439 3.5609 13.5865C3.27529 13.5788 3.17818 13.6554 3.16485 13.95C3.10582 15.4101 3.03537 16.8681 2.94778 18.3262C2.92684 18.6745 3.03537 18.7855 3.38001 18.7778C4.39109 18.7587 5.40218 18.7721 6.41135 18.7721ZM18.8756 19.0476C18.8756 19.0917 18.8756 19.1338 18.8756 19.1778C19.8848 19.1778 20.8959 19.1567 21.9051 19.1873C22.2916 19.1988 22.3735 19.0687 22.3849 18.707C22.4287 17.2872 22.4973 15.8674 22.5791 14.4495C22.5982 14.1318 22.5144 14.0323 22.1888 14.0266C20.1285 13.9941 18.0683 13.9443 16.0081 13.8888C15.7148 13.8812 15.5834 13.9386 15.572 14.2773C15.5225 15.7181 15.454 17.1571 15.3664 18.5961C15.3454 18.9462 15.4406 19.0591 15.7853 19.0534C16.8154 19.0381 17.8455 19.0476 18.8756 19.0476ZM29.2092 46.386C28.4286 44.5165 27.6593 42.693 26.9072 40.8617C26.7834 40.5632 26.6501 40.6493 26.4483 40.7546C25.3858 41.3037 24.2643 41.7056 23.1047 41.9907C22.8286 42.0577 22.7429 42.161 22.7543 42.4365C22.8057 43.6344 22.8438 44.8323 22.8743 46.0301C22.88 46.2751 22.9352 46.3937 23.2132 46.3937C25.1897 46.3803 27.1661 46.386 29.2092 46.386ZM5.9715 50.3604C6.60938 50.5518 6.79217 50.3566 6.78646 49.7749C6.76933 48.1101 6.81693 46.4434 6.82264 44.7768C6.82645 43.8047 7.11968 43.5253 8.09459 43.5483C11.9352 43.6401 15.7739 43.7224 19.6144 43.8047C19.7496 43.8066 19.98 43.8181 20.0086 43.755C20.1685 43.3933 20.0828 42.9991 20.0543 42.6241C20.0295 42.2873 19.7096 42.4136 19.5154 42.4117C15.3321 42.3619 11.1469 42.3275 6.96355 42.2701C6.53322 42.2643 6.42849 42.3964 6.42659 42.8116C6.42087 44.9031 6.37518 46.9964 6.36185 49.0879C6.35804 49.5433 6.35042 49.9796 5.9715 50.3604ZM16.7945 23.1961C13.6755 23.5655 10.5718 23.9673 7.39578 23.2631C7.8242 24.7231 8.64678 25.6971 10.0254 25.9937C12.4817 26.5237 14.6162 25.8311 16.3717 24.017C16.5755 23.8046 16.7811 23.5712 16.7945 23.1961ZM15.1226 11.7629C15.1226 11.7112 15.1226 11.6596 15.1226 11.6079C12.3522 11.6079 9.5836 11.606 6.81312 11.6136C6.65127 11.6136 6.35042 11.4606 6.36566 11.8184C6.37898 12.1092 6.64175 11.9868 6.79598 11.9925C8.17075 12.0365 9.54361 12.0614 10.9184 12.1016C11.562 12.1207 11.8381 12.4077 11.84 13.0411C11.8419 13.3664 11.7943 13.6936 11.8171 14.0151C11.8552 14.5509 11.4801 15.2646 11.8685 15.5689C12.2227 15.8463 12.9196 15.6645 13.4604 15.72C13.7917 15.7526 13.8736 15.6282 13.8812 15.3163C13.8983 14.5643 13.9516 13.8142 13.9878 13.0641C14.0145 12.4939 14.3267 12.1992 14.877 12.2087C17.7275 12.2566 20.5779 12.3216 23.4284 12.3771C23.6093 12.381 23.8987 12.6297 23.9177 12.2049C23.9349 11.8107 23.6054 11.9619 23.4303 11.9562C20.6617 11.8815 17.8931 11.8241 15.1226 11.7629ZM22.7619 40.4714C23.5483 40.368 24.2452 40.104 24.8736 39.6313C26.732 38.2306 27.4708 36.3573 26.8824 34.4572C26.6216 33.6152 26.6216 33.6152 25.8066 33.996C25.5876 34.0974 25.3725 34.218 25.144 34.2888C24.8203 34.3883 24.7593 34.5758 24.8355 34.8839C24.9916 35.523 24.9707 36.1679 24.8679 36.8146C24.6318 38.2976 23.9158 39.4993 22.7619 40.4714ZM4.84998 39.7595C4.97756 38.9405 4.95471 38.2689 4.62911 37.6221C4.2997 36.9658 4.13023 36.2559 4.07692 35.5211C4.06549 35.3565 4.07311 35.1977 3.88841 35.1116C3.11154 34.75 2.33656 34.3826 1.474 33.975C1.56921 36.5793 3.06012 38.1962 4.84998 39.7595ZM16.0404 46.3018C16.0404 46.3248 16.0404 46.3478 16.0404 46.3726C17.2343 46.3726 18.4263 46.3688 19.6202 46.3765C19.8525 46.3784 20.0143 46.365 19.9838 46.0569C19.9591 45.8177 19.9572 45.6551 19.624 45.6512C17.1981 45.6168 14.7723 45.5594 12.3465 45.502C12.1275 45.4963 12.017 45.5039 12.0418 45.7852C12.0742 46.1468 12.1675 46.3248 12.5845 46.3133C13.7346 46.2808 14.8884 46.3018 16.0404 46.3018ZM22.6991 34.7557V38.3569C23.2513 37.4786 23.4626 36.6826 23.4741 35.8158C23.4798 35.2417 23.3065 34.8437 22.6991 34.7557ZM11.0155 30.5306C12.0551 31.0301 13.0776 30.9555 14.2125 30.5306H11.0155Z" fill="#34225F"/>
<path id="Vector_2" d="M4.97945 33.9673C3.98361 33.5004 3.09248 33.0775 2.19755 32.6661C1.98429 32.5685 1.92907 32.4767 2.06998 32.2604C2.66787 31.3381 3.3324 30.4751 4.14926 29.7327C4.32825 29.57 4.46725 29.5681 4.68432 29.6542C5.85915 30.1231 7.09301 30.3163 8.34592 30.412C8.79909 30.4464 9.13612 30.5785 9.48267 30.9497C10.5433 32.0882 11.9504 32.1533 13.367 31.9428C14.4657 31.7802 15.4806 31.3821 16.1775 30.435C16.2994 30.2685 16.4555 30.2991 16.6078 30.278C17.9693 30.0963 19.3269 29.8915 20.6598 29.5433C20.8369 29.4973 21.0025 29.4629 21.191 29.528C22.8381 30.0944 24.3309 30.9152 25.54 32.2011C25.5914 32.2566 25.6257 32.3293 25.6809 32.4154C25.0507 32.7006 24.4394 32.9531 23.8492 33.2536C23.5521 33.4047 23.3331 33.3473 23.0704 33.1885C22.1716 32.647 21.2634 32.1169 20.3475 31.6022C19.8448 31.319 19.7744 31.3745 19.7877 31.9447C19.8562 34.7289 19.9153 37.5131 20.0067 40.2953C20.0219 40.7565 19.9115 40.8828 19.4507 40.8732C15.3054 40.7832 11.1602 40.7086 7.01304 40.6512C6.60556 40.6455 6.55796 40.479 6.55415 40.1441C6.5294 37.5838 6.49131 35.0217 6.45704 32.4614C6.45514 32.2605 6.47227 32.0576 6.38659 31.8624C6.23617 31.5218 5.9734 31.3534 5.61733 31.3955C5.23079 31.4415 4.99278 31.6845 4.98326 32.0882C4.96803 32.6719 4.97945 33.2593 4.97945 33.9673Z" fill="#0096C3"/>
<path id="Vector_3" d="M6.00585 22.8498C6.08772 23.1789 6.15246 23.5138 6.25338 23.8372C6.95599 26.0989 8.86391 27.4805 11.3697 27.4403C13.5461 27.404 15.4883 26.6845 17.0668 25.1231C17.6704 24.526 18.0741 23.8085 18.2226 22.9589C18.3711 22.0997 18.0741 21.7744 17.2115 21.8796C15.5054 22.0882 13.8032 22.3121 12.0819 22.3714C10.3148 22.4327 8.56496 22.3619 6.87221 21.7821C6.62277 21.6959 6.39809 21.738 6.15056 21.8682C6.04964 21.4702 6.23434 21.1047 6.22291 20.7315C6.2153 20.4809 6.39999 20.5077 6.55994 20.5057C7.50438 20.5038 8.44691 20.5057 9.38944 20.5057C9.38944 20.6282 9.40658 20.6818 9.38754 20.7009C9.17618 20.9286 8.80298 21.0836 8.94198 21.4835C9.0886 21.9026 9.48655 21.8299 9.82168 21.849C10.549 21.8892 11.2764 21.9198 12.0038 21.9524C12.3503 21.9677 12.7064 21.9256 12.7273 21.4989C12.7483 21.0779 12.4265 20.9937 12.0609 20.9918C11.6211 20.9879 11.1831 20.9478 10.6747 20.8712C11.8572 20.2627 11.5468 19.1758 11.5982 18.2229C11.6877 16.518 11.6744 16.5275 13.3671 16.6347C13.7156 16.6557 13.8165 16.7648 13.7898 17.1073C13.7289 17.9168 13.7042 18.73 13.6642 19.5432C13.6242 20.3584 13.8889 20.6473 14.7076 20.6703C16.9716 20.7315 19.2375 20.7909 21.5015 20.8502C21.6176 20.854 21.7357 20.8636 21.928 20.877C21.7319 21.0645 21.5929 21.1678 21.61 21.4357C21.7604 23.7396 21.0864 25.8387 19.9858 27.8288C19.8125 28.1426 19.5878 28.2823 19.2356 28.3492C15.3131 29.0879 11.3735 29.3117 7.40727 28.8123C6.52567 28.7013 5.65549 28.5176 4.85576 28.0967C4.38926 27.8517 4.21598 27.5857 4.50731 27.0347C5.1985 25.7201 5.64787 24.3117 6.00585 22.8498Z" fill="#F4D8C9"/>
<path id="Vector_4" d="M6.41145 18.7702C5.40228 18.7702 4.39119 18.7587 3.38202 18.7778C3.03547 18.7836 2.92884 18.6745 2.94979 18.3262C3.03737 16.8681 3.10783 15.4081 3.16685 13.95C3.17828 13.6553 3.27539 13.5788 3.561 13.5864C5.61935 13.6439 7.67959 13.6917 9.73984 13.7261C10.0578 13.7319 10.1511 13.8314 10.1359 14.1528C10.0616 15.5918 10.0026 17.0308 9.96071 18.4717C9.94929 18.8582 9.79315 18.9309 9.44089 18.9213C8.43171 18.8945 7.42254 18.9118 6.41336 18.9118C6.41145 18.8639 6.41145 18.818 6.41145 18.7702Z" fill="#70C3EE"/>
<path id="Vector_5" d="M18.8757 19.0477C17.8456 19.0477 16.8155 19.0381 15.7853 19.0534C15.4407 19.0591 15.3436 18.9462 15.3645 18.5961C15.454 17.1571 15.5226 15.7181 15.5721 14.2773C15.5835 13.9386 15.713 13.8812 16.0081 13.8888C18.0684 13.9443 20.1286 13.9941 22.1888 14.0266C22.5144 14.0323 22.5963 14.1318 22.5792 14.4495C22.4992 15.8674 22.4288 17.2872 22.385 18.7071C22.3735 19.0687 22.2936 19.1988 21.9051 19.1873C20.896 19.1567 19.8849 19.1778 18.8757 19.1778C18.8757 19.1338 18.8757 19.0898 18.8757 19.0477Z" fill="#70C3EE"/>
<path id="Vector_6" d="M29.2093 46.386C27.1662 46.386 25.1898 46.3822 23.2133 46.3917C22.9353 46.3937 22.8801 46.275 22.8744 46.0282C22.8439 44.8303 22.8058 43.6325 22.7544 42.4346C22.743 42.1591 22.8287 42.0557 23.1048 41.9887C24.2644 41.7055 25.384 41.3037 26.4484 40.7526C26.6502 40.6474 26.7854 40.5613 26.9073 40.8617C27.6613 42.691 28.4286 44.5165 29.2093 46.386Z" fill="#53B9D0"/>
<path id="Vector_7" d="M5.97144 50.3604C6.35226 49.9815 6.35797 49.5433 6.36178 49.0898C6.37511 46.9984 6.4208 44.905 6.42652 42.8135C6.42842 42.3963 6.53315 42.2662 6.96348 42.272C11.1468 42.3294 15.332 42.3638 19.5154 42.4136C19.7096 42.4155 20.0295 42.2892 20.0542 42.626C20.0809 43.001 20.1685 43.3952 20.0085 43.7569C19.98 43.82 19.7515 43.8085 19.6144 43.8066C15.7738 43.7243 11.9351 43.642 8.09452 43.5502C7.11961 43.5272 6.82638 43.8047 6.82257 44.7787C6.81496 46.4453 6.76926 48.1101 6.78639 49.7768C6.79211 50.3547 6.60741 50.5517 5.97144 50.3604Z" fill="#EE728E"/>
<path id="Vector_8" d="M16.7944 23.1962C16.7811 23.5712 16.5754 23.8047 16.3698 24.0171C14.6142 25.833 12.4816 26.5238 10.0234 25.9937C8.6448 25.6971 7.82413 24.7232 7.3938 23.2631C10.5737 23.9673 13.6755 23.5655 16.7944 23.1962Z" fill="#F8F6F6"/>
<path id="Vector_9" d="M15.1225 11.7629C17.8911 11.8241 20.6616 11.8816 23.4302 11.9543C23.6034 11.9581 23.9328 11.8088 23.9176 12.203C23.9005 12.6278 23.6091 12.3791 23.4283 12.3752C20.5778 12.3197 17.7274 12.2566 14.8769 12.2069C14.3285 12.1973 14.0143 12.492 13.9877 13.0622C13.9515 13.8123 13.8982 14.5643 13.8811 15.3144C13.8734 15.6263 13.7916 15.7507 13.4602 15.7182C12.9176 15.6646 12.2207 15.8444 11.8684 15.567C11.4819 15.2627 11.8551 14.5509 11.817 14.0132C11.7942 13.6898 11.8399 13.3645 11.8399 13.0392C11.838 12.4059 11.5599 12.1188 10.9183 12.1016C9.5435 12.0614 8.17064 12.0346 6.79587 11.9925C6.64164 11.9868 6.37887 12.1093 6.36554 11.8184C6.35031 11.4606 6.65306 11.6137 6.81301 11.6137C9.58348 11.6041 12.3521 11.6079 15.1225 11.6079C15.1225 11.6577 15.1225 11.7093 15.1225 11.7629Z" fill="#F4D8C9"/>
<path id="Vector_10" d="M22.762 40.4714C23.9159 39.4993 24.6318 38.2976 24.8679 36.8127C24.9707 36.166 24.9936 35.5192 24.8374 34.882C24.7613 34.5739 24.8222 34.3845 25.1459 34.2869C25.3744 34.2161 25.5896 34.0974 25.8085 33.9941C26.6254 33.6133 26.6235 33.6133 26.8844 34.4553C27.4708 36.3554 26.7339 38.2306 24.8755 39.6294C24.2472 40.104 23.5484 40.3699 22.762 40.4714Z" fill="#F8F6F6"/>
<path id="Vector_11" d="M4.85005 39.7595C3.06019 38.1962 1.56928 36.5792 1.47217 33.9769C2.33663 34.3844 3.1097 34.7518 3.88658 35.1135C4.07128 35.1996 4.06366 35.3584 4.07508 35.523C4.1284 36.2578 4.29786 36.9677 4.62727 37.624C4.95478 38.2689 4.97953 38.9405 4.85005 39.7595Z" fill="#F8F6F6"/>
<path id="Vector_12" d="M22.699 34.7557C23.3083 34.8437 23.4797 35.2417 23.4739 35.8158C23.4625 36.6826 23.2531 37.4786 22.699 38.3569V34.7557Z" fill="#53B9D0"/>
<path id="Vector_13" d="M11.0154 30.5306H14.2124C13.0775 30.9554 12.055 31.032 11.0154 30.5306Z" fill="#F8F6F6"/>
<path id="Vector_14" d="M19.9857 39.7595H6.54077V43.1885H19.9857V39.7595Z" fill="#EE728E"/>
<path id="Vector_15" d="M20.5951 39.2429H6.54468V40.4732H20.5951V39.2429Z" fill="#34225F"/>
<path id="Vector_16" d="M4.28626 14.8226C5.07646 15.6129 5.86667 16.4032 6.65497 17.1934C6.82824 17.3676 7.09863 17.0959 6.92345 16.9217C6.13324 16.1314 5.34304 15.3412 4.55474 14.5528C4.38146 14.3787 4.11108 14.6485 4.28626 14.8226Z" fill="#ACDCF2"/>
<path id="Vector_17" d="M5.64408 15.5784C6.2077 16.0874 6.76941 16.5964 7.33303 17.1054C7.51392 17.27 7.7843 17.0002 7.60151 16.8356C7.03789 16.3266 6.47618 15.8176 5.91256 15.3086C5.73167 15.144 5.46129 15.4139 5.64408 15.5784Z" fill="#ACDCF2"/>
<path id="Vector_18" d="M16.5204 15.255C17.7085 16.4089 18.8948 17.5627 20.083 18.7166C20.26 18.8869 20.5285 18.6171 20.3514 18.4468C19.1633 17.2929 17.977 16.1391 16.7889 14.9871C16.6137 14.813 16.3452 15.0828 16.5204 15.255Z" fill="#ACDCF2"/>
<path id="Vector_19" d="M18.1368 16.1755C18.8413 16.7974 19.5459 17.4173 20.2504 18.0392C20.4332 18.2019 20.7036 17.9321 20.5189 17.7675C19.8143 17.1456 19.1098 16.5256 18.4053 15.9037C18.2225 15.743 17.9521 16.0128 18.1368 16.1755Z" fill="#ACDCF2"/>
<path id="Vector_20" d="M16.248 33.3225C15.9795 32.9762 15.5816 32.7676 15.0199 32.7676C14.0945 32.7676 12.9768 34.0248 12.4265 34.7251C11.8762 34.0248 10.7585 32.7676 9.83308 32.7676C8.55352 32.7676 8.12891 33.8468 8.12891 35.1805C8.12891 36.5123 8.55162 37.5935 9.83308 37.5935C10.7566 37.5935 11.8762 36.3363 12.4265 35.6359C12.5007 35.7297 12.5845 35.833 12.6778 35.9421C13.0129 36.3382 13.4566 36.8108 13.925 37.1476C14.2906 37.4117 14.6695 37.5935 15.0218 37.5935C16.3013 37.5935 16.726 36.5123 16.726 35.1805C16.724 34.4343 16.5908 33.7664 16.248 33.3225ZM10.2196 36.675C9.83689 36.675 9.57603 36.5276 9.40466 36.2884C9.40466 36.2884 9.40466 36.2884 9.40466 36.2865C9.21044 36.0129 9.13428 35.6187 9.13428 35.1805C9.13428 34.3558 9.40466 33.688 10.2196 33.688C10.6138 33.688 11.0612 34.0362 11.4211 34.396C11.8057 34.7825 12.0875 35.1824 12.0875 35.1824C12.0875 35.1824 11.0346 36.675 10.2196 36.675ZM14.6371 36.675C14.104 36.675 13.4699 36.0378 13.0948 35.5958C12.8949 35.3604 12.7692 35.1805 12.7692 35.1805C12.7692 35.1805 13.8222 33.688 14.6371 33.688C15.4521 33.688 15.7225 34.3558 15.7225 35.1805C15.7225 36.0052 15.4521 36.675 14.6371 36.675Z" fill="#2A4E9D"/>
<path id="Vector_21" d="M13.0949 35.5957C12.9844 35.6014 12.874 35.6493 12.7959 35.7277C12.7388 35.787 12.6969 35.8617 12.6779 35.944C12.5846 35.8349 12.5008 35.7296 12.4265 35.6378L12.7673 35.1824C12.7673 35.1824 12.8949 35.3603 13.0949 35.5957Z" fill="#243A71"/>
<path id="Vector_22" d="M16.724 35.1805C16.724 36.5123 16.2994 37.5934 15.0199 37.5934C14.6695 37.5934 14.2887 37.4117 13.9231 37.1476C14.144 37.2509 14.382 37.3179 14.6257 37.3313C14.9589 37.3504 15.3017 37.2662 15.5721 37.071C15.8329 36.8835 16.0176 36.6041 16.1357 36.3037C16.2537 36.0052 16.3128 35.6857 16.3584 35.3661C16.4194 34.949 16.4632 34.5242 16.427 34.1032C16.4041 33.8353 16.347 33.5674 16.2442 33.3206C16.5907 33.7664 16.724 34.4342 16.724 35.1805Z" fill="#243A71"/>
<path id="Vector_23" d="M11.4211 34.396C11.0612 34.0362 10.6138 33.688 10.2196 33.688C9.40466 33.688 9.13428 34.3558 9.13428 35.1805C9.13428 35.6187 9.21044 36.0129 9.40466 36.2865C8.95339 35.7814 8.75346 35.0504 8.90198 34.3864C8.97624 34.0573 9.1419 33.7301 9.43323 33.5579C9.62364 33.445 9.85213 33.4086 10.0711 33.4335C10.2901 33.4603 10.4995 33.5464 10.6861 33.6631C10.9832 33.8468 11.225 34.1051 11.4211 34.396Z" fill="#243A71"/>
<g id="Group_2">
<g id="Group_3">
<g id="Clip path group">
<mask id="mask0_491_15139" style="mask-type:luminance" maskUnits="userSpaceOnUse" x="8" y="32" width="2" height="3">
<g id="SVGID_8_">
<path id="Vector_24" d="M9.53207 32.9474H8.41626V34.2065H9.53207V32.9474Z" fill="white"/>
</g>
</mask>
<g mask="url(#mask0_491_15139)">
<path id="Vector_25" d="M8.63335 33.5425C8.62002 33.5674 8.60669 33.5923 8.60669 33.621C8.60669 33.6477 8.62192 33.6784 8.64858 33.686C8.68476 33.6956 8.71713 33.665 8.74379 33.6363C8.8428 33.5272 8.97037 33.4449 9.10937 33.399C9.18554 33.3722 9.26551 33.3588 9.33977 33.3263C9.41403 33.2957 9.48449 33.244 9.51686 33.1694C9.54351 33.1062 9.54351 33.0105 9.47687 32.9723C9.35691 32.9015 9.20649 33.0067 9.10557 33.0679C8.91325 33.1866 8.74188 33.3454 8.63335 33.5425Z" fill="white"/>
</g>
</g>
<g id="Clip path group_2">
<mask id="mask1_491_15139" style="mask-type:luminance" maskUnits="userSpaceOnUse" x="8" y="32" width="2" height="3">
<g id="SVGID_8__2">
<path id="Vector_26" d="M9.53207 32.9474H8.41626V34.2065H9.53207V32.9474Z" fill="white"/>
</g>
</mask>
<g mask="url(#mask1_491_15139)">
<path id="Vector_27" d="M8.41999 34.1051C8.41619 34.1242 8.41428 34.1453 8.41809 34.1644C8.4219 34.1835 8.43713 34.2027 8.45617 34.2065C8.47331 34.2103 8.49045 34.2008 8.50378 34.1893C8.5152 34.1759 8.52282 34.1606 8.53043 34.1453C8.55519 34.0879 8.58184 34.0305 8.59898 33.9711C8.6085 33.9386 8.61422 33.9042 8.60279 33.8716C8.59327 33.8448 8.5628 33.82 8.53424 33.8219C8.50187 33.8238 8.48854 33.8544 8.47712 33.8812C8.44284 33.9501 8.43142 34.0285 8.41999 34.1051Z" fill="white"/>
</g>
</g>
</g>
</g>
<g id="Group_4">
<g id="Group_5">
<g id="Clip path group_3">
<mask id="mask2_491_15139" style="mask-type:luminance" maskUnits="userSpaceOnUse" x="14" y="32" width="2" height="2">
<g id="SVGID_10_">
<path id="Vector_28" d="M15.8272 32.9264H14.9189V33.4354H15.8272V32.9264Z" fill="white"/>
</g>
</mask>
<g mask="url(#mask2_491_15139)">
<path id="Vector_29" d="M14.9609 32.9513C14.9818 32.9398 15.0085 32.9341 15.0332 32.9322C15.1894 32.9149 15.3665 32.9456 15.5131 33.001C15.6464 33.0508 15.7682 33.1484 15.8139 33.2843C15.8272 33.3225 15.833 33.3665 15.8101 33.3991C15.7835 33.4373 15.7282 33.445 15.6844 33.4297C15.6235 33.4086 15.5778 33.357 15.5264 33.3187C15.4083 33.2307 15.2732 33.1675 15.1284 33.1331C15.0789 33.1216 15.0275 33.1139 14.9799 33.0929C14.9228 33.0661 14.8847 33.003 14.9533 32.957C14.9571 32.9532 14.959 32.9513 14.9609 32.9513Z" fill="white"/>
</g>
</g>
</g>
</g>
<g id="Group_6">
<g id="Group_7">
<g id="Clip path group_4">
<mask id="mask3_491_15139" style="mask-type:luminance" maskUnits="userSpaceOnUse" x="14" y="32" width="1" height="2">
<g id="SVGID_12_">
<path id="Vector_30" d="M14.818 32.9608H14.4924V33.133H14.818V32.9608Z" fill="white"/>
</g>
</mask>
<g mask="url(#mask3_491_15139)">
<path id="Vector_31" d="M14.5191 33.0278C14.5667 32.98 14.6695 32.9551 14.7343 32.9647C14.7781 32.9704 14.8428 33.0163 14.8085 33.0661C14.7914 33.0929 14.7552 33.0948 14.7248 33.0986C14.6905 33.1024 14.6543 33.1063 14.62 33.1158C14.5953 33.1216 14.5667 33.135 14.5401 33.135C14.5058 33.1369 14.4887 33.1101 14.4925 33.0795C14.4963 33.0584 14.5058 33.0412 14.5191 33.0278Z" fill="white"/>
</g>
</g>
</g>
</g>
</g>
</svg>
