<svg width="63" height="94" viewBox="0 0 63 94" fill="none" xmlns="http://www.w3.org/2000/svg">
<g id="Frame" clip-path="url(#clip0_101_3846)">
<g id="Group">
<g id="OBJECTS">
<path id="Vector" d="M2.08001 41.06C-7.00999 23.18 17.08 11.26 17.08 11.26C36.23 1.89 48.86 11.26 48.86 11.26C67.45 24.03 61.35 80.79 61.35 80.79C59.5 106.89 41.2 105.48 41.2 105.48C26.44 105.48 23.46 88.48 23.46 88.48C18.92 65.92 26.16 41.09 26.16 41.09C26.16 41.09 8.71001 54.27 2.08001 41.06Z" fill="#FFB600"/>
<g id="Vector_2" style="mix-blend-mode:soft-light">
<path d="M41.36 67.71C41.36 67.71 35.58 67.93 31.84 65.18C31.7122 65.7926 31.7194 66.4258 31.861 67.0354C32.0026 67.645 32.2752 68.2164 32.66 68.71C33.98 70.45 39.08 68.97 41.36 67.71Z" fill="black"/>
</g>
<g id="Vector_3" style="mix-blend-mode:soft-light" opacity="0.43">
<path d="M57.08 27.67C57.08 27.67 65.02 79.75 46.72 91.53C28.42 103.31 23.72 85.14 23.72 85.14C23.72 85.14 26.96 104.59 41.62 104.01C47.44 103.78 52.27 100.24 55.89 94.01C62.31 83.06 63.34 55.43 57.08 27.67Z" fill="black"/>
</g>
<g id="Vector_4" style="mix-blend-mode:soft-light" opacity="0.43">
<path d="M3.89001 41.15C3.89001 41.15 11.08 48.06 28.65 37.25L26.8 39.81C26.8 39.81 20.42 44.99 12.8 45.98C12.76 45.98 5.80001 46.9 3.89001 41.15Z" fill="black"/>
</g>
<g id="Vector_5" style="mix-blend-mode:soft-light">
<path d="M27.08 9.64999C27.08 9.64999 12.61 13.89 7.60002 22.13C2.59002 30.37 9.87001 29.05 11.95 26.59C14.03 24.13 19.23 17.22 27.08 12.4C32.08 9.32999 29.74 8.73999 27.08 9.64999Z" fill="white"/>
</g>
<g id="Vector_6" style="mix-blend-mode:soft-light">
<path d="M2.75 32.97C2.46478 33.561 2.31665 34.2088 2.31665 34.865C2.31665 35.5212 2.46478 36.169 2.75 36.76C3.7 38.98 5.75 37.89 6.06 36C6.37 34.11 6.3 31.79 5.06 31.36C3.82 30.93 2.93 32.57 2.75 32.97Z" fill="white"/>
</g>
<g id="Vector_7" style="mix-blend-mode:soft-light" opacity="0.43">
<path d="M60.36 71.42C60.36 71.42 60.05 91.67 45.92 97.82C45.92 97.82 37.66 101.69 30.19 97.82C30.19 97.82 35.64 104.45 44.28 101.98C54.21 99.14 59.69 87.3 60.36 71.42Z" fill="black"/>
</g>
<g id="Vector_8" style="mix-blend-mode:soft-light" opacity="0.43">
<path d="M47.52 42.22C47.52 42.22 46.81 39.91 44.63 40.16C44.9561 40.6001 45.1845 41.1046 45.3 41.64C43.807 44.4133 41.6194 46.7514 38.9515 48.4254C36.2836 50.0995 33.2267 51.0521 30.08 51.19L31.15 52.19C34.5339 52.2051 37.8556 51.2812 40.7456 49.5211C43.6357 47.7609 45.9808 45.2335 47.52 42.22Z" fill="black"/>
</g>
<path id="Vector_9" d="M48.89 8.8C48.89 8.8 45.72 3.97999 38.8 5.67999C38.8 5.67999 36.16 2.37 38.8 0.00999596C38.8 0.00999596 47.02 -0.290006 49.86 6.42999C49.86 6.42999 50.56 7.57 48.89 8.8Z" fill="#A57200"/>
<path id="Vector_10" d="M49.73 25.32C48.54 32.11 43.82 36.95 39.19 36.14C34.56 35.33 31.77 29.14 32.96 22.37C34.15 15.6 38.88 10.73 43.51 11.55C48.14 12.37 50.93 18.52 49.73 25.32Z" fill="white"/>
<path id="Vector_11" d="M46.34 25.66C45.79 28.78 43.62 31.01 41.49 30.66C39.36 30.31 38.07 27.45 38.62 24.32C39.17 21.19 41.35 18.96 43.48 19.32C45.61 19.68 46.89 22.53 46.34 25.66Z" fill="#5AC9E3"/>
<path id="Vector_12" d="M44.08 25.26C43.85 26.56 42.95 27.49 42.08 27.34C41.21 27.19 40.66 26 40.89 24.7C41.12 23.4 42.02 22.46 42.89 22.62C43.76 22.78 44.32 23.96 44.08 25.26Z" fill="#1A6D8C"/>
<g id="Vector_13" style="mix-blend-mode:soft-light">
<path d="M44.3 26C44.1846 26.3176 44.0065 26.6088 43.7763 26.8561C43.5461 27.1035 43.2685 27.3021 42.96 27.44L44.14 29.35C44.7388 28.7819 45.2211 28.1026 45.56 27.35L44.3 26Z" fill="white"/>
</g>
<g id="Vector_14" style="mix-blend-mode:soft-light">
<path d="M46.08 24.38C46.08 24.38 41.08 23.74 38.98 27.32C38.7479 26.2061 38.778 25.0535 39.0678 23.9532C39.3576 22.8529 39.8993 21.835 40.65 20.98C42.96 18.62 45.75 20.06 46.08 24.38Z" fill="black"/>
</g>
<path id="Vector_15" d="M42.42 22.71C41.95 23.33 41.23 23.58 40.81 23.26C40.39 22.94 40.41 22.18 40.88 21.55C41.35 20.92 42.07 20.68 42.49 21C42.91 21.32 42.89 22.06 42.42 22.71Z" fill="white"/>
<path id="Vector_16" d="M40.39 25.06C40.25 25.43 39.93 25.65 39.68 25.55C39.43 25.45 39.33 25.08 39.48 24.71C39.63 24.34 39.94 24.11 40.19 24.21C40.44 24.31 40.53 24.68 40.39 25.06Z" fill="white"/>
<path id="Vector_17" d="M46.08 61.21L45.93 61.36C40.81 66.5 31.93 61.21 31.93 61.21C32.1791 60.4932 32.3534 59.7526 32.45 59C32.6248 57.9069 32.6248 56.7931 32.45 55.7C32.2687 54.5883 31.8454 53.53 31.21 52.6C31.21 52.6 42.83 52.41 47.84 42.77C48.4457 45.286 48.8074 47.8546 48.92 50.44C49.01 54.27 48.52 58.62 46.08 61.21Z" fill="#4A3247"/>
<path id="Vector_18" d="M48.86 50.44C46.34 52.69 41.13 55.97 32.39 55.7C32.2087 54.5883 31.7854 53.53 31.15 52.6C31.15 52.6 42.77 52.41 47.78 42.77C48.3857 45.286 48.7474 47.8546 48.86 50.44Z" fill="white"/>
<path id="Vector_19" d="M45.92 61.36C40.8 66.5 31.92 61.21 31.92 61.21C32.1691 60.4932 32.3434 59.7526 32.44 59C37.0706 58.2878 41.8069 59.117 45.92 61.36Z" fill="#EF4A6B"/>
<g id="Vector_20" style="mix-blend-mode:soft-light" opacity="0.59">
<path d="M38.08 2.15C37.9714 2.69871 37.9975 3.26555 38.156 3.80198C38.3145 4.3384 38.6007 4.8284 38.99 5.23C38.99 5.23 45.41 3.23 48.87 8.31C48.87 8.31 49.54 7.61 49.62 7.48C49.7 7.35 46.79 1.36 38.08 2.15Z" fill="black"/>
</g>
<g id="Vector_21" style="mix-blend-mode:soft-light" opacity="0.43">
<path d="M41.95 60.06C41.2182 60.9515 40.2681 61.6383 39.1921 62.0536C38.1161 62.469 36.951 62.5986 35.81 62.43C35.81 62.43 41.08 64.74 45.27 61.62C44.3009 60.847 43.1636 60.3127 41.95 60.06Z" fill="black"/>
</g>
<g id="Vector_22" style="mix-blend-mode:soft-light">
<path d="M39.14 62.97C39.14 62.97 42.69 63.28 44.84 61.55C44.5486 61.2824 44.2093 61.072 43.84 60.93C43.2647 61.6067 42.5418 62.1424 41.727 62.4961C40.9123 62.8497 40.0272 63.0118 39.14 62.97Z" fill="black"/>
</g>
</g>
</g>
</g>
<defs>
<clipPath id="clip0_101_3846">
<rect width="62.31" height="105.5" fill="white"/>
</clipPath>
</defs>
</svg>
