<svg width="251" height="80" viewBox="0 0 251 80" fill="none" xmlns="http://www.w3.org/2000/svg">
<rect y="14.2593" width="247" height="65" rx="16" transform="rotate(-3.30951 0 14.2593)" fill="white"/>
<g filter="url(#filter0_di_101_4324)">
<path d="M18.3235 28.4541C18.7604 26.7875 21.0747 26.6537 21.7008 28.2588C21.9808 28.9766 22.6912 29.4325 23.4605 29.3881C25.1805 29.2886 26.0229 31.4483 24.6899 32.5398C24.0937 33.0279 23.8796 33.8444 24.1596 34.5622C24.7858 36.1673 22.9921 37.6359 21.5421 36.7054C20.8936 36.2892 20.0509 36.338 19.4548 36.8261C18.1217 37.9176 16.1707 36.6655 16.6076 34.9989C16.803 34.2536 16.4963 33.4672 15.8478 33.0511C14.3978 32.1205 14.9857 29.8781 16.7057 29.7787C17.475 29.7342 18.1281 29.1994 18.3235 28.4541Z" fill="#D5C839"/>
<path d="M18.3235 28.4541C18.7604 26.7875 21.0747 26.6537 21.7008 28.2588C21.9808 28.9766 22.6912 29.4325 23.4605 29.3881C25.1805 29.2886 26.0229 31.4483 24.6899 32.5398C24.0937 33.0279 23.8796 33.8444 24.1596 34.5622C24.7858 36.1673 22.9921 37.6359 21.5421 36.7054C20.8936 36.2892 20.0509 36.338 19.4548 36.8261C18.1217 37.9176 16.1707 36.6655 16.6076 34.9989C16.803 34.2536 16.4963 33.4672 15.8478 33.0511C14.3978 32.1205 14.9857 29.8781 16.7057 29.7787C17.475 29.7342 18.1281 29.1994 18.3235 28.4541Z" fill="url(#paint0_radial_101_4324)" fill-opacity="0.64"/>
<path d="M18.3235 28.4541C18.7604 26.7875 21.0747 26.6537 21.7008 28.2588C21.9808 28.9766 22.6912 29.4325 23.4605 29.3881C25.1805 29.2886 26.0229 31.4483 24.6899 32.5398C24.0937 33.0279 23.8796 33.8444 24.1596 34.5622C24.7858 36.1673 22.9921 37.6359 21.5421 36.7054C20.8936 36.2892 20.0509 36.338 19.4548 36.8261C18.1217 37.9176 16.1707 36.6655 16.6076 34.9989C16.803 34.2536 16.4963 33.4672 15.8478 33.0511C14.3978 32.1205 14.9857 29.8781 16.7057 29.7787C17.475 29.7342 18.1281 29.1994 18.3235 28.4541Z" fill="url(#paint1_linear_101_4324)" fill-opacity="0.64"/>
</g>
<path d="M25.8443 40.5384L26.61 40.4941L28.9613 43.8156L29.0251 43.812L30.9777 40.2416L31.7435 40.1973L29.3616 44.4648L29.5434 47.6094L28.884 47.6475L28.7022 44.5029L25.8443 40.5384ZM34.6303 47.4291C34.16 47.4563 33.7371 47.361 33.3617 47.1432C32.9886 46.9252 32.6883 46.6118 32.4607 46.2028C32.233 45.7915 32.1031 45.3093 32.0712 44.7563C32.0389 44.1985 32.1122 43.7022 32.291 43.2674C32.4696 42.8302 32.7318 42.4831 33.0773 42.2259C33.4251 41.9663 33.8342 41.8229 34.3045 41.7957C34.7749 41.7685 35.1966 41.8639 35.5696 42.0818C35.9427 42.2998 36.2431 42.6144 36.4708 43.0257C36.7009 43.4369 36.832 43.9213 36.8643 44.4791C36.8963 45.0322 36.8229 45.5261 36.6441 45.9609C36.4651 46.3934 36.2018 46.7394 35.854 46.999C35.5085 47.2585 35.1006 47.4019 34.6303 47.4291ZM34.5969 46.8512C34.975 46.8293 35.2894 46.7092 35.54 46.4907C35.7906 46.2723 35.9735 45.9902 36.0887 45.6444C36.2062 45.2985 36.2532 44.9223 36.2297 44.5158C36.2062 44.1093 36.1161 43.7398 35.9593 43.4074C35.8049 43.0749 35.5906 42.8134 35.3163 42.6229C35.0421 42.4325 34.7159 42.3482 34.3378 42.37C33.962 42.3918 33.6477 42.5131 33.3948 42.734C33.1444 42.9548 32.9605 43.2393 32.8431 43.5876C32.728 43.9357 32.6823 44.3131 32.7058 44.7196C32.7293 45.1261 32.8182 45.4945 32.9724 45.8246C33.129 46.1547 33.3444 46.4138 33.6185 46.6019C33.8926 46.7899 34.2187 46.8731 34.5969 46.8512ZM41.7454 44.8158L41.5508 41.4514L42.1819 41.4149L42.4968 46.8603L41.8657 46.8968L41.8134 45.9928L41.7638 45.9957C41.6523 46.2819 41.4637 46.5264 41.198 46.7291C40.9321 46.9295 40.5995 47.0412 40.2 47.0643C39.8526 47.0844 39.5398 47.0266 39.2616 46.8909C38.9833 46.7529 38.7588 46.5406 38.5881 46.254C38.4174 45.9675 38.3196 45.6091 38.2947 45.179L38.0907 41.6515L38.7218 41.615L38.9235 45.1035C38.9481 45.5289 39.0932 45.8644 39.3587 46.1099C39.6242 46.353 39.953 46.4632 40.3454 46.4405C40.5912 46.4263 40.8241 46.3535 41.0442 46.2223C41.2642 46.091 41.441 45.9076 41.5744 45.6723C41.7077 45.4345 41.7647 45.149 41.7454 44.8158ZM48.5033 46.6375C48.1748 46.6565 47.871 46.61 47.5918 46.4981C47.3125 46.3839 47.0854 46.2096 46.9106 45.9755C46.7357 45.739 46.6381 45.4458 46.6179 45.0961C46.6023 44.8266 46.64 44.5968 46.731 44.4066C46.8219 44.2163 46.9574 44.0567 47.1372 43.9278C47.3171 43.7988 47.5327 43.6927 47.784 43.6093C48.0353 43.526 48.3135 43.4566 48.6185 43.401C48.9212 43.3456 49.1769 43.2976 49.3857 43.2571C49.5967 43.2164 49.756 43.1621 49.8636 43.0943C49.9711 43.0264 50.0209 42.9239 50.013 42.7868L50.0056 42.6592C49.9841 42.2881 49.8562 42.0027 49.6217 41.8028C49.3895 41.6004 49.0665 41.5112 48.6529 41.5351C48.2606 41.5578 47.9453 41.6626 47.7071 41.8495C47.4713 42.0362 47.3105 42.2495 47.2248 42.4892L46.6131 42.3076C46.7188 42.0027 46.8753 41.7553 47.0825 41.5655C47.2895 41.3733 47.5255 41.2304 47.7904 41.1368C48.0552 41.0409 48.3259 40.9849 48.6024 40.9689C48.8104 40.9569 49.0282 40.9716 49.2559 41.0129C49.4859 41.0542 49.7017 41.1366 49.9033 41.2601C50.1048 41.3812 50.2727 41.5577 50.407 41.7894C50.5412 42.0188 50.6189 42.3155 50.6399 42.6794L50.8537 46.3771L50.2227 46.4136L50.1729 45.5521L50.1339 45.5544C50.0675 45.7194 49.9643 45.8819 49.8241 46.0418C49.684 46.2017 49.5044 46.3365 49.2855 46.4464C49.0666 46.5563 48.8059 46.62 48.5033 46.6375ZM48.555 46.0547C48.8906 46.0353 49.177 45.944 49.4142 45.7809C49.6514 45.6178 49.8291 45.4095 49.9472 45.1561C50.0676 44.9001 50.1192 44.6232 50.1019 44.3255L50.0564 43.5384C50.0117 43.5861 49.9349 43.6308 49.8259 43.6727C49.7192 43.7144 49.5946 43.7536 49.4521 43.7903C49.3118 43.8245 49.1712 43.8552 49.0305 43.8823C48.8898 43.9094 48.7631 43.9333 48.6505 43.9541C48.3455 44.0097 48.0865 44.0839 47.8737 44.1768C47.6609 44.2698 47.5007 44.3905 47.3931 44.539C47.2854 44.6851 47.2379 44.8681 47.2506 45.0879C47.2697 45.4188 47.4027 45.6684 47.6496 45.8367C47.8963 46.0027 48.1981 46.0754 48.555 46.0547ZM52.5324 46.28L52.2175 40.8346L52.8308 40.7991L52.8792 41.6358L52.9253 41.6331C53.0182 41.3527 53.1945 41.1207 53.4542 40.9374C53.7161 40.7515 54.0185 40.6486 54.3612 40.6288C54.4132 40.6258 54.4712 40.6236 54.5351 40.6223C54.5991 40.621 54.6524 40.6203 54.695 40.6202L54.7322 41.2618C54.7035 41.2588 54.6535 41.2545 54.582 41.2492C54.5106 41.2438 54.4335 41.2435 54.3508 41.2483C54.0672 41.2647 53.8177 41.3396 53.6025 41.473C53.3896 41.6039 53.2254 41.7782 53.1099 41.9959C52.9944 42.2137 52.9445 42.4572 52.9601 42.7267L53.1634 46.2435L52.5324 46.28ZM58.1333 46.07C57.6251 46.0994 57.1787 46.0066 56.794 45.7917C56.4091 45.5745 56.1029 45.2614 55.8753 44.8524C55.6499 44.441 55.5213 43.9599 55.4895 43.4092C55.4578 42.8609 55.5301 42.3682 55.7064 41.9312C55.8849 41.4916 56.1456 41.141 56.4886 40.8793C56.8337 40.6151 57.2415 40.4694 57.7118 40.4422C58.0073 40.4251 58.2952 40.463 58.5756 40.5558C58.856 40.6463 59.1113 40.7964 59.3415 41.006C59.5741 41.2131 59.7638 41.4807 59.9109 41.809C60.0578 42.1348 60.1444 42.5258 60.1708 42.982L60.1888 43.294L55.9346 43.54L55.9024 42.9834L59.5114 42.7747C59.4912 42.4249 59.4021 42.1147 59.2442 41.844C59.0885 41.5708 58.8806 41.3599 58.6207 41.2113C58.3631 41.0626 58.0712 40.9976 57.745 41.0165C57.4 41.0364 57.1016 41.1462 56.8499 41.3457C56.5982 41.5452 56.4067 41.8005 56.2753 42.1117C56.1462 42.4227 56.0909 42.7579 56.1093 43.1173L56.1286 43.4505C56.1536 43.883 56.2499 44.2569 56.4175 44.5721C56.5874 44.8847 56.8157 45.1217 57.1025 45.283C57.3893 45.4443 57.7217 45.514 58.0999 45.4921C58.3575 45.4772 58.5809 45.424 58.77 45.3324C58.9616 45.2407 59.1196 45.1237 59.2442 44.9813C59.371 44.8364 59.4639 44.6805 59.523 44.5134L60.1334 44.6738C60.064 44.9078 59.9403 45.1272 59.7624 45.3319C59.5869 45.5365 59.362 45.7061 59.0875 45.8405C58.8154 45.9724 58.4973 46.0489 58.1333 46.07ZM66.736 47.6214C66.3649 47.6428 66.0371 47.6132 65.7526 47.5324C65.4683 47.454 65.2256 47.3376 65.0246 47.1832C64.8236 47.0289 64.6639 46.8519 64.5457 46.6525L65.0436 46.2822C65.1295 46.4148 65.2413 46.5435 65.379 46.6683C65.519 46.793 65.6967 46.893 65.9121 46.9683C66.1299 47.0434 66.3935 47.0721 66.7032 47.0541C67.1853 47.0263 67.5671 46.8832 67.8486 46.6251C68.1325 46.3668 68.2597 45.9836 68.2303 45.4754L68.1594 44.2488L68.1027 44.2521C68.039 44.4217 67.9434 44.5933 67.8159 44.7666C67.6882 44.9376 67.5164 45.0839 67.3006 45.2055C67.087 45.3269 66.8172 45.3971 66.491 45.4159C66.0562 45.4411 65.6635 45.3559 65.3131 45.1604C64.9651 44.9647 64.6826 44.6727 64.4657 44.2845C64.251 43.8938 64.1276 43.4207 64.0955 42.8653C64.0636 42.3146 64.129 41.8247 64.2915 41.3956C64.4564 40.9663 64.7011 40.6249 65.0255 40.3714C65.35 40.1179 65.7367 39.9781 66.1858 39.9521C66.519 39.9329 66.799 39.976 67.0256 40.0814C67.2521 40.1845 67.4365 40.3185 67.5788 40.4834C67.7235 40.6481 67.8384 40.8099 67.9235 40.9686L67.9873 40.9649L67.9272 39.9261L68.5441 39.8905L68.8672 45.4777C68.8938 45.9386 68.8177 46.3236 68.6387 46.6328C68.4598 46.9419 68.2054 47.1771 67.8757 47.3385C67.546 47.5022 67.1661 47.5965 66.736 47.6214ZM66.5321 44.8338C66.8819 44.8135 67.176 44.7123 67.4145 44.5302C67.6528 44.3457 67.829 44.0912 67.943 43.7669C68.0571 43.4425 68.1014 43.0617 68.0761 42.6245C68.0515 42.199 67.9648 41.8258 67.8158 41.5048C67.6666 41.1814 67.4625 40.9324 67.2034 40.7577C66.9466 40.5804 66.6397 40.5021 66.2828 40.5228C65.9188 40.5438 65.6172 40.6597 65.3781 40.8703C65.1389 41.081 64.9651 41.3566 64.8567 41.6973C64.7482 42.0355 64.7058 42.4091 64.7295 42.818C64.7535 43.234 64.8398 43.5977 64.9882 43.9093C65.1365 44.2185 65.3411 44.4556 65.602 44.6208C65.8628 44.7835 66.1728 44.8545 66.5321 44.8338ZM72.6527 45.2304C72.1824 45.2576 71.7595 45.1623 71.3841 44.9445C71.011 44.7265 70.7107 44.4131 70.4831 44.0041C70.2554 43.5928 70.1256 43.1106 70.0936 42.5576C70.0613 41.9998 70.1346 41.5035 70.3134 41.0687C70.4921 40.6315 70.7542 40.2844 71.0998 40.0272C71.4476 39.7676 71.8566 39.6242 72.327 39.597C72.7973 39.5698 73.219 39.6652 73.592 39.8831C73.9651 40.1011 74.2655 40.4157 74.4932 40.827C74.7233 41.2382 74.8545 41.7226 74.8867 42.2804C74.9187 42.8335 74.8453 43.3274 74.6665 43.7622C74.4876 44.1947 74.2242 44.5407 73.8764 44.8003C73.5309 45.0598 73.1231 45.2032 72.6527 45.2304ZM72.6193 44.6525C72.9975 44.6306 73.3118 44.5105 73.5624 44.2921C73.813 44.0736 73.9959 43.7915 74.1111 43.4458C74.2286 43.0999 74.2756 42.7236 74.2521 42.3171C74.2286 41.9106 74.1385 41.5411 73.9817 41.2087C73.8273 40.8762 73.613 40.6147 73.3388 40.4242C73.0645 40.2338 72.7383 40.1495 72.3602 40.1713C71.9844 40.1931 71.6701 40.3144 71.4173 40.5353C71.1668 40.7561 70.9829 41.0407 70.8655 41.3889C70.7504 41.7371 70.7047 42.1144 70.7282 42.5209C70.7517 42.9274 70.8406 43.2958 70.9948 43.626C71.1515 43.956 71.3668 44.2151 71.6409 44.4032C71.915 44.5913 72.2411 44.6744 72.6193 44.6525ZM76.4351 44.8978L76.1202 39.4524L76.7548 39.4157L77.0697 44.8611L76.4351 44.8978ZM76.3887 38.4978C76.2587 38.5053 76.1451 38.468 76.0479 38.3859C75.9505 38.3014 75.8982 38.1965 75.891 38.0713C75.8837 37.946 75.9237 37.837 76.0108 37.7442C76.0978 37.6491 76.2062 37.5977 76.3362 37.5902C76.4662 37.5827 76.5799 37.6212 76.6773 37.7057C76.7745 37.7878 76.8267 37.8915 76.834 38.0167C76.8412 38.142 76.8014 38.2522 76.7144 38.3473C76.6273 38.4401 76.5187 38.4903 76.3887 38.4978ZM79.1729 41.3247L79.3697 44.7281L78.7386 44.7646L78.4237 39.3192L79.037 39.2837L79.0865 40.1381L79.1432 40.1348C79.2547 39.8485 79.4403 39.6137 79.7 39.4303C79.962 39.2444 80.2927 39.14 80.6921 39.1169C81.0584 39.0957 81.3843 39.1539 81.6697 39.2915C81.9574 39.4267 82.1865 39.6375 82.3572 39.9241C82.5303 40.2105 82.6293 40.5688 82.6542 40.9989L82.8581 44.5264L82.2271 44.5629L82.0254 41.0744C81.9995 40.6277 81.8538 40.2816 81.5883 40.0361C81.3251 39.7905 80.9843 39.6798 80.566 39.704C80.28 39.7205 80.0295 39.7966 79.8144 39.9324C79.5994 40.0681 79.4335 40.2556 79.3169 40.4947C79.2026 40.7313 79.1545 41.008 79.1729 41.3247ZM86.7221 46.4657C86.351 46.4871 86.0233 46.4575 85.7388 46.3767C85.4544 46.2983 85.2117 46.1819 85.0107 46.0275C84.8097 45.8731 84.6501 45.6962 84.5318 45.4967L85.0298 45.1265C85.1157 45.259 85.2275 45.3877 85.3651 45.5126C85.5051 45.6373 85.6828 45.7373 85.8982 45.8126C86.116 45.8877 86.3797 45.9163 86.6893 45.8984C87.1715 45.8705 87.5533 45.7275 87.8348 45.4694C88.1186 45.2111 88.2459 44.8279 88.2165 44.3197L88.1455 43.0931L88.0888 43.0963C88.0251 43.266 87.9295 43.4375 87.802 43.6109C87.6744 43.7819 87.5026 43.9282 87.2867 44.0498C87.0732 44.1712 86.8034 44.2414 86.4772 44.2602C86.0423 44.2854 85.6497 44.2002 85.2993 44.0046C84.9512 43.809 84.6687 43.517 84.4518 43.1288C84.2371 42.7381 84.1137 42.265 84.0816 41.7096C84.0498 41.1589 84.1151 40.669 84.2777 40.2399C84.4425 39.8106 84.6872 39.4692 85.0117 39.2157C85.3361 38.9621 85.7229 38.8224 86.1719 38.7964C86.5052 38.7772 86.7851 38.8202 87.0117 38.9257C87.2382 39.0288 87.4227 39.1628 87.565 39.3277C87.7097 39.4924 87.8246 39.6542 87.9096 39.8129L87.9734 39.8092L87.9134 38.7704L88.5302 38.7347L88.8533 44.322C88.88 44.7829 88.8038 45.1679 88.6249 45.477C88.4459 45.7862 88.1916 46.0214 87.8618 46.1828C87.5322 46.3465 87.1523 46.4408 86.7221 46.4657ZM86.5182 43.678C86.868 43.6578 87.1621 43.5566 87.4006 43.3745C87.6389 43.1899 87.8151 42.9355 87.9292 42.6111C88.0432 42.2868 88.0876 41.906 88.0623 41.4687C88.0377 41.0433 87.9509 40.6701 87.8019 40.3491C87.6528 40.0257 87.4487 39.7767 87.1896 39.6019C86.9327 39.4247 86.6258 39.3464 86.2689 39.3671C85.905 39.3881 85.6034 39.504 85.3642 39.7146C85.125 39.9253 84.9512 40.2009 84.8429 40.5415C84.7344 40.8798 84.692 41.2534 84.7156 41.6623C84.7397 42.0782 84.8259 42.442 84.9744 42.7535C85.1227 43.0627 85.3273 43.2999 85.5882 43.465C85.849 43.6278 86.159 43.6988 86.5182 43.678ZM95.1536 38.3517L95.1854 38.9013L92.5867 39.0515L92.5549 38.502L95.1536 38.3517ZM93.2914 37.1504L93.9259 37.1137L94.2341 42.4422C94.2472 42.6691 94.2965 42.8453 94.382 42.9708C94.4674 43.0939 94.5743 43.179 94.7027 43.2261C94.831 43.2709 94.966 43.2891 95.1078 43.2809C95.1905 43.2761 95.2612 43.2673 95.3197 43.2545C95.3781 43.2392 95.4294 43.2244 95.4736 43.21L95.6414 43.773C95.5813 43.8002 95.5069 43.8258 95.4182 43.8499C95.3296 43.8764 95.2191 43.8934 95.0868 43.9011C94.8551 43.9145 94.6289 43.8766 94.4079 43.7874C94.1893 43.6981 94.0057 43.5569 93.857 43.3639C93.7083 43.171 93.6253 42.9256 93.6081 42.6278L93.2914 37.1504ZM98.9662 43.7088C98.4959 43.736 98.073 43.6407 97.6976 43.4229C97.3245 43.2049 97.0242 42.8915 96.7966 42.4825C96.5689 42.0712 96.439 41.589 96.4071 41.036C96.3748 40.4782 96.4481 39.9819 96.6269 39.5471C96.8055 39.1099 97.0676 38.7628 97.4132 38.5056C97.761 38.246 98.1701 38.1026 98.6404 38.0754C99.1108 38.0482 99.5325 38.1436 99.9055 38.3615C100.279 38.5795 100.579 38.8941 100.807 39.3054C101.037 39.7166 101.168 40.201 101.2 40.7588C101.232 41.3119 101.159 41.8058 100.98 42.2406C100.801 42.6731 100.538 43.0191 100.19 43.2787C99.8444 43.5382 99.4365 43.6816 98.9662 43.7088ZM98.9328 43.1309C99.3109 43.109 99.6253 42.9889 99.8759 42.7704C100.126 42.552 100.309 42.2699 100.425 41.9242C100.542 41.5782 100.589 41.202 100.566 40.7955C100.542 40.389 100.452 40.0195 100.295 39.6871C100.141 39.3546 99.9265 39.0931 99.6522 38.9026C99.378 38.7122 99.0518 38.6279 98.6736 38.6497C98.2978 38.6715 97.9835 38.7928 97.7307 39.0137C97.4803 39.2345 97.2963 39.5191 97.1789 39.8673C97.0639 40.2155 97.0181 40.5928 97.0416 40.9993C97.0652 41.4058 97.154 41.7742 97.3083 42.1044C97.4649 42.4344 97.6803 42.6935 97.9544 42.8816C98.2285 43.0696 98.5546 43.1528 98.9328 43.1309ZM107.751 45.2496C107.38 45.2711 107.053 45.2414 106.768 45.1606C106.484 45.0822 106.241 44.9658 106.04 44.8115C105.839 44.6571 105.679 44.4802 105.561 44.2807L106.059 43.9104C106.145 44.043 106.257 44.1717 106.394 44.2965C106.534 44.4212 106.712 44.5212 106.928 44.5965C107.145 44.6717 107.409 44.7003 107.719 44.6824C108.201 44.6545 108.583 44.5115 108.864 44.2533C109.148 43.995 109.275 43.6118 109.246 43.1037L109.175 41.877L109.118 41.8803C109.054 42.05 108.959 42.2215 108.831 42.3949C108.704 42.5659 108.532 42.7122 108.316 42.8337C108.103 42.9552 107.833 43.0253 107.507 43.0442C107.072 43.0693 106.679 42.9841 106.329 42.7886C105.981 42.5929 105.698 42.301 105.481 41.9128C105.266 41.522 105.143 41.049 105.111 40.4935C105.079 39.9429 105.144 39.4529 105.307 39.0238C105.472 38.5945 105.717 38.2531 106.041 37.9996C106.365 37.7461 106.752 37.6063 107.201 37.5804C107.534 37.5611 107.814 37.6042 108.041 37.7097C108.268 37.8128 108.452 37.9468 108.594 38.1116C108.739 38.2764 108.854 38.4381 108.939 38.5968L109.003 38.5931L108.943 37.5544L109.56 37.5187L109.883 43.106C109.909 43.5668 109.833 43.9518 109.654 44.261C109.475 44.5701 109.221 44.8054 108.891 44.9667C108.561 45.1304 108.182 45.2247 107.751 45.2496ZM107.548 42.462C107.897 42.4418 108.191 42.3406 108.43 42.1584C108.668 41.9739 108.844 41.7195 108.958 41.3951C109.073 41.0707 109.117 40.6899 109.092 40.2527C109.067 39.8273 108.98 39.4541 108.831 39.133C108.682 38.8097 108.478 38.5606 108.219 38.3859C107.962 38.2087 107.655 38.1304 107.298 38.151C106.934 38.1721 106.633 38.2879 106.394 38.4986C106.154 38.7092 105.981 38.9849 105.872 39.3255C105.764 39.6638 105.721 40.0373 105.745 40.4462C105.769 40.8622 105.855 41.226 106.004 41.5375C106.152 41.8467 106.357 42.0839 106.618 42.249C106.878 42.4118 107.188 42.4828 107.548 42.462ZM113.073 42.9037C112.745 42.9227 112.441 42.8762 112.162 42.7643C111.882 42.65 111.655 42.4758 111.48 42.2417C111.306 42.0052 111.208 41.712 111.188 41.3622C111.172 41.0928 111.21 40.863 111.301 40.6727C111.392 40.4825 111.527 40.3229 111.707 40.1939C111.887 40.065 112.103 39.9588 112.354 39.8755C112.605 39.7922 112.883 39.7228 113.188 39.6672C113.491 39.6118 113.747 39.5638 113.956 39.5232C114.167 39.4826 114.326 39.4283 114.433 39.3604C114.541 39.2926 114.591 39.1901 114.583 39.053L114.575 38.9254C114.554 38.5543 114.426 38.2688 114.192 38.069C113.959 37.8666 113.636 37.7774 113.223 37.8013C112.83 37.824 112.515 37.9288 112.277 38.1157C112.041 38.3024 111.88 38.5156 111.795 38.7554L111.183 38.5738C111.289 38.2689 111.445 38.0215 111.652 37.8316C111.859 37.6395 112.095 37.4966 112.36 37.403C112.625 37.3071 112.896 37.2511 113.172 37.2351C113.38 37.2231 113.598 37.2377 113.826 37.2791C114.056 37.3204 114.272 37.4027 114.473 37.5262C114.675 37.6474 114.843 37.8238 114.977 38.0556C115.111 38.285 115.189 38.5816 115.21 38.9456L115.424 42.6433L114.793 42.6798L114.743 41.8183L114.704 41.8205C114.637 41.9856 114.534 42.1481 114.394 42.308C114.254 42.4678 114.074 42.6027 113.855 42.7126C113.636 42.8225 113.376 42.8862 113.073 42.9037ZM113.125 42.3209C113.46 42.3015 113.747 42.2102 113.984 42.0471C114.221 41.884 114.399 41.6757 114.517 41.4223C114.637 41.1663 114.689 40.8894 114.672 40.5916L114.626 39.8046C114.582 39.8522 114.505 39.897 114.396 39.9389C114.289 39.9806 114.164 40.0198 114.022 40.0565C113.882 40.0907 113.741 40.1214 113.6 40.1485C113.46 40.1756 113.333 40.1995 113.22 40.2203C112.915 40.2758 112.656 40.3501 112.444 40.443C112.231 40.536 112.071 40.6567 111.963 40.8052C111.855 40.9513 111.808 41.1343 111.82 41.3541C111.84 41.685 111.973 41.9346 112.219 42.1029C112.466 42.2689 112.768 42.3415 113.125 42.3209ZM117.109 42.5458L116.794 37.1003L117.429 37.0636L117.744 42.5091L117.109 42.5458ZM117.063 36.1457C116.933 36.1533 116.819 36.116 116.722 36.0338C116.625 35.9494 116.572 35.8445 116.565 35.7192C116.558 35.594 116.598 35.4849 116.685 35.3922C116.772 35.297 116.88 35.2457 117.01 35.2382C117.14 35.2307 117.254 35.2691 117.352 35.3536C117.449 35.4357 117.501 35.5394 117.508 35.6647C117.515 35.79 117.476 35.9002 117.389 35.9953C117.301 36.0881 117.193 36.1382 117.063 36.1457ZM119.847 38.9727L120.044 42.3761L119.413 42.4126L119.098 36.9671L119.711 36.9317L119.761 37.7861L119.817 37.7828C119.929 37.4965 120.115 37.2617 120.374 37.0783C120.636 36.8924 120.967 36.7879 121.366 36.7648C121.733 36.7436 122.059 36.8019 122.344 36.9395C122.632 37.0746 122.861 37.2855 123.031 37.572C123.205 37.8584 123.304 38.2167 123.328 38.6469L123.532 42.1744L122.901 42.2109L122.7 38.7224C122.674 38.2757 122.528 37.9296 122.263 37.6841C121.999 37.4384 121.659 37.3277 121.24 37.3519C120.954 37.3685 120.704 37.4446 120.489 37.5803C120.274 37.7161 120.108 37.9035 119.991 38.1427C119.877 38.3793 119.829 38.656 119.847 38.9727ZM129.53 41.952C129.202 41.971 128.898 41.9246 128.619 41.8127C128.339 41.6984 128.112 41.5242 127.937 41.29C127.762 41.0535 127.665 40.7604 127.645 40.4106C127.629 40.1412 127.667 39.9113 127.758 39.7211C127.849 39.5309 127.984 39.3713 128.164 39.2423C128.344 39.1133 128.559 39.0072 128.811 38.9239C129.062 38.8406 129.34 38.7711 129.645 38.7156C129.948 38.6601 130.204 38.6121 130.412 38.5716C130.623 38.5309 130.783 38.4767 130.89 38.4088C130.998 38.3409 131.048 38.2384 131.04 38.1014L131.032 37.9737C131.011 37.6027 130.883 37.3172 130.648 37.1173C130.416 36.915 130.093 36.8258 129.68 36.8497C129.287 36.8724 128.972 36.9771 128.734 37.164C128.498 37.3508 128.337 37.564 128.252 37.8037L127.64 37.6221C127.746 37.3172 127.902 37.0698 128.109 36.88C128.316 36.6878 128.552 36.5449 128.817 36.4514C129.082 36.3554 129.353 36.2994 129.629 36.2835C129.837 36.2714 130.055 36.2861 130.283 36.3275C130.513 36.3687 130.728 36.4511 130.93 36.5746C131.132 36.6958 131.299 36.8722 131.434 37.1039C131.568 37.3333 131.646 37.63 131.667 37.994L131.88 41.6916L131.249 41.7281L131.2 40.8666L131.161 40.8689C131.094 41.034 130.991 41.1965 130.851 41.3563C130.711 41.5162 130.531 41.6511 130.312 41.761C130.093 41.8709 129.833 41.9345 129.53 41.952ZM129.582 41.3693C129.917 41.3498 130.204 41.2586 130.441 41.0955C130.678 40.9324 130.856 40.7241 130.974 40.4706C131.094 40.2147 131.146 39.9378 131.129 39.64L131.083 38.853C131.039 38.9006 130.962 38.9453 130.853 38.9872C130.746 39.029 130.621 39.0682 130.479 39.1049C130.339 39.1391 130.198 39.1697 130.057 39.1968C129.917 39.2239 129.79 39.2479 129.677 39.2686C129.372 39.3242 129.113 39.3985 128.9 39.4914C128.688 39.5843 128.527 39.705 128.42 39.8535C128.312 39.9997 128.265 40.1827 128.277 40.4025C128.296 40.7333 128.429 40.983 128.676 41.1513C128.923 41.3172 129.225 41.3899 129.582 41.3693ZM139.78 36.9699L139.211 37.1664C139.145 37.0066 139.056 36.8635 138.945 36.7372C138.833 36.6109 138.691 36.5135 138.519 36.4453C138.349 36.3768 138.141 36.3497 137.895 36.3639C137.526 36.3853 137.229 36.4902 137.003 36.6788C136.776 36.8673 136.671 37.0999 136.687 37.3764C136.701 37.6104 136.792 37.796 136.961 37.9332C137.133 38.068 137.39 38.1681 137.733 38.2337L138.567 38.3882C139.03 38.4729 139.381 38.6292 139.622 38.8572C139.865 39.085 139.997 39.3809 140.019 39.7449C140.036 40.0521 139.967 40.33 139.811 40.5786C139.654 40.8271 139.428 41.0287 139.131 41.1835C138.836 41.3357 138.489 41.4233 138.089 41.4464C137.558 41.4772 137.112 41.3832 136.753 41.1644C136.394 40.9433 136.153 40.6086 136.03 40.1605L136.628 39.9765C136.725 40.2958 136.891 40.5316 137.128 40.6839C137.366 40.8361 137.673 40.9014 138.046 40.8798C138.464 40.8556 138.793 40.7429 139.033 40.5417C139.273 40.3381 139.384 40.0946 139.368 39.8109C139.355 39.5911 139.271 39.411 139.116 39.2706C138.961 39.1278 138.732 39.0296 138.43 38.9759L137.528 38.8146C137.049 38.7285 136.689 38.5691 136.448 38.3364C136.206 38.1038 136.075 37.8054 136.054 37.4415C136.037 37.1413 136.103 36.873 136.253 36.6367C136.403 36.398 136.617 36.2054 136.896 36.0589C137.174 35.9124 137.497 35.8285 137.863 35.8073C138.362 35.7785 138.766 35.8689 139.077 36.0786C139.39 36.2858 139.625 36.5829 139.78 36.9699ZM144.825 38.8551L144.631 35.4907L145.262 35.4542L145.577 40.8996L144.945 40.9361L144.893 40.0321L144.844 40.035C144.732 40.3212 144.543 40.5657 144.278 40.7684C144.012 40.9688 143.679 41.0805 143.28 41.1036C142.932 41.1237 142.62 41.0659 142.341 40.9302C142.063 40.7922 141.839 40.5799 141.668 40.2933C141.497 40.0068 141.399 39.6484 141.374 39.2183L141.17 35.6908L141.802 35.6543L142.003 39.1428C142.028 39.5682 142.173 39.9037 142.438 40.1491C142.704 40.3923 143.033 40.5025 143.425 40.4798C143.671 40.4656 143.904 40.3928 144.124 40.2616C144.344 40.1303 144.521 39.9469 144.654 39.7116C144.787 39.4738 144.844 39.1883 144.825 38.8551ZM147.365 42.8451L146.932 35.3576L147.546 35.3221L147.606 36.3609L147.68 36.3566C147.746 36.1891 147.841 36.0165 147.963 35.8386C148.086 35.6585 148.252 35.503 148.463 35.3722C148.676 35.2414 148.949 35.1663 149.282 35.147C149.731 35.121 150.13 35.2165 150.48 35.4335C150.831 35.6479 151.112 35.9613 151.324 36.3735C151.537 36.7833 151.66 37.2682 151.692 37.8284C151.725 38.3909 151.659 38.8891 151.494 39.3231C151.332 39.757 151.089 40.1019 150.764 40.3578C150.442 40.6135 150.059 40.7542 149.615 40.7799C149.286 40.7989 149.008 40.7558 148.779 40.6504C148.552 40.545 148.365 40.41 148.218 40.2453C148.073 40.0782 147.959 39.9141 147.877 39.7529L147.82 39.7562L147.996 42.8086L147.365 42.8451ZM147.714 38.0478C147.739 38.4874 147.827 38.8736 147.977 39.2064C148.128 39.5367 148.333 39.7917 148.59 39.9713C148.849 40.1484 149.155 40.2267 149.507 40.2064C149.869 40.1855 150.168 40.0686 150.404 39.8557C150.643 39.6403 150.818 39.3587 150.928 39.0108C151.041 38.6628 151.085 38.2773 151.061 37.8542C151.036 37.4359 150.95 37.0627 150.8 36.7346C150.653 36.4064 150.449 36.1514 150.187 35.9697C149.925 35.7857 149.612 35.7042 149.248 35.7252C148.893 35.7457 148.598 35.8589 148.36 36.0647C148.123 36.2681 147.949 36.5414 147.839 36.8845C147.73 37.2251 147.689 37.6129 147.714 38.0478ZM155.441 40.443C154.933 40.4724 154.487 40.3796 154.102 40.1648C153.717 39.9475 153.411 39.6344 153.183 39.2255C152.958 38.814 152.829 38.3329 152.798 37.7823C152.766 37.2339 152.838 36.7412 153.015 36.3042C153.193 35.8647 153.454 35.514 153.797 35.2523C154.142 34.9881 154.55 34.8424 155.02 34.8152C155.315 34.7981 155.603 34.836 155.884 34.9289C156.164 35.0194 156.419 35.1694 156.65 35.379C156.882 35.5861 157.072 35.8538 157.219 36.182C157.366 36.5079 157.453 36.8989 157.479 37.355L157.497 37.667L153.243 37.913L153.211 37.3564L156.82 37.1477C156.799 36.7979 156.71 36.4877 156.552 36.217C156.397 35.9438 156.189 35.7329 155.929 35.5843C155.671 35.4356 155.379 35.3707 155.053 35.3895C154.708 35.4095 154.41 35.5192 154.158 35.7187C153.906 35.9183 153.715 36.1736 153.583 36.4847C153.454 36.7957 153.399 37.1309 153.417 37.4903L153.437 37.8236C153.462 38.2561 153.558 38.6299 153.726 38.9451C153.896 39.2578 154.124 39.4948 154.411 39.656C154.697 39.8173 155.03 39.887 155.408 39.8651C155.666 39.8502 155.889 39.797 156.078 39.7055C156.27 39.6138 156.428 39.4967 156.552 39.3543C156.679 39.2095 156.772 39.0535 156.831 38.8865L157.442 39.0468C157.372 39.2809 157.248 39.5002 157.071 39.705C156.895 39.9096 156.67 40.0791 156.396 40.2135C156.124 40.3455 155.805 40.422 155.441 40.443ZM159.034 40.1214L158.719 34.676L159.333 34.6405L159.381 35.4772L159.427 35.4745C159.52 35.1941 159.696 34.9622 159.956 34.7788C160.218 34.5929 160.52 34.49 160.863 34.4702C160.915 34.4672 160.973 34.465 161.037 34.4637C161.101 34.4624 161.154 34.4617 161.197 34.4616L161.234 35.1033C161.205 35.1002 161.155 35.096 161.084 35.0906C161.012 35.0852 160.935 35.085 160.853 35.0897C160.569 35.1061 160.32 35.181 160.104 35.3144C159.891 35.4453 159.727 35.6196 159.612 35.8373C159.496 36.0551 159.446 36.2987 159.462 36.5681L159.665 40.0849L159.034 40.1214ZM162.711 41.9577L162.278 34.4702L162.891 34.4347L162.951 35.4735L163.026 35.4692C163.092 35.3017 163.186 35.1291 163.309 34.9513C163.431 34.7711 163.598 34.6156 163.808 34.4849C164.021 34.354 164.294 34.2789 164.627 34.2596C165.077 34.2337 165.476 34.3292 165.825 34.5461C166.177 34.7605 166.458 35.0739 166.669 35.4862C166.882 35.8959 167.005 36.3809 167.038 36.941C167.07 37.5035 167.004 38.0018 166.84 38.4358C166.677 38.8696 166.434 39.2145 166.11 39.4704C165.788 39.7262 165.405 39.8669 164.96 39.8926C164.632 39.9116 164.353 39.8684 164.124 39.7631C163.897 39.6576 163.711 39.5226 163.564 39.358C163.419 39.1909 163.305 39.0267 163.222 38.8655L163.165 38.8688L163.342 41.9212L162.711 41.9577ZM163.059 37.1604C163.085 37.6 163.172 37.9862 163.322 38.319C163.474 38.6494 163.678 38.9043 163.935 39.0839C164.195 39.261 164.5 39.3394 164.852 39.319C165.214 39.2981 165.513 39.1812 165.75 38.9683C165.989 38.7529 166.163 38.4713 166.274 38.1235C166.386 37.7755 166.431 37.3899 166.406 36.9669C166.382 36.5485 166.295 36.1753 166.146 35.8472C165.999 35.519 165.794 35.264 165.532 35.0824C165.27 34.8983 164.957 34.8168 164.593 34.8379C164.239 34.8584 163.943 34.9715 163.706 35.1773C163.469 35.3807 163.295 35.654 163.184 35.9971C163.076 36.3378 163.034 36.7255 163.059 37.1604ZM170.702 39.5606C170.231 39.5878 169.809 39.4925 169.433 39.2747C169.06 39.0567 168.76 38.7433 168.532 38.3343C168.305 37.923 168.175 37.4409 168.143 36.8878C168.11 36.33 168.184 35.8337 168.362 35.3989C168.541 34.9617 168.803 34.6146 169.149 34.3575C169.497 34.0978 169.906 33.9544 170.376 33.9272C170.846 33.9 171.268 33.9954 171.641 34.2133C172.014 34.4313 172.315 34.7459 172.542 35.1572C172.772 35.5684 172.904 36.0528 172.936 36.6106C172.968 37.1637 172.894 37.6576 172.716 38.0924C172.537 38.5249 172.273 38.8709 171.925 39.1305C171.58 39.39 171.172 39.5334 170.702 39.5606ZM170.668 38.9827C171.047 38.9608 171.361 38.8407 171.612 38.6223C171.862 38.4038 172.045 38.1217 172.16 37.776C172.278 37.4301 172.325 37.0538 172.301 36.6473C172.278 36.2408 172.188 35.8713 172.031 35.5389C171.876 35.2064 171.662 34.9449 171.388 34.7544C171.114 34.564 170.787 34.4797 170.409 34.5015C170.033 34.5233 169.719 34.6446 169.466 34.8655C169.216 35.0863 169.032 35.3709 168.915 35.7191C168.8 36.0673 168.754 36.4446 168.777 36.8511C168.801 37.2576 168.89 37.626 169.044 37.9562C169.201 38.2862 169.416 38.5453 169.69 38.7334C169.964 38.9215 170.29 39.0046 170.668 38.9827ZM175.501 39.1692L173.541 33.8189L174.207 33.7804L175.758 38.1975L175.804 38.1949L176.831 33.6287L177.501 33.5899L179.036 37.9973L179.086 37.9944L180.117 33.4386L180.784 33.4001L179.454 38.9407L178.801 38.9784L177.253 34.5896L177.185 34.5935L176.153 39.1315L175.501 39.1692ZM184.348 38.7714C183.84 38.8008 183.394 38.7081 183.009 38.4932C182.624 38.2759 182.318 37.9628 182.09 37.5539C181.865 37.1424 181.736 36.6614 181.704 36.1107C181.673 35.5624 181.745 35.0697 181.921 34.6326C182.1 34.1931 182.361 33.8425 182.704 33.5808C183.049 33.3165 183.456 33.1708 183.927 33.1436C184.222 33.1266 184.51 33.1644 184.791 33.2573C185.071 33.3478 185.326 33.4979 185.556 33.7075C185.789 33.9145 185.979 34.1822 186.126 34.5104C186.273 34.8363 186.359 35.2273 186.386 35.6835L186.404 35.9955L182.15 36.2415L182.117 35.6849L185.726 35.4762C185.706 35.1264 185.617 34.8161 185.459 34.5454C185.303 34.2723 185.096 34.0614 184.836 33.9128C184.578 33.764 184.286 33.6991 183.96 33.718C183.615 33.7379 183.317 33.8477 183.065 34.0472C182.813 34.2467 182.622 34.502 182.49 34.8132C182.361 35.1242 182.306 35.4594 182.324 35.8187L182.344 36.152C182.369 36.5845 182.465 36.9584 182.632 37.2735C182.802 37.5862 183.031 37.8232 183.317 37.9845C183.604 38.1457 183.937 38.2154 184.315 38.1936C184.572 38.1787 184.796 38.1255 184.985 38.0339C185.177 37.9422 185.335 37.8251 185.459 37.6828C185.586 37.5379 185.679 37.3819 185.738 37.2149L186.348 37.3752C186.279 37.6093 186.155 37.8287 185.977 38.0334C185.802 38.238 185.577 38.4075 185.302 38.542C185.03 38.6739 184.712 38.7504 184.348 38.7714ZM187.941 38.4499L187.626 33.0044L188.239 32.969L188.288 33.8056L188.334 33.803C188.427 33.5225 188.603 33.2906 188.863 33.1072C189.125 32.9213 189.427 32.8185 189.77 32.7986C189.822 32.7956 189.88 32.7935 189.944 32.7921C190.008 32.7908 190.061 32.7901 190.104 32.79L190.141 33.4317C190.112 33.4286 190.062 33.4244 189.991 33.419C189.919 33.4137 189.842 33.4134 189.759 33.4182C189.476 33.4346 189.226 33.5095 189.011 33.6429C188.798 33.7737 188.634 33.948 188.518 34.1658C188.403 34.3835 188.353 34.6271 188.369 34.8965L188.572 38.4134L187.941 38.4499ZM195.835 38.1179C195.507 38.1369 195.203 38.0904 194.924 37.9785C194.644 37.8642 194.417 37.69 194.243 37.4559C194.068 37.2194 193.97 36.9262 193.95 36.5764C193.934 36.307 193.972 36.0771 194.063 35.8869C194.154 35.6967 194.289 35.5371 194.469 35.4081C194.649 35.2791 194.865 35.173 195.116 35.0897C195.367 35.0064 195.645 34.937 195.951 34.8814C196.253 34.8259 196.509 34.778 196.718 34.7374C196.929 34.6968 197.088 34.6425 197.196 34.5746C197.303 34.5068 197.353 34.4043 197.345 34.2672L197.338 34.1396C197.316 33.7685 197.188 33.483 196.954 33.2832C196.721 33.0808 196.399 32.9916 195.985 33.0155C195.593 33.0382 195.277 33.143 195.039 33.3299C194.803 33.5166 194.643 33.7298 194.557 33.9696L193.945 33.7879C194.051 33.483 194.207 33.2357 194.414 33.0458C194.622 32.8536 194.857 32.7108 195.122 32.6172C195.387 32.5212 195.658 32.4653 195.934 32.4493C196.142 32.4373 196.36 32.4519 196.588 32.4933C196.818 32.5345 197.034 32.6169 197.235 32.7404C197.437 32.8616 197.605 33.038 197.739 33.2698C197.873 33.4991 197.951 33.7958 197.972 34.1598L198.186 37.8575L197.555 37.8939L197.505 37.0325L197.466 37.0347C197.4 37.1998 197.296 37.3623 197.156 37.5222C197.016 37.682 196.836 37.8169 196.618 37.9268C196.399 38.0367 196.138 38.1004 195.835 38.1179ZM195.887 37.5351C196.223 37.5157 196.509 37.4244 196.746 37.2613C196.983 37.0982 197.161 36.8899 197.279 36.6364C197.4 36.3805 197.451 36.1036 197.434 35.8058L197.388 35.0188C197.344 35.0664 197.267 35.1112 197.158 35.153C197.051 35.1948 196.927 35.234 196.784 35.2707C196.644 35.3049 196.503 35.3356 196.363 35.3627C196.222 35.3898 196.095 35.4137 195.983 35.4344C195.677 35.49 195.419 35.5643 195.206 35.6572C194.993 35.7501 194.833 35.8709 194.725 36.0194C194.617 36.1655 194.57 36.3485 194.583 36.5683C194.602 36.8992 194.735 37.1488 194.982 37.3171C195.228 37.4831 195.53 37.5557 195.887 37.5351ZM200.299 34.3205L200.495 37.7239L199.864 37.7604L199.55 32.3149L200.163 32.2795L200.212 33.1339L200.269 33.1306C200.38 32.8443 200.566 32.6095 200.826 32.4261C201.088 32.2402 201.418 32.1357 201.818 32.1126C202.184 32.0914 202.51 32.1497 202.796 32.2873C203.083 32.4224 203.312 32.6333 203.483 32.9198C203.656 33.2062 203.755 33.5645 203.78 33.9947L203.984 37.5222L203.353 37.5587L203.151 34.0702C203.125 33.6235 202.98 33.2774 202.714 33.0319C202.451 32.7862 202.11 32.6755 201.692 32.6997C201.406 32.7163 201.155 32.7924 200.94 32.9281C200.725 33.0639 200.559 33.2513 200.443 33.4905C200.328 33.7271 200.28 34.0038 200.299 34.3205ZM207.613 37.4261C207.166 37.452 206.768 37.3564 206.419 37.1395C206.07 36.9225 205.788 36.608 205.575 36.1959C205.363 35.7836 205.242 35.2962 205.209 34.7337C205.177 34.1736 205.242 33.6778 205.404 33.2463C205.569 32.8123 205.813 32.4685 206.138 32.215C206.462 31.9591 206.849 31.8182 207.298 31.7922C207.629 31.7731 207.907 31.8162 208.134 31.9217C208.36 32.0248 208.545 32.1588 208.687 32.3237C208.83 32.4885 208.942 32.6504 209.025 32.8092L209.081 32.806L208.916 29.9521L209.551 29.9154L209.971 37.176L209.354 37.2116L209.296 36.2012L209.221 36.2056C209.157 36.3752 209.063 36.5514 208.939 36.7341C208.814 36.9144 208.644 37.0701 208.429 37.2011C208.216 37.332 207.944 37.407 207.613 37.4261ZM207.654 36.844C208.006 36.8236 208.301 36.7105 208.538 36.5047C208.775 36.2966 208.948 36.0198 209.059 35.6743C209.172 35.3263 209.215 34.9325 209.19 34.4929C209.165 34.058 209.077 33.6777 208.928 33.3519C208.779 33.0238 208.574 32.7724 208.315 32.5977C208.056 32.4206 207.749 32.3423 207.395 32.3628C207.031 32.3839 206.729 32.5009 206.49 32.7139C206.253 32.9244 206.08 33.2013 205.969 33.5444C205.861 33.8874 205.819 34.2681 205.843 34.6864C205.867 35.1095 205.955 35.4874 206.104 35.8202C206.254 36.153 206.459 36.4127 206.718 36.5993C206.98 36.7833 207.292 36.8649 207.654 36.844ZM29.663 58.1655L29.6948 58.715L27.0181 58.8698L26.9864 58.3203L29.663 58.1655ZM28.1379 63.7174L27.7769 57.4743C27.76 57.1812 27.813 56.9303 27.9361 56.7216C28.0616 56.5128 28.2312 56.35 28.445 56.2333C28.6588 56.1166 28.8886 56.0512 29.1344 56.037C29.2998 56.0274 29.4377 56.0337 29.5481 56.0557C29.6607 56.0753 29.7496 56.0962 29.815 56.1186L29.6626 56.6823C29.6145 56.6708 29.5556 56.6576 29.486 56.6427C29.4164 56.6277 29.3296 56.6233 29.2256 56.6293C28.9514 56.6451 28.7443 56.7342 28.6043 56.8964C28.4643 57.0587 28.4025 57.2828 28.4191 57.5687L28.769 63.6809L28.1379 63.7174ZM31.2444 63.5378L30.9295 58.0923L31.5641 58.0556L31.879 63.5011L31.2444 63.5378ZM31.198 57.1377C31.068 57.1452 30.9544 57.1079 30.8572 57.0258C30.7598 56.9413 30.7075 56.8365 30.7003 56.7112C30.693 56.5859 30.733 56.4769 30.8201 56.3841C30.9071 56.289 31.0155 56.2377 31.1455 56.2301C31.2755 56.2226 31.3892 56.2611 31.4866 56.3456C31.5838 56.4277 31.636 56.5314 31.6433 56.6567C31.6505 56.7819 31.6107 56.8921 31.5237 56.9873C31.4366 57.08 31.328 57.1302 31.198 57.1377ZM33.9822 59.9647L34.179 63.3681L33.5479 63.4045L33.233 57.9591L33.8463 57.9236L33.8958 58.778L33.9525 58.7747C34.064 58.4885 34.2496 58.2537 34.5093 58.0703C34.7713 57.8844 35.102 57.7799 35.5014 57.7568C35.8677 57.7356 36.1936 57.7938 36.479 57.9315C36.7667 58.0666 36.9958 58.2774 37.1666 58.564C37.3396 58.8504 37.4386 59.2087 37.4635 59.6388L37.6675 63.1663L37.0364 63.2028L36.8347 59.7143C36.8088 59.2676 36.6632 58.9215 36.3976 58.676C36.1344 58.4304 35.7936 58.3197 35.3753 58.3439C35.0893 58.3604 34.8388 58.4366 34.6237 58.5723C34.4087 58.7081 34.2428 58.8955 34.1262 59.1346C34.0119 59.3713 33.9638 59.6479 33.9822 59.9647ZM39.3364 63.0698L39.0215 57.6244L39.6561 57.5877L39.971 63.0331L39.3364 63.0698ZM39.29 56.6698C39.16 56.6773 39.0464 56.64 38.9491 56.5579C38.8518 56.4734 38.7995 56.3685 38.7922 56.2433C38.785 56.118 38.8249 56.009 38.912 55.9162C38.999 55.8211 39.1075 55.7697 39.2375 55.7622C39.3675 55.7547 39.4812 55.7932 39.5785 55.8777C39.6758 55.9598 39.728 56.0635 39.7352 56.1887C39.7425 56.314 39.7026 56.4242 39.6156 56.5193C39.5285 56.6121 39.42 56.6623 39.29 56.6698ZM45.0527 58.4743L44.4843 58.6708C44.4181 58.511 44.3292 58.368 44.2176 58.2416C44.1059 58.1153 43.964 58.018 43.7916 57.9497C43.6217 57.8813 43.4138 57.8541 43.168 57.8684C42.7993 57.8897 42.5018 57.9946 42.2756 58.1832C42.0494 58.3718 41.9442 58.6043 41.9602 58.8808C41.9738 59.1148 42.0651 59.3004 42.2343 59.4377C42.4057 59.5724 42.6629 59.6725 43.0058 59.7381L43.84 59.8926C44.3025 59.9773 44.6542 60.1336 44.8951 60.3616C45.1383 60.5894 45.2704 60.8853 45.2914 61.2493C45.3092 61.5565 45.2399 61.8344 45.0835 62.083C44.9272 62.3315 44.7005 62.5332 44.4036 62.6879C44.1088 62.8401 43.7617 62.9277 43.3623 62.9508C42.8305 62.9816 42.3852 62.8876 42.0263 62.6688C41.6673 62.4477 41.4262 62.1131 41.3031 61.6649L41.9007 61.4809C41.9974 61.8002 42.164 62.036 42.4005 62.1883C42.6393 62.3405 42.9454 62.4058 43.3189 62.3842C43.7372 62.36 44.0662 62.2473 44.306 62.0461C44.5456 61.8426 44.6572 61.599 44.6408 61.3154C44.6281 61.0956 44.5441 60.9154 44.389 60.775C44.2337 60.6322 44.0051 60.534 43.7032 60.4803L42.8011 60.3191C42.3218 60.2329 41.9616 60.0735 41.7205 59.8409C41.4794 59.6082 41.3483 59.3099 41.3273 58.9459C41.3099 58.6457 41.3762 58.3775 41.5262 58.1412C41.676 57.9025 41.8902 57.7099 42.1686 57.5633C42.4471 57.4168 42.7695 57.3329 43.1358 57.3118C43.6345 57.2829 44.0393 57.3733 44.3502 57.583C44.6634 57.7902 44.8975 58.0873 45.0527 58.4743ZM47.1925 59.2007L47.3893 62.6042L46.7583 62.6406L46.3384 55.38L46.9695 55.3436L47.1238 58.0131L47.1806 58.0098C47.2919 57.7212 47.4763 57.4852 47.7337 57.302C47.9934 57.1186 48.3289 57.015 48.7401 56.9912C49.1088 56.9699 49.437 57.0268 49.7246 57.162C50.0123 57.2971 50.2426 57.5079 50.4157 57.7943C50.5888 58.0807 50.6878 58.4402 50.7128 58.8727L50.9168 62.4002L50.2822 62.4369L50.0805 58.9484C50.0545 58.4993 49.9088 58.1532 49.6434 57.9101C49.3802 57.6645 49.0371 57.5539 48.614 57.5783C48.3233 57.5951 48.068 57.6716 47.8483 57.8076C47.6285 57.9436 47.4591 58.1313 47.3401 58.3705C47.2234 58.6073 47.1742 58.884 47.1925 59.2007ZM57.2164 56.5722L57.2482 57.1217L54.6495 57.272L54.6178 56.7225L57.2164 56.5722ZM55.3542 55.3709L55.9888 55.3342L56.2969 60.6627C56.31 60.8896 56.3593 61.0658 56.4448 61.1912C56.5302 61.3144 56.6371 61.3995 56.7655 61.4466C56.8938 61.4913 57.0288 61.5096 57.1706 61.5014C57.2533 61.4966 57.324 61.4878 57.3825 61.4749C57.4409 61.4597 57.4922 61.4449 57.5365 61.4305L57.7042 61.9935C57.6441 62.0206 57.5697 62.0463 57.481 62.0704C57.3924 62.0969 57.2819 62.1139 57.1496 62.1216C56.918 62.135 56.6917 62.0971 56.4707 62.0079C56.2521 61.9185 56.0685 61.7774 55.9198 61.5844C55.7711 61.3915 55.6881 61.1461 55.6709 60.8483L55.3542 55.3709ZM59.5157 58.4881L59.7125 61.8916L59.0814 61.928L58.6616 54.6674L59.2926 54.631L59.447 57.3005L59.5037 57.2972C59.6151 57.0086 59.7995 56.7726 60.0568 56.5894C60.3166 56.406 60.652 56.3024 61.0633 56.2786C61.432 56.2573 61.7602 56.3142 62.0478 56.4494C62.3354 56.5845 62.5658 56.7953 62.7389 57.0817C62.9119 57.3681 63.011 57.7276 63.036 58.1601L63.24 61.6876L62.6054 61.7243L62.4036 58.2358C62.3777 57.7867 62.232 57.4406 61.9666 57.1975C61.7034 56.9519 61.3602 56.8413 60.9372 56.8657C60.6465 56.8825 60.3912 56.959 60.1714 57.095C59.9516 57.231 59.7823 57.4187 59.6633 57.6579C59.5466 57.8947 59.4974 58.1714 59.5157 58.4881ZM67.1099 61.5776C66.6018 61.607 66.1553 61.5142 65.7706 61.2994C65.3857 61.0821 65.0795 60.769 64.8519 60.3601C64.6266 59.9486 64.498 59.4675 64.4661 58.9169C64.4344 58.3685 64.5067 57.8758 64.683 57.4388C64.8615 56.9993 65.1223 56.6486 65.4652 56.3869C65.8104 56.1227 66.2181 55.977 66.6884 55.9498C66.9839 55.9327 67.2718 55.9706 67.5523 56.0635C67.8326 56.154 68.0879 56.304 68.3182 56.5136C68.5507 56.7207 68.7405 56.9884 68.8875 57.3166C69.0344 57.6425 69.121 58.0335 69.1474 58.4896L69.1655 58.8016L64.9112 59.0476L64.879 58.491L68.488 58.2823C68.4678 57.9325 68.3787 57.6223 68.2208 57.3516C68.0651 57.0784 67.8573 56.8675 67.5973 56.7189C67.3397 56.5702 67.0478 56.5053 66.7217 56.5241C66.3766 56.5441 66.0782 56.6538 65.8265 56.8533C65.5748 57.0529 65.3833 57.3082 65.2519 57.6193C65.1229 57.9303 65.0675 58.2655 65.0859 58.6249L65.1052 58.9582C65.1302 59.3907 65.2265 59.7645 65.3942 60.0797C65.564 60.3924 65.7923 60.6294 66.0791 60.7906C66.3659 60.9519 66.6984 61.0216 67.0765 60.9997C67.3341 60.9848 67.5575 60.9316 67.7467 60.8401C67.9382 60.7483 68.0962 60.6313 68.2208 60.4889C68.3476 60.3441 68.4405 60.1881 68.4997 60.0211L69.1101 60.1814C69.0406 60.4154 68.9169 60.6348 68.7391 60.8396C68.5636 61.0442 68.3386 61.2137 68.0642 61.3481C67.792 61.4801 67.4739 61.5566 67.1099 61.5776ZM73.5105 61.0937L73.1956 55.6482L73.8089 55.6128L73.8573 56.4494L73.914 56.4461C74.0064 56.1586 74.1745 55.9272 74.4181 55.7518C74.6639 55.574 74.9653 55.4747 75.3221 55.4541C75.6979 55.4324 76.0115 55.5032 76.2628 55.6665C76.5164 55.8273 76.7123 56.0579 76.8506 56.3581L76.8967 56.3555C77.0021 56.0458 77.1879 55.7944 77.4542 55.6012C77.7227 55.4054 78.0555 55.296 78.4526 55.2731C78.9583 55.2438 79.367 55.3803 79.6785 55.6824C79.9899 55.9822 80.1632 56.4369 80.1985 57.0467L80.4094 60.6947L79.7784 60.7312L79.5674 57.0832C79.5426 56.653 79.414 56.3368 79.1818 56.1344C78.9495 55.9321 78.6538 55.8413 78.2945 55.862C77.8786 55.8861 77.5657 56.0322 77.3559 56.3005C77.1462 56.5687 77.0526 56.899 77.0753 57.2913L77.2826 60.8755L76.6373 60.9129L76.4231 57.2081C76.4018 56.8394 76.2817 56.5476 76.063 56.3325C75.8443 56.1175 75.5482 56.0208 75.1747 56.0424C74.9242 56.0569 74.7021 56.1314 74.5083 56.2659C74.3168 56.4003 74.1696 56.5808 74.0665 56.8073C73.9656 57.0313 73.9234 57.2851 73.9398 57.5687L74.1415 61.0572L73.5105 61.0937ZM82.0872 60.5977L81.7723 55.1523L82.4069 55.1156L82.7218 60.561L82.0872 60.5977ZM82.0408 54.1977C81.9108 54.2052 81.7972 54.1679 81.7 54.0858C81.6026 54.0013 81.5503 53.8964 81.5431 53.7711C81.5358 53.6459 81.5758 53.5369 81.6629 53.4441C81.7499 53.3489 81.8583 53.2976 81.9883 53.2901C82.1183 53.2826 82.232 53.3211 82.3294 53.4055C82.4266 53.4877 82.4788 53.5914 82.4861 53.7166C82.4933 53.8419 82.4535 53.9521 82.3665 54.0472C82.2794 54.14 82.1708 54.1902 82.0408 54.1977ZM87.8036 56.0022L87.2351 56.1987C87.169 56.0389 87.0801 55.8959 86.9684 55.7695C86.8568 55.6432 86.7148 55.5459 86.5425 55.4776C86.3725 55.4091 86.1647 55.382 85.9189 55.3962C85.5502 55.4176 85.2527 55.5225 85.0265 55.7111C84.8002 55.8996 84.6951 56.1322 84.7111 56.4087C84.7246 56.6427 84.816 56.8283 84.9852 56.9655C85.1566 57.1003 85.4137 57.2004 85.7566 57.266L86.5908 57.4205C87.0534 57.5052 87.4051 57.6615 87.6459 57.8895C87.8891 58.1173 88.0212 58.4132 88.0423 58.7772C88.0601 59.0844 87.9908 59.3623 87.8344 59.6109C87.678 59.8594 87.4514 60.0611 87.1544 60.2158C86.8597 60.368 86.5126 60.4556 86.1132 60.4787C85.5814 60.5095 85.136 60.4155 84.7772 60.1967C84.4182 59.9756 84.1771 59.6409 84.054 59.1928L84.6516 59.0088C84.7483 59.3281 84.9149 59.5639 85.1513 59.7162C85.3902 59.8684 85.6963 59.9337 86.0697 59.9121C86.4881 59.8879 86.8171 59.7752 87.0568 59.574C87.2964 59.3705 87.408 59.1269 87.3916 58.8432C87.3789 58.6234 87.295 58.4433 87.1398 58.3029C86.9845 58.1601 86.756 58.0619 86.4541 58.0082L85.5519 57.8469C85.0727 57.7608 84.7125 57.6014 84.4714 57.3688C84.2303 57.1361 84.0992 56.8377 84.0781 56.4738C84.0608 56.1736 84.1271 55.9054 84.277 55.669C84.4269 55.4303 84.641 55.2377 84.9195 55.0912C85.1979 54.9447 85.5203 54.8608 85.8867 54.8396C86.3854 54.8108 86.7902 54.9012 87.1011 55.1109C87.4142 55.3181 87.6484 55.6152 87.8036 56.0022ZM92.922 55.7063L92.3535 55.9027C92.2874 55.7429 92.1985 55.5999 92.0868 55.4735C91.9752 55.3472 91.8332 55.2499 91.6609 55.1816C91.4909 55.1132 91.2831 55.0861 91.0373 55.1003C90.6686 55.1216 90.3711 55.2265 90.1449 55.4151C89.9186 55.6037 89.8135 55.8362 89.8295 56.1127C89.843 56.3467 89.9344 56.5323 90.1036 56.6696C90.275 56.8043 90.5321 56.9045 90.875 56.97L91.7092 57.1245C92.1718 57.2092 92.5235 57.3655 92.7643 57.5935C93.0075 57.8213 93.1396 58.1172 93.1607 58.4812C93.1785 58.7884 93.1092 59.0663 92.9528 59.3149C92.7964 59.5634 92.5698 59.7651 92.2728 59.9198C91.9781 60.072 91.631 60.1597 91.2316 60.1828C90.6998 60.2135 90.2545 60.1195 89.8956 59.9007C89.5366 59.6796 89.2955 59.345 89.1724 58.8968L89.77 58.7128C89.8667 59.0321 90.0333 59.2679 90.2697 59.4202C90.5086 59.5724 90.8147 59.6377 91.1881 59.6161C91.6065 59.5919 91.9355 59.4792 92.1752 59.278C92.4148 59.0745 92.5264 58.8309 92.51 58.5473C92.4973 58.3275 92.4134 58.1474 92.2582 58.0069C92.1029 57.8641 91.8744 57.7659 91.5725 57.7122L90.6703 57.551C90.1911 57.4649 89.8309 57.3055 89.5898 57.0728C89.3487 56.8401 89.2176 56.5418 89.1965 56.1778C89.1792 55.8776 89.2455 55.6094 89.3954 55.3731C89.5453 55.1344 89.7594 54.9418 90.0379 54.7952C90.3163 54.6487 90.6387 54.5649 91.0051 54.5437C91.5038 54.5148 91.9086 54.6052 92.2195 54.8149C92.5326 55.0221 92.7668 55.3192 92.922 55.7063ZM94.6346 59.8721L94.3197 54.4267L94.9543 54.39L95.2692 59.8354L94.6346 59.8721ZM94.5882 53.4721C94.4582 53.4796 94.3446 53.4423 94.2474 53.3602C94.15 53.2757 94.0977 53.1708 94.0905 53.0456C94.0832 52.9203 94.1232 52.8113 94.2103 52.7185C94.2973 52.6234 94.4057 52.572 94.5357 52.5645C94.6657 52.557 94.7794 52.5955 94.8768 52.68C94.974 52.7621 95.0262 52.8658 95.0335 52.991C95.0407 53.1163 95.0009 53.2265 94.9139 53.3217C94.8268 53.4144 94.7182 53.4646 94.5882 53.4721ZM99.0612 59.73C98.5908 59.7572 98.168 59.6619 97.7925 59.4441C97.4195 59.2262 97.1192 58.9127 96.8916 58.5038C96.6639 58.0925 96.534 57.6103 96.502 57.0572C96.4698 56.4994 96.543 56.0031 96.7218 55.5683C96.9005 55.1312 97.1626 54.784 97.5082 54.5269C97.856 54.2673 98.2651 54.1238 98.7354 54.0967C99.2057 54.0695 99.6274 54.1648 100 54.3828C100.374 54.6007 100.674 54.9153 100.902 55.3266C101.132 55.7378 101.263 56.2223 101.295 56.7801C101.327 57.3331 101.254 57.827 101.075 58.2619C100.896 58.6943 100.633 59.0404 100.285 59.3C99.9394 59.5595 99.5315 59.7028 99.0612 59.73ZM99.0278 59.1521C99.4059 59.1303 99.7203 59.0101 99.9709 58.7917C100.221 58.5733 100.404 58.2912 100.52 57.9454C100.637 57.5995 100.684 57.2233 100.661 56.8168C100.637 56.4102 100.547 56.0408 100.39 55.7084C100.236 55.3758 100.021 55.1143 99.7472 54.9239C99.473 54.7334 99.1468 54.6491 98.7686 54.671C98.3928 54.6927 98.0785 54.814 97.8257 55.035C97.5752 55.2558 97.3913 55.5403 97.2739 55.8886C97.1589 56.2367 97.1131 56.614 97.1366 57.0205C97.1601 57.427 97.249 57.7954 97.4033 58.1256C97.5599 58.4556 97.7753 58.7147 98.0494 58.9028C98.3235 59.0909 98.6496 59.174 99.0278 59.1521ZM103.271 55.958L103.468 59.3614L102.836 59.3979L102.522 53.9524L103.135 53.9169L103.184 54.7713L103.241 54.7681C103.353 54.4818 103.538 54.247 103.798 54.0636C104.06 53.8777 104.391 53.7732 104.79 53.7501C105.156 53.7289 105.482 53.7871 105.768 53.9248C106.055 54.0599 106.284 54.2708 106.455 54.5573C106.628 54.8437 106.727 55.202 106.752 55.6322L106.956 59.1596L106.325 59.1961L106.123 55.7076C106.097 55.2609 105.952 54.9149 105.686 54.6694C105.423 54.4237 105.082 54.313 104.664 54.3372C104.378 54.3537 104.127 54.4299 103.912 54.5656C103.697 54.7014 103.531 54.8888 103.415 55.1279C103.3 55.3646 103.252 55.6413 103.271 55.958Z" fill="#2D2D2D"/>
<defs>
<filter id="filter0_di_101_4324" x="11.0275" y="27.1265" width="18.3187" height="18.1096" filterUnits="userSpaceOnUse" color-interpolation-filters="sRGB">
<feFlood flood-opacity="0" result="BackgroundImageFix"/>
<feColorMatrix in="SourceAlpha" type="matrix" values="0 0 0 0 0 0 0 0 0 0 0 0 0 0 0 0 0 0 127 0" result="hardAlpha"/>
<feOffset dy="4"/>
<feGaussianBlur stdDeviation="2"/>
<feComposite in2="hardAlpha" operator="out"/>
<feColorMatrix type="matrix" values="0 0 0 0 0 0 0 0 0 0 0 0 0 0 0 0 0 0 0.16 0"/>
<feBlend mode="normal" in2="BackgroundImageFix" result="effect1_dropShadow_101_4324"/>
<feBlend mode="normal" in="SourceGraphic" in2="effect1_dropShadow_101_4324" result="shape"/>
<feColorMatrix in="SourceAlpha" type="matrix" values="0 0 0 0 0 0 0 0 0 0 0 0 0 0 0 0 0 0 127 0" result="hardAlpha"/>
<feOffset/>
<feGaussianBlur stdDeviation="0.5"/>
<feComposite in2="hardAlpha" operator="arithmetic" k2="-1" k3="1"/>
<feColorMatrix type="matrix" values="0 0 0 0 0 0 0 0 0 0 0 0 0 0 0 0 0 0 0.1 0"/>
<feBlend mode="normal" in2="shape" result="effect2_innerShadow_101_4324"/>
</filter>
<radialGradient id="paint0_radial_101_4324" cx="0" cy="0" r="1" gradientUnits="userSpaceOnUse" gradientTransform="translate(20.5 30.5001) rotate(118.072) scale(8.5 8.78042)">
<stop offset="0.0298427" stop-color="#FBFAEB"/>
<stop offset="1" stop-color="#D5C839"/>
</radialGradient>
<linearGradient id="paint1_linear_101_4324" x1="24.5" y1="23.0001" x2="16.5" y2="38.0001" gradientUnits="userSpaceOnUse">
<stop offset="0.0298427" stop-color="#FBFAEB"/>
<stop offset="1" stop-color="#D5C839"/>
</linearGradient>
</defs>
</svg>
