<svg width="19" height="19" viewBox="0 0 19 19" fill="none" xmlns="http://www.w3.org/2000/svg">
<g id="Star 1" filter="url(#filter0_di_101_4325)">
<path d="M7.32347 1.45411C7.7604 -0.212488 10.0747 -0.346315 10.7008 1.25881C10.9808 1.97664 11.6912 2.43254 12.4605 2.38806C14.1805 2.28859 15.0229 4.44827 13.6899 5.53976C13.0937 6.02789 12.8796 6.84438 13.1596 7.56222C13.7858 9.16734 11.9921 10.6359 10.5421 9.70538C9.89362 9.28922 9.05094 9.33795 8.45477 9.82608C7.12168 10.9176 5.17071 9.66552 5.60764 7.99892C5.80304 7.2536 5.49629 6.46721 4.84782 6.05106C3.39781 5.12051 3.9857 2.87812 5.70574 2.77865C6.47497 2.73417 7.12807 2.19943 7.32347 1.45411Z" fill="#D5C839"/>
<path d="M7.32347 1.45411C7.7604 -0.212488 10.0747 -0.346315 10.7008 1.25881C10.9808 1.97664 11.6912 2.43254 12.4605 2.38806C14.1805 2.28859 15.0229 4.44827 13.6899 5.53976C13.0937 6.02789 12.8796 6.84438 13.1596 7.56222C13.7858 9.16734 11.9921 10.6359 10.5421 9.70538C9.89362 9.28922 9.05094 9.33795 8.45477 9.82608C7.12168 10.9176 5.17071 9.66552 5.60764 7.99892C5.80304 7.2536 5.49629 6.46721 4.84782 6.05106C3.39781 5.12051 3.9857 2.87812 5.70574 2.77865C6.47497 2.73417 7.12807 2.19943 7.32347 1.45411Z" fill="url(#paint0_radial_101_4325)" fill-opacity="0.64"/>
<path d="M7.32347 1.45411C7.7604 -0.212488 10.0747 -0.346315 10.7008 1.25881C10.9808 1.97664 11.6912 2.43254 12.4605 2.38806C14.1805 2.28859 15.0229 4.44827 13.6899 5.53976C13.0937 6.02789 12.8796 6.84438 13.1596 7.56222C13.7858 9.16734 11.9921 10.6359 10.5421 9.70538C9.89362 9.28922 9.05094 9.33795 8.45477 9.82608C7.12168 10.9176 5.17071 9.66552 5.60764 7.99892C5.80304 7.2536 5.49629 6.46721 4.84782 6.05106C3.39781 5.12051 3.9857 2.87812 5.70574 2.77865C6.47497 2.73417 7.12807 2.19943 7.32347 1.45411Z" fill="url(#paint1_linear_101_4325)" fill-opacity="0.64"/>
</g>
<defs>
<filter id="filter0_di_101_4325" x="0.0274811" y="0.126465" width="18.3187" height="18.1096" filterUnits="userSpaceOnUse" color-interpolation-filters="sRGB">
<feFlood flood-opacity="0" result="BackgroundImageFix"/>
<feColorMatrix in="SourceAlpha" type="matrix" values="0 0 0 0 0 0 0 0 0 0 0 0 0 0 0 0 0 0 127 0" result="hardAlpha"/>
<feOffset dy="4"/>
<feGaussianBlur stdDeviation="2"/>
<feComposite in2="hardAlpha" operator="out"/>
<feColorMatrix type="matrix" values="0 0 0 0 0 0 0 0 0 0 0 0 0 0 0 0 0 0 0.16 0"/>
<feBlend mode="normal" in2="BackgroundImageFix" result="effect1_dropShadow_101_4325"/>
<feBlend mode="normal" in="SourceGraphic" in2="effect1_dropShadow_101_4325" result="shape"/>
<feColorMatrix in="SourceAlpha" type="matrix" values="0 0 0 0 0 0 0 0 0 0 0 0 0 0 0 0 0 0 127 0" result="hardAlpha"/>
<feOffset/>
<feGaussianBlur stdDeviation="0.5"/>
<feComposite in2="hardAlpha" operator="arithmetic" k2="-1" k3="1"/>
<feColorMatrix type="matrix" values="0 0 0 0 0 0 0 0 0 0 0 0 0 0 0 0 0 0 0.1 0"/>
<feBlend mode="normal" in2="shape" result="effect2_innerShadow_101_4325"/>
</filter>
<radialGradient id="paint0_radial_101_4325" cx="0" cy="0" r="1" gradientUnits="userSpaceOnUse" gradientTransform="translate(9.5 3.50009) rotate(118.072) scale(8.5 8.78042)">
<stop offset="0.0298427" stop-color="#FBFAEB"/>
<stop offset="1" stop-color="#D5C839"/>
</radialGradient>
<linearGradient id="paint1_linear_101_4325" x1="13.5" y1="-3.99991" x2="5.5" y2="11.0001" gradientUnits="userSpaceOnUse">
<stop offset="0.0298427" stop-color="#FBFAEB"/>
<stop offset="1" stop-color="#D5C839"/>
</linearGradient>
</defs>
</svg>
