<svg width="100" height="170" viewBox="0 0 100 170" fill="none" xmlns="http://www.w3.org/2000/svg">
<g id="Frame" clip-path="url(#clip0_486_34436)">
<g id="Group 46">
<rect id="Rectangle 25" x="26" y="68" width="74" height="71" fill="white"/>
<g id="Group">
<g id="Group_2">
<g id="Vector">
<path d="M76.8657 63.8758C73.9366 63.8758 71.5624 61.4958 71.5624 58.5596V32.2469C71.5624 20.3283 61.8892 10.6314 50.0005 10.6314C38.1108 10.6314 28.4375 20.3283 28.4375 32.2469V58.5596C28.4375 61.4958 26.0633 63.8758 23.1343 63.8758C20.2053 63.8758 17.8311 61.4958 17.8311 58.5596V32.2469C17.8311 14.4657 32.2626 0 50.0005 0C67.7384 0 82.1689 14.4657 82.1689 32.2469V58.5596C82.1689 61.4958 79.7947 63.8758 76.8657 63.8758Z" fill="#24514B"/>
<path d="M76.8657 63.8758C73.9366 63.8758 71.5624 61.4958 71.5624 58.5596V32.2469C71.5624 20.3283 61.8892 10.6314 50.0005 10.6314C38.1108 10.6314 28.4375 20.3283 28.4375 32.2469V58.5596C28.4375 61.4958 26.0633 63.8758 23.1343 63.8758C20.2053 63.8758 17.8311 61.4958 17.8311 58.5596V32.2469C17.8311 14.4657 32.2626 0 50.0005 0C67.7384 0 82.1689 14.4657 82.1689 32.2469V58.5596C82.1689 61.4958 79.7947 63.8758 76.8657 63.8758Z" fill="url(#paint0_linear_486_34436)" fill-opacity="0.5"/>
</g>
<g id="Vector_2">
<path d="M59.3444 118.733C58.2514 117.642 40.2919 99.7015 39.2548 98.6825C39.2391 98.6678 39.2264 98.654 39.2117 98.6393C36.611 96.0323 31.9499 95.8652 29.3747 98.6393C26.8152 101.398 26.6397 105.769 29.3747 108.5C30.2197 109.343 53.7628 132.857 54.8009 133.876L54.844 133.92C56.0183 135.185 58.0465 136.026 59.762 135.962C62.4871 135.859 64.2938 134.372 66.0337 132.319C67.2503 130.879 98.7423 93.611 100 92.1213V141.905C100 147.696 95.3163 152.392 89.5386 152.392H10.4604C4.68372 152.392 0 147.696 0 141.905V69.0465C0 63.2547 4.68372 58.5596 10.4614 58.5596H89.5396C95.3173 58.5596 100.001 63.2547 100.001 69.0465V70.6207C100 70.6207 59.9032 118.072 59.3444 118.733Z" fill="#5E9D53"/>
<path d="M59.3444 118.733C58.2514 117.642 40.2919 99.7015 39.2548 98.6825C39.2391 98.6678 39.2264 98.654 39.2117 98.6393C36.611 96.0323 31.9499 95.8652 29.3747 98.6393C26.8152 101.398 26.6397 105.769 29.3747 108.5C30.2197 109.343 53.7628 132.857 54.8009 133.876L54.844 133.92C56.0183 135.185 58.0465 136.026 59.762 135.962C62.4871 135.859 64.2938 134.372 66.0337 132.319C67.2503 130.879 98.7423 93.611 100 92.1213V141.905C100 147.696 95.3163 152.392 89.5386 152.392H10.4604C4.68372 152.392 0 147.696 0 141.905V69.0465C0 63.2547 4.68372 58.5596 10.4614 58.5596H89.5396C95.3173 58.5596 100.001 63.2547 100.001 69.0465V70.6207C100 70.6207 59.9032 118.072 59.3444 118.733Z" fill="url(#paint1_linear_486_34436)" fill-opacity="0.5"/>
</g>
</g>
</g>
</g>
</g>
<defs>
<linearGradient id="paint0_linear_486_34436" x1="50" y1="0" x2="50" y2="63.8758" gradientUnits="userSpaceOnUse">
<stop stop-color="#68A9A0"/>
<stop offset="1" stop-color="#24514B"/>
</linearGradient>
<linearGradient id="paint1_linear_486_34436" x1="10" y1="76" x2="107" y2="152" gradientUnits="userSpaceOnUse">
<stop stop-color="#99C791"/>
<stop offset="1" stop-color="#395F32"/>
</linearGradient>
<clipPath id="clip0_486_34436">
<rect width="100" height="170" fill="white"/>
</clipPath>
</defs>
</svg>
