<svg width="252" height="96" viewBox="0 0 252 96" fill="none" xmlns="http://www.w3.org/2000/svg">
<rect y="14.2592" width="247" height="81" rx="16" transform="rotate(-3.30951 0 14.2592)" fill="white"/>
<g filter="url(#filter0_di_101_3842)">
<path d="M18.3235 28.454C18.7604 26.7874 21.0747 26.6536 21.7008 28.2587C21.9809 28.9766 22.6912 29.4325 23.4605 29.388C25.1805 29.2885 26.023 31.4482 24.6899 32.5397C24.0937 33.0278 23.8796 33.8443 24.1596 34.5621C24.7858 36.1673 22.9921 37.6359 21.5421 36.7053C20.8936 36.2891 20.051 36.3379 19.4548 36.826C18.1217 37.9175 16.1707 36.6654 16.6077 34.9988C16.8031 34.2535 16.4963 33.4671 15.8478 33.051C14.3978 32.1204 14.9857 29.878 16.7058 29.7786C17.475 29.7341 18.1281 29.1994 18.3235 28.454Z" fill="#D5C839"/>
<path d="M18.3235 28.454C18.7604 26.7874 21.0747 26.6536 21.7008 28.2587C21.9809 28.9766 22.6912 29.4325 23.4605 29.388C25.1805 29.2885 26.023 31.4482 24.6899 32.5397C24.0937 33.0278 23.8796 33.8443 24.1596 34.5621C24.7858 36.1673 22.9921 37.6359 21.5421 36.7053C20.8936 36.2891 20.051 36.3379 19.4548 36.826C18.1217 37.9175 16.1707 36.6654 16.6077 34.9988C16.8031 34.2535 16.4963 33.4671 15.8478 33.051C14.3978 32.1204 14.9857 29.878 16.7058 29.7786C17.475 29.7341 18.1281 29.1994 18.3235 28.454Z" fill="url(#paint0_radial_101_3842)" fill-opacity="0.64"/>
<path d="M18.3235 28.454C18.7604 26.7874 21.0747 26.6536 21.7008 28.2587C21.9809 28.9766 22.6912 29.4325 23.4605 29.388C25.1805 29.2885 26.023 31.4482 24.6899 32.5397C24.0937 33.0278 23.8796 33.8443 24.1596 34.5621C24.7858 36.1673 22.9921 37.6359 21.5421 36.7053C20.8936 36.2891 20.051 36.3379 19.4548 36.826C18.1217 37.9175 16.1707 36.6654 16.6077 34.9988C16.8031 34.2535 16.4963 33.4671 15.8478 33.051C14.3978 32.1204 14.9857 29.878 16.7058 29.7786C17.475 29.7341 18.1281 29.1994 18.3235 28.454Z" fill="url(#paint1_linear_101_3842)" fill-opacity="0.64"/>
</g>
<path d="M27.1879 40.4606L27.6078 47.7212L26.9448 47.7596L26.525 40.499L27.1879 40.4606ZM31.3327 42.0422L31.3644 42.5917L28.6878 42.7465L28.656 42.197L31.3327 42.0422ZM29.8076 47.594L29.4466 41.3509C29.4296 41.0578 29.4827 40.8069 29.6058 40.5983C29.7313 40.3894 29.9009 40.2267 30.1147 40.11C30.3285 39.9933 30.5583 39.9278 30.8041 39.9136C30.9695 39.904 31.1074 39.9103 31.2178 39.9324C31.3304 39.9519 31.4193 39.9729 31.4846 39.9952L31.3323 40.5589C31.2842 40.5474 31.2253 40.5343 31.1557 40.5193C31.086 40.5044 30.9992 40.4999 30.8952 40.5059C30.6211 40.5218 30.414 40.6108 30.274 40.773C30.1339 40.9353 30.0722 41.1594 30.0887 41.4454L30.4386 47.5575L29.8076 47.594ZM36.2725 49.269C36.1472 49.2763 36.0295 49.2712 35.9195 49.2539C35.8094 49.2365 35.7216 49.2155 35.6561 49.1909L35.7941 48.6244C36.013 48.6782 36.2058 48.6907 36.3726 48.6621C36.5394 48.6359 36.6839 48.5516 36.8061 48.4094C36.9285 48.2695 37.0325 48.0596 37.1183 47.7795L37.2849 47.215L34.9638 41.8322L35.6481 41.7926L37.5314 46.3115L37.581 46.3086L38.9309 41.6028L39.6152 41.5632L37.6755 48.0034C37.5937 48.2714 37.487 48.4969 37.3553 48.68C37.2238 48.8654 37.0671 49.0061 36.8853 49.102C36.706 49.2001 36.5017 49.2558 36.2725 49.269ZM43.0927 46.9396C42.6224 46.9668 42.1995 46.8715 41.8241 46.6537C41.4511 46.4358 41.1507 46.1223 40.9232 45.7134C40.6954 45.3021 40.5656 44.8199 40.5336 44.2668C40.5014 43.7091 40.5746 43.2128 40.7534 42.7779C40.9321 42.3408 41.1942 41.9936 41.5398 41.7365C41.8876 41.4769 42.2967 41.3335 42.767 41.3063C43.2373 41.2791 43.659 41.3744 44.0321 41.5924C44.4051 41.8103 44.7055 42.1249 44.9332 42.5362C45.1633 42.9474 45.2945 43.4319 45.3267 43.9897C45.3587 44.5427 45.2853 45.0367 45.1065 45.4715C44.9276 45.9039 44.6642 46.25 44.3164 46.5096C43.971 46.7691 43.5631 46.9124 43.0927 46.9396ZM43.0593 46.3617C43.4375 46.3399 43.7519 46.2197 44.0024 46.0013C44.253 45.7829 44.4359 45.5008 44.5511 45.155C44.6686 44.8091 44.7157 44.4329 44.6921 44.0264C44.6686 43.6199 44.5785 43.2504 44.4217 42.918C44.2673 42.5854 44.053 42.3239 43.7788 42.1335C43.5046 41.943 43.1784 41.8587 42.8002 41.8806C42.4244 41.9023 42.1101 42.0237 41.8573 42.2446C41.6068 42.4654 41.4229 42.7499 41.3055 43.0982C41.1905 43.4463 41.1447 43.8236 41.1682 44.2301C41.1917 44.6367 41.2806 45.005 41.4349 45.3352C41.5915 45.6653 41.8068 45.9243 42.0809 46.1124C42.355 46.3005 42.6812 46.3836 43.0593 46.3617ZM50.2078 44.3264L50.0133 40.9619L50.6443 40.9255L50.9592 46.3709L50.3282 46.4074L50.2759 45.5034L50.2263 45.5062C50.1148 45.7925 49.9261 46.037 49.6604 46.2397C49.3945 46.44 49.0619 46.5518 48.6625 46.5749C48.315 46.5949 48.0022 46.5371 47.7241 46.4015C47.4457 46.2634 47.2212 46.0511 47.0505 45.7646C46.8798 45.478 46.782 45.1197 46.7571 44.6895L46.5531 41.162L47.1842 41.1255L47.3859 44.614C47.4105 45.0395 47.5556 45.3749 47.8212 45.6204C48.0866 45.8635 48.4155 45.9738 48.8078 45.9511C49.0536 45.9369 49.2865 45.8641 49.5066 45.7328C49.7267 45.6015 49.9034 45.4182 50.0368 45.1828C50.1701 44.9451 50.2271 44.6596 50.2078 44.3264ZM57.4048 46.112C56.9581 46.1378 56.5601 46.0423 56.2108 45.8253C55.8615 45.6084 55.5801 45.2939 55.3666 44.8817C55.1554 44.4695 55.0335 43.9821 55.001 43.4196C54.9686 42.8594 55.0336 42.3636 55.196 41.9321C55.3606 41.4981 55.6051 41.1544 55.9296 40.9008C56.2539 40.6449 56.6406 40.504 57.0897 40.478C57.4205 40.4589 57.6993 40.5021 57.9259 40.6075C58.1524 40.7106 58.3369 40.8446 58.4792 41.0095C58.6215 41.1744 58.734 41.3363 58.8167 41.4951L58.8735 41.4918L58.7084 38.6379L59.343 38.6012L59.7629 45.8618L59.146 45.8975L59.0876 44.8871L59.0131 44.8914C58.9494 45.0611 58.8553 45.2373 58.7307 45.42C58.6059 45.6003 58.4359 45.756 58.2206 45.887C58.0076 46.0179 57.7357 46.0929 57.4048 46.112ZM57.4458 45.5298C57.798 45.5095 58.0926 45.3964 58.3297 45.1906C58.5666 44.9824 58.7403 44.7056 58.8508 44.3601C58.9635 44.0121 59.0071 43.6183 58.9817 43.1787C58.9565 42.7438 58.8693 42.3635 58.7201 42.0378C58.5707 41.7097 58.3664 41.4583 58.1073 41.2836C57.8481 41.1065 57.5412 41.0282 57.1867 41.0487C56.8227 41.0697 56.5212 41.1868 56.2821 41.3998C56.0453 41.6103 55.8716 41.8871 55.761 42.2303C55.6528 42.5732 55.6108 42.9539 55.635 43.3722C55.6595 43.7953 55.7465 44.1733 55.8962 44.5061C56.0459 44.8389 56.2506 45.0986 56.5104 45.2851C56.7724 45.4692 57.0842 45.5507 57.4458 45.5298ZM63.6833 45.7489C63.213 45.7761 62.7901 45.6808 62.4147 45.463C62.0417 45.2451 61.7414 44.9317 61.5138 44.5227C61.286 44.1114 61.1562 43.6292 61.1242 43.0762C61.092 42.5184 61.1652 42.0221 61.344 41.5873C61.5227 41.1501 61.7848 40.8029 62.1304 40.5458C62.4782 40.2862 62.8873 40.1428 63.3576 40.1156C63.8279 40.0884 64.2496 40.1838 64.6227 40.4017C64.9957 40.6196 65.2961 40.9343 65.5238 41.3456C65.7539 41.7567 65.8851 42.2412 65.9173 42.799C65.9493 43.3521 65.8759 43.846 65.6971 44.2808C65.5182 44.7133 65.2548 45.0593 64.907 45.3189C64.5616 45.5784 64.1537 45.7217 63.6833 45.7489ZM63.6499 45.1711C64.0281 45.1492 64.3425 45.0291 64.5931 44.8106C64.8436 44.5922 65.0265 44.3101 65.1417 43.9643C65.2592 43.6184 65.3063 43.2422 65.2827 42.8357C65.2592 42.4292 65.1691 42.0597 65.0123 41.7273C64.8579 41.3947 64.6436 41.1332 64.3694 40.9428C64.0952 40.7523 63.769 40.6681 63.3908 40.6899C63.015 40.7117 62.7007 40.833 62.4479 41.0539C62.1974 41.2747 62.0135 41.5592 61.8961 41.9075C61.7811 42.2556 61.7353 42.633 61.7588 43.0395C61.7823 43.446 61.8712 43.8143 62.0255 44.1445C62.1821 44.4746 62.3974 44.7337 62.6715 44.9217C62.9456 45.1098 63.2718 45.1929 63.6499 45.1711ZM67.8929 41.9769L68.0897 45.3803L67.4586 45.4168L67.1438 39.9714L67.7571 39.9359L67.8065 40.7903L67.8632 40.787C67.9747 40.5007 68.1603 40.2659 68.4201 40.0825C68.682 39.8966 69.0127 39.7921 69.4121 39.769C69.7785 39.7479 70.1043 39.8061 70.3898 39.9437C70.6774 40.0789 70.9066 40.2897 71.0773 40.5762C71.2504 40.8627 71.3493 41.2209 71.3742 41.6511L71.5782 45.1786L70.9471 45.2151L70.7454 41.7266C70.7196 41.2799 70.5739 40.9338 70.3083 40.6883C70.0451 40.4427 69.7044 40.3319 69.286 40.3561C69 40.3727 68.7495 40.4488 68.5345 40.5846C68.3194 40.7203 68.1536 40.9078 68.037 41.1469C67.9226 41.3835 67.8746 41.6602 67.8929 41.9769ZM73.3945 37.7887L73.4314 38.4268C73.4426 38.6206 73.4191 38.8295 73.3609 39.0534C73.3049 39.2748 73.2155 39.4922 73.0927 39.7056C72.9721 39.9165 72.8216 40.1031 72.6413 40.2653L72.28 39.9838C72.4452 39.7656 72.582 39.5265 72.6903 39.2665C72.7984 39.0041 72.8447 38.7394 72.8293 38.4723L72.7918 37.8235L73.3945 37.7887ZM76.9613 39.4036L76.9931 39.9531L74.3945 40.1034L74.3627 39.5539L76.9613 39.4036ZM75.0991 38.2023L75.7337 38.1656L76.0418 43.4941C76.0549 43.721 76.1043 43.8972 76.1898 44.0226C76.2751 44.1458 76.382 44.2309 76.5104 44.278C76.6387 44.3228 76.7738 44.341 76.9156 44.3328C76.9983 44.328 77.0689 44.3192 77.1275 44.3063C77.1859 44.2911 77.2372 44.2763 77.2814 44.2619L77.4491 44.8249C77.389 44.8521 77.3146 44.8777 77.2259 44.9018C77.1373 44.9283 77.0269 44.9453 76.8945 44.953C76.6629 44.9664 76.4366 44.9285 76.2157 44.8393C75.9971 44.7499 75.8134 44.6088 75.6647 44.4158C75.516 44.2229 75.4331 43.9775 75.4158 43.6797L75.0991 38.2023ZM81.9514 41.164L82.1482 44.5674L81.5172 44.6039L81.0973 37.3433L81.7284 37.3068L81.8828 39.9763L81.9395 39.973C82.0508 39.6844 82.2352 39.4485 82.4926 39.2652C82.7523 39.0818 83.0878 38.9782 83.499 38.9545C83.8677 38.9331 84.1959 38.99 84.4836 39.1252C84.7712 39.2603 85.0015 39.4711 85.1746 39.7575C85.3477 40.0439 85.4467 40.4034 85.4717 40.8359L85.6757 44.3634L85.0411 44.4001L84.8394 40.9116C84.8134 40.4625 84.6677 40.1164 84.4023 39.8733C84.1391 39.6277 83.796 39.5171 83.3729 39.5415C83.0822 39.5584 82.827 39.6348 82.6072 39.7708C82.3874 39.9068 82.218 40.0945 82.0991 40.3337C81.9823 40.5705 81.9331 40.8472 81.9514 41.164ZM88.8656 44.3034C88.5371 44.3224 88.2332 44.276 87.9541 44.164C87.6747 44.0498 87.4477 43.8756 87.2729 43.6414C87.098 43.4049 87.0004 43.1118 86.9802 42.762C86.9646 42.4925 87.0023 42.2627 87.0932 42.0725C87.1842 41.8822 87.3196 41.7226 87.4995 41.5937C87.6794 41.4647 87.895 41.3586 88.1463 41.2753C88.3976 41.192 88.6757 41.1225 88.9808 41.0669C89.2835 41.0115 89.5392 40.9635 89.7479 40.923C89.959 40.8823 90.1183 40.8281 90.2258 40.7602C90.3334 40.6923 90.3832 40.5898 90.3752 40.4527L90.3679 40.3251C90.3464 39.9541 90.2184 39.6686 89.984 39.4687C89.7517 39.2664 89.4288 39.1771 89.0152 39.201C88.6229 39.2237 88.3076 39.3285 88.0694 39.5154C87.8336 39.7022 87.6728 39.9154 87.5871 40.1551L86.9754 39.9735C87.0811 39.6686 87.2375 39.4212 87.4447 39.2314C87.6518 39.0392 87.8878 38.8963 88.1527 38.8027C88.4175 38.7068 88.6881 38.6508 88.9647 38.6348C89.1727 38.6228 89.3905 38.6375 89.6182 38.6789C89.8482 38.7201 90.064 38.8025 90.2656 38.926C90.4671 39.0471 90.635 39.2236 90.7693 39.4553C90.9035 39.6847 90.9811 39.9814 91.0022 40.3453L91.216 44.043L90.585 44.0795L90.5351 43.218L90.4961 43.2203C90.4298 43.3854 90.3266 43.5478 90.1864 43.7077C90.0463 43.8676 89.8667 44.0025 89.6478 44.1123C89.4289 44.2222 89.1681 44.2859 88.8656 44.3034ZM88.9173 43.7206C89.2529 43.7012 89.5393 43.61 89.7765 43.4468C90.0137 43.2837 90.1913 43.0755 90.3095 42.822C90.4299 42.566 90.4814 42.2892 90.4642 41.9914L90.4187 41.2043C90.374 41.252 90.2972 41.2967 90.1881 41.3386C90.0815 41.3803 89.9569 41.4196 89.8143 41.4563C89.674 41.4905 89.5335 41.5211 89.3928 41.5482C89.2521 41.5753 89.1254 41.5993 89.0128 41.62C88.7077 41.6756 88.4488 41.7498 88.236 41.8428C88.0232 41.9357 87.863 42.0564 87.7554 42.2049C87.6477 42.3511 87.6001 42.534 87.6128 42.7538C87.632 43.0847 87.765 43.3343 88.0119 43.5026C88.2586 43.6686 88.5604 43.7413 88.9173 43.7206ZM96.6 38.268L94.9261 43.8285L94.2525 43.8674L91.9487 38.537L92.633 38.4974L94.5163 43.0163L94.5659 43.0134L95.9158 38.3076L96.6 38.268ZM100.163 43.6395C99.6546 43.6689 99.2081 43.5761 98.8234 43.3612C98.4385 43.144 98.1323 42.8309 97.9047 42.4219C97.6793 42.0105 97.5507 41.5294 97.5189 40.9787C97.4872 40.4304 97.5595 39.9377 97.7358 39.5007C97.9143 39.0611 98.175 38.7105 98.518 38.4488C98.8632 38.1846 99.2709 38.0389 99.7412 38.0117C100.037 37.9946 100.325 38.0325 100.605 38.1253C100.885 38.2158 101.141 38.3659 101.371 38.5755C101.603 38.7826 101.793 39.0502 101.94 39.3785C102.087 39.7043 102.174 40.0954 102.2 40.5515L102.218 40.8635L97.964 41.1095L97.9318 40.5529L101.541 40.3442C101.521 39.9944 101.432 39.6842 101.274 39.4135C101.118 39.1403 100.91 38.9294 100.65 38.7808C100.392 38.6321 100.101 38.5671 99.7744 38.586C99.4294 38.6059 99.131 38.7157 98.8793 38.9152C98.6276 39.1147 98.4361 39.3701 98.3047 39.6812C98.1756 39.9922 98.1203 40.3274 98.1387 40.6868L98.158 41.02C98.183 41.4525 98.2793 41.8264 98.447 42.1416C98.6168 42.4543 98.8451 42.6912 99.1319 42.8525C99.4187 43.0138 99.7511 43.0835 100.129 43.0616C100.387 43.0467 100.61 42.9935 100.799 42.9019C100.991 42.8102 101.149 42.6932 101.274 42.5508C101.4 42.4059 101.493 42.25 101.552 42.0829L102.163 42.2433C102.093 42.4773 101.97 42.6967 101.792 42.9014C101.616 43.106 101.391 43.2756 101.117 43.41C100.845 43.5419 100.527 43.6184 100.163 43.6395ZM108.091 43.1917C107.763 43.2107 107.459 43.1642 107.18 43.0523C106.9 42.938 106.673 42.7638 106.499 42.5297C106.324 42.2932 106.226 42 106.206 41.6502C106.19 41.3808 106.228 41.151 106.319 40.9607C106.41 40.7705 106.545 40.6109 106.725 40.4819C106.905 40.353 107.121 40.2468 107.372 40.1635C107.623 40.0802 107.901 40.0108 108.207 39.9552C108.509 39.8997 108.765 39.8518 108.974 39.8112C109.185 39.7706 109.344 39.7163 109.452 39.6484C109.559 39.5806 109.609 39.4781 109.601 39.341L109.594 39.2134C109.572 38.8423 109.444 38.5568 109.21 38.357C108.977 38.1546 108.655 38.0654 108.241 38.0893C107.849 38.112 107.533 38.2168 107.295 38.4037C107.059 38.5904 106.899 38.8036 106.813 39.0434L106.201 38.8618C106.307 38.5568 106.463 38.3095 106.67 38.1196C106.877 37.9274 107.113 37.7846 107.378 37.691C107.643 37.595 107.914 37.5391 108.19 37.5231C108.398 37.5111 108.616 37.5257 108.844 37.5671C109.074 37.6084 109.29 37.6907 109.491 37.8142C109.693 37.9354 109.861 38.1118 109.995 38.3436C110.129 38.5729 110.207 38.8696 110.228 39.2336L110.442 42.9313L109.811 42.9678L109.761 42.1063L109.722 42.1085C109.656 42.2736 109.552 42.4361 109.412 42.596C109.272 42.7558 109.092 42.8907 108.873 43.0006C108.655 43.1105 108.394 43.1742 108.091 43.1917ZM108.143 42.6089C108.479 42.5895 108.765 42.4982 109.002 42.3351C109.239 42.172 109.417 41.9637 109.535 41.7102C109.656 41.4543 109.707 41.1774 109.69 40.8796L109.644 40.0926C109.6 40.1402 109.523 40.185 109.414 40.2269C109.307 40.2686 109.183 40.3078 109.04 40.3445C108.9 40.3787 108.759 40.4094 108.619 40.4365C108.478 40.4636 108.351 40.4875 108.238 40.5082C107.933 40.5638 107.674 40.6381 107.462 40.731C107.249 40.8239 107.089 40.9447 106.981 41.0932C106.873 41.2393 106.826 41.4223 106.839 41.6421C106.858 41.973 106.991 42.2226 107.238 42.3909C107.484 42.5569 107.786 42.6295 108.143 42.6089ZM112.555 39.3943L112.751 42.7977L112.12 42.8342L111.805 37.3887L112.419 37.3533L112.468 38.2077L112.525 38.2044C112.636 37.9181 112.822 37.6833 113.082 37.4999C113.344 37.314 113.674 37.2095 114.074 37.1864C114.44 37.1652 114.766 37.2235 115.051 37.3611C115.339 37.4962 115.568 37.7071 115.739 37.9936C115.912 38.28 116.011 38.6383 116.036 39.0685L116.24 42.596L115.609 42.6325L115.407 39.144C115.381 38.6973 115.236 38.3512 114.97 38.1057C114.707 37.8601 114.366 37.7493 113.948 37.7735C113.662 37.7901 113.411 37.8662 113.196 38.002C112.981 38.1377 112.815 38.3251 112.699 38.5643C112.584 38.8009 112.536 39.0776 112.555 39.3943ZM122.238 42.3736C121.909 42.3926 121.605 42.3462 121.326 42.2343C121.047 42.12 120.82 41.9458 120.645 41.7116C120.47 41.4751 120.372 41.182 120.352 40.8322C120.337 40.5628 120.374 40.3329 120.465 40.1427C120.556 39.9525 120.692 39.7929 120.872 39.6639C121.051 39.5349 121.267 39.4288 121.518 39.3455C121.77 39.2622 122.048 39.1927 122.353 39.1372C122.655 39.0817 122.911 39.0337 123.12 38.9932C123.331 38.9525 123.49 38.8983 123.598 38.8304C123.705 38.7625 123.755 38.6601 123.747 38.523L123.74 38.3953C123.718 38.0243 123.59 37.7388 123.356 37.5389C123.124 37.3366 122.801 37.2474 122.387 37.2713C121.995 37.294 121.68 37.3987 121.441 37.5856C121.206 37.7724 121.045 37.9856 120.959 38.2253L120.347 38.0437C120.453 37.7388 120.61 37.4915 120.817 37.3016C121.024 37.1094 121.26 36.9665 121.525 36.873C121.789 36.777 122.06 36.7211 122.337 36.7051C122.545 36.693 122.762 36.7077 122.99 36.7491C123.22 36.7903 123.436 36.8727 123.638 36.9962C123.839 37.1174 124.007 37.2938 124.141 37.5255C124.275 37.7549 124.353 38.0516 124.374 38.4156L124.588 42.1132L123.957 42.1497L123.907 41.2882L123.868 41.2905C123.802 41.4556 123.699 41.6181 123.558 41.7779C123.418 41.9378 123.239 42.0727 123.02 42.1826C122.801 42.2925 122.54 42.3562 122.238 42.3736ZM122.289 41.7909C122.625 41.7714 122.911 41.6802 123.148 41.5171C123.386 41.354 123.563 41.1457 123.681 40.8922C123.802 40.6363 123.853 40.3594 123.836 40.0616L123.791 39.2746C123.746 39.3222 123.669 39.367 123.56 39.4088C123.453 39.4506 123.329 39.4898 123.186 39.5265C123.046 39.5607 122.906 39.5913 122.765 39.6184C122.624 39.6456 122.497 39.6695 122.385 39.6902C122.08 39.7458 121.821 39.8201 121.608 39.913C121.395 40.0059 121.235 40.1266 121.127 40.2751C121.02 40.4213 120.972 40.6043 120.985 40.8241C121.004 41.155 121.137 41.4046 121.384 41.5729C121.631 41.7388 121.932 41.8115 122.289 41.7909ZM128.4 42.0066C127.913 42.0348 127.482 41.9376 127.106 41.715C126.733 41.4924 126.435 41.1753 126.212 40.7637C125.989 40.3521 125.862 39.8757 125.831 39.3345C125.799 38.7885 125.871 38.297 126.048 37.8599C126.226 37.4228 126.488 37.0733 126.834 36.8114C127.179 36.5472 127.589 36.4013 128.064 36.3739C128.428 36.3528 128.762 36.4047 129.065 36.5294C129.369 36.6518 129.624 36.835 129.83 37.0792C130.038 37.3209 130.177 37.6093 130.246 37.9444L129.608 37.9813C129.524 37.6779 129.35 37.4248 129.084 37.2219C128.821 37.0166 128.495 36.9252 128.108 36.9476C127.76 36.9677 127.459 37.08 127.202 37.2845C126.946 37.4867 126.752 37.7599 126.62 38.1043C126.491 38.4461 126.439 38.8369 126.464 39.2765C126.489 39.7185 126.585 40.1054 126.752 40.4372C126.918 40.7667 127.139 41.0196 127.414 41.1957C127.693 41.3717 128.01 41.4494 128.367 41.4287C128.608 41.4148 128.825 41.3572 129.019 41.2559C129.214 41.1521 129.374 41.0124 129.499 40.8368C129.627 40.6611 129.707 40.456 129.741 40.2217L130.379 40.1848C130.351 40.516 130.251 40.8159 130.079 41.0843C129.91 41.3502 129.681 41.565 129.394 41.7286C129.11 41.8921 128.778 41.9847 128.4 42.0066ZM133.957 41.6853C133.471 41.7134 133.039 41.6162 132.664 41.3937C132.29 41.171 131.992 40.8539 131.769 40.4423C131.546 40.0308 131.419 39.5543 131.388 39.0131C131.356 38.4671 131.428 37.9756 131.605 37.5386C131.783 37.1014 132.045 36.7519 132.391 36.4901C132.736 36.2258 133.146 36.08 133.621 36.0525C133.985 36.0315 134.319 36.0833 134.622 36.208C134.926 36.3304 135.181 36.5137 135.387 36.7579C135.595 36.9996 135.734 37.2879 135.803 37.6231L135.165 37.66C135.081 37.3565 134.907 37.1034 134.641 36.9006C134.378 36.6953 134.053 36.6038 133.665 36.6262C133.317 36.6463 133.016 36.7586 132.76 36.9632C132.503 37.1653 132.309 37.4386 132.177 37.7829C132.048 38.1248 131.996 38.5155 132.021 38.9551C132.047 39.3971 132.143 39.784 132.309 40.1159C132.475 40.4454 132.696 40.6982 132.972 40.8744C133.25 41.0503 133.567 41.128 133.924 41.1074C134.165 41.0935 134.382 41.0358 134.576 40.9345C134.771 40.8307 134.932 40.6911 135.057 40.5155C135.184 40.3397 135.265 40.1347 135.298 39.9003L135.937 39.8634C135.908 40.1947 135.808 40.4945 135.636 40.7629C135.467 41.0288 135.239 41.2436 134.952 41.4072C134.667 41.5707 134.336 41.6634 133.957 41.6853ZM139.504 41.3645C139.034 41.3917 138.611 41.2964 138.235 41.0786C137.862 40.8607 137.562 40.5472 137.334 40.1383C137.107 39.727 136.977 39.2448 136.945 38.6918C136.913 38.134 136.986 37.6377 137.165 37.2029C137.343 36.7657 137.605 36.4185 137.951 36.1614C138.299 35.9018 138.708 35.7584 139.178 35.7312C139.649 35.704 140.07 35.7994 140.443 36.0173C140.816 36.2352 141.117 36.5499 141.344 36.9612C141.575 37.3723 141.706 37.8568 141.738 38.4146C141.77 38.9676 141.697 39.4616 141.518 39.8964C141.339 40.3288 141.075 40.6749 140.728 40.9345C140.382 41.194 139.974 41.3373 139.504 41.3645ZM139.471 40.7867C139.849 40.7648 140.163 40.6446 140.414 40.4262C140.664 40.2078 140.847 39.9257 140.962 39.5799C141.08 39.234 141.127 38.8578 141.103 38.4513C141.08 38.0448 140.99 37.6753 140.833 37.3429C140.679 37.0103 140.464 36.7488 140.19 36.5584C139.916 36.3679 139.59 36.2836 139.211 36.3055C138.836 36.3272 138.521 36.4486 138.268 36.6695C138.018 36.8903 137.834 37.1748 137.717 37.5231C137.602 37.8712 137.556 38.2485 137.579 38.6551C137.603 39.0616 137.692 39.4299 137.846 39.7601C138.003 40.0902 138.218 40.3492 138.492 40.5373C138.766 40.7254 139.092 40.8085 139.471 40.7867ZM146.619 38.7513L146.424 35.3869L147.056 35.3504L147.37 40.7958L146.739 40.8323L146.687 39.9283L146.637 39.9311C146.526 40.2174 146.337 40.4619 146.072 40.6646C145.806 40.865 145.473 40.9767 145.074 40.9998C144.726 41.0199 144.413 40.9621 144.135 40.8264C143.857 40.6883 143.632 40.476 143.462 40.1895C143.291 39.9029 143.193 39.5446 143.168 39.1144L142.964 35.5869L143.595 35.5505L143.797 39.0389C143.822 39.4644 143.967 39.7998 144.232 40.0453C144.498 40.2885 144.827 40.3987 145.219 40.376C145.465 40.3618 145.698 40.289 145.918 40.1577C146.138 40.0264 146.315 39.8431 146.448 39.6077C146.581 39.37 146.638 39.0845 146.619 38.7513ZM149.475 37.2593L149.672 40.6627L149.041 40.6992L148.726 35.2538L149.34 35.2183L149.389 36.0727L149.446 36.0694C149.557 35.7831 149.743 35.5483 150.003 35.3649C150.264 35.179 150.595 35.0745 150.995 35.0514C151.361 35.0303 151.687 35.0885 151.972 35.2261C152.26 35.3613 152.489 35.5721 152.66 35.8587C152.833 36.1451 152.932 36.5033 152.957 36.9335L153.161 40.461L152.53 40.4975L152.328 37.009C152.302 36.5623 152.156 36.2162 151.891 35.9707C151.628 35.7251 151.287 35.6143 150.868 35.6385C150.582 35.6551 150.332 35.7312 150.117 35.867C149.902 36.0027 149.736 36.1902 149.619 36.4293C149.505 36.6659 149.457 36.9426 149.475 37.2593ZM156.652 34.7954L156.684 35.3449L154.086 35.4952L154.054 34.9457L156.652 34.7954ZM154.79 33.5941L155.425 33.5574L155.733 38.8859C155.746 39.1128 155.795 39.2889 155.881 39.4144C155.966 39.5375 156.073 39.6227 156.202 39.6698C156.33 39.7145 156.465 39.7328 156.607 39.7246C156.689 39.7198 156.76 39.711 156.819 39.6981C156.877 39.6829 156.928 39.6681 156.972 39.6536L157.14 40.2166C157.08 40.2438 157.006 40.2695 156.917 40.2936C156.828 40.32 156.718 40.3371 156.586 40.3447C156.354 40.3581 156.128 40.3202 155.907 40.2311C155.688 40.1417 155.505 40.0006 155.356 39.8076C155.207 39.6146 155.124 39.3693 155.107 39.0715L154.79 33.5941ZM161.766 42.0122C161.641 42.0195 161.523 42.0144 161.413 41.9971C161.303 41.9797 161.215 41.9587 161.15 41.9341L161.288 41.3676C161.507 41.4214 161.699 41.4339 161.866 41.4053C162.033 41.3791 162.177 41.2948 162.3 41.1526C162.422 41.0127 162.526 40.8028 162.612 40.5227L162.778 39.9582L160.457 34.5754L161.142 34.5358L163.025 39.0547L163.075 39.0518L164.424 34.346L165.109 34.3064L163.169 40.7466C163.087 41.0146 162.981 41.2401 162.849 41.4232C162.717 41.6086 162.561 41.7493 162.379 41.8452C162.2 41.9433 161.995 41.999 161.766 42.0122ZM168.586 39.6828C168.116 39.71 167.693 39.6147 167.318 39.3969C166.945 39.179 166.644 38.8655 166.417 38.4566C166.189 38.0453 166.059 37.5631 166.027 37.01C165.995 36.4523 166.068 35.956 166.247 35.5211C166.426 35.084 166.688 34.7368 167.033 34.4797C167.381 34.2201 167.79 34.0767 168.26 34.0495C168.731 34.0223 169.152 34.1176 169.526 34.3356C169.899 34.5535 170.199 34.8681 170.427 35.2794C170.657 35.6906 170.788 36.1751 170.82 36.7329C170.852 37.2859 170.779 37.7799 170.6 38.2147C170.421 38.6471 170.158 38.9932 169.81 39.2528C169.464 39.5123 169.057 39.6556 168.586 39.6828ZM168.553 39.1049C168.931 39.0831 169.245 38.9629 169.496 38.7445C169.747 38.5261 169.929 38.244 170.045 37.8982C170.162 37.5523 170.209 37.1761 170.186 36.7696C170.162 36.3631 170.072 35.9936 169.915 35.6612C169.761 35.3286 169.547 35.0671 169.272 34.8767C168.998 34.6862 168.672 34.6019 168.294 34.6238C167.918 34.6455 167.604 34.7669 167.351 34.9878C167.1 35.2086 166.916 35.4931 166.799 35.8414C166.684 36.1895 166.638 36.5668 166.662 36.9733C166.685 37.3799 166.774 37.7482 166.928 38.0784C167.085 38.4085 167.3 38.6675 167.574 38.8556C167.849 39.0437 168.175 39.1268 168.553 39.1049ZM175.701 37.0696L175.507 33.7051L176.138 33.6687L176.453 39.1141L175.822 39.1506L175.769 38.2466L175.72 38.2494C175.608 38.5357 175.42 38.7802 175.154 38.9829C174.888 39.1832 174.555 39.295 174.156 39.3181C173.809 39.3381 173.496 39.2803 173.218 39.1447C172.939 39.0066 172.715 38.7943 172.544 38.5078C172.373 38.2212 172.275 37.8629 172.251 37.4327L172.047 33.9052L172.678 33.8687L172.879 37.3572C172.904 37.7827 173.049 38.1181 173.315 38.3636C173.58 38.6067 173.909 38.717 174.301 38.6943C174.547 38.6801 174.78 38.6073 175 38.476C175.22 38.3447 175.397 38.1614 175.53 37.926C175.664 37.6883 175.721 37.4028 175.701 37.0696ZM180.931 38.8551L180.616 33.4097L181.23 33.3742L181.278 34.2109L181.335 34.2076C181.427 33.9201 181.595 33.6886 181.839 33.5133C182.085 33.3354 182.386 33.2362 182.743 33.2156C183.119 33.1938 183.432 33.2646 183.684 33.4279C183.937 33.5888 184.133 33.8193 184.271 34.1196L184.317 34.1169C184.423 33.8073 184.609 33.5559 184.875 33.3626C185.143 33.1669 185.476 33.0575 185.873 33.0345C186.379 33.0053 186.788 33.1417 187.099 33.4439C187.411 33.7436 187.584 34.1984 187.619 34.8082L187.83 38.4562L187.199 38.4927L186.988 34.8447C186.963 34.4145 186.835 34.0982 186.603 33.8959C186.37 33.6935 186.075 33.6027 185.715 33.6235C185.299 33.6475 184.986 33.7937 184.777 34.0619C184.567 34.3302 184.473 34.6605 184.496 35.0528L184.703 38.637L184.058 38.6743L183.844 34.9696C183.823 34.6009 183.702 34.309 183.484 34.094C183.265 33.879 182.969 33.7823 182.595 33.8039C182.345 33.8184 182.123 33.8929 181.929 34.0274C181.738 34.1618 181.59 34.3422 181.487 34.5687C181.386 34.7927 181.344 35.0465 181.361 35.3301L181.562 38.8186L180.931 38.8551ZM192.841 36.0784L192.646 32.714L193.277 32.6776L193.592 38.123L192.961 38.1595L192.909 37.2555L192.859 37.2583C192.748 37.5446 192.559 37.7891 192.293 37.9918C192.027 38.1921 191.695 38.3039 191.295 38.327C190.948 38.347 190.635 38.2892 190.357 38.1536C190.079 38.0155 189.854 37.8032 189.683 37.5167C189.513 37.2301 189.415 36.8718 189.39 36.4416L189.186 32.9141L189.817 32.8776L190.019 36.3661C190.043 36.7916 190.188 37.127 190.454 37.3725C190.719 37.6156 191.048 37.7259 191.441 37.7032C191.686 37.689 191.919 37.6162 192.139 37.4849C192.359 37.3536 192.536 37.1703 192.67 36.9349C192.803 36.6972 192.86 36.4117 192.841 36.0784ZM198.676 33.5641L198.107 33.7606C198.041 33.6008 197.952 33.4577 197.84 33.3314C197.729 33.2051 197.587 33.1077 197.414 33.0394C197.245 32.971 197.037 32.9439 196.791 32.9581C196.422 32.9794 196.125 33.0844 195.898 33.273C195.672 33.4615 195.567 33.6941 195.583 33.9706C195.597 34.2046 195.688 34.3902 195.857 34.5274C196.029 34.6622 196.286 34.7623 196.629 34.8279L197.463 34.9824C197.925 35.0671 198.277 35.2234 198.518 35.4514C198.761 35.6792 198.893 35.9751 198.914 36.339C198.932 36.6463 198.863 36.9242 198.706 37.1728C198.55 37.4213 198.323 37.6229 198.026 37.7776C197.732 37.9299 197.385 38.0175 196.985 38.0406C196.453 38.0714 196.008 37.9774 195.649 37.7586C195.29 37.5375 195.049 37.2028 194.926 36.7546L195.524 36.5707C195.62 36.89 195.787 37.1258 196.023 37.2781C196.262 37.4303 196.568 37.4956 196.942 37.474C197.36 37.4498 197.689 37.3371 197.929 37.1359C198.168 36.9323 198.28 36.6887 198.264 36.4051C198.251 36.1853 198.167 36.0052 198.012 35.8648C197.857 35.722 197.628 35.6238 197.326 35.5701L196.424 35.4088C195.945 35.3227 195.584 35.1633 195.343 34.9306C195.102 34.698 194.971 34.3996 194.95 34.0356C194.933 33.7355 194.999 33.4672 195.149 33.2309C195.299 32.9922 195.513 32.7996 195.791 32.6531C196.07 32.5066 196.392 32.4227 196.759 32.4015C197.257 32.3727 197.662 32.4631 197.973 32.6728C198.286 32.88 198.52 33.1771 198.676 33.5641ZM202.211 32.1609L202.243 32.7104L199.644 32.8607L199.612 32.3112L202.211 32.1609ZM200.349 30.9596L200.983 30.9229L201.292 36.2514C201.305 36.4783 201.354 36.6545 201.44 36.7799C201.525 36.9031 201.632 36.9882 201.76 37.0353C201.888 37.08 202.024 37.0983 202.165 37.0901C202.248 37.0853 202.319 37.0765 202.377 37.0636C202.436 37.0484 202.487 37.0336 202.531 37.0192L202.699 37.5822C202.639 37.6093 202.564 37.635 202.476 37.6591C202.387 37.6856 202.277 37.7026 202.144 37.7103C201.913 37.7237 201.686 37.6858 201.465 37.5966C201.247 37.5072 201.063 37.3661 200.914 37.1731C200.766 36.9802 200.683 36.7348 200.666 36.437L200.349 30.9596ZM208.597 31.7917L208.629 32.3412L206.03 32.4914L205.998 31.9419L208.597 31.7917ZM206.735 30.5904L207.369 30.5537L207.677 35.8821C207.691 36.109 207.74 36.2852 207.825 36.4107C207.911 36.5338 208.018 36.6189 208.146 36.666C208.274 36.7108 208.409 36.7291 208.551 36.7209C208.634 36.7161 208.704 36.7072 208.763 36.6944C208.821 36.6791 208.873 36.6643 208.917 36.6499L209.085 37.2129C209.025 37.2401 208.95 37.2657 208.861 37.2898C208.773 37.3163 208.662 37.3333 208.53 37.341C208.298 37.3544 208.072 37.3165 207.851 37.2273C207.633 37.138 207.449 36.9968 207.3 36.8039C207.152 36.6109 207.069 36.3655 207.051 36.0677L206.735 30.5904ZM212.41 37.1487C211.939 37.1759 211.516 37.0806 211.141 36.8628C210.768 36.6448 210.468 36.3314 210.24 35.9225C210.012 35.5111 209.882 35.029 209.85 34.4759C209.818 33.9181 209.891 33.4218 210.07 32.987C210.249 32.5498 210.511 32.2027 210.857 31.9456C211.204 31.6859 211.613 31.5425 212.084 31.5153C212.554 31.4881 212.976 31.5835 213.349 31.8014C213.722 32.0194 214.022 32.334 214.25 32.7453C214.48 33.1565 214.611 33.641 214.643 34.1987C214.675 34.7518 214.602 35.2457 214.423 35.6805C214.244 36.113 213.981 36.459 213.633 36.7187C213.288 36.9781 212.88 37.1215 212.41 37.1487ZM212.376 36.5708C212.754 36.5489 213.069 36.4288 213.319 36.2104C213.57 35.9919 213.753 35.7098 213.868 35.3641C213.985 35.0182 214.032 34.642 214.009 34.2354C213.985 33.8289 213.895 33.4595 213.739 33.127C213.584 32.7945 213.37 32.533 213.096 32.3425C212.821 32.1521 212.495 32.0678 212.117 32.0897C211.741 32.1114 211.427 32.2327 211.174 32.4537C210.924 32.6744 210.74 32.959 210.622 33.3072C210.507 33.6554 210.461 34.0327 210.485 34.4392C210.508 34.8457 210.597 35.2141 210.752 35.5443C210.908 35.8743 211.124 36.1334 211.398 36.3215C211.672 36.5096 211.998 36.5927 212.376 36.5708ZM27.7373 63.7405L27.4224 58.295L28.0358 58.2595L28.0841 59.0962L28.1302 59.0936C28.2231 58.8131 28.3994 58.5812 28.6591 58.3978C28.9211 58.2119 29.2234 58.1091 29.5661 58.0892C29.6181 58.0862 29.6761 58.0841 29.74 58.0827C29.804 58.0814 29.8573 58.0807 29.9 58.0806L29.9371 58.7223C29.9085 58.7192 29.8584 58.715 29.787 58.7096C29.7155 58.7043 29.6384 58.704 29.5557 58.7088C29.2721 58.7252 29.0227 58.8001 28.8075 58.9334C28.5945 59.0643 28.4303 59.2386 28.3148 59.4564C28.1994 59.6741 28.1494 59.9177 28.165 60.1871L28.3684 63.704L27.7373 63.7405ZM33.3382 63.5304C32.8301 63.5598 32.3836 63.467 31.9989 63.2521C31.614 63.0349 31.3078 62.7218 31.0802 62.3129C30.8549 61.9014 30.7263 61.4203 30.6944 60.8696C30.6627 60.3213 30.735 59.8286 30.9113 59.3916C31.0898 58.9521 31.3506 58.6014 31.6935 58.3397C32.0387 58.0755 32.4464 57.9298 32.9168 57.9026C33.2122 57.8855 33.5001 57.9234 33.7806 58.0163C34.0609 58.1068 34.3162 58.2568 34.5465 58.4664C34.779 58.6735 34.9688 58.9412 35.1158 59.2694C35.2627 59.5953 35.3493 59.9863 35.3757 60.4424L35.3938 60.7544L31.1395 61.0004L31.1073 60.4438L34.7163 60.2351C34.6961 59.8853 34.607 59.5751 34.4491 59.3044C34.2934 59.0312 34.0856 58.8203 33.8256 58.6717C33.568 58.523 33.2761 58.4581 32.95 58.4769C32.6049 58.4969 32.3065 58.6066 32.0548 58.8061C31.8032 59.0057 31.6116 59.261 31.4802 59.5721C31.3512 59.8831 31.2958 60.2183 31.3143 60.5777L31.3335 60.9109C31.3585 61.3435 31.4549 61.7173 31.6225 62.0325C31.7923 62.3452 32.0206 62.5822 32.3074 62.7434C32.5942 62.9047 32.9267 62.9744 33.3048 62.9525C33.5624 62.9376 33.7858 62.8844 33.975 62.7928C34.1665 62.7011 34.3245 62.5841 34.4491 62.4417C34.5759 62.2969 34.6689 62.1409 34.728 61.9739L35.3384 62.1342C35.2689 62.3682 35.1452 62.5876 34.9674 62.7924C34.7919 62.997 34.5669 63.1665 34.2925 63.3009C34.0203 63.4329 33.7022 63.5094 33.3382 63.5304ZM39.1331 65.2442C38.762 65.2656 38.4342 65.236 38.1498 65.1552C37.8654 65.0768 37.6227 64.9604 37.4217 64.806C37.2207 64.6517 37.0611 64.4747 36.9428 64.2753L37.4407 63.905C37.5267 64.0376 37.6384 64.1663 37.7761 64.2911C37.9161 64.4158 38.0938 64.5158 38.3092 64.5911C38.527 64.6662 38.7907 64.6949 39.1003 64.677C39.5824 64.6491 39.9643 64.5061 40.2458 64.2479C40.5296 63.9896 40.6568 63.6064 40.6275 63.0982L40.5565 61.8716L40.4998 61.8749C40.4361 62.0445 40.3405 62.2161 40.213 62.3894C40.0853 62.5604 39.9136 62.7067 39.6977 62.8283C39.4842 62.9497 39.2143 63.0199 38.8882 63.0387C38.4533 63.0639 38.0606 62.9787 37.7102 62.7832C37.3622 62.5875 37.0797 62.2955 36.8628 61.9073C36.6481 61.5166 36.5247 61.0435 36.4926 60.4881C36.4608 59.9374 36.5261 59.4475 36.6886 59.0184C36.8535 58.5891 37.0982 58.2477 37.4226 57.9942C37.7471 57.7407 38.1338 57.6009 38.5829 57.5749C38.9161 57.5557 39.1961 57.5988 39.4227 57.7042C39.6492 57.8073 39.8336 57.9413 39.976 58.1062C40.1207 58.271 40.2355 58.4327 40.3206 58.5914L40.3844 58.5877L40.3244 57.5489L40.9412 57.5133L41.2643 63.1005C41.291 63.5614 41.2148 63.9464 41.0359 64.2556C40.8569 64.5647 40.6026 64.7999 40.2728 64.9613C39.9431 65.125 39.5632 65.2193 39.1331 65.2442ZM38.9292 62.4566C39.279 62.4363 39.5731 62.3351 39.8116 62.153C40.0499 61.9685 40.2261 61.714 40.3401 61.3897C40.4542 61.0653 40.4986 60.6845 40.4733 60.2473C40.4487 59.8218 40.3619 59.4486 40.2129 59.1276C40.0638 58.8042 39.8597 58.5552 39.6006 58.3805C39.3437 58.2032 39.0368 58.1249 38.6799 58.1456C38.3159 58.1666 38.0144 58.2825 37.7752 58.4931C37.536 58.7038 37.3622 58.9794 37.2539 59.3201C37.1454 59.6583 37.1029 60.0319 37.1266 60.4408C37.1506 60.8568 37.2369 61.2205 37.3853 61.5321C37.5336 61.8413 37.7383 62.0784 37.9992 62.2436C38.2599 62.4063 38.57 62.4773 38.9292 62.4566ZM42.9339 62.8617L42.619 57.4163L43.2536 57.3796L43.5685 62.825L42.9339 62.8617ZM42.8875 56.4617C42.7575 56.4692 42.6439 56.4319 42.5467 56.3498C42.4493 56.2653 42.397 56.1604 42.3897 56.0351C42.3825 55.9099 42.4224 55.8009 42.5095 55.7081C42.5965 55.6129 42.705 55.5616 42.835 55.5541C42.965 55.5466 43.0787 55.5851 43.176 55.6695C43.2733 55.7517 43.3255 55.8553 43.3328 55.9806C43.34 56.1059 43.3001 56.2161 43.2132 56.3112C43.126 56.404 43.0175 56.4541 42.8875 56.4617ZM48.6502 58.2662L48.0818 58.4627C48.0157 58.3029 47.9268 58.1598 47.8151 58.0335C47.7035 57.9072 47.5615 57.8099 47.3892 57.7416C47.2192 57.6731 47.0113 57.646 46.7655 57.6602C46.3968 57.6816 46.0994 57.7865 45.8731 57.9751C45.6469 58.1636 45.5418 58.3962 45.5578 58.6727C45.5713 58.9067 45.6626 59.0923 45.8318 59.2295C46.0033 59.3643 46.2604 59.4644 46.6033 59.53L47.4375 59.6845C47.9001 59.7692 48.2518 59.9255 48.4926 60.1535C48.7358 60.3813 48.8679 60.6772 48.889 61.0412C48.9067 61.3484 48.8374 61.6263 48.6811 61.8749C48.5247 62.1234 48.298 62.325 48.0011 62.4798C47.7063 62.632 47.3593 62.7196 46.9598 62.7427C46.428 62.7735 45.9827 62.6795 45.6239 62.4607C45.2648 62.2396 45.0238 61.9049 44.9006 61.4568L45.4982 61.2728C45.595 61.5921 45.7616 61.8279 45.998 61.9802C46.2368 62.1324 46.543 62.1977 46.9164 62.1761C47.3347 62.1519 47.6638 62.0392 47.9035 61.838C48.1431 61.6345 48.2547 61.3909 48.2383 61.1072C48.2256 60.8874 48.1416 60.7073 47.9865 60.5669C47.8312 60.4241 47.6026 60.3259 47.3007 60.2722L46.3986 60.1109C45.9193 60.0248 45.5591 59.8654 45.318 59.6327C45.0769 59.4001 44.9459 59.1017 44.9248 58.7378C44.9074 58.4376 44.9737 58.1694 45.1237 57.933C45.2735 57.6943 45.4877 57.5017 45.7661 57.3552C46.0446 57.2087 46.367 57.1248 46.7333 57.1036C47.232 57.0748 47.6368 57.1652 47.9478 57.3749C48.2609 57.5821 48.4951 57.8792 48.6502 58.2662ZM52.1858 56.863L52.2175 57.4126L49.6189 57.5628L49.5871 57.0133L52.1858 56.863ZM50.3235 55.6617L50.9581 55.625L51.2662 60.9535C51.2794 61.1804 51.3287 61.3566 51.4142 61.4821C51.4996 61.6052 51.6065 61.6903 51.7349 61.7374C51.8631 61.7822 51.9982 61.8004 52.14 61.7922C52.2227 61.7874 52.2933 61.7786 52.3519 61.7658C52.4103 61.7505 52.4616 61.7357 52.5058 61.7213L52.6735 62.2843C52.6135 62.3115 52.5391 62.3371 52.4503 62.3612C52.3618 62.3877 52.2513 62.4047 52.1189 62.4124C51.8873 62.4258 51.661 62.3879 51.4401 62.2987C51.2215 62.2094 51.0378 62.0682 50.8891 61.8752C50.7404 61.6823 50.6575 61.4369 50.6403 61.1391L50.3235 55.6617ZM56.0834 62.2151C55.5753 62.2445 55.1289 62.1518 54.7441 61.9369C54.3592 61.7196 54.053 61.4065 53.8254 60.9976C53.6001 60.5861 53.4715 60.1051 53.4396 59.5544C53.4079 59.0061 53.4802 58.5134 53.6565 58.0763C53.835 57.6368 54.0958 57.2862 54.4387 57.0244C54.7839 56.7602 55.1916 56.6145 55.662 56.5873C55.9574 56.5702 56.2453 56.6081 56.5258 56.701C56.8061 56.7915 57.0614 56.9416 57.2917 57.1511C57.5242 57.3582 57.714 57.6259 57.861 57.9541C58.0079 58.28 58.0945 58.671 58.1209 59.1272L58.139 59.4391L53.8847 59.6852L53.8525 59.1286L57.4616 58.9199C57.4413 58.5701 57.3522 58.2598 57.1943 57.9891C57.0386 57.7159 56.8308 57.5051 56.5708 57.3565C56.3132 57.2077 56.0213 57.1428 55.6952 57.1617C55.3501 57.1816 55.0517 57.2913 54.8 57.4909C54.5484 57.6904 54.3568 57.9457 54.2254 58.2569C54.0964 58.5679 54.0411 58.903 54.0595 59.2624L54.0787 59.5957C54.1037 60.0282 54.2001 60.402 54.3677 60.7172C54.5375 61.0299 54.7658 61.2669 55.0526 61.4282C55.3394 61.5894 55.6719 61.6591 56.05 61.6373C56.3076 61.6224 56.531 61.5691 56.7202 61.4776C56.9117 61.3859 57.0698 61.2688 57.1943 61.1265C57.3211 60.9816 57.4141 60.8256 57.4732 60.6586L58.0836 60.8189C58.0141 61.053 57.8905 61.2724 57.7126 61.4771C57.5371 61.6817 57.3121 61.8512 57.0377 61.9857C56.7655 62.1176 56.4474 62.1941 56.0834 62.2151ZM59.6762 61.8936L59.3613 56.4481L59.9746 56.4126L60.023 57.2493L60.0691 57.2467C60.1619 56.9662 60.3382 56.7343 60.598 56.5509C60.8599 56.365 61.1622 56.2622 61.505 56.2423C61.5569 56.2393 61.6149 56.2372 61.6789 56.2358C61.7428 56.2345 61.7961 56.2338 61.8388 56.2337L61.8759 56.8754C61.8473 56.8723 61.7972 56.8681 61.7258 56.8627C61.6543 56.8574 61.5773 56.8571 61.4945 56.8619C61.2109 56.8783 60.9615 56.9532 60.7463 57.0866C60.5333 57.2174 60.3691 57.3917 60.2537 57.6095C60.1382 57.8272 60.0883 58.0708 60.1038 58.3402L60.3072 61.8571L59.6762 61.8936ZM67.8724 55.9559L67.9042 56.5055L65.3056 56.6557L65.2738 56.1062L67.8724 55.9559ZM66.0102 54.7546L66.6448 54.7179L66.9529 60.0464C66.966 60.2733 67.0154 60.4495 67.1009 60.575C67.1863 60.6981 67.2931 60.7832 67.4215 60.8303C67.5498 60.8751 67.6849 60.8933 67.8267 60.8851C67.9094 60.8803 67.98 60.8715 68.0386 60.8587C68.097 60.8434 68.1483 60.8286 68.1925 60.8142L68.3602 61.3772C68.3001 61.4044 68.2257 61.43 68.137 61.4541C68.0484 61.4806 67.938 61.4976 67.8056 61.5053C67.574 61.5187 67.3477 61.4808 67.1268 61.3916C66.9082 61.3023 66.7245 61.1611 66.5758 60.9681C66.4271 60.7752 66.3442 60.5298 66.3269 60.232L66.0102 54.7546ZM71.685 61.313C71.2147 61.3402 70.7918 61.2449 70.4164 61.0271C70.0434 60.8091 69.743 60.4957 69.5155 60.0867C69.2877 59.6754 69.1579 59.1932 69.1259 58.6402C69.0937 58.0824 69.1669 57.5861 69.3457 57.1513C69.5244 56.7141 69.7865 56.367 70.1321 56.1098C70.4799 55.8502 70.889 55.7068 71.3593 55.6796C71.8296 55.6524 72.2513 55.7478 72.6244 55.9657C72.9974 56.1837 73.2978 56.4983 73.5255 56.9096C73.7556 57.3208 73.8868 57.8052 73.919 58.363C73.951 58.9161 73.8776 59.41 73.6988 59.8448C73.5199 60.2773 73.2565 60.6233 72.9087 60.8829C72.5633 61.1424 72.1554 61.2858 71.685 61.313ZM71.6516 60.7351C72.0298 60.7132 72.3442 60.5931 72.5947 60.3746C72.8453 60.1562 73.0282 59.8741 73.1434 59.5284C73.2609 59.1824 73.3079 58.8062 73.2844 58.3997C73.2609 57.9932 73.1708 57.6237 73.014 57.2913C72.8596 56.9588 72.6453 56.6973 72.3711 56.5068C72.0968 56.3164 71.7707 56.2321 71.3925 56.2539C71.0167 56.2757 70.7024 56.397 70.4496 56.6179C70.1991 56.8387 70.0152 57.1233 69.8978 57.4715C69.7828 57.8197 69.737 58.197 69.7605 58.6035C69.784 59.01 69.8729 59.3784 70.0272 59.7086C70.1838 60.0386 70.3991 60.2977 70.6732 60.4858C70.9473 60.6738 71.2735 60.757 71.6516 60.7351ZM80.4703 62.8538C80.0992 62.8753 79.7714 62.8456 79.4869 62.7648C79.2026 62.6864 78.9599 62.57 78.7589 62.4157C78.5579 62.2613 78.3983 62.0844 78.28 61.8849L78.7779 61.5146C78.8639 61.6472 78.9756 61.7759 79.1133 61.9007C79.2533 62.0254 79.431 62.1254 79.6464 62.2007C79.8642 62.2759 80.1279 62.3045 80.4375 62.2866C80.9196 62.2587 81.3015 62.1157 81.5829 61.8575C81.8668 61.5992 81.994 61.216 81.9647 60.7079L81.8937 59.4812L81.837 59.4845C81.7733 59.6542 81.6777 59.8257 81.5502 59.9991C81.4225 60.1701 81.2508 60.3164 81.0349 60.4379C80.8214 60.5594 80.5515 60.6295 80.2254 60.6484C79.7905 60.6735 79.3978 60.5883 79.0474 60.3928C78.6994 60.1971 78.4169 59.9052 78.2 59.517C77.9853 59.1262 77.8619 58.6532 77.8298 58.0978C77.798 57.5471 77.8633 57.0571 78.0258 56.628C78.1907 56.1987 78.4354 55.8574 78.7598 55.6038C79.0843 55.3503 79.471 55.2105 79.9201 55.1846C80.2533 55.1653 80.5333 55.2084 80.7599 55.3139C80.9864 55.417 81.1708 55.551 81.3132 55.7158C81.4579 55.8806 81.5727 56.0423 81.6578 56.201L81.7216 56.1973L81.6616 55.1586L82.2784 55.1229L82.6015 60.7102C82.6282 61.171 82.552 61.556 82.3731 61.8652C82.1941 62.1743 81.9398 62.4096 81.61 62.5709C81.2803 62.7346 80.9004 62.8289 80.4703 62.8538ZM80.2664 60.0662C80.6162 60.046 80.9103 59.9448 81.1488 59.7626C81.3871 59.5781 81.5633 59.3237 81.6773 58.9993C81.7914 58.6749 81.8358 58.2941 81.8105 57.8569C81.7859 57.4315 81.6991 57.0583 81.5501 56.7372C81.401 56.4139 81.1968 56.1648 80.9377 55.9901C80.6809 55.8129 80.374 55.7346 80.0171 55.7552C79.6531 55.7763 79.3516 55.8921 79.1124 56.1028C78.8732 56.3134 78.6994 56.5891 78.5911 56.9297C78.4826 57.268 78.4401 57.6415 78.4638 58.0504C78.4878 58.4664 78.5741 58.8302 78.7225 59.1417C78.8708 59.4509 79.0754 59.6881 79.3364 59.8532C79.5971 60.016 79.9072 60.087 80.2664 60.0662ZM85.7921 60.5079C85.4635 60.5269 85.1597 60.4804 84.8805 60.3685C84.6012 60.2542 84.3741 60.08 84.1993 59.8459C84.0244 59.6094 83.9268 59.3162 83.9066 58.9664C83.891 58.697 83.9287 58.4672 84.0197 58.2769C84.1107 58.0867 84.2461 57.9271 84.426 57.7981C84.6058 57.6692 84.8214 57.563 85.0727 57.4797C85.324 57.3964 85.6022 57.327 85.9073 57.2714C86.21 57.216 86.4657 57.168 86.6744 57.1274C86.8854 57.0868 87.0447 57.0325 87.1523 56.9646C87.2598 56.8968 87.3096 56.7943 87.3017 56.6572L87.2943 56.5296C87.2728 56.1585 87.1449 55.873 86.9104 55.6732C86.6782 55.4708 86.3553 55.3816 85.9416 55.4055C85.5493 55.4282 85.234 55.533 84.9959 55.7199C84.76 55.9066 84.5993 56.1198 84.5135 56.3596L83.9019 56.178C84.0075 55.8731 84.164 55.6257 84.3712 55.4359C84.5782 55.2437 84.8142 55.1008 85.0791 55.0072C85.3439 54.9113 85.6146 54.8553 85.8911 54.8393C86.0991 54.8273 86.3169 54.8419 86.5446 54.8833C86.7746 54.9246 86.9905 55.0069 87.1921 55.1304C87.3935 55.2516 87.5614 55.428 87.6958 55.6598C87.83 55.8892 87.9076 56.1858 87.9286 56.5498L88.1425 60.2475L87.5114 60.284L87.4616 59.4225L87.4226 59.4247C87.3563 59.5898 87.253 59.7523 87.1129 59.9122C86.9727 60.072 86.7932 60.2069 86.5742 60.3168C86.3553 60.4267 86.0946 60.4904 85.7921 60.5079ZM85.8437 59.9251C86.1793 59.9057 86.4657 59.8144 86.7029 59.6513C86.9401 59.4882 87.1178 59.2799 87.2359 59.0265C87.3563 58.7705 87.4079 58.4936 87.3907 58.1958L87.3451 57.4088C87.3005 57.4564 87.2236 57.5012 87.1146 57.5431C87.0079 57.5848 86.8833 57.624 86.7408 57.6607C86.6005 57.6949 86.46 57.7256 86.3193 57.7527C86.1785 57.7798 86.0519 57.8037 85.9392 57.8245C85.6342 57.88 85.3752 57.9543 85.1625 58.0472C84.9497 58.1402 84.7895 58.2609 84.6818 58.4094C84.5741 58.5555 84.5266 58.7385 84.5393 58.9583C84.5584 59.2892 84.6914 59.5388 84.9383 59.7071C85.185 59.8731 85.4868 59.9457 85.8437 59.9251ZM89.8282 60.15L89.5133 54.7045L90.1479 54.6678L90.4628 60.1133L89.8282 60.15ZM89.7818 53.7499C89.6518 53.7575 89.5382 53.7202 89.441 53.638C89.3436 53.5536 89.2913 53.4487 89.2841 53.3234C89.2768 53.1982 89.3167 53.0891 89.4039 52.9964C89.4908 52.9012 89.5993 52.8499 89.7293 52.8424C89.8593 52.8349 89.973 52.8733 90.0704 52.9578C90.1676 53.0399 90.2198 53.1436 90.2271 53.2689C90.2343 53.3942 90.1945 53.5044 90.1075 53.5995C90.0204 53.6923 89.9118 53.7424 89.7818 53.7499ZM92.5659 56.5769L92.7628 59.9803L92.1317 60.0168L91.8168 54.5713L92.4301 54.5359L92.4795 55.3903L92.5363 55.387C92.6478 55.1007 92.8334 54.8659 93.0931 54.6825C93.3551 54.4966 93.6858 54.3921 94.0852 54.369C94.4515 54.3478 94.7774 54.4061 95.0628 54.5437C95.3505 54.6788 95.5796 54.8897 95.7503 55.1762C95.9234 55.4626 96.0224 55.8209 96.0473 56.2511L96.2512 59.7786L95.6202 59.8151L95.4185 56.3266C95.3926 55.8799 95.2469 55.5338 94.9814 55.2883C94.7182 55.0426 94.3774 54.9319 93.9591 54.9561C93.6731 54.9727 93.4226 55.0488 93.2075 55.1845C92.9925 55.3203 92.8266 55.5077 92.71 55.7469C92.5957 55.9835 92.5476 56.2602 92.5659 56.5769ZM102.249 59.5562C101.92 59.5752 101.617 59.5288 101.337 59.4169C101.058 59.3026 100.831 59.1284 100.656 58.8942C100.481 58.6577 100.384 58.3646 100.363 58.0148C100.348 57.7454 100.386 57.5155 100.477 57.3253C100.568 57.1351 100.703 56.9755 100.883 56.8465C101.063 56.7175 101.278 56.6114 101.53 56.5281C101.781 56.4448 102.059 56.3753 102.364 56.3198C102.667 56.2643 102.923 56.2163 103.131 56.1758C103.342 56.1351 103.502 56.0809 103.609 56.013C103.717 55.9451 103.766 55.8426 103.759 55.7056L103.751 55.5779C103.73 55.2069 103.602 54.9214 103.367 54.7215C103.135 54.5192 102.812 54.43 102.399 54.4539C102.006 54.4766 101.691 54.5813 101.453 54.7682C101.217 54.955 101.056 55.1682 100.97 55.4079L100.359 55.2263C100.464 54.9214 100.621 54.674 100.828 54.4842C101.035 54.292 101.271 54.1491 101.536 54.0556C101.801 53.9596 102.071 53.9037 102.348 53.8877C102.556 53.8756 102.774 53.8903 103.001 53.9317C103.232 53.9729 103.447 54.0553 103.649 54.1788C103.85 54.3 104.018 54.4764 104.153 54.7081C104.287 54.9375 104.364 55.2342 104.386 55.5982L104.599 59.2958L103.968 59.3323L103.918 58.4708L103.879 58.4731C103.813 58.6382 103.71 58.8007 103.57 58.9605C103.43 59.1204 103.25 59.2553 103.031 59.3652C102.812 59.4751 102.551 59.5387 102.249 59.5562ZM102.301 58.9735C102.636 58.954 102.923 58.8628 103.16 58.6997C103.397 58.5366 103.575 58.3283 103.693 58.0748C103.813 57.8189 103.865 57.542 103.848 57.2442L103.802 56.4572C103.757 56.5048 103.681 56.5495 103.571 56.5914C103.465 56.6332 103.34 56.6724 103.198 56.7091C103.057 56.7433 102.917 56.7739 102.776 56.801C102.635 56.8281 102.509 56.8521 102.396 56.8728C102.091 56.9284 101.832 57.0027 101.619 57.0956C101.407 57.1885 101.246 57.3092 101.139 57.4577C101.031 57.6039 100.983 57.7869 100.996 58.0067C101.015 58.3375 101.148 58.5872 101.395 58.7555C101.642 58.9214 101.944 58.9941 102.301 58.9735ZM112.499 54.5741L111.93 54.7706C111.864 54.6108 111.775 54.4677 111.664 54.3414C111.552 54.2151 111.41 54.1177 111.238 54.0495C111.068 53.981 110.86 53.9539 110.614 53.9681C110.245 53.9895 109.948 54.0944 109.722 54.283C109.495 54.4715 109.39 54.7041 109.406 54.9806C109.42 55.2146 109.511 55.4002 109.68 55.5374C109.852 55.6722 110.109 55.7723 110.452 55.8379L111.286 55.9924C111.748 56.0771 112.1 56.2334 112.341 56.4614C112.584 56.6892 112.716 56.9851 112.737 57.3491C112.755 57.6563 112.686 57.9342 112.529 58.1828C112.373 58.4313 112.146 58.6329 111.849 58.7877C111.555 58.9399 111.208 59.0275 110.808 59.0506C110.276 59.0814 109.831 58.9874 109.472 58.7686C109.113 58.5475 108.872 58.2128 108.749 57.7647L109.347 57.5807C109.443 57.9 109.61 58.1358 109.846 58.2881C110.085 58.4403 110.391 58.5056 110.765 58.484C111.183 58.4598 111.512 58.3471 111.752 58.1459C111.992 57.9423 112.103 57.6988 112.087 57.4151C112.074 57.1953 111.99 57.0152 111.835 56.8748C111.68 56.732 111.451 56.6338 111.149 56.5801L110.247 56.4188C109.768 56.3327 109.408 56.1733 109.166 55.9406C108.925 55.708 108.794 55.4096 108.773 55.0457C108.756 54.7455 108.822 54.4772 108.972 54.2409C109.122 54.0022 109.336 53.8096 109.615 53.6631C109.893 53.5166 110.215 53.4327 110.582 53.4115C111.08 53.3827 111.485 53.4731 111.796 53.6828C112.109 53.89 112.343 54.1871 112.499 54.5741ZM117.544 56.4593L117.349 53.0949L117.98 53.0584L118.295 58.5038L117.664 58.5403L117.612 57.6363L117.562 57.6392C117.451 57.9254 117.262 58.1699 116.997 58.3726C116.731 58.573 116.398 58.6847 115.999 58.7078C115.651 58.7279 115.338 58.6701 115.06 58.5344C114.782 58.3964 114.557 58.1841 114.387 57.8975C114.216 57.611 114.118 57.2526 114.093 56.8225L113.889 53.295L114.52 53.2585L114.722 56.747C114.747 57.1724 114.892 57.5079 115.157 57.7533C115.423 57.9965 115.752 58.1067 116.144 58.084C116.39 58.0698 116.623 57.997 116.843 57.8658C117.063 57.7345 117.24 57.5511 117.373 57.3158C117.506 57.078 117.563 56.7925 117.544 56.4593ZM120.084 60.4493L119.651 52.9618L120.264 52.9263L120.325 53.9651L120.399 53.9608C120.465 53.7933 120.56 53.6207 120.682 53.4428C120.804 53.2627 120.971 53.1072 121.182 52.9764C121.395 52.8456 121.668 52.7705 122.001 52.7512C122.45 52.7252 122.849 52.8207 123.198 53.0377C123.55 53.2521 123.831 53.5655 124.042 53.9777C124.256 54.3875 124.379 54.8724 124.411 55.4326C124.444 55.9951 124.378 56.4933 124.213 56.9273C124.051 57.3612 123.807 57.7061 123.483 57.962C123.161 58.2177 122.778 58.3585 122.334 58.3841C122.005 58.4031 121.726 58.36 121.497 58.2547C121.271 58.1492 121.084 58.0142 120.937 57.8495C120.792 57.6824 120.678 57.5183 120.595 57.3571L120.539 57.3604L120.715 60.4128L120.084 60.4493ZM120.433 55.652C120.458 56.0916 120.546 56.4778 120.695 56.8106C120.847 57.1409 121.052 57.3959 121.309 57.5755C121.568 57.7526 121.874 57.8309 122.226 57.8106C122.587 57.7897 122.887 57.6728 123.123 57.4599C123.362 57.2445 123.537 56.9629 123.647 56.615C123.76 56.267 123.804 55.8815 123.779 55.4584C123.755 55.0401 123.668 54.6669 123.519 54.3388C123.372 54.0106 123.168 53.7556 122.906 53.5739C122.644 53.3899 122.331 53.3084 121.967 53.3294C121.612 53.3499 121.316 53.4631 121.079 53.6689C120.842 53.8723 120.668 54.1456 120.558 54.4887C120.449 54.8293 120.408 55.2171 120.433 55.652ZM128.16 58.0472C127.652 58.0766 127.206 57.9838 126.821 57.769C126.436 57.5517 126.13 57.2386 125.902 56.8297C125.677 56.4182 125.548 55.9371 125.516 55.3865C125.485 54.8381 125.557 54.3454 125.733 53.9084C125.912 53.4689 126.173 53.1182 126.516 52.8565C126.861 52.5923 127.268 52.4466 127.739 52.4194C128.034 52.4023 128.322 52.4402 128.603 52.5331C128.883 52.6236 129.138 52.7736 129.369 52.9832C129.601 53.1903 129.791 53.458 129.938 53.7862C130.085 54.1121 130.171 54.5031 130.198 54.9592L130.216 55.2712L125.962 55.5172L125.929 54.9606L129.538 54.7519C129.518 54.4021 129.429 54.0919 129.271 53.8212C129.115 53.548 128.908 53.3371 128.648 53.1885C128.39 53.0398 128.098 52.9749 127.772 52.9937C127.427 53.0137 127.129 53.1234 126.877 53.3229C126.625 53.5225 126.434 53.7778 126.302 54.0889C126.173 54.3999 126.118 54.7351 126.136 55.0945L126.156 55.4278C126.181 55.8603 126.277 56.2341 126.445 56.5493C126.614 56.862 126.843 57.099 127.129 57.2602C127.416 57.4215 127.749 57.4912 128.127 57.4693C128.385 57.4545 128.608 57.4012 128.797 57.3097C128.989 57.218 129.147 57.1009 129.271 56.9585C129.398 56.8137 129.491 56.6577 129.55 56.4907L130.16 56.651C130.091 56.8851 129.967 57.1044 129.789 57.3092C129.614 57.5138 129.389 57.6833 129.115 57.8177C128.842 57.9497 128.524 58.0262 128.16 58.0472ZM131.753 57.7256L131.438 52.2802L132.051 52.2447L132.1 53.0814L132.146 53.0787C132.239 52.7983 132.415 52.5664 132.675 52.383C132.937 52.1971 133.239 52.0942 133.582 52.0744C133.634 52.0714 133.692 52.0692 133.756 52.0679C133.82 52.0666 133.873 52.0659 133.916 52.0658L133.953 52.7075C133.924 52.7044 133.874 52.7002 133.803 52.6948C133.731 52.6894 133.654 52.6892 133.571 52.6939C133.288 52.7103 133.038 52.7852 132.823 52.9186C132.61 53.0495 132.446 53.2238 132.331 53.4415C132.215 53.6593 132.165 53.9029 132.181 54.1723L132.384 57.6891L131.753 57.7256ZM135.43 59.5619L134.997 52.0744L135.61 52.0389L135.67 53.0777L135.744 53.0734C135.811 52.9059 135.905 52.7333 136.028 52.5555C136.15 52.3753 136.316 52.2198 136.527 52.0891C136.74 51.9582 137.013 51.8831 137.346 51.8638C137.795 51.8379 138.195 51.9334 138.544 52.1503C138.895 52.3647 139.177 52.6781 139.388 53.0904C139.601 53.5001 139.724 53.9851 139.757 54.5452C139.789 55.1077 139.723 55.606 139.558 56.04C139.396 56.4738 139.153 56.8187 138.829 57.0746C138.507 57.3304 138.124 57.4711 137.679 57.4968C137.351 57.5158 137.072 57.4726 136.843 57.3673C136.616 57.2618 136.429 57.1268 136.282 56.9622C136.138 56.7951 136.024 56.6309 135.941 56.4697L135.884 56.473L136.061 59.5254L135.43 59.5619ZM135.778 54.7646C135.804 55.2042 135.891 55.5904 136.041 55.9232C136.193 56.2536 136.397 56.5085 136.654 56.6881C136.913 56.8652 137.219 56.9436 137.571 56.9232C137.933 56.9023 138.232 56.7854 138.469 56.5725C138.708 56.3571 138.882 56.0755 138.993 55.7277C139.105 55.3797 139.149 54.9941 139.125 54.5711C139.101 54.1527 139.014 53.7795 138.865 53.4514C138.718 53.1232 138.513 52.8682 138.251 52.6866C137.989 52.5025 137.676 52.421 137.312 52.4421C136.958 52.4626 136.662 52.5757 136.425 52.7815C136.188 52.9849 136.014 53.2582 135.903 53.6013C135.795 53.942 135.753 54.3297 135.778 54.7646ZM143.421 57.1648C142.95 57.192 142.527 57.0967 142.152 56.8789C141.779 56.6609 141.479 56.3475 141.251 55.9385C141.023 55.5272 140.894 55.0451 140.862 54.492C140.829 53.9342 140.903 53.4379 141.081 53.0031C141.26 52.5659 141.522 52.2188 141.868 51.9617C142.216 51.702 142.625 51.5586 143.095 51.5314C143.565 51.5042 143.987 51.5996 144.36 51.8175C144.733 52.0355 145.033 52.3501 145.261 52.7614C145.491 53.1726 145.622 53.657 145.655 54.2148C145.687 54.7679 145.613 55.2618 145.434 55.6966C145.256 56.1291 144.992 56.4751 144.644 56.7347C144.299 56.9942 143.891 57.1376 143.421 57.1648ZM143.387 56.5869C143.765 56.565 144.08 56.4449 144.33 56.2265C144.581 56.008 144.764 55.7259 144.879 55.3802C144.997 55.0343 145.044 54.658 145.02 54.2515C144.997 53.845 144.906 53.4755 144.75 53.1431C144.595 52.8106 144.381 52.5491 144.107 52.3586C143.832 52.1682 143.506 52.0839 143.128 52.1057C142.752 52.1275 142.438 52.2488 142.185 52.4697C141.935 52.6905 141.751 52.9751 141.633 53.3233C141.518 53.6715 141.473 54.0488 141.496 54.4553C141.52 54.8618 141.609 55.2302 141.763 55.5604C141.919 55.8904 142.135 56.1495 142.409 56.3376C142.683 56.5257 143.009 56.6088 143.387 56.5869ZM148.22 56.7734L146.26 51.4231L146.926 51.3846L148.476 55.8017L148.523 55.7991L149.55 51.2329L150.22 51.1941L151.755 55.6015L151.805 55.5986L152.836 51.0428L153.503 51.0043L152.173 56.5449L151.52 56.5826L149.972 52.1938L149.904 52.1977L148.872 56.7357L148.22 56.7734ZM157.067 56.3756C156.559 56.405 156.112 56.3123 155.728 56.0974C155.343 55.8801 155.037 55.567 154.809 55.1581C154.584 54.7466 154.455 54.2656 154.423 53.7149C154.392 53.1666 154.464 52.6739 154.64 52.2368C154.819 51.7973 155.079 51.4467 155.422 51.185C155.768 50.9207 156.175 50.775 156.646 50.7478C156.941 50.7308 157.229 50.7686 157.509 50.8615C157.79 50.952 158.045 51.1021 158.275 51.3117C158.508 51.5187 158.698 51.7864 158.845 52.1146C158.992 52.4405 159.078 52.8315 159.105 53.2877L159.123 53.5997L154.868 53.8457L154.836 53.2891L158.445 53.0804C158.425 52.7306 158.336 52.4203 158.178 52.1496C158.022 51.8765 157.814 51.6656 157.554 51.517C157.297 51.3682 157.005 51.3033 156.679 51.3222C156.334 51.3421 156.035 51.4519 155.784 51.6514C155.532 51.8509 155.34 52.1062 155.209 52.4174C155.08 52.7284 155.025 53.0636 155.043 53.4229L155.062 53.7562C155.087 54.1887 155.184 54.5626 155.351 54.8777C155.521 55.1904 155.749 55.4274 156.036 55.5887C156.323 55.7499 156.656 55.8196 157.034 55.7978C157.291 55.7829 157.515 55.7297 157.704 55.6381C157.895 55.5464 158.053 55.4293 158.178 55.287C158.305 55.1421 158.398 54.9861 158.457 54.8191L159.067 54.9794C158.998 55.2135 158.874 55.4329 158.696 55.6376C158.521 55.8422 158.296 56.0117 158.021 56.1462C157.749 56.2781 157.431 56.3546 157.067 56.3756ZM160.66 56.0541L160.345 50.6086L160.958 50.5732L161.007 51.4098L161.053 51.4072C161.146 51.1267 161.322 50.8948 161.582 50.7114C161.844 50.5255 162.146 50.4227 162.489 50.4028C162.541 50.3998 162.599 50.3977 162.663 50.3963C162.726 50.395 162.78 50.3943 162.822 50.3942L162.86 51.0359C162.831 51.0328 162.781 51.0286 162.709 51.0232C162.638 51.0179 162.561 51.0176 162.478 51.0224C162.195 51.0388 161.945 51.1137 161.73 51.2471C161.517 51.3779 161.353 51.5522 161.237 51.77C161.122 51.9877 161.072 52.2313 161.087 52.5007L161.291 56.0176L160.66 56.0541ZM168.554 55.7221C168.226 55.7411 167.922 55.6946 167.643 55.5827C167.363 55.4684 167.136 55.2942 166.961 55.0601C166.787 54.8236 166.689 54.5304 166.669 54.1806C166.653 53.9112 166.691 53.6813 166.782 53.4911C166.873 53.3009 167.008 53.1413 167.188 53.0123C167.368 52.8833 167.584 52.7772 167.835 52.6939C168.086 52.6106 168.364 52.5412 168.669 52.4856C168.972 52.4301 169.228 52.3822 169.437 52.3416C169.648 52.301 169.807 52.2467 169.914 52.1788C170.022 52.111 170.072 52.0085 170.064 51.8714L170.056 51.7438C170.035 51.3727 169.907 51.0872 169.673 50.8874C169.44 50.685 169.117 50.5958 168.704 50.6197C168.311 50.6424 167.996 50.7472 167.758 50.9341C167.522 51.1208 167.361 51.334 167.276 51.5738L166.664 51.3921C166.77 51.0872 166.926 50.8399 167.133 50.65C167.34 50.4578 167.576 50.315 167.841 50.2214C168.106 50.1254 168.377 50.0695 168.653 50.0535C168.861 50.0415 169.079 50.0561 169.307 50.0975C169.537 50.1387 169.753 50.2211 169.954 50.3446C170.156 50.4658 170.324 50.6422 170.458 50.874C170.592 51.1033 170.67 51.4 170.691 51.764L170.905 55.4617L170.274 55.4981L170.224 54.6367L170.185 54.6389C170.118 54.804 170.015 54.9665 169.875 55.1264C169.735 55.2862 169.555 55.4211 169.336 55.531C169.117 55.6409 168.857 55.7046 168.554 55.7221ZM168.606 55.1393C168.941 55.1199 169.228 55.0286 169.465 54.8655C169.702 54.7024 169.88 54.4941 169.998 54.2406C170.118 53.9847 170.17 53.7078 170.153 53.41L170.107 52.623C170.063 52.6706 169.986 52.7154 169.877 52.7572C169.77 52.799 169.645 52.8382 169.503 52.8749C169.363 52.9091 169.222 52.9398 169.081 52.9669C168.941 52.994 168.814 53.0179 168.701 53.0386C168.396 53.0942 168.137 53.1685 167.925 53.2614C167.712 53.3543 167.552 53.4751 167.444 53.6236C167.336 53.7697 167.289 53.9527 167.301 54.1725C167.321 54.5034 167.454 54.753 167.7 54.9213C167.947 55.0873 168.249 55.1599 168.606 55.1393ZM173.017 51.9247L173.214 55.3281L172.583 55.3646L172.268 49.9191L172.882 49.8837L172.931 50.7381L172.988 50.7348C173.099 50.4485 173.285 50.2137 173.545 50.0303C173.807 49.8444 174.137 49.7399 174.537 49.7168C174.903 49.6956 175.229 49.7539 175.514 49.8915C175.802 50.0266 176.031 50.2375 176.202 50.524C176.375 50.8104 176.474 51.1687 176.499 51.5989L176.703 55.1264L176.072 55.1629L175.87 51.6744C175.844 51.2277 175.698 50.8816 175.433 50.6361C175.17 50.3904 174.829 50.2797 174.411 50.3039C174.125 50.3205 173.874 50.3966 173.659 50.5323C173.444 50.6681 173.278 50.8555 173.162 51.0947C173.047 51.3313 172.999 51.608 173.017 51.9247ZM180.332 55.0303C179.885 55.0562 179.487 54.9606 179.138 54.7437C178.788 54.5267 178.507 54.2122 178.293 53.8001C178.082 53.3878 177.96 52.9004 177.928 52.3379C177.896 51.7778 177.961 51.282 178.123 50.8505C178.288 50.4165 178.532 50.0727 178.856 49.8192C179.181 49.5633 179.567 49.4224 180.017 49.3964C180.347 49.3773 180.626 49.4204 180.853 49.5259C181.079 49.629 181.264 49.763 181.406 49.9279C181.548 50.0927 181.661 50.2546 181.744 50.4134L181.8 50.4102L181.635 47.5563L182.27 47.5196L182.69 54.7802L182.073 54.8158L182.014 53.8054L181.94 53.8098C181.876 53.9794 181.782 54.1556 181.658 54.3383C181.533 54.5186 181.363 54.6743 181.147 54.8053C180.934 54.9362 180.663 55.0112 180.332 55.0303ZM180.373 54.4482C180.725 54.4278 181.019 54.3147 181.257 54.1089C181.494 53.9008 181.667 53.624 181.778 53.2785C181.89 52.9305 181.934 52.5367 181.909 52.0971C181.883 51.6622 181.796 51.2819 181.647 50.9561C181.498 50.628 181.293 50.3766 181.034 50.2019C180.775 50.0248 180.468 49.9465 180.114 49.967C179.75 49.9881 179.448 50.1051 179.209 50.3181C178.972 50.5286 178.799 50.8055 178.688 51.1486C178.58 51.4916 178.538 51.8723 178.562 52.2906C178.586 52.7137 178.673 53.0916 178.823 53.4244C178.973 53.7572 179.177 54.0169 179.437 54.2035C179.699 54.3875 180.011 54.4691 180.373 54.4482ZM189.221 48.9388L189.252 49.4884L186.576 49.6431L186.544 49.0936L189.221 48.9388ZM187.696 54.4907L187.335 48.2476C187.318 47.9545 187.371 47.7036 187.494 47.4949C187.619 47.2861 187.789 47.1234 188.003 47.0066C188.216 46.8899 188.446 46.8245 188.692 46.8103C188.858 46.8007 188.995 46.807 189.106 46.829C189.218 46.8486 189.307 46.8696 189.373 46.8919L189.22 47.4556C189.172 47.4441 189.113 47.4309 189.044 47.416C188.974 47.401 188.887 47.3966 188.783 47.4026C188.509 47.4184 188.302 47.5075 188.162 47.6697C188.022 47.832 187.96 48.0561 187.977 48.3421L188.327 54.4542L187.696 54.4907ZM190.802 54.3111L190.487 48.8656L191.122 48.8289L191.437 54.2744L190.802 54.3111ZM190.756 47.911C190.626 47.9185 190.512 47.8812 190.415 47.7991C190.318 47.7146 190.265 47.6098 190.258 47.4845C190.251 47.3592 190.291 47.2502 190.378 47.1574C190.465 47.0623 190.573 47.011 190.703 47.0034C190.833 46.9959 190.947 47.0344 191.044 47.1189C191.141 47.201 191.194 47.3047 191.201 47.43C191.208 47.5552 191.168 47.6654 191.081 47.7606C190.994 47.8534 190.886 47.9035 190.756 47.911ZM193.54 50.738L193.737 54.1414L193.106 54.1779L192.791 48.7324L193.404 48.6969L193.453 49.5513L193.51 49.5481C193.622 49.2618 193.807 49.027 194.067 48.8436C194.329 48.6577 194.66 48.5532 195.059 48.5301C195.425 48.5089 195.751 48.5671 196.037 48.7048C196.324 48.8399 196.554 49.0508 196.724 49.3373C196.897 49.6237 196.996 49.982 197.021 50.4122L197.225 53.9396L196.594 53.9761L196.392 50.4876C196.367 50.0409 196.221 49.6948 195.955 49.4494C195.692 49.2037 195.351 49.093 194.933 49.1172C194.647 49.1337 194.396 49.2099 194.181 49.3456C193.966 49.4814 193.801 49.6688 193.684 49.9079C193.57 50.1446 193.522 50.4213 193.54 50.738ZM198.894 53.8431L198.579 48.3977L199.214 48.361L199.529 53.8064L198.894 53.8431ZM198.848 47.4431C198.718 47.4506 198.604 47.4133 198.507 47.3312C198.409 47.2467 198.357 47.1418 198.35 47.0166C198.343 46.8913 198.383 46.7823 198.47 46.6895C198.557 46.5944 198.665 46.543 198.795 46.5355C198.925 46.528 199.039 46.5665 199.136 46.651C199.233 46.7331 199.286 46.8368 199.293 46.962C199.3 47.0873 199.26 47.1975 199.173 47.2926C199.086 47.3854 198.978 47.4356 198.848 47.4431ZM204.61 49.2477L204.042 49.4441C203.976 49.2843 203.887 49.1413 203.775 49.0149C203.664 48.8886 203.522 48.7913 203.349 48.723C203.179 48.6546 202.971 48.6275 202.726 48.6417C202.357 48.663 202.06 48.7679 201.833 48.9565C201.607 49.1451 201.502 49.3776 201.518 49.6541C201.531 49.8881 201.623 50.0737 201.792 50.211C201.963 50.3457 202.221 50.4459 202.563 50.5114L203.398 50.6659C203.86 50.7506 204.212 50.9069 204.453 51.1349C204.696 51.3627 204.828 51.6586 204.849 52.0226C204.867 52.3298 204.798 52.6077 204.641 52.8563C204.485 53.1048 204.258 53.3065 203.961 53.4612C203.667 53.6134 203.319 53.7011 202.92 53.7242C202.388 53.7549 201.943 53.6609 201.584 53.4421C201.225 53.221 200.984 52.8864 200.861 52.4382L201.458 52.2542C201.555 52.5735 201.722 52.8093 201.958 52.9616C202.197 53.1138 202.503 53.1791 202.877 53.1575C203.295 53.1333 203.624 53.0206 203.864 52.8194C204.103 52.6159 204.215 52.3723 204.198 52.0887C204.186 51.8689 204.102 51.6888 203.947 51.5483C203.791 51.4055 203.563 51.3073 203.261 51.2536L202.359 51.0924C201.879 51.0063 201.519 50.8469 201.278 50.6142C201.037 50.3815 200.906 50.0832 200.885 49.7192C200.868 49.419 200.934 49.1508 201.084 48.9145C201.234 48.6758 201.448 48.4832 201.726 48.3366C202.005 48.1901 202.327 48.1063 202.694 48.0851C203.192 48.0562 203.597 48.1466 203.908 48.3563C204.221 48.5635 204.455 48.8606 204.61 49.2477ZM206.75 49.9741L206.947 53.3775L206.316 53.414L205.896 46.1534L206.527 46.1169L206.682 48.7864L206.738 48.7831C206.85 48.4945 207.034 48.2586 207.291 48.0753C207.551 47.8919 207.887 47.7883 208.298 47.7646C208.667 47.7432 208.995 47.8001 209.282 47.9353C209.57 48.0704 209.8 48.2812 209.973 48.5676C210.146 48.854 210.246 49.2135 210.271 49.646L210.474 53.1735L209.84 53.2102L209.638 49.7217C209.612 49.2726 209.467 48.9265 209.201 48.6834C208.938 48.4378 208.595 48.3272 208.172 48.3516C207.881 48.3685 207.626 48.4449 207.406 48.5809C207.186 48.7169 207.017 48.9046 206.898 49.1438C206.781 49.3806 206.732 49.6574 206.75 49.9741ZM30.491 74.1443L30.5227 74.6938L27.9241 74.8441L27.8923 74.2946L30.491 74.1443ZM28.6287 72.943L29.2633 72.9063L29.5715 78.2347C29.5846 78.4616 29.6339 78.6378 29.7194 78.7633C29.8048 78.8864 29.9117 78.9715 30.0401 79.0187C30.1683 79.0634 30.3034 79.0817 30.4452 79.0735C30.5279 79.0687 30.5985 79.0599 30.6571 79.047C30.7155 79.0318 30.7668 79.0169 30.811 79.0025L30.9787 79.5655C30.9187 79.5927 30.8443 79.6184 30.7555 79.6425C30.667 79.6689 30.5565 79.686 30.4241 79.6936C30.1925 79.707 29.9662 79.6691 29.7453 79.5799C29.5267 79.4906 29.343 79.3495 29.1943 79.1565C29.0456 78.9635 28.9627 78.7181 28.9455 78.4203L28.6287 72.943ZM32.7902 76.0602L32.987 79.4636L32.356 79.5001L31.9361 72.2395L32.5672 72.203L32.7216 74.8726L32.7783 74.8693C32.8897 74.5807 33.074 74.3447 33.3314 74.1615C33.5911 73.9781 33.9266 73.8745 34.3379 73.8507C34.7066 73.8294 35.0347 73.8863 35.3224 74.0214C35.61 74.1566 35.8404 74.3673 36.0134 74.6538C36.1865 74.9402 36.2855 75.2996 36.3106 75.7322L36.5145 79.2596L35.8799 79.2963L35.6782 75.8078C35.6522 75.3588 35.5066 75.0127 35.2411 74.7696C34.9779 74.5239 34.6348 74.4133 34.2117 74.4378C33.921 74.4546 33.6658 74.531 33.446 74.6671C33.2262 74.8031 33.0568 74.9907 32.9379 75.23C32.8211 75.4668 32.7719 75.7435 32.7902 76.0602ZM40.3845 79.1497C39.8763 79.1791 39.4299 79.0863 39.0452 78.8714C38.6603 78.6542 38.3541 78.3411 38.1265 77.9321C37.9011 77.5207 37.7725 77.0396 37.7407 76.4889C37.709 75.9406 37.7813 75.4479 37.9576 75.0109C38.1361 74.5713 38.3968 74.2207 38.7398 73.959C39.0849 73.6948 39.4927 73.5491 39.963 73.5219C40.2585 73.5048 40.5464 73.5427 40.8268 73.6355C41.1072 73.726 41.3625 73.8761 41.5927 74.0857C41.8253 74.2928 42.015 74.5604 42.1621 74.8887C42.309 75.2145 42.3956 75.6056 42.422 76.0617L42.44 76.3737L38.1858 76.6197L38.1536 76.0631L41.7626 75.8544C41.7424 75.5046 41.6533 75.1944 41.4954 74.9237C41.3397 74.6505 41.1318 74.4396 40.8719 74.291C40.6143 74.1423 40.3224 74.0773 39.9962 74.0962C39.6512 74.1161 39.3528 74.2259 39.1011 74.4254C38.8494 74.6249 38.6579 74.8803 38.5265 75.1914C38.3974 75.5024 38.3421 75.8376 38.3605 76.197L38.3798 76.5302C38.4048 76.9627 38.5011 77.3366 38.6687 77.6518C38.8386 77.9645 39.0669 78.2014 39.3537 78.3627C39.6405 78.524 39.9729 78.5937 40.3511 78.5718C40.6087 78.5569 40.8321 78.5037 41.0212 78.4121C41.2128 78.3204 41.3708 78.2034 41.4954 78.061C41.6222 77.9161 41.7151 77.7602 41.7742 77.5931L42.3846 77.7535C42.3152 77.9875 42.1915 78.2069 42.0136 78.4116C41.8381 78.6162 41.6132 78.7858 41.3387 78.9202C41.0666 79.0521 40.7485 79.1286 40.3845 79.1497ZM46.785 78.6657L46.4701 73.2203L47.0835 73.1848L47.1318 74.0215L47.1886 74.0182C47.281 73.7307 47.449 73.4992 47.6926 73.3239C47.9385 73.1461 48.2398 73.0468 48.5967 73.0262C48.9725 73.0044 49.2861 73.0752 49.5374 73.2386C49.7909 73.3994 49.9869 73.6299 50.1252 73.9302L50.1713 73.9275C50.2767 73.6179 50.4625 73.3665 50.7288 73.1732C50.9973 72.9775 51.3301 72.8681 51.7271 72.8452C52.2329 72.8159 52.6416 72.9523 52.9531 73.2545C53.2645 73.5542 53.4378 74.009 53.4731 74.6188L53.684 78.2668L53.053 78.3033L52.842 74.6553C52.8171 74.2251 52.6886 73.9088 52.4563 73.7065C52.2241 73.5041 51.9284 73.4133 51.5691 73.4341C51.1531 73.4581 50.8403 73.6043 50.6305 73.8725C50.4207 74.1408 50.3272 74.4711 50.3499 74.8634L50.5571 78.4476L49.9119 78.4849L49.6977 74.7802C49.6763 74.4115 49.5563 74.1196 49.3376 73.9046C49.1188 73.6896 48.8227 73.5929 48.4493 73.6145C48.1988 73.629 47.9766 73.7035 47.7828 73.838C47.5914 73.9724 47.4442 74.1528 47.3411 74.3793C47.2402 74.6033 47.1979 74.8571 47.2143 75.1408L47.4161 78.6292L46.785 78.6657ZM55.3618 78.1698L55.0469 72.7243L55.6815 72.6876L55.9964 78.1331L55.3618 78.1698ZM55.3154 71.7697C55.1854 71.7773 55.0718 71.74 54.9745 71.6578C54.8772 71.5734 54.8249 71.4685 54.8176 71.3432C54.8104 71.2179 54.8503 71.1089 54.9374 71.0161C55.0244 70.921 55.1329 70.8697 55.2629 70.8622C55.3929 70.8546 55.5066 70.8931 55.6039 70.9776C55.7012 71.0597 55.7534 71.1634 55.7607 71.2887C55.7679 71.4139 55.728 71.5241 55.641 71.6193C55.5539 71.7121 55.4454 71.7622 55.3154 71.7697ZM61.0781 73.5743L60.5097 73.7708C60.4435 73.611 60.3546 73.4679 60.243 73.3416C60.1314 73.2152 59.9894 73.1179 59.8171 73.0496C59.6471 72.9812 59.4392 72.9541 59.1934 72.9683C58.8247 72.9896 58.5273 73.0946 58.301 73.2831C58.0748 73.4717 57.9697 73.7042 57.9857 73.9808C57.9992 74.2148 58.0905 74.4004 58.2597 74.5376C58.4311 74.6724 58.6883 74.7725 59.0312 74.838L59.8654 74.9926C60.328 75.0773 60.6797 75.2336 60.9205 75.4615C61.1637 75.6894 61.2958 75.9853 61.3169 76.3492C61.3346 76.6565 61.2653 76.9344 61.109 77.1829C60.9526 77.4315 60.7259 77.6331 60.429 77.7878C60.1342 77.94 59.7872 78.0277 59.3877 78.0508C58.8559 78.0815 58.4106 77.9875 58.0517 77.7688C57.6927 77.5477 57.4517 77.213 57.3285 76.7648L57.9261 76.5809C58.0229 76.9002 58.1894 77.136 58.4259 77.2883C58.6647 77.4405 58.9709 77.5058 59.3443 77.4842C59.7626 77.46 60.0917 77.3473 60.3314 77.1461C60.571 76.9425 60.6826 76.6989 60.6662 76.4153C60.6535 76.1955 60.5695 76.0154 60.4144 75.875C60.2591 75.7322 60.0305 75.6339 59.7286 75.5803L58.8265 75.419C58.3472 75.3329 57.987 75.1735 57.7459 74.9408C57.5048 74.7081 57.3737 74.4098 57.3527 74.0458C57.3353 73.7457 57.4016 73.4774 57.5516 73.2411C57.7014 73.0024 57.9156 72.8098 58.194 72.6633C58.4725 72.5168 58.7949 72.4329 59.1612 72.4117C59.6599 72.3829 60.0647 72.4733 60.3757 72.683C60.6888 72.8901 60.923 73.1872 61.0781 73.5743ZM66.1965 73.2783L65.6281 73.4748C65.5619 73.315 65.473 73.1719 65.3614 73.0456C65.2498 72.9193 65.1078 72.8219 64.9355 72.7537C64.7655 72.6852 64.5576 72.6581 64.3118 72.6723C63.9431 72.6937 63.6457 72.7986 63.4194 72.9872C63.1932 73.1757 63.0881 73.4083 63.1041 73.6848C63.1176 73.9188 63.2089 74.1044 63.3781 74.2416C63.5496 74.3764 63.8067 74.4765 64.1496 74.5421L64.9838 74.6966C65.4464 74.7813 65.7981 74.9376 66.0389 75.1656C66.2821 75.3934 66.4142 75.6893 66.4353 76.0533C66.453 76.3605 66.3837 76.6384 66.2274 76.887C66.071 77.1355 65.8443 77.3371 65.5474 77.4919C65.2526 77.6441 64.9056 77.7317 64.5061 77.7548C63.9743 77.7856 63.529 77.6916 63.1701 77.4728C62.8111 77.2517 62.5701 76.917 62.4469 76.4689L63.0445 76.2849C63.1413 76.6042 63.3079 76.84 63.5443 76.9923C63.7831 77.1445 64.0893 77.2098 64.4627 77.1882C64.881 77.164 65.2101 77.0513 65.4498 76.8501C65.6894 76.6465 65.801 76.403 65.7846 76.1193C65.7719 75.8995 65.6879 75.7194 65.5328 75.579C65.3775 75.4362 65.1489 75.338 64.847 75.2843L63.9449 75.123C63.4656 75.0369 63.1054 74.8775 62.8643 74.6448C62.6232 74.4122 62.4921 74.1138 62.4711 73.7499C62.4537 73.4497 62.52 73.1815 62.67 72.9451C62.8198 72.7064 63.034 72.5138 63.3124 72.3673C63.5909 72.2208 63.9133 72.1369 64.2796 72.1157C64.7783 72.0869 65.1831 72.1773 65.4941 72.387C65.8072 72.5942 66.0414 72.8913 66.1965 73.2783ZM67.9092 77.4442L67.5943 71.9988L68.2289 71.9621L68.5438 77.4075L67.9092 77.4442ZM67.8628 71.0442C67.7328 71.0517 67.6192 71.0144 67.5219 70.9323C67.4246 70.8478 67.3723 70.7429 67.365 70.6176C67.3578 70.4924 67.3977 70.3834 67.4848 70.2906C67.5718 70.1954 67.6803 70.1441 67.8103 70.1366C67.9403 70.1291 68.054 70.1676 68.1513 70.252C68.2486 70.3342 68.3008 70.4378 68.3081 70.5631C68.3153 70.6884 68.2754 70.7986 68.1884 70.8937C68.1013 70.9865 67.9928 71.0367 67.8628 71.0442ZM72.3357 77.3021C71.8654 77.3293 71.4425 77.234 71.0671 77.0162C70.6941 76.7982 70.3937 76.4848 70.1662 76.0758C69.9384 75.6645 69.8086 75.1823 69.7766 74.6293C69.7443 74.0715 69.8176 73.5752 69.9964 73.1404C70.1751 72.7032 70.4372 72.3561 70.7828 72.0989C71.1306 71.8393 71.5396 71.6959 72.01 71.6687C72.4803 71.6415 72.902 71.7369 73.2751 71.9548C73.6481 72.1728 73.9485 72.4874 74.1762 72.8987C74.4063 73.3099 74.5375 73.7943 74.5697 74.3521C74.6017 74.9052 74.5283 75.3991 74.3495 75.8339C74.1706 76.2664 73.9072 76.6124 73.5594 76.872C73.214 77.1315 72.8061 77.2749 72.3357 77.3021ZM72.3023 76.7242C72.6805 76.7023 72.9948 76.5822 73.2454 76.3637C73.496 76.1453 73.6789 75.8632 73.7941 75.5175C73.9116 75.1715 73.9586 74.7953 73.9351 74.3888C73.9116 73.9823 73.8215 73.6128 73.6647 73.2804C73.5103 72.9479 73.296 72.6864 73.0218 72.4959C72.7475 72.3055 72.4213 72.2212 72.0432 72.243C71.6674 72.2648 71.3531 72.3861 71.1003 72.607C70.8498 72.8278 70.6659 73.1124 70.5485 73.4606C70.4334 73.8088 70.3877 74.1861 70.4112 74.5926C70.4347 74.9991 70.5236 75.3675 70.6778 75.6977C70.8345 76.0277 71.0498 76.2868 71.3239 76.4749C71.598 76.663 71.9242 76.7461 72.3023 76.7242ZM76.5453 73.53L76.7421 76.9334L76.111 76.9699L75.7961 71.5245L76.4095 71.489L76.4589 72.3434L76.5156 72.3401C76.6271 72.0539 76.8127 71.819 77.0724 71.6356C77.3344 71.4498 77.6651 71.3453 78.0645 71.3222C78.4309 71.301 78.7567 71.3592 79.0421 71.4968C79.3298 71.632 79.559 71.8428 79.7297 72.1294C79.9027 72.4158 80.0017 72.7741 80.0266 73.2042L80.2306 76.7317L79.5995 76.7682L79.3978 73.2797C79.372 72.833 79.2263 72.4869 78.9607 72.2414C78.6975 71.9958 78.3567 71.8851 77.9384 71.9093C77.6524 71.9258 77.4019 72.0019 77.1868 72.1377C76.9718 72.2734 76.806 72.4609 76.6894 72.7C76.575 72.9367 76.527 73.2133 76.5453 73.53Z" fill="#2D2D2D"/>
<defs>
<filter id="filter0_di_101_3842" x="11.0275" y="27.1264" width="18.3187" height="18.1096" filterUnits="userSpaceOnUse" color-interpolation-filters="sRGB">
<feFlood flood-opacity="0" result="BackgroundImageFix"/>
<feColorMatrix in="SourceAlpha" type="matrix" values="0 0 0 0 0 0 0 0 0 0 0 0 0 0 0 0 0 0 127 0" result="hardAlpha"/>
<feOffset dy="4"/>
<feGaussianBlur stdDeviation="2"/>
<feComposite in2="hardAlpha" operator="out"/>
<feColorMatrix type="matrix" values="0 0 0 0 0 0 0 0 0 0 0 0 0 0 0 0 0 0 0.16 0"/>
<feBlend mode="normal" in2="BackgroundImageFix" result="effect1_dropShadow_101_3842"/>
<feBlend mode="normal" in="SourceGraphic" in2="effect1_dropShadow_101_3842" result="shape"/>
<feColorMatrix in="SourceAlpha" type="matrix" values="0 0 0 0 0 0 0 0 0 0 0 0 0 0 0 0 0 0 127 0" result="hardAlpha"/>
<feOffset/>
<feGaussianBlur stdDeviation="0.5"/>
<feComposite in2="hardAlpha" operator="arithmetic" k2="-1" k3="1"/>
<feColorMatrix type="matrix" values="0 0 0 0 0 0 0 0 0 0 0 0 0 0 0 0 0 0 0.1 0"/>
<feBlend mode="normal" in2="shape" result="effect2_innerShadow_101_3842"/>
</filter>
<radialGradient id="paint0_radial_101_3842" cx="0" cy="0" r="1" gradientUnits="userSpaceOnUse" gradientTransform="translate(20.5 30.5) rotate(118.072) scale(8.5 8.78042)">
<stop offset="0.0298427" stop-color="#FBFAEB"/>
<stop offset="1" stop-color="#D5C839"/>
</radialGradient>
<linearGradient id="paint1_linear_101_3842" x1="24.5" y1="23" x2="16.5" y2="38" gradientUnits="userSpaceOnUse">
<stop offset="0.0298427" stop-color="#FBFAEB"/>
<stop offset="1" stop-color="#D5C839"/>
</linearGradient>
</defs>
</svg>
